<?xml version="1.0" encoding="utf-8"?>
<!-- Generator: Adobe Illustrator 23.0.4, SVG Export Plug-In . SVG Version: 6.00 Build 0)  -->
<svg version="1.1" id="Layer_1" xmlns="http://www.w3.org/2000/svg" xmlns:xlink="http://www.w3.org/1999/xlink" x="0px" y="0px"
	 viewBox="0 0 1168 475.8" style="enable-background:new 0 0 1168 475.8;" xml:space="preserve">
<style type="text/css">
	.st0{fill:#666666;stroke:#000000;stroke-width:5;stroke-miterlimit:10;}
	.st1{fill:#008BF8;}
	.st2{opacity:0.34;enable-background:new    ;}
	.st3{fill:#B3B3B3;stroke:#000000;stroke-width:3;stroke-linecap:round;stroke-linejoin:round;}
	.st4{fill:#FFFFFF;}
	.st5{fill:none;stroke:#000000;stroke-width:5;stroke-linecap:round;stroke-linejoin:round;stroke-dasharray:18.69,18.69;}
	.st6{fill:#4D4D4D;stroke:#000000;stroke-width:5;stroke-linecap:round;stroke-linejoin:round;}
	.st7{fill:none;stroke:#000000;stroke-width:5;stroke-linecap:round;stroke-linejoin:round;}
	.st8{opacity:0.29;enable-background:new    ;}
	.st9{opacity:0.35;fill:#FFFFFF;enable-background:new    ;}
	.st10{fill:none;stroke:#000000;stroke-width:5;stroke-miterlimit:10;}
	.st11{fill:#FFFFFF;stroke:#000000;stroke-width:5;stroke-linecap:round;stroke-linejoin:round;}
	.st12{opacity:0.28;enable-background:new    ;}
	.st13{fill:#D9E021;stroke:#000000;stroke-width:3;stroke-linecap:round;stroke-linejoin:round;}
	.st14{fill:#CCCCCC;}
	.st15{fill:#FFFFFF;stroke:#000000;stroke-width:3;stroke-linecap:round;stroke-linejoin:round;}
	.st16{fill:#808080;}
	.st17{fill:none;stroke:#000000;stroke-width:3;stroke-linecap:round;stroke-linejoin:round;}
	.st18{opacity:0.54;fill:#FFFFFF;enable-background:new    ;}
	.st19{fill:#999999;stroke:#000000;stroke-width:3;stroke-linecap:round;stroke-linejoin:round;}
	.st20{opacity:4.000000e-02;enable-background:new    ;}
	.st21{fill:#FFFFFF;stroke:#000000;stroke-width:2;stroke-miterlimit:10;}
	.st22{fill:#008BF8;stroke:#000000;stroke-width:5;stroke-miterlimit:10;}
	.st23{opacity:0.15;stroke:#000000;stroke-width:5;stroke-miterlimit:10;enable-background:new    ;}
	.st24{fill:#476735;}
</style>
<g id="BLAUW">
	<path class="st0" d="M732.7,357.4h239.9l-8.2-44.6l-20.8-34.1l-21.9-21.6l-49.7-6.5l-77.2,2.6l-24.2,12.4l-18.8,24.9L732.7,357.4z
		 M147.2,357.4H387l-8.2-44.6L358,278.7l-21.9-21.6l-49.7-6.5l-77.2,2.6L185,265.6l-18.8,24.9L147.2,357.4z"/>
	<path class="st1" d="M58.5,169.2l308.2,0.6l0.6,102.9l-2.7,5.6l-8,0.3L252.2,279l-13.3-0.6l-11.5,2.4l-9.5,1.8l-6.8,1.8l-9.8,5.3
		l-8.9,7.1l-6.5,8.9l-7.4,12.7l-7.4,15.1l-5.9,10.9l-4.7,5.9l-7.1,5.6l-99.7-0.3l0.6-28.1l-2.9-7.4l-6.8-0.9l-6.8-47.6h5.6
		c4.4-10,5.5-21,3.2-31.7l-1.8-4.4h-4.4l7.7-39.9L58.5,169.2L58.5,169.2z"/>
	<path class="st1" d="M1045.9,170.4l-679.3-0.6l0.6,102.9l-1.5,4.1l-4.4,1.2l-122.5,0.3l-25.4,4.7l-19.2,12.1l-10.6,15.1l-12.7,25.2
		l-7.4,11.5l-7.1,7.7l8,6.8l5.3,9.2l9.8-24.5l3.8-18.6l6.5-13.6l13.6-12.1l20.7-10l32.5-1.5l39.6,1.5L316,297l13.3,9.5l11.2,15.7
		l7.7,24.5l19.5,33.7l386.5-0.3l10.9-33.1l6.5-25.1l13.9-17.5l20.7-11.5l27.2-3l66.5,0.6l18.6,7.1l14.8,12.4l10.9,18l9.8,27.5
		l14.2,23.6l133.4,0.4l-5.9-35.5l-3-146.4l-5.6-27.5C1087.3,170.1,1045.5,170,1045.9,170.4L1045.9,170.4z"/>
	<path class="st2" d="M354.8,204.6l-39.5,0.7l1.6,5.5l39.9,0.3l1.7-4.3L354.8,204.6z"/>
	<path class="st3" d="M300.4,55.7h58.5l-0.1,22.5l-2.7,0.8l-56.4,0.1L300.4,55.7"/>
	<path d="M1087.4,172.6L933.3,171c-0.5,0-0.9-0.4-0.9-0.9s0.4-0.9,0.9-0.9l154.1-1.6c1.4,0,2.5,1.1,2.5,2.5
		S1088.7,172.6,1087.4,172.6z"/>
	<path d="M1054,53.6L820.2,52c-0.8,0-1.4-0.4-1.4-0.9s0.6-0.9,1.4-0.9l233.8-1.6c2.1,0,3.8,1.1,3.8,2.5S1056,53.6,1054,53.6z"/>
	<g id="wiel">
		<ellipse class="st4" cx="859.7" cy="384" rx="50.1" ry="50.5"/>
		<ellipse class="st5" cx="859.5" cy="383.8" rx="41.7" ry="41.7"/>
		<path class="st6" d="M859.5,306c-43,0-77.9,34.9-77.9,77.9s34.9,77.9,77.9,77.9s77.9-34.9,77.9-77.9
			C937.4,340.8,902.5,306,859.5,306z M859.5,433.7c-27.5,0-49.8-22.3-49.8-49.8s22.3-49.8,49.8-49.8s49.8,22.3,49.8,49.8
			S887,433.7,859.5,433.7z"/>
		<path class="st7" d="M875.7,390.6c1.6,3.7-0.1,7.9-3.8,9.5c-1.8,0.8-3.9,0.8-5.8,0c-0.4,0.9-0.9,1.7-1.6,2.5
			c-2.8,2.8-7.4,2.8-10.2,0c-0.7-0.7-1.3-1.5-1.6-2.5c-0.9,0.4-1.9,0.6-2.9,0.6c-4,0-7.2-3.2-7.2-7.2c0-1,0.2-2,0.6-2.9
			c-3.7-1.5-5.5-5.7-4.1-9.4c0.7-1.9,2.2-3.3,4.1-4.1c-0.4-0.9-0.6-1.9-0.6-2.9c0-4,3.2-7.2,7.2-7.2c1,0,2,0.2,2.9,0.6
			c4.3-5.7,12.4-6.8,18-2.5c3.7,2.8,5.6,7.4,5,12c3.7,1.5,5.5,5.7,4.1,9.4C879.1,388.4,877.6,389.9,875.7,390.6L875.7,390.6z"/>
		<path class="st8" d="M888.7,311.7c0,0,49.9,48.8,30,99.4s-92.3,41.5-109,32c0,0,73.5,58.1,122.9-30.4
			C932.6,412.7,961.6,349.1,888.7,311.7z"/>
		<path class="st9" d="M795.6,349.9c0,0-12.7,26.3-6.3,48S811,326.3,795.6,349.9z"/>
	</g>
	<g id="wiel-2">
		<ellipse class="st4" cx="263.5" cy="384" rx="50.1" ry="50.5"/>
		<circle class="st5" cx="263.2" cy="383.9" r="41.7"/>
		<path class="st6" d="M263.2,306c-43,0-77.9,34.9-77.9,77.9s34.9,77.9,77.9,77.9s77.9-34.9,77.9-77.9
			C341.1,340.8,306.2,306,263.2,306z M263.2,433.7c-27.5,0-49.8-22.3-49.8-49.8s22.3-49.8,49.8-49.8s49.8,22.3,49.8,49.8
			S290.7,433.7,263.2,433.7z"/>
		<path class="st7" d="M279.5,390.6c1.6,3.7-0.1,7.9-3.8,9.5c-1.8,0.8-3.9,0.8-5.8,0c-0.4,0.9-0.9,1.8-1.6,2.5
			c-1.4,1.4-3.2,2.1-5.1,2.1c-3,0-5.7-1.8-6.8-4.6c-3.7,1.6-7.9-0.1-9.5-3.8c-0.8-1.8-0.8-3.9,0-5.8c-3.7-1.5-5.6-5.7-4.1-9.4
			c0.7-1.9,2.2-3.4,4.1-4.1c-1.2-2.7-0.6-5.9,1.5-8s5.3-2.7,8-1.5c1.5-3.7,5.7-5.5,9.4-4.1c1.9,0.7,3.3,2.2,4.1,4.1
			c3.7-1.6,7.9,0.1,9.5,3.8c0.8,1.8,0.8,3.9,0,5.8c3.7,1.5,5.5,5.7,4.1,9.4C282.8,388.4,281.3,389.8,279.5,390.6L279.5,390.6z"/>
		<path class="st8" d="M292.5,311.7c0,0,49.9,48.8,30,99.4s-92.3,41.5-109,32c0,0,73.5,58.1,122.9-30.4
			C336.4,412.7,365.3,349.1,292.5,311.7z"/>
		<path class="st9" d="M199.4,349.9c0,0-12.7,26.3-6.3,48S214.8,326.3,199.4,349.9z"/>
	</g>
	<path class="st7" d="M166.2,381l7.2-17.5c3.1-7.8,5.3-15.8,6.7-24.1c4.9-27.9,29-48.3,57.3-48.4h51.7c26.8,0.1,50.2,18.5,56.5,44.5
		c2.6,11.2,7.1,21.8,13.2,31.5l8.4,13h339c0,0,47.8,0.1,47.8-0.1l5.9-17.3c3.1-7.8,5.3-15.8,6.7-24.1c4.8-27.9,29-48.3,57.3-48.4
		h66.7c26.9,0.1,50.2,18.5,56.5,44.6c2.6,11.2,7.1,21.8,13.2,31.5l8.4,13h88.4"/>
	<path class="st10" d="M38.9,270.1c0,0-0.9,40.2,9.8,63.3"/>
	<path d="M49.7,332h32c1.4,0,2.5,1.1,2.5,2.5s-1.1,2.5-2.5,2.5h-32c-1.4,0-2.5-1.1-2.5-2.5S48.4,332,49.7,332z"/>
	<path d="M84.2,334.5v32c0,1.4-1.1,2.5-2.5,2.5s-2.5-1.1-2.5-2.5v-32c0-1.4,1.1-2.5,2.5-2.5S84.2,333.1,84.2,334.5z"/>
	<path class="st11" d="M45.2,319c5,0,9,4,9,9v39c0,5-4,9-9,9s-9-4-9-9v-39C36.2,323,40.3,319,45.2,319z"/>
	<path class="st11" d="M36.7,355h115c9.1,0,16.5,7.4,16.5,16.5v4c0,9.1-7.4,16.5-16.5,16.5h-115c-9.1,0-16.5-7.4-16.5-16.5v-4
		C20.2,362.3,27.6,355,36.7,355z"/>
	<path class="st12" d="M118.7,354.5c0,0,36,6,35,23c-1.1,18-23,14-23,14h24l11-7l1-10l0.1-9.7l-7.1-8.3l-12-1l-16-1H118.7z
		 M54.1,353.5l-1.5-30.3l-7.9-2.7c4.8,10.5,4.8,22.5,0,33H54.1z"/>
	<g id="lamp">
		<path class="st4" d="M46.7,262.9c-0.5,3.3-1.6,4.6-2.6,7.8l-0.2,0.8l-0.1,0.3c-10.8,2.6-16.6-8.2-16.1-17l0.2-3.3
			c0.5-8.8,5.8-17.5,18-15v0.1l0.2,1.4c1.2,6.2,1.6,12.6,1.2,19"/>
		<path d="M47.1,263c-0.1,1.6-0.4,3.2-0.9,4.8c-0.2,0.8-0.4,1.5-0.6,2.2c-0.1,0.4-0.2,0.7-0.2,1.1c-0.1,0.4-0.1,0.8-0.2,1.2
			c-0.1,0.4-0.4,0.7-0.8,0.9l-0.2,0.1c-2.7,0.7-5.5,0.6-8.1-0.3c-2.6-1-4.8-2.7-6.4-5c-1.5-2.2-2.6-4.6-3.1-7.2
			c-0.3-1.3-0.5-2.6-0.5-3.9v-2l0.1-1.8c0.1-4.9,1.4-10.5,5.2-14.4c1.9-1.9,4.3-3.3,7-3.8c2.6-0.5,5.2-0.4,7.8,0.2
			c0.5,0.1,0.9,0.5,1.1,1v0.2c0.1,0.8,0.2,1.6,0.4,2.5s0.2,1.7,0.4,2.6c0.2,1.7,0.3,3.5,0.4,5.2c0.1,3.5-0.2,6.9-0.8,10.3
			c0,0.2-0.2,0.3-0.4,0.2c-0.1,0-0.2-0.1-0.2-0.3c-0.1-3.4-0.4-6.8-0.8-10.1c-0.2-1.7-0.4-3.3-0.7-5c-0.1-0.8-0.3-1.7-0.5-2.5
			c-0.1-0.4-0.2-0.8-0.3-1.3l-0.2-1.3v0.1v-0.1l1.1,1.1c-2.2-0.5-4.4-0.5-6.6,0c-2.1,0.5-4,1.5-5.4,3.1c-1.5,1.6-2.5,3.6-3.1,5.7
			c-0.3,1.1-0.5,2.2-0.7,3.3c-0.1,0.6-0.1,1.1-0.2,1.7l-0.1,1.8l-0.1,1.8v1.7c0.1,1.1,0.2,2.2,0.4,3.3c0.5,2.2,1.4,4.2,2.6,6
			c2.3,3.7,6.8,5.4,11,4.3l-1,0.9c0.2-0.3,0.3-0.7,0.5-1s0.4-0.8,0.5-1.1c0.4-0.7,0.8-1.4,1.1-2.1c0.8-1.3,1.4-2.7,1.8-4.2
			c0.1-0.2,0.3-0.4,0.6-0.3c0.2,0.1,0.3,0.2,0.3,0.5L47.1,263L47.1,263z"/>
		<path class="st13" d="M37.5,271.6c-8.8-0.5-11.2-8.1-10.6-16.9l0.2-3.3c0.5-8.8,3.8-15.7,12.6-15.1l0.1,0.7
			c2.2,11.2,1.5,22.8-2,33.6L37.5,271.6z"/>
	</g>
	<path class="st14" d="M157.8,49.5l200.9-0.3l6.1,4.1l0.9,85.5l-2.3,10.6l-138.8,2.1l-141-2.4l2.3-5.9l68.9-94.3L157.8,49.5z"/>
	<path class="st15" d="M156.3,55.7h202.6v88.2H95.4L156.3,55.7z"/>
	<path class="st16" d="M357.7,55.7h-57.3l-0.7,23.4l59.2,1.7L357.7,55.7z M294.4,55.7H191.8v87.8l3.6,0.5l0.6-7l0.3-57.4h76
		l0.7,63.8l9.6,0.6V79.6l12.1,0.2L294.4,55.7z M186.8,55.6l-31.3,1.1L97,143l15.3-0.2l45.5-68.2l29.4,6.5L186.8,55.6z"/>
	<path class="st17" d="M156.3,55.7h202.6v88.2H95.4L156.3,55.7z"/>
	<path class="st17" d="M358.6,79.6h-76v63.6 M272.3,143.2V79.6h-76v63.6"/>
	<path class="st7" d="M39.7,237c0,0,6.9-66.5,35.6-86.6h283.4c4,0,7.3-3.3,7.3-7.3V56.5c0-4-3.3-7.3-7.3-7.3H145.1"/>
	<path class="st15" d="M185.9,79.6l-28.1-5L112,143.4"/>
	<path class="st18" d="M127.6,142.5l-29.1-0.2l59.2-85.4l27.5,0.2l-0.4,85L127.6,142.5z"/>
	<path class="st19" d="M186.5,49.8v100.6l5.2-0.3V49.2C191.7,49.2,186.5,49.5,186.5,49.8z M294.7,49.8v100.6l5.2-0.3V49.2
		C300,49.2,294.7,49.5,294.7,49.8z"/>
	<path class="st7" d="M81.8,150l70.7-100.2 M39.7,237c0,0,6.9-66.5,35.6-86.6h283.4c4,0,7.3-3.3,7.3-7.3V56.5c0-4-3.3-7.3-7.3-7.3
		H145.1"/>
	<path class="st18" d="M193.2,57.1H293l0.3,85l-100,0.3L193.2,57.1z M301.5,57.4h55.6l0.3,84.9h-55.7L301.5,57.4z"/>
	<path d="M60.5,167.3l300.5,1.9c0.3,0,0.6,0.2,0.6,0.6c0,0.3-0.3,0.6-0.6,0.6l-300.5,1.9c-1.4,0-2.5-1.1-2.5-2.5
		S59.1,167.3,60.5,167.3z"/>
	<path class="st17" d="M363.4,149.4c0,0,3.5,1.5,3.5,18v106c0,2.8-2.2,5-5,5H256c-26,0-45.8,1.2-62.7,18s-24.9,54.7-39,58.6"/>
	<path class="st17" d="M318.3,204.7h37.6c1.7,0,3.1,1.4,3.1,3.1c0,1.7-1.4,3.1-3.1,3.1h-37.6c-1.7,0-3.1-1.4-3.1-3.1
		C315.2,206.1,316.6,204.7,318.3,204.7z"/>
	<path class="st7" d="M1098,368.6c0,0-3.6-127.2-5.9-163.5s-13.3-103.5-31.6-146.1s-85.8-42-139.6-42H340.3
		c-65.6,0-173.9,4.1-190.5,31.4"/>
	<path d="M64.8,132.7l22.6,22.6c1,1,1,2.6,0,3.5c-1,1-2.6,1-3.5,0l-22.6-22.6c-1-1-1-2.6,0-3.5C62.3,131.7,63.8,131.7,64.8,132.7z"
		/>
	<path class="st11" d="M61.6,101.4H66c3.2,0,5.8,2.6,5.8,5.8v31c0,3.2-2.6,5.8-5.8,5.8h-4.4c-3.2,0-5.8-2.6-5.8-5.8v-31
		C55.8,104,58.4,101.4,61.6,101.4z"/>
	<path class="st12" d="M55,341.5c0,0,31.9,2.7,53.7-2.7s57.2-8.4,60.8-0.9l-8.2,13.1l-5.8,4.7l-102-1.8L55,341.5L55,341.5z"/>
	<path class="st18" d="M278.1,200.7c-17-9.9-56.7-9.2-82.1,8S339.5,236.6,278.1,200.7z M823.5,200.9c-28-10.2-98-10-146,7
		S924.9,237.7,823.5,200.9z"/>
	<path class="st20" d="M700.2,283.9c-58.1-13.7-206.3-15.1-309.8,5.6S910.4,333.3,700.2,283.9z"/>
	<path d="M400,169.7c37.3-0.8,74.5-1.3,111.8-1.6s74.5-0.5,111.8-0.5h55.9l55.9,0.3l28,0.2l28,0.3l28,0.5l14,0.2l14,0.3
		c0.4,0,0.6,0.4,0.6,0.7s-0.3,0.5-0.6,0.6l-14,0.3l-14,0.2l-28,0.5l-28,0.3l-28,0.2l-55.9,0.3h-55.9c-37.3-0.1-74.5-0.2-111.8-0.5
		s-74.5-0.8-111.8-1.6c-0.3,0-0.5-0.2-0.5-0.5C399.6,169.9,399.8,169.7,400,169.7z M358.7,46.7l339.6,2.1c0.2,0,0.4,0.2,0.4,0.4
		s-0.2,0.4-0.4,0.4l-339.6,2.1c-1.4,0-2.5-1.1-2.5-2.5S357.3,46.7,358.7,46.7L358.7,46.7z"/>
	<path class="st14" d="M407.1,66.3L548,66l378.5,1.2l26,1.2l3.2,8l-0.2,65.2l-3,6l-17.5,3.6l-529.9-1.5l-11-7.1l3.2-72.4L407.1,66.3
		z"/>
	<path class="st7" d="M403.8,66h543.4c4.6,0,8.4,3.8,8.4,8.4v67.2c0,4.6-3.8,8.4-8.4,8.4H403.8c-4.6,0-8.4-3.8-8.4-8.4V74.4
		C395.4,69.8,399.2,66,403.8,66z"/>
	<path class="st15" d="M420,74.4h510.8c3.2,0,5.8,2.6,5.8,5.8v55.7c0,3.2-2.6,5.8-5.8,5.8H420c-3.2,0-5.8-2.6-5.8-5.8V80.2
		C414.3,77,416.9,74.4,420,74.4z"/>
	<path class="st19" d="M414.9,90.3h520.7v5.6l-521.4-0.3C414.2,95.6,413.6,90.9,414.9,90.3L414.9,90.3z M414.9,120.1h520.7v5.6
		l-521.4-0.3C414.2,125.5,413.6,120.7,414.9,120.1L414.9,120.1z M1013.7,72.1v75c0.1,5.3-3.9,9.8-9.2,10.3
		c-5.5,0.4-10.2-3.8-10.6-9.3V72.5c-0.1-5.3,4-9.8,9.2-10.2c5.5-0.4,10.2,3.8,10.5,9.2C1013.7,71.7,1013.7,71.9,1013.7,72.1z"/>
	<path class="st21" d="M993.9,81h19.7v7h-19.7V81z M993.9,95.8h19.7v7h-19.7V95.8C993.9,95.9,993.9,95.8,993.9,95.8z M993.9,109
		h19.7v7h-19.7V109z M993.9,121.9h19.7v7h-19.7V121.9z M993.9,134.4h19.7v7h-19.7V134.4C993.9,134.5,993.9,134.4,993.9,134.4z"/>
	<path d="M1081.1,327.2h32c1.4,0,2.5,1.1,2.5,2.5s-1.1,2.5-2.5,2.5h-32c-1.4,0-2.5-1.1-2.5-2.5S1079.8,327.2,1081.1,327.2z"/>
	<path d="M1083.6,329.7v32c0,1.4-1.1,2.5-2.5,2.5s-2.5-1.1-2.5-2.5v-32c0-1.4,1.1-2.5,2.5-2.5S1083.6,328.3,1083.6,329.7z"/>
	<path class="st11" d="M1113.8,318.1c5,0,9,4,9,9v39c0,5-4,9-9,9s-9-4-9-9v-39C1104.8,322.2,1108.8,318.1,1113.8,318.1z"/>
	<path class="st11" d="M996.2,355h135.6c9.1,0,16.5,7.4,16.5,16.5v4c0,9.1-7.4,16.5-16.5,16.5H996.2c-9.1,0-16.5-7.4-16.5-16.5v-4
		C979.7,362.3,987.1,355,996.2,355z"/>
	<path class="st22" d="M365.4,370.1h389.2c5.1,0,9.2,4.1,9.2,9.2s-4.1,9.2-9.2,9.2H365.4c-5.1,0-9.2-4.1-9.2-9.2
		C356.3,374.2,360.4,370.1,365.4,370.1z"/>
	<path class="st23" d="M365.4,370.1h389.2c5.1,0,9.2,4.1,9.2,9.2s-4.1,9.2-9.2,9.2H365.4c-5.1,0-9.2-4.1-9.2-9.2
		C356.3,374.2,360.4,370.1,365.4,370.1z"/>
	<path class="st12" d="M770.6,318.9c0,0-6.2,23.1-69.2,30.2s-353.1-2.4-353.1-2.4l13,23.4l396.3-0.3L770.6,318.9L770.6,318.9z
		 M1092.7,230.2c0,0,2.7,123-71,124.8l77.2,0.3L1092.7,230.2L1092.7,230.2z"/>
	<path class="st4" d="M1066.4,186.4c-10,26.5-1.5,45.8,6.8,35.5S1069.9,176.9,1066.4,186.4z"/>
	<path class="st12" d="M1058.5,50.9l-49.7-1.8c0,0,48.4,14.2,66.5,54.6L1058.5,50.9z"/>
	<path d="M1018.1,203c-2,0.1-3.9,0.2-5.9,0.3l-5.9,0.2c-3.9,0.1-7.8,0.1-11.8,0.1s-7.8,0-11.8-0.2l-5.9-0.2c-2-0.1-3.9-0.2-5.9-0.3
		c-0.2,0-0.3-0.2-0.3-0.4c0-0.1,0.1-0.3,0.3-0.3c2-0.1,3.9-0.2,5.9-0.3l5.9-0.2c3.9-0.1,7.8-0.1,11.8-0.1s7.8,0,11.8,0.1l5.9,0.2
		c2,0.1,3.9,0.2,5.9,0.3c0.2,0,0.3,0.2,0.3,0.4S1018.3,203,1018.1,203z M1018.1,208.5c-2,0.2-3.9,0.2-5.9,0.3l-5.9,0.2
		c-3.9,0.1-7.8,0.1-11.8,0.1s-7.8,0-11.8-0.2l-5.9-0.2c-2-0.1-3.9-0.2-5.9-0.3c-0.2,0-0.3-0.2-0.3-0.3c0-0.2,0.1-0.3,0.3-0.3
		c2-0.1,3.9-0.2,5.9-0.3l5.9-0.2c3.9-0.1,7.8-0.1,11.8-0.2s7.8,0,11.8,0.1l5.9,0.2c2,0.1,3.9,0.2,5.9,0.3c0.2,0,0.3,0.2,0.3,0.3
		C1018.4,208.4,1018.3,208.5,1018.1,208.5L1018.1,208.5z M1018.1,214.2c-2,0.1-3.9,0.2-5.9,0.3l-5.9,0.2c-3.9,0.1-7.8,0.1-11.8,0.1
		s-7.8,0-11.8-0.2l-5.9-0.2c-2-0.1-3.9-0.2-5.9-0.3c-0.2,0-0.3-0.2-0.3-0.3c0-0.2,0.1-0.3,0.3-0.3c2-0.1,3.9-0.2,5.9-0.3l5.9-0.2
		c3.9-0.1,7.8-0.1,11.8-0.1s7.8,0,11.8,0.1l5.9,0.2c2,0.1,3.9,0.2,5.9,0.3c0.2,0,0.3,0.2,0.3,0.4
		C1018.4,214,1018.3,214.2,1018.1,214.2z M1018.1,197.3c-2,0.1-3.9,0.2-5.9,0.3l-5.9,0.2c-3.9,0.1-7.8,0.1-11.8,0.1s-7.8,0-11.8-0.2
		l-5.9-0.2c-2-0.1-3.9-0.2-5.9-0.3c-0.2,0-0.3-0.2-0.3-0.3c0-0.2,0.1-0.3,0.3-0.3c2-0.1,3.9-0.2,5.9-0.3l5.9-0.2
		c3.9-0.1,7.8-0.1,11.8-0.2s7.8,0,11.8,0.1l5.9,0.2c2,0.1,3.9,0.2,5.9,0.3c0.2,0,0.3,0.2,0.3,0.3
		C1018.4,197.2,1018.3,197.3,1018.1,197.3L1018.1,197.3z M1018.1,225.6c-2,0.1-3.9,0.2-5.9,0.3l-5.9,0.2c-3.9,0.1-7.8,0.1-11.8,0.1
		s-7.8,0-11.8-0.2l-5.9-0.2c-2-0.1-3.9-0.2-5.9-0.3c-0.2,0-0.3-0.2-0.3-0.3c0-0.2,0.1-0.3,0.3-0.3c2-0.1,3.9-0.2,5.9-0.3l5.9-0.2
		c3.9-0.1,7.8-0.1,11.8-0.2s7.8,0,11.8,0.1l5.9,0.2c2,0.1,3.9,0.2,5.9,0.3c0.2,0,0.3,0.2,0.3,0.3
		C1018.4,225.5,1018.3,225.6,1018.1,225.6L1018.1,225.6z M1018.1,231.2c-2,0.1-3.9,0.2-5.9,0.3l-5.9,0.2c-3.9,0.1-7.8,0.1-11.8,0.1
		s-7.8,0-11.8-0.2l-5.9-0.2c-2-0.1-3.9-0.2-5.9-0.3c-0.2,0-0.3-0.2-0.3-0.4c0-0.1,0.1-0.3,0.3-0.3c2-0.1,3.9-0.2,5.9-0.3l5.9-0.2
		c3.9-0.1,7.8-0.1,11.8-0.1s7.8,0,11.8,0.1l5.9,0.2c2,0.1,3.9,0.2,5.9,0.3c0.2,0,0.3,0.2,0.3,0.4S1018.3,231.2,1018.1,231.2z
		 M1018.1,236.8c-2,0.2-3.9,0.2-5.9,0.3l-5.9,0.2c-3.9,0.1-7.8,0.1-11.8,0.1s-7.8,0-11.8-0.2l-5.9-0.2c-2-0.1-3.9-0.2-5.9-0.3
		c-0.2,0-0.3-0.2-0.3-0.3c0-0.2,0.1-0.3,0.3-0.3c2-0.1,3.9-0.2,5.9-0.3l5.9-0.2c3.9-0.1,7.8-0.1,11.8-0.2s7.8,0,11.8,0.1l5.9,0.2
		c2,0.1,3.9,0.2,5.9,0.3c0.2,0,0.3,0.2,0.3,0.3C1018.5,236.7,1018.3,236.8,1018.1,236.8L1018.1,236.8z M1018.1,220
		c-2,0.1-3.9,0.2-5.9,0.3l-5.9,0.2c-3.9,0.1-7.8,0.1-11.8,0.1s-7.8,0-11.8-0.1l-5.9-0.2c-2-0.1-3.9-0.2-5.9-0.3
		c-0.2,0-0.3-0.2-0.3-0.3c0-0.2,0.1-0.3,0.3-0.3c2-0.1,3.9-0.2,5.9-0.3l5.9-0.2c3.9-0.1,7.8-0.1,11.8-0.2s7.8,0,11.8,0.1l5.9,0.2
		c2,0.1,3.9,0.2,5.9,0.3c0.2,0,0.3,0.2,0.3,0.4C1018.4,219.8,1018.3,219.9,1018.1,220z"/>
</g>
<g>
	<path class="st24" d="M204.9,453.4c0,0,10.9-17.5,11-39.4c0,0,14.2,24,15.3,33.3c0,0,4.1-2.1,5.5-9.9c0,0,4.3,6.3,5.3,8.9
		c0,0,3.9-14.6,5.1-25.6c0,0,8.2,21.6,10,25.2c0,0,3.2-3,6.9-10.5c0,0-1.1,5.1,7.3,11.7c0,0,5.3-13.1,8.7-16.4
		c0,0,6.3,10.1,7.6,14.1c0,0,19.6-23.4,23.7-27.3c0,0-5.6,17.9-3.3,29.2c0,0,6.4-9.3,9.9-10.7c0,0,3.4,9.7,4.5,11.6
		s0.1,22.4,0.1,22.4l-118,1.1L204.9,453.4z"/>
	<path class="st24" d="M802.7,439.5c0,0,10.7-17.8,16.2-24.6c0,0,3.9,20.3,7,26c0,0,6.7-2.3,10.3,0.6c0,0,17.9-27,24.7-34.8
		c0,0,2.8,13.2,1.4,23.5c0,0,16.4-2.7,18.2-12c0,0,3.9,9.6,8.8,14.1c0,0,16.5-15.9,17.2-23.4l9.2,18.2l1.8,40.9l-115.8,1.3
		L802.7,439.5z"/>
</g>
</svg>
