<?xml version="1.0" encoding="utf-8"?>
<!-- Generator: Adobe Illustrator 23.0.4, SVG Export Plug-In . SVG Version: 6.00 Build 0)  -->
<svg version="1.1" id="Layer_1" xmlns="http://www.w3.org/2000/svg" xmlns:xlink="http://www.w3.org/1999/xlink" x="0px" y="0px"
	 viewBox="0 0 1920 456" style="enable-background:new 0 0 1920 456;" xml:space="preserve">
<style type="text/css">
	.st0{opacity:0.494;}
	.st1{fill-rule:evenodd;clip-rule:evenodd;fill:#476735;}
	.st2{filter:url(#Adobe_OpacityMaskFilter);}
	.st3{fill-rule:evenodd;clip-rule:evenodd;fill:#FFFFFF;}
	.st4{mask:url(#b_1_);fill-rule:evenodd;clip-rule:evenodd;fill:#476735;}
	.st5{filter:url(#Adobe_OpacityMaskFilter_1_);}
	.st6{mask:url(#d_1_);fill-rule:evenodd;clip-rule:evenodd;fill:#476735;}
	.st7{filter:url(#Adobe_OpacityMaskFilter_2_);}
	.st8{mask:url(#f_1_);fill-rule:evenodd;clip-rule:evenodd;fill:#476735;}
	.st9{filter:url(#Adobe_OpacityMaskFilter_3_);}
	.st10{mask:url(#h_1_);fill-rule:evenodd;clip-rule:evenodd;fill:#476735;}
	.st11{opacity:0.501;fill:none;stroke:#24361B;stroke-width:6;enable-background:new    ;}
</style>
<g>
	<g class="st0">
		<path class="st1" d="M1333,32.7v313.5h767V6.1c-2.5-4-5-8.1-7.5-12.1c0,12.4,0.1,24.8,0.1,37.2c-4.8-10.2-12-19-21-25.8
			c3,13.8,4.9,27.8,5.7,41.9l-7.8-7.5l-3.9,13.2c-2.2-9.9-6.7-19.1-13.2-26.9c1.4,8.2,1.9,16.5,1.3,24.8c-4.7-3.3-14.1-3.9-13.1,1.7
			c-6.9-12.5-10.6-26.7-10.7-41l-3.3,31.2c-4.9-5.8-9.8-11.5-14.6-17.3c-0.4,5.6-0.8,11.2-1.3,16.8c-8.7-11.3-16.7-23.1-24-35.4
			l-1.6,41.5l-9.9-11.4l-4.8,12.4c-3.1-11.8-7.7-23.3-13.7-34l-3.4,32.8c-1.6-2.6-3.2-5.1-4.9-7.7c-2.4,4.2-4.8,8.5-7.2,12.7
			c-4.2-8.5-8.4-17-12.6-25.5c-0.3,13.5-3.2,26.8-8.6,39.2L1907.4,55l-4.1,11.2c-0.8-4,0.5-7.5-0.3-11.5c-1.6,2.4-0.8,1.2-1.5,2.7
			c-0.9,1.9-3.7-1.6-4.7-3.4l-11.4-18.8c-1.2,9.4-3.5,18.6-6.9,27.4l-7.3-9.6c-2,3.5-4.9,6.5-8.4,8.6c-4.7-7.4-9.5-14.8-14.2-22.2
			c-3.4,7.9-6.7,15.7-10.1,23.6c-3.3-1.4-7.3-1-10.2,1.1c-6.2-8.3-9.1-19-7.8-29.3l-13.2,24l-5.2-23.1l-9.9,23.3
			c-8.8-15.8-21-29.4-35.8-39.8c4.5,9.5,6.9,19.9,7.2,30.4l-10.8-10.9c-2,3.9-4,7.8-6,11.7c-10.3-1.9-21.5,4.4-25.3,14.1
			c-6.5-11.1-10.5-23.4-11.9-36.2c-7.4,9-12.7,19.4-15.6,30.7c-2.5-3.2-4.4-6.8-5.4-10.7l-5.3,9.4c-2-6.9-2.4-14.2-1.3-21.4
			c-6.1,6.3-11,13.7-14.4,21.8l-5.3-8.1l-9.1,9.3l-8.6-19.8c-2.8,5.9-5.5,11.8-8.3,17.6c-8.4-9.9-16.9-19.8-25.4-29.7
			c3.8,10.5,5.4,21.6,4.7,32.7c-2.4-4.6-6-8.6-10.4-11.4c-1.5,4.3-3,8.6-4.5,13c-4.8-10.4-8.5-21.4-10.9-32.6
			c-5.3,11.7-10.6,23.3-15.9,35c-3.7-2.6-6.7-6.1-8.9-10.1c-4.8,3.2-9.6,6.3-14.4,9.5c-6.7-10-10.4-21.9-10.6-33.9
			c-3.8,7.6-7.6,15.2-11.4,22.8c-1.5,2.9-2.9,5.9-4.4,8.8c-3.4-3.7-6-8.1-7.7-12.8c-3.1,3-6.8,5.2-10.9,6.4
			c-2.3-5.6-4.2-11.3-5.8-17.1c-1.3-4.8-2.2-9.7-2.9-14.6l-7.4,9.3l-8.2,10.3c-0.9-5.1-1.5-10.3-1.8-15.5c-0.3-6-0.1-12,0.5-18
			c-3.4,4.3-6.5,8.8-9.5,13.4c-4.9,7.6-9.3,15.5-13.1,23.7c-1.1-4.2-2.1-8.5-3.2-12.7c-2.8,3.6-5.6,7.2-8.3,10.8
			c-2.6-11.2-2.4-23,0.7-34.1c0.9-3.2,2-6.3,3.3-9.3c-11.4,10.9-20.9,23.7-28,37.7l-12.3-11.8c-2.8,5.8-5.5,11.5-8.3,17.3
			c-4.4-1.7-8.3-4.5-11.4-8l-16.9,20.5c-1.6-14.2-3.2-28.4-4.9-42.6c-7.4,9.8-13.5,20.7-17.9,32.2L1338.6,20
			C1336.5,24.1,1334.6,28.4,1333,32.7"/>
		<g transform="matrix(-1 0 0 1 1341 2.208)">
			<defs>
				<filter id="Adobe_OpacityMaskFilter" filterUnits="userSpaceOnUse">
					<feColorMatrix  type="matrix" values="1 0 0 0 0  0 1 0 0 0  0 0 1 0 0  0 0 0 1 0"/>
				</filter>
			</defs>
			<mask maskUnits="userSpaceOnUse" id="b_1_">
				<g class="st2">
					<path id="a_1_" class="st3" d="M0,0.7h767V346H0V0.7z"/>
				</g>
			</mask>
			<path class="st4" d="M7.4,31c4.8-10.2,12-19,21-25.8C25.4,19,23.5,33,22.7,47c2.6-2.5,5.2-5,7.8-7.5l3.9,13.2
				c2.2-9.9,6.7-19.1,13.2-26.9c-1.4,8.2-1.9,16.5-1.3,24.8c4.7-3.3,14.1-3.9,13.1,1.7c6.9-12.5,10.6-26.7,10.7-41l3.3,31.2L88,25.2
				c0.4,5.6,0.8,11.2,1.3,16.8c8.7-11.3,16.7-23.1,24-35.4l1.6,41.5l9.9-11.4c1.6,4.1,3.2,8.3,4.8,12.4c3.1-11.8,7.7-23.3,13.7-34
				l3.4,32.8c1.6-2.6,3.2-5.1,4.9-7.7c2.4,4.2,4.8,8.5,7.2,12.7c4.2-8.5,8.4-17,12.6-25.5c0.3,13.5,3.2,26.8,8.6,39.2l12.4-11.9
				l4.1,11.2c0.8-4-0.5-7.5,0.3-11.5c1.6,2.4,0.8,1.2,1.5,2.7c0.9,1.9,3.7-1.6,4.7-3.4c3.8-6.3,7.6-12.5,11.4-18.8
				c1.2,9.4,3.5,18.6,6.9,27.4l7.3-9.6c2,3.5,4.9,6.5,8.4,8.6c4.7-7.4,9.5-14.8,14.2-22.2c3.4,7.9,6.7,15.7,10.1,23.6
				c3.3-1.4,7.3-1,10.2,1.1c6.2-8.3,9.1-19,7.8-29.3l13.2,24c1.7-7.7,3.4-15.4,5.2-23.1c3.3,7.8,6.6,15.5,9.9,23.3
				c8.7-15.7,21-29.5,35.8-39.8c-4.5,9.5-6.9,19.9-7.2,30.4l10.8-10.9l6,11.7c10.3-1.9,21.5,4.4,25.3,14.1
				c6.5-11.1,10.5-23.4,11.9-36.2c7.4,9,12.7,19.4,15.6,30.7c2.5-3.2,4.4-6.8,5.4-10.7l5.3,9.4c2-6.9,2.4-14.2,1.3-21.4
				c6.1,6.3,11,13.7,14.4,21.8l5.3-8.1c3,3.1,6.1,6.2,9.1,9.3l8.6-19.8c2.8,5.9,5.5,11.8,8.3,17.6l25.4-29.7
				c-3.8,10.5-5.4,21.6-4.7,32.7c2.4-4.6,6-8.6,10.4-11.4c1.5,4.3,3,8.6,4.5,13c4.8-10.4,8.5-21.4,10.9-32.6
				c5.3,11.7,10.6,23.3,15.9,35c3.7-2.6,6.7-6.1,8.9-10.1c4.8,3.2,9.6,6.3,14.4,9.5c6.7-10,10.4-21.9,10.6-33.9
				c3.8,7.6,7.6,15.2,11.4,22.8c1.5,2.9,2.9,5.9,4.4,8.8c3.4-3.7,6-8.1,7.7-12.8c3.1,3,6.8,5.2,10.9,6.4c2.3-5.6,4.2-11.3,5.8-17.1
				c1.3-4.8,2.2-9.7,2.9-14.6l7.4,9.3l8.2,10.3c0.9-5.1,1.5-10.3,1.8-15.5c0.3-6,0.1-12-0.5-18c3.4,4.3,6.5,8.8,9.5,13.4
				c4.9,7.6,9.3,15.5,13.1,23.7c1.1-4.2,2.1-8.5,3.2-12.7c2.8,3.6,5.5,7.2,8.3,10.8c2.6-11.2,2.4-23-0.7-34.1
				c-0.9-3.2-2-6.3-3.3-9.3c11.4,10.9,20.9,23.7,28,37.7l12.3-11.8l8.3,17.3c4.4-1.7,8.3-4.5,11.4-8l16.9,20.5l4.9-42.6
				c7.4,9.8,13.5,20.7,17.9,32.2c3.9-8.7,7.8-17.5,11.7-26.2c2.1,4.1,4,8.4,5.6,12.8V346H0"/>
		</g>
		<g transform="matrix(-1 0 0 1 587 2.208)">
			<defs>
				<filter id="Adobe_OpacityMaskFilter_1_" filterUnits="userSpaceOnUse">
					<feColorMatrix  type="matrix" values="1 0 0 0 0  0 1 0 0 0  0 0 1 0 0  0 0 0 1 0"/>
				</filter>
			</defs>
			<mask maskUnits="userSpaceOnUse" id="d_1_">
				<g class="st5">
					<path id="c_1_" class="st3" d="M0,0.7h767V346H0V0.7z"/>
				</g>
			</mask>
			<path class="st6" d="M7.4,31c4.8-10.2,12-19,21-25.8C25.4,19,23.5,33,22.7,47c2.6-2.5,5.2-5,7.8-7.5c1.3,4.4,2.6,8.8,3.9,13.2
				c2.2-9.9,6.7-19.1,13.2-26.9c-1.4,8.2-1.9,16.5-1.3,24.8c4.7-3.3,14.1-3.9,13.1,1.7c6.9-12.5,10.6-26.7,10.7-41l3.3,31.2
				c4.9-5.8,9.8-11.5,14.6-17.3c0.4,5.6,0.8,11.2,1.3,16.8c8.7-11.3,16.7-23.1,24-35.4l1.6,41.5c3.3-3.8,6.6-7.6,9.9-11.4
				c1.6,4.1,3.2,8.3,4.8,12.4c3.1-11.8,7.7-23.3,13.7-34c1.1,10.9,2.3,21.9,3.4,32.8c1.6-2.6,3.2-5.1,4.9-7.7
				c2.4,4.2,4.8,8.5,7.2,12.7c4.2-8.5,8.4-17,12.6-25.5c0.3,13.5,3.2,26.8,8.6,39.2l12.4-11.9c1.4,3.8,2.7,7.5,4.1,11.2
				c0.8-4-0.5-7.5,0.3-11.5c1.6,2.4,0.8,1.2,1.5,2.7c0.9,1.9,3.7-1.6,4.7-3.4c3.8-6.3,7.6-12.5,11.4-18.8c1.2,9.4,3.5,18.6,6.9,27.4
				c2.4-3.2,4.9-6.4,7.3-9.6c2,3.5,4.9,6.5,8.4,8.6c4.7-7.4,9.5-14.8,14.2-22.2c3.4,7.9,6.7,15.7,10.1,23.6c3.3-1.4,7.3-1,10.2,1.1
				c6.2-8.3,9.1-19,7.8-29.3c4.4,8,8.8,16,13.2,24c1.7-7.7,3.4-15.4,5.2-23.1c3.3,7.8,6.6,15.5,9.9,23.3c8.8-15.8,21-29.4,35.8-39.8
				c-4.5,9.5-6.9,19.9-7.2,30.4l10.8-10.9l6,11.7c10.3-1.9,21.5,4.4,25.3,14.1c6.5-11.1,10.5-23.4,12-36.2
				c7.4,9,12.7,19.4,15.6,30.7c2.5-3.2,4.4-6.8,5.5-10.7l5.3,9.4c2-6.9,2.4-14.2,1.3-21.4c6.1,6.3,11,13.7,14.4,21.8l5.3-8.1
				c3,3.1,6.1,6.2,9.1,9.3c2.9-6.6,5.7-13.2,8.6-19.8c2.8,5.9,5.5,11.8,8.3,17.6c8.5-9.9,16.9-19.8,25.4-29.7
				c-3.8,10.5-5.4,21.6-4.7,32.7c2.4-4.6,6-8.6,10.4-11.4c1.5,4.3,3,8.6,4.5,13c4.8-10.4,8.5-21.4,10.9-32.6
				c5.3,11.7,10.6,23.3,15.9,35c3.7-2.6,6.7-6.1,8.9-10.1c4.8,3.2,9.6,6.3,14.4,9.5c6.7-10,10.4-21.9,10.6-33.9
				c3.8,7.6,7.6,15.2,11.4,22.8c1.5,2.9,2.9,5.9,4.4,8.8c3.4-3.7,6-8.1,7.7-12.8c3.1,3,6.8,5.2,10.9,6.4c2.3-5.6,4.2-11.3,5.8-17.1
				c1.2-4.8,2.2-9.7,2.9-14.6c2.5,3.1,4.9,6.2,7.4,9.3c2.7,3.4,5.5,6.9,8.2,10.3c0.9-5.1,1.5-10.3,1.8-15.5c0.3-6,0.1-12-0.5-18
				c8.9,11.5,16.5,23.9,22.7,37.1c1.1-4.2,2.1-8.5,3.2-12.7c2.8,3.6,5.6,7.2,8.3,10.8c2.6-11.2,2.4-23-0.7-34.1
				c-0.9-3.2-2-6.3-3.3-9.3c11.4,10.9,20.9,23.7,28,37.7l12.3-11.8c2.8,5.8,5.5,11.5,8.3,17.3c4.4-1.7,8.3-4.5,11.4-8l16.9,20.5
				l4.9-42.6c7.4,9.8,13.5,20.7,17.9,32.2l11.7-26.2c2.1,4.1,4,8.4,5.6,12.8V346H0"/>
		</g>
	</g>
	<path class="st1" d="M587,73.7v313.5h-767V47.1c2.5-4,5-8.1,7.5-12.1c0,12.4-0.1,24.8-0.1,37.2c4.8-10.2,12-19,21-25.8
		c-3,13.8-4.9,27.8-5.7,41.9c2.6-2.5,5.2-5,7.8-7.6l3.9,13.2c2.2-9.9,6.7-19.1,13.2-26.9c-1.4,8.2-1.9,16.5-1.3,24.8
		c4.7-3.3,14.1-3.9,13.1,1.7c6.9-12.5,10.6-26.7,10.7-41l3.3,31.2c4.9-5.8,9.8-11.5,14.6-17.3c0.4,5.6,0.8,11.2,1.3,16.8
		C-82,71.9-74,60-66.7,47.8l1.6,41.5l9.9-11.4l4.8,12.4c3.1-11.8,7.7-23.3,13.7-34l3.4,32.8c1.6-2.6,3.2-5.1,4.9-7.7
		c2.4,4.2,4.8,8.5,7.2,12.7c4.2-8.5,8.4-17,12.6-25.5c0.3,13.5,3.2,26.8,8.6,39.2L12.6,96c1.4,3.8,2.7,7.5,4.1,11.2
		c0.8-4-0.5-7.5,0.3-11.5c1.6,2.4,0.8,1.2,1.5,2.7c0.9,1.9,3.7-1.6,4.7-3.4c3.8-6.3,7.6-12.5,11.4-18.8c1.2,9.4,3.5,18.6,6.9,27.4
		l7.3-9.6c2,3.5,4.9,6.5,8.4,8.6c4.7-7.4,9.5-14.8,14.2-22.2c3.4,7.9,6.7,15.7,10.1,23.6c3.3-1.4,7.3-1,10.2,1.1
		c6.2-8.3,9.1-19,7.8-29.3l13.2,24l5.2-23.1l9.9,23.3c8.8-15.8,21-29.4,35.8-39.8c-4.5,9.5-6.9,19.9-7.2,30.4l10.8-10.9
		c2,3.9,4,7.8,6,11.7c10.3-1.9,21.5,4.4,25.3,14.1c6.5-11.1,10.5-23.4,11.9-36.2c7.4,9,12.7,19.4,15.6,30.7
		c2.5-3.2,4.4-6.8,5.4-10.7l5.3,9.4c2-6.9,2.4-14.2,1.3-21.4c6.1,6.3,11,13.7,14.4,21.8l5.3-8.1l9.1,9.3l8.6-19.8
		c2.8,5.9,5.5,11.8,8.3,17.6c8.5-9.9,16.9-19.8,25.4-29.7c-3.8,10.5-5.4,21.6-4.7,32.7c2.4-4.6,6-8.6,10.4-11.4
		c1.5,4.3,3,8.6,4.5,13c4.8-10.4,8.5-21.4,10.9-32.6c5.3,11.7,10.6,23.3,15.9,35c3.7-2.6,6.7-6.1,8.9-10.1c4.8,3.2,9.6,6.3,14.4,9.5
		c6.7-10,10.4-21.9,10.6-33.9c3.8,7.6,7.6,15.2,11.4,22.8c1.5,2.9,2.9,5.9,4.4,8.8c3.4-3.7,6-8.1,7.7-12.8c3.1,3,6.8,5.2,10.9,6.4
		c2.3-5.6,4.2-11.3,5.8-17.2c1.3-4.8,2.2-9.7,2.9-14.6c2.5,3.1,4.9,6.2,7.4,9.3l8.2,10.3c0.9-5.1,1.5-10.3,1.8-15.5
		c0.3-6,0.1-12-0.5-18c3.4,4.3,6.5,8.8,9.5,13.4c4.9,7.6,9.3,15.5,13.1,23.7c1.1-4.2,2.1-8.5,3.2-12.7c2.8,3.6,5.6,7.2,8.3,10.8
		c2.6-11.2,2.4-23-0.7-34.1c-0.9-3.2-2-6.3-3.3-9.3c11.4,10.9,20.9,23.7,28,37.7l12.3-11.8c2.8,5.8,5.5,11.5,8.3,17.3
		c4.4-1.7,8.3-4.5,11.4-8l16.9,20.5l4.9-42.6c7.4,9.8,13.5,20.7,17.9,32.2L581.4,61C583.5,65.1,585.4,69.4,587,73.7"/>
	<g transform="translate(579 43.208)">
		<defs>
			<filter id="Adobe_OpacityMaskFilter_2_" filterUnits="userSpaceOnUse" x="0" y="0.7" width="767" height="345.3">
				<feColorMatrix  type="matrix" values="1 0 0 0 0  0 1 0 0 0  0 0 1 0 0  0 0 0 1 0"/>
			</filter>
		</defs>
		<mask maskUnits="userSpaceOnUse" x="0" y="0.7" width="767" height="345.3" id="f_1_">
			<g class="st7">
				<path id="e_1_" class="st3" d="M0,0.7h767V346H0V0.7z"/>
			</g>
		</mask>
		<path class="st8" d="M7.4,31c4.8-10.2,12-19,21-25.8C25.4,19,23.5,33,22.7,47c2.6-2.5,5.2-5,7.8-7.5l3.9,13.2
			c2.2-9.9,6.7-19.1,13.2-26.9c-1.4,8.2-1.9,16.5-1.3,24.8c4.7-3.3,14.1-3.9,13.1,1.7c6.9-12.5,10.6-26.7,10.7-41l3.3,31.2L88,25.2
			c0.4,5.6,0.8,11.2,1.3,16.8c8.7-11.3,16.7-23.1,24-35.4l1.6,41.5l9.9-11.4c1.6,4.1,3.2,8.3,4.8,12.4c3.1-11.8,7.7-23.3,13.7-34
			l3.4,32.8c1.6-2.6,3.2-5.1,4.9-7.7c2.4,4.2,4.8,8.5,7.2,12.7c4.2-8.5,8.4-17,12.6-25.5c0.3,13.5,3.2,26.8,8.6,39.2l12.4-11.9
			l4.1,11.2c0.8-4-0.5-7.5,0.3-11.5c1.6,2.4,0.8,1.2,1.5,2.7c0.9,1.9,3.7-1.6,4.7-3.4c3.8-6.3,7.6-12.5,11.4-18.8
			c1.2,9.4,3.5,18.6,6.9,27.4l7.3-9.6c2,3.5,4.9,6.5,8.4,8.6c4.7-7.4,9.5-14.8,14.2-22.2c3.4,7.9,6.7,15.7,10.1,23.6
			c3.3-1.4,7.3-1,10.2,1.1c6.2-8.3,9.1-19,7.8-29.3l13.2,24c1.7-7.7,3.4-15.4,5.2-23.1c3.3,7.8,6.6,15.5,9.9,23.3
			c8.7-15.7,21-29.5,35.8-39.8c-4.5,9.5-6.9,19.9-7.2,30.4l10.8-10.9l6,11.7c10.3-1.9,21.5,4.4,25.3,14.1
			c6.5-11.1,10.5-23.4,11.9-36.2c7.4,9,12.7,19.4,15.6,30.7c2.5-3.2,4.4-6.8,5.4-10.7l5.3,9.4c2-6.9,2.4-14.2,1.3-21.4
			c6.1,6.3,11,13.7,14.4,21.8l5.3-8.1c3,3.1,6.1,6.2,9.1,9.3l8.6-19.8c2.8,5.9,5.5,11.8,8.3,17.6l25.4-29.7
			c-3.8,10.5-5.4,21.6-4.7,32.7c2.4-4.6,6-8.6,10.4-11.4c1.5,4.3,3,8.6,4.5,13c4.8-10.4,8.5-21.4,10.9-32.6
			c5.3,11.7,10.6,23.3,15.9,35c3.7-2.6,6.7-6.1,8.9-10.1c4.8,3.2,9.6,6.3,14.4,9.5c6.7-10,10.4-21.9,10.6-33.9
			c3.8,7.6,7.6,15.2,11.4,22.8c1.5,2.9,2.9,5.9,4.4,8.8c3.4-3.7,6-8.1,7.7-12.8c3.1,3,6.8,5.2,10.9,6.4c2.3-5.6,4.2-11.3,5.8-17.1
			c1.3-4.8,2.2-9.7,2.9-14.6l7.4,9.3l8.2,10.3c0.9-5.1,1.5-10.3,1.8-15.5c0.3-6,0.1-12-0.5-18c3.4,4.3,6.5,8.8,9.5,13.4
			c4.9,7.6,9.3,15.5,13.1,23.7c1.1-4.2,2.1-8.5,3.2-12.7c2.8,3.6,5.5,7.2,8.3,10.8c2.6-11.2,2.4-23-0.7-34.1c-0.9-3.2-2-6.3-3.3-9.3
			c11.4,10.9,20.9,23.7,28,37.7l12.3-11.8l8.3,17.3c4.4-1.7,8.3-4.5,11.4-8l16.9,20.5l4.9-42.6c7.4,9.8,13.5,20.7,17.9,32.2
			c3.9-8.7,7.8-17.5,11.7-26.2c2.1,4.1,4,8.4,5.6,12.8V346H0"/>
	</g>
	<g transform="translate(1333 43.208)">
		<defs>
			<filter id="Adobe_OpacityMaskFilter_3_" filterUnits="userSpaceOnUse" x="0" y="0.7" width="767" height="345.3">
				<feColorMatrix  type="matrix" values="1 0 0 0 0  0 1 0 0 0  0 0 1 0 0  0 0 0 1 0"/>
			</filter>
		</defs>
		<mask maskUnits="userSpaceOnUse" x="0" y="0.7" width="767" height="345.3" id="h_1_">
			<g class="st9">
				<path id="g_1_" class="st3" d="M0,0.7h767V346H0V0.7z"/>
			</g>
		</mask>
		<path class="st10" d="M7.4,31c4.8-10.2,12-19,21-25.8C25.4,19,23.5,33,22.7,47c2.6-2.5,5.2-5,7.8-7.5c1.3,4.4,2.6,8.8,3.9,13.2
			c2.2-9.9,6.7-19.1,13.2-26.9c-1.4,8.2-1.9,16.5-1.3,24.8c4.7-3.3,14.1-3.9,13.1,1.7c6.9-12.5,10.6-26.7,10.7-41l3.3,31.2
			c4.9-5.8,9.8-11.5,14.6-17.3c0.4,5.6,0.8,11.2,1.3,16.8c8.7-11.3,16.7-23.1,24-35.4l1.6,41.5c3.3-3.8,6.6-7.6,9.9-11.4
			c1.6,4.1,3.2,8.3,4.8,12.4c3.1-11.8,7.7-23.3,13.7-34c1.1,10.9,2.3,21.9,3.4,32.8c1.6-2.6,3.2-5.1,4.9-7.7
			c2.4,4.2,4.8,8.5,7.2,12.7c4.2-8.5,8.4-17,12.6-25.5c0.3,13.5,3.2,26.8,8.6,39.2l12.4-11.9c1.4,3.8,2.7,7.5,4.1,11.2
			c0.8-4-0.5-7.5,0.3-11.5c1.6,2.4,0.8,1.2,1.5,2.7c0.9,1.9,3.7-1.6,4.7-3.4c3.8-6.3,7.6-12.5,11.4-18.8c1.2,9.4,3.5,18.6,6.9,27.4
			c2.4-3.2,4.9-6.4,7.3-9.6c2,3.5,4.9,6.5,8.4,8.6c4.7-7.4,9.5-14.8,14.2-22.2c3.4,7.9,6.7,15.7,10.1,23.6c3.3-1.4,7.3-1,10.2,1.1
			c6.2-8.3,9.1-19,7.8-29.3c4.4,8,8.8,16,13.2,24c1.7-7.7,3.4-15.4,5.2-23.1c3.3,7.8,6.6,15.5,9.9,23.3c8.8-15.8,21-29.4,35.8-39.8
			c-4.5,9.5-6.9,19.9-7.2,30.4l10.8-10.9l6,11.7c10.3-1.9,21.5,4.4,25.3,14.1c6.5-11.1,10.5-23.4,12-36.2c7.4,9,12.7,19.4,15.6,30.7
			c2.5-3.2,4.4-6.8,5.5-10.7l5.3,9.4c2-6.9,2.4-14.2,1.3-21.4c6.1,6.3,11,13.7,14.4,21.8l5.3-8.1c3,3.1,6.1,6.2,9.1,9.3
			c2.9-6.6,5.7-13.2,8.6-19.8c2.8,5.9,5.5,11.8,8.3,17.6c8.5-9.9,16.9-19.8,25.4-29.7c-3.8,10.5-5.4,21.6-4.7,32.7
			c2.4-4.6,6-8.6,10.4-11.4c1.5,4.3,3,8.6,4.5,13c4.8-10.4,8.5-21.4,10.9-32.6c5.3,11.7,10.6,23.3,15.9,35c3.7-2.6,6.7-6.1,8.9-10.1
			c4.8,3.2,9.6,6.3,14.4,9.5c6.7-10,10.4-21.9,10.6-33.9c3.8,7.6,7.6,15.2,11.4,22.8c1.5,2.9,2.9,5.9,4.4,8.8
			c3.4-3.7,6-8.1,7.7-12.8c3.1,3,6.8,5.2,10.9,6.4c2.3-5.6,4.2-11.3,5.8-17.1c1.2-4.8,2.2-9.7,2.9-14.6c2.5,3.1,4.9,6.2,7.4,9.3
			c2.7,3.4,5.5,6.9,8.2,10.3c0.9-5.1,1.5-10.3,1.8-15.5c0.3-6,0.1-12-0.5-18c8.9,11.5,16.5,23.9,22.7,37.1c1.1-4.2,2.1-8.5,3.2-12.7
			c2.8,3.6,5.6,7.2,8.3,10.8c2.6-11.2,2.4-23-0.7-34.1c-0.9-3.2-2-6.3-3.3-9.3c11.4,10.9,20.9,23.7,28,37.7l12.3-11.8
			c2.8,5.8,5.5,11.5,8.3,17.3c4.4-1.7,8.3-4.5,11.4-8l16.9,20.5l4.9-42.6c7.4,9.8,13.5,20.7,17.9,32.2l11.7-26.2
			c2.1,4.1,4,8.4,5.6,12.8V346H0"/>
	</g>
	<path class="st1" d="M-43,246h2121v210H-43V246z"/>
	<path class="st11" d="M1806.7,269.4l-5.2-23.1c-4.4,8-8.8,16-13.2,24c1.3-10.3-1.6-21-7.8-29.3c-2.9,2.1-6.9,2.5-10.2,1.1
		c-3.4,7.9-6.7,15.7-10.1,23.6c-4.7-7.4-9.5-14.8-14.2-22.2c-3.5,2.1-6.4,5.1-8.4,8.6c-2.4-3.2-4.9-6.4-7.3-9.6
		c-3.4,8.8-5.7,18-6.9,27.4c-3.8-6.3-7.6-12.5-11.4-18.8c-1.1-1.8-3.9-5.3-4.7-3.4c-0.7,1.5,0.1,0.3-1.5,2.7
		c-0.8-4,0.5-7.5-0.3-11.5c-1.4,3.8-2.7,7.5-4.1,11.2 M211.5,341.1c-2.1-6.8-4.2-13.6-6.4-20.4c-2.3,2.9-4.6,5.7-6.8,8.6
		c-0.9-2.1-1.8-4.2-2.7-6.3c-2.1,8-4.3,16-6.4,24c-3.2-8.7-5.2-17.7-6.1-26.9c-1.7,2.9-3.3,5.8-5,8.7c-2-3.2-4-6.4-6-9.6l-6.1,30.7
		c-3.9-10-8.5-19.7-13.6-29.2c-1,4.1-2,8.3-2.9,12.4c-2.9-4.9-5.9-9.7-8.8-14.6c-2,7.6-4.1,15.2-6.1,22.8"/>
</g>
</svg>
