<?xml version="1.0" encoding="UTF-8"?>
<svg width="1920px" height="623px" viewBox="0 0 1920 623" version="1.1" xmlns="http://www.w3.org/2000/svg" xmlns:xlink="http://www.w3.org/1999/xlink">
    <!-- Generator: Sketch 55.2 (78181) - https://sketchapp.com -->
    <title>Group 9</title>
    <desc>Created with Sketch.</desc>
    <defs>
        <polygon id="path-1" points="-0.0001 0.6624 766.9999 0.6624 766.9999 346 -0.0001 346"></polygon>
        <polygon id="path-3" points="0.0004 0.6624 767 0.6624 767 346 0.0004 346"></polygon>
        <polygon id="path-5" points="-0.0001 0.6624 766.9999 0.6624 766.9999 346 -0.0001 346"></polygon>
        <polygon id="path-7" points="0.0004 0.6624 767 0.6624 767 346 0.0004 346"></polygon>
    </defs>
    <g id="Page-1" stroke="none" stroke-width="1" fill="none" fill-rule="evenodd">
        <g id="Home-Page" transform="translate(0.000000, -2379.000000)">
            <g id="Group-9" transform="translate(-122.000000, 2373.000000)">
                <g id="Gras">
                    <path d="M2070.74597,342 L2057.5814,611.697463 C2055.8924,616.30729 2053.6614,620.707125 2050.9314,624.796971 C2046.1314,621.64709 2041.3314,618.487208 2036.5314,615.337326 C2034.3814,619.307177 2031.3114,622.777047 2027.6424,625.386949 C2022.3414,613.737386 2017.0414,602.087823 2011.7414,590.42826 C2009.3514,601.677839 2005.6914,612.647427 2000.8514,623.077036 C1999.3514,618.757198 1997.8514,614.43736 1996.3414,610.117522 C1991.9614,612.927417 1988.3414,616.897268 1985.9514,621.517094 C1985.3214,610.44751 1986.9414,599.257929 1990.6914,588.818321 C1982.2414,598.70795 1973.7914,608.597579 1965.3414,618.477208 C1962.5814,612.607429 1959.8214,606.727649 1957.0614,600.84787 C1954.2014,607.447622 1951.3314,614.057374 1948.4714,620.657127 C1945.4314,617.557243 1942.3814,614.44736 1939.3414,611.347476 C1937.5714,614.057374 1935.7914,616.767273 1934.0204,619.477171 C1930.6814,611.387474 1925.7614,603.957753 1919.6314,597.707987 C1920.7704,604.817721 1920.3414,612.167445 1918.3714,619.087186 C1916.5914,615.937304 1914.8214,612.797421 1913.0414,609.64754 C1911.9914,613.537394 1910.1214,617.207256 1907.5914,620.367138 C1904.6914,609.157558 1899.3114,598.617953 1891.9514,589.698288 C1890.5414,602.417811 1886.4414,614.847345 1880.0014,625.89693 C1876.1914,616.157295 1865.0114,609.90753 1854.7214,611.76746 C1852.7314,607.877606 1850.7514,603.987752 1848.7614,600.097898 C1845.1614,603.737761 1841.5514,607.377625 1837.9614,611.007489 C1838.2314,600.547881 1840.6914,590.138271 1845.1424,580.648627 C1830.4314,591.018238 1818.1114,604.747723 1809.3814,620.477133 C1806.0914,612.717424 1802.8014,604.957716 1799.5114,597.198007 C1797.7914,604.887718 1796.0714,612.57743 1794.3514,620.267141 C1789.9414,612.257442 1785.5314,604.237743 1781.1314,596.228043 C1782.4114,606.517657 1779.5514,617.257254 1773.3214,625.546943 C1770.4114,623.467021 1766.4114,623.027038 1763.1114,624.416986 C1759.7414,616.56728 1756.3714,608.707575 1753.0014,600.84787 C1748.2704,608.257592 1743.5414,615.667314 1738.8114,623.087036 C1735.3414,620.987114 1732.4114,617.997226 1730.3714,614.487358 C1727.9314,617.677238 1725.4814,620.867119 1723.0314,624.056999 C1719.6314,615.24733 1717.3014,606.027675 1716.1114,596.658027 C1712.3214,602.917792 1708.5314,609.177557 1704.7514,615.427323 C1703.6714,617.207256 1700.8714,620.687126 1700.0114,618.797196 C1699.3314,617.297253 1700.1424,618.497208 1698.5314,616.097298 C1697.6914,620.067149 1699.0514,623.617016 1698.2114,627.576867 C1696.8514,623.827008 1695.4914,620.087148 1694.1314,616.327289 C1689.9914,620.317139 1685.8514,624.29699 1681.7014,628.276841 C1676.2814,615.947303 1673.3214,602.527807 1673.0614,589.058312 C1668.8514,597.557993 1664.6424,606.057674 1660.4214,614.557355 C1658.0114,610.307515 1655.6014,606.067674 1653.2014,601.827833 C1651.5714,604.377737 1649.9414,606.937641 1648.3214,609.487546 C1647.1814,598.547956 1646.0514,587.598367 1644.9114,576.658777 C1638.9614,587.338376 1634.3614,598.777947 1631.2514,610.617503 C1629.6614,606.487658 1628.0614,602.357813 1626.4614,598.227968 C1623.1514,602.017826 1619.8314,605.807684 1616.5204,609.597541 C1615.9814,595.758061 1615.4414,581.91858 1614.9014,568.079099 C1607.6214,580.358638 1599.6014,592.198194 1590.8924,603.51777 C1590.4714,597.89798 1590.0414,592.288191 1589.6214,586.678401 C1584.7414,592.458184 1579.8714,598.227968 1574.9914,603.997752 C1573.8814,593.608141 1572.7814,583.218531 1571.6714,572.82892 C1571.6424,587.088386 1567.9414,601.327852 1561.0204,613.787384 C1561.9814,608.177595 1552.5414,608.817571 1547.8814,612.097448 C1547.3114,603.827758 1547.7614,595.488071 1549.2114,587.338376 C1542.7414,595.068086 1538.1614,604.377737 1535.9714,614.217368 C1534.6614,609.827533 1533.3514,605.427698 1532.0414,601.027863 C1529.4514,603.547768 1526.8614,606.057674 1524.2614,608.57758 C1525.0614,594.508107 1526.9814,580.488633 1529.9914,566.71915 C1522.6314,572.218943 1516.4114,579.22868 1511.8114,587.178382 C1510.9314,585.188457 1509.9914,583.22853 1508.9914,581.298603 C1505.0814,590.028275 1501.1714,598.767948 1497.2614,607.50762 C1492.8214,596.018051 1486.7704,585.148458 1479.3414,575.318827 C1477.7314,589.508295 1476.1114,603.687763 1474.4914,617.877231 C1468.8714,611.047487 1463.2614,604.217743 1457.6424,597.378 C1454.5414,600.907867 1450.6014,603.687763 1446.2314,605.417698 C1443.4814,599.657914 1440.7314,593.89813 1437.9814,588.148346 L1425.6514,599.937904 C1420.0514,588.948316 1413.0014,578.6987 1404.7414,569.539044 C1402.4514,566.999139 1400.0714,564.549231 1397.6114,562.189319 C1398.9414,565.209206 1400.0414,568.329089 1400.9114,571.50897 C1403.9514,582.588554 1404.2214,594.42811 1401.6014,605.617691 C1398.8214,602.017826 1396.0414,598.417961 1393.2704,594.818096 C1392.2014,599.047937 1391.1514,603.287778 1390.0914,607.517619 C1386.2614,599.337926 1381.8714,591.408224 1376.9414,583.838508 C1373.9614,579.23868 1370.7814,574.768848 1367.4214,570.43901 C1368.0614,576.418786 1368.2414,582.44856 1367.9514,588.458334 C1367.7014,593.658139 1367.1014,598.837945 1366.1614,603.957753 C1363.4214,600.507882 1360.6814,597.058012 1357.9314,593.618141 C1355.4714,590.518257 1353.0014,587.418373 1350.5414,584.31849 C1349.8514,589.238305 1348.8714,594.118122 1347.6214,598.917942 C1346.1014,604.757723 1344.1714,610.497508 1341.8614,616.067299 C1337.7814,614.877343 1333.9914,612.677426 1330.9614,609.697538 C1329.2814,614.417361 1326.6314,618.797196 1323.2414,622.497058 C1321.7814,619.567168 1320.3214,616.637277 1318.8614,613.707387 C1315.0714,606.107672 1311.2704,598.517957 1307.4814,590.908242 C1307.3114,602.907792 1303.5914,614.827345 1296.9314,624.796971 C1292.1314,621.64709 1287.3314,618.487208 1282.5314,615.337326 C1280.3814,619.307177 1277.3114,622.777047 1273.6424,625.386949 C1268.3414,613.737386 1263.0414,602.087823 1257.7414,590.42826 C1255.3514,601.677839 1251.6914,612.647427 1246.8514,623.077036 C1245.3514,618.757198 1243.8514,614.43736 1242.3414,610.117522 C1237.9614,612.927417 1234.3414,616.897268 1231.9514,621.517094 C1231.3214,610.44751 1232.9414,599.257929 1236.6914,588.818321 C1228.2414,598.70795 1219.7914,608.597579 1211.3414,618.477208 C1208.5814,612.607429 1205.8214,606.727649 1203.0614,600.84787 C1200.2014,607.447622 1197.3314,614.057374 1194.4714,620.657127 C1191.4314,617.557243 1188.3814,614.44736 1185.3414,611.347476 C1183.5714,614.057374 1181.7914,616.767273 1180.0204,619.477171 C1176.6814,611.387474 1171.7614,603.957753 1165.6314,597.707987 C1166.7704,604.817721 1166.3414,612.167445 1164.3714,619.087186 C1162.5914,615.937304 1160.8214,612.797421 1159.0414,609.64754 C1157.9914,613.537394 1156.1214,617.207256 1153.5914,620.367138 C1150.6914,609.157558 1145.3114,598.617953 1137.9514,589.698288 C1136.5414,602.417811 1132.4414,614.847345 1126.0014,625.89693 C1122.1914,616.157295 1111.0114,609.90753 1100.7214,611.76746 C1098.7314,607.877606 1096.7514,603.987752 1094.7614,600.097898 C1091.1614,603.737761 1087.5514,607.377625 1083.9614,611.007489 C1084.2314,600.547881 1086.6914,590.138271 1091.1414,580.648627 C1076.4314,591.018238 1064.1114,604.747723 1055.3814,620.477133 C1052.0914,612.717424 1048.8014,604.957716 1045.5114,597.198007 C1043.7914,604.887718 1042.0714,612.57743 1040.3514,620.267141 C1035.9414,612.257442 1031.5314,604.237743 1027.1314,596.228043 C1028.4114,606.517657 1025.5514,617.257254 1019.3214,625.546943 C1016.4114,623.467021 1012.4114,623.027038 1009.1114,624.416986 C1005.7414,616.56728 1002.3714,608.707575 999.001397,600.84787 C994.271397,608.257592 989.541397,615.667314 984.811397,623.087036 C981.341397,620.987114 978.411397,617.997226 976.371397,614.487358 C973.931397,617.677238 971.481397,620.867119 969.031397,624.056999 C965.631397,615.24733 963.301397,606.027675 962.111397,596.658027 C958.321397,602.917792 954.531397,609.177557 950.751397,615.427323 C949.671397,617.207256 946.871397,620.687126 946.011397,618.797196 C945.331397,617.297253 946.141397,618.497208 944.531397,616.097298 C943.691397,620.067149 945.051397,623.617016 944.211397,627.576867 C942.851397,623.827008 941.491397,620.087148 940.131397,616.327289 C935.991397,620.317139 931.851397,624.29699 927.701397,628.276841 C922.281397,615.947303 919.321397,602.527807 919.061397,589.058312 C914.851397,597.557993 910.641397,606.057674 906.421397,614.557355 C904.011397,610.307515 901.601397,606.067674 899.201397,601.827833 C897.571397,604.377737 895.941397,606.937641 894.321397,609.487546 C893.181397,598.547956 892.051397,587.598367 890.911397,576.658777 C884.961397,587.338376 880.361397,598.777947 877.251397,610.617503 C875.661397,606.487658 874.061397,602.357813 872.461397,598.227968 C869.151397,602.017826 865.831397,605.807684 862.521397,609.597541 C861.981397,595.758061 861.441397,581.91858 860.901397,568.079099 C853.621397,580.358638 845.601397,592.198194 836.891397,603.51777 C836.471397,597.89798 836.041397,592.288191 835.621397,586.678401 C830.741397,592.458184 825.871397,598.227968 820.991397,603.997752 C819.881397,593.608141 818.781397,583.218531 817.671397,572.82892 C817.641397,587.088386 813.941397,601.327852 807.021397,613.787384 C807.981397,608.177595 798.541397,608.817571 793.881397,612.097448 C793.311397,603.827758 793.761397,595.488071 795.211397,587.338376 C788.741397,595.068086 784.161397,604.377737 781.971397,614.217368 C780.661397,609.827533 779.351397,605.427698 778.041397,601.027863 C775.451397,603.547768 772.861397,606.057674 770.261397,608.57758 C771.061397,594.508107 772.981397,580.488633 775.991397,566.71915 C767.281397,573.228905 760.161397,581.858582 755.431397,591.648215 C753.881397,587.428373 752.051397,583.298528 749.991397,579.298678 C746.081397,588.02835 742.171397,596.768023 738.261397,605.507695 C733.821397,594.018126 727.771397,583.148533 720.341397,573.318902 C718.731397,587.50837 717.111397,601.687838 715.491397,615.877306 C709.871397,609.047562 704.261397,602.217818 698.641397,595.378075 C695.541397,598.907942 691.601397,601.687838 687.231397,603.417773 C684.481397,597.657989 681.731397,591.898205 678.981397,586.148421 L666.651397,597.937979 C661.051397,586.948391 654.001397,576.698775 645.741397,567.539119 C643.451397,564.999214 641.071397,562.549306 638.611397,560.189394 C639.941397,563.209281 641.041397,566.329164 641.911397,569.509045 C644.951397,580.588629 645.221397,592.428185 642.601397,603.617766 C639.821397,600.017901 637.041397,596.418036 634.271397,592.818171 C633.201397,597.048012 632.151397,601.287853 631.091397,605.517695 C627.261397,597.338001 622.871397,589.408299 617.941397,581.838583 C614.961397,577.238755 611.781397,572.768923 608.421397,568.439085 C609.061397,574.418861 609.241397,580.448635 608.951397,586.458409 C608.701397,591.658214 608.101397,596.83802 607.161397,601.957828 C604.421397,598.507957 601.681397,595.058087 598.931397,591.618216 C596.471397,588.518332 594.001397,585.418448 591.541397,582.318565 C590.851397,587.23838 589.871397,592.118197 588.621397,596.918017 C587.101397,602.757798 585.171397,608.497583 582.861397,614.067374 C578.781397,612.877418 574.991397,610.677501 571.961397,607.697613 C570.281397,612.417436 567.631397,616.797271 564.241397,620.497133 C562.781397,617.567243 561.321397,614.637352 559.861397,611.707462 C556.071397,604.107747 552.271397,596.518032 548.481397,588.908317 C548.311397,600.907867 544.591397,612.82742 537.931397,622.797046 C533.131397,619.647165 528.331397,616.487283 523.531397,613.337401 C521.381397,617.307252 518.311397,620.777122 514.641397,623.387024 C509.341397,611.737461 504.041397,600.087898 498.741397,588.428335 C496.351397,599.677914 492.691397,610.647502 487.851397,621.077111 C486.351397,616.757273 484.851397,612.437435 483.341397,608.117597 C478.961397,610.927492 475.341397,614.897343 472.951397,619.517169 C472.321397,608.447585 473.941397,597.258004 477.691397,586.818396 C469.241397,596.708025 460.791397,606.597654 452.341397,616.477283 C449.581397,610.607504 446.821397,604.727724 444.061397,598.847945 C441.201397,605.447697 438.331397,612.057449 435.471397,618.657202 C432.431397,615.557318 429.381397,612.447435 426.341397,609.347551 C424.571397,612.057449 422.791397,614.767348 421.021397,617.477246 C417.681397,609.387549 412.761397,601.957828 406.631397,595.708062 C407.771397,602.817796 407.341397,610.16752 405.371397,617.087261 C403.591397,613.937379 401.821397,610.797496 400.041397,607.647615 C398.991397,611.537469 397.121397,615.207331 394.591397,618.367213 C391.691397,607.157633 386.311397,596.618028 378.951397,587.698363 C377.541397,600.417886 373.441397,612.84742 367.001397,623.897005 C363.191397,614.15737 352.011397,607.907605 341.721397,609.767535 C339.731397,605.877681 337.751397,601.987827 335.761397,598.097973 C332.161397,601.737836 328.551397,605.3777 324.961397,609.007564 C325.231397,598.547956 327.691397,588.138346 332.141397,578.648702 C317.431397,589.018313 305.111397,602.747798 296.381397,618.477208 C293.091397,610.717499 289.801397,602.957791 286.511397,595.198082 C284.791397,602.887793 283.071397,610.577505 281.351397,618.267216 C276.941397,610.257517 272.531397,602.237818 268.131397,594.228118 C269.411397,604.517732 266.551397,615.257329 260.321397,623.547018 C257.411397,621.467096 253.411397,621.027113 250.111397,622.417061 C246.741397,614.567355 243.371397,606.70765 240.001397,598.847945 C235.271397,606.257667 230.541397,613.667389 225.811397,621.087111 C222.341397,618.987189 219.411397,615.997301 217.371397,612.487433 C214.931397,615.677313 212.481397,618.867194 210.031397,622.057074 C206.631397,613.247405 204.301397,604.02775 203.111397,594.658102 C199.321397,600.917867 195.531397,607.177632 191.751397,613.427398 C190.671397,615.207331 187.871397,618.687201 187.011397,616.797271 C186.331397,615.297328 187.141397,616.497283 185.531397,614.097373 C184.691397,618.067224 186.051397,621.617091 185.211397,625.576942 C183.851397,621.827083 182.491397,618.087223 181.131397,614.327364 C176.991397,618.317214 172.851397,622.297065 168.701397,626.276916 C163.281397,613.947378 160.321397,600.527882 160.061397,587.058387 C155.851397,595.558068 151.641397,604.057749 147.421397,612.55743 C145.011397,608.30759 142.601397,604.067749 140.201397,599.827908 C138.571397,602.377812 136.941397,604.937716 135.321397,607.487621 C134.181397,596.548031 133.051397,585.598442 131.911397,574.658852 C125.961397,585.338451 121.361397,596.778022 118.251397,608.617578 C116.661397,604.487733 115.061397,600.357888 113.461397,596.228043 C111.171397,598.847945 108.871397,601.477846 106.581397,604.097748 L92.244584,377.147125 L2070.74597,342 Z" id="Gras-Copy-2" fill="#476735"></path>
                    <g id="Gras-achter-Copy-2" opacity="0.494349888" transform="translate(1140.000000, 177.500000) scale(-1, 1) translate(-1140.000000, -177.500000) ">
                        <path d="M767,38.7305 L767,352.2085 L0,352.2085 L0,12.1375 C2.514,8.0905 5.024,4.0475 7.534,0.0005 C7.502,12.3985 7.474,24.7925 7.442,37.1895 C12.169,27.0455 19.443,18.0985 28.406,11.3975 C25.396,25.1715 23.479,39.1835 22.682,53.2575 C25.276,50.7405 27.87,48.2265 30.464,45.7085 C31.773,50.1035 33.082,54.5025 34.391,58.9025 C36.577,49.0545 41.156,39.7485 47.625,32.0135 C46.176,40.1715 45.732,48.5105 46.304,56.7775 C50.96,53.4945 60.403,52.8535 59.442,58.4705 C66.36,46.0045 70.063,31.7695 70.095,17.5095 C71.2,27.8985 72.305,38.2905 73.41,48.6785 C78.285,42.9065 83.161,37.1335 88.037,31.3575 C88.461,36.9695 88.886,42.5825 89.306,48.1945 C98.017,36.8805 106.039,25.0405 113.316,12.7585 C113.857,26.5975 114.397,40.4405 114.938,54.2795 C118.252,50.4885 121.567,46.6975 124.882,42.9065 C126.479,47.0375 128.076,51.1645 129.673,55.2955 C132.78,43.4625 137.379,32.0215 143.328,21.3335 C144.465,32.2775 145.602,43.2265 146.739,54.1705 C148.364,51.6175 149.989,49.0625 151.619,46.5085 C154.024,50.7515 156.435,54.9915 158.844,59.2345 C163.056,50.7365 167.271,42.2375 171.482,33.7355 C171.742,47.2095 174.701,60.6245 180.125,72.9585 C184.268,68.9745 188.407,64.9955 192.551,61.0115 C193.912,64.7625 195.269,68.5095 196.63,72.2605 C197.475,68.2935 196.109,64.7475 196.954,60.7805 C198.555,63.1815 197.755,61.9815 198.431,63.4745 C199.288,65.3635 202.09,61.8845 203.167,60.1115 C206.954,53.8545 210.745,47.5975 214.532,41.3405 C215.725,50.7085 218.055,59.9275 221.453,68.7345 C223.899,65.5475 226.345,62.3615 228.795,59.1705 C230.829,62.6815 233.759,65.6645 237.229,67.7655 C241.957,60.3515 246.689,52.9415 251.417,45.5325 C254.787,53.3905 258.158,61.2445 261.533,69.1025 C264.827,67.7055 268.834,68.1455 271.745,70.2275 C277.974,61.9415 280.832,51.1965 279.547,40.9085 C283.954,48.9185 288.362,56.9325 292.769,64.9435 C294.49,57.2525 296.212,49.5675 297.933,41.8765 C301.224,49.6395 304.514,57.3975 307.805,65.1595 C316.528,49.4225 328.849,35.6965 343.557,25.3325 C339.109,34.8155 336.647,45.2235 336.375,55.6925 C339.974,52.0575 343.577,48.4185 347.18,44.7795 C349.165,48.6675 351.151,52.5535 353.136,56.4445 C363.432,54.5835 374.609,60.8355 378.416,70.5805 C384.857,59.5235 388.956,47.1015 390.365,34.3785 C397.731,43.2985 403.111,53.8425 406.01,65.0425 C408.536,61.8925 410.405,58.2215 411.458,54.3275 L416.79,63.7665 C418.76,56.8485 419.192,49.4955 418.051,42.3895 C424.184,48.6345 429.096,56.0685 432.438,64.1585 C434.211,61.4485 435.985,58.7385 437.758,56.0285 C440.801,59.1305 443.847,62.2335 446.89,65.3355 C449.752,58.7345 452.618,52.1285 455.48,45.5285 C458.238,51.4045 461,57.2855 463.763,63.1625 C472.213,53.2745 480.664,43.3905 489.115,33.5025 C485.36,43.9345 483.738,55.1275 484.375,66.1965 C486.765,61.5765 490.384,57.6055 494.763,54.7995 C496.268,59.1195 497.77,63.4385 499.274,67.7575 C504.114,57.3295 507.773,46.3565 510.159,35.1125 C515.459,46.7645 520.755,58.4175 526.056,70.0715 C529.734,67.4575 532.805,63.9865 534.951,60.0195 C539.75,63.1695 544.546,66.3245 549.346,69.4745 C556.015,59.5065 559.73,47.5855 559.902,35.5925 C563.693,43.1945 567.488,50.7925 571.279,58.3905 C572.74,61.3205 574.201,64.2475 575.662,67.1725 C579.053,63.4825 581.695,59.1025 583.376,54.3785 C586.415,57.3535 590.198,59.5595 594.281,60.7485 C596.595,55.1755 598.52,49.4395 600.038,43.5985 C601.287,38.7945 602.267,33.9185 602.956,28.9995 C605.421,32.0975 607.888,35.1965 610.354,38.2935 C613.096,41.7415 615.842,45.1915 618.584,48.6385 C619.524,43.5185 620.121,38.3385 620.365,33.1425 C620.658,27.1295 620.478,21.1005 619.837,15.1165 C623.2,19.4435 626.378,23.9155 629.364,28.5145 C634.288,36.0925 638.684,44.0145 642.511,52.2015 C643.567,47.9655 644.625,43.7305 645.685,39.4955 C648.459,43.0985 651.237,46.6975 654.016,50.2995 C656.642,39.1115 656.37,27.2695 653.331,16.1895 C652.458,13.0105 651.357,9.8925 650.033,6.8705 C652.495,9.2315 654.872,11.6815 657.158,14.2195 C665.417,23.3825 672.474,33.6265 678.074,44.6195 L690.396,32.8265 C693.15,38.5835 695.9,44.3385 698.655,50.0955 C703.018,48.3665 706.961,45.5875 710.056,42.0615 C715.676,48.8945 721.292,55.7235 726.913,62.5575 C728.53,48.3705 730.147,34.1835 731.765,20.0005 C739.186,29.8325 745.239,40.7005 749.683,52.1895 C753.594,43.4505 757.504,34.7115 761.412,25.9765 C763.537,30.1085 765.407,34.3715 767,38.7305" id="Fill-1" fill="#476735"></path>
                        <g id="Group-5" transform="translate(759.000000, 8.208000)">
                            <mask id="mask-2" fill="white">
                                <use xlink:href="#path-1"></use>
                            </mask>
                            <g id="Clip-4"></g>
                            <path d="M7.4419,30.9814 C12.1699,20.8374 19.4429,11.8904 28.4059,5.1894 C25.3959,18.9634 23.4789,32.9754 22.6819,47.0494 C25.2759,44.5324 27.8699,42.0184 30.4639,39.5004 C31.7729,43.8954 33.0819,48.2944 34.3909,52.6944 C36.5769,42.8464 41.1559,33.5404 47.6249,25.8054 C46.1759,33.9634 45.7319,42.3024 46.3039,50.5694 C50.9599,47.2864 60.4029,46.6454 59.4419,52.2624 C66.3599,39.7964 70.0629,25.5614 70.0949,11.3014 C71.1999,21.6904 72.3049,32.0824 73.4099,42.4704 C78.2849,36.6984 83.1609,30.9254 88.0369,25.1494 C88.4619,30.7614 88.8859,36.3744 89.3059,41.9864 C98.0169,30.6724 106.0389,18.8324 113.3169,6.5504 C113.8569,20.3894 114.3979,34.2324 114.9379,48.0714 C118.2529,44.2804 121.5669,40.4894 124.8819,36.6984 C126.4789,40.8294 128.0759,44.9564 129.6729,49.0874 C132.7799,37.2544 137.3789,25.8134 143.3279,15.1254 C144.4649,26.0694 145.6019,37.0184 146.7389,47.9624 C148.3639,45.4094 149.9889,42.8544 151.6189,40.3004 C154.0249,44.5444 156.4349,48.7834 158.8439,53.0264 C163.0559,44.5284 167.2709,36.0294 171.4819,27.5274 C171.7419,41.0014 174.7009,54.4164 180.1249,66.7504 C184.2679,62.7664 188.4069,58.7874 192.5509,54.8034 C193.9119,58.5544 195.2689,62.3014 196.6299,66.0524 C197.4749,62.0854 196.1089,58.5394 196.9539,54.5724 C198.5549,56.9734 197.7549,55.7734 198.4309,57.2664 C199.2879,59.1554 202.0899,55.6764 203.1669,53.9034 C206.9539,47.6464 210.7449,41.3894 214.5319,35.1324 C215.7249,44.5004 218.0549,53.7194 221.4529,62.5264 C223.8999,59.3394 226.3449,56.1534 228.7949,52.9624 C230.8279,56.4734 233.7589,59.4564 237.2299,61.5574 C241.9569,54.1434 246.6899,46.7334 251.4169,39.3244 C254.7869,47.1824 258.1579,55.0364 261.5319,62.8944 C264.8269,61.4974 268.8339,61.9374 271.7439,64.0194 C277.9739,55.7334 280.8319,44.9884 279.5469,34.7004 C283.9539,42.7104 288.3609,50.7244 292.7689,58.7354 C294.4899,51.0444 296.2119,43.3594 297.9329,35.6684 C301.2239,43.4314 304.5149,51.1894 307.8049,58.9514 C316.5269,43.2144 328.8499,29.4884 343.5569,19.1244 C339.1089,28.6074 336.6479,39.0154 336.3749,49.4844 C339.9739,45.8494 343.5769,42.2104 347.1799,38.5714 C349.1649,42.4594 351.1499,46.3454 353.1369,50.2364 C363.4329,48.3754 374.6089,54.6274 378.4159,64.3724 C384.8579,53.3154 388.9559,40.8934 390.3649,28.1704 C397.7319,37.0904 403.1109,47.6344 406.0099,58.8354 C408.5349,55.6844 410.4049,52.0134 411.4579,48.1194 L416.7899,57.5584 C418.7599,50.6404 419.1919,43.2874 418.0509,36.1814 C424.1839,42.4264 429.0959,49.8604 432.4389,57.9504 L437.7589,49.8204 C440.8009,52.9224 443.8479,56.0254 446.8899,59.1274 C449.7519,52.5264 452.6179,45.9204 455.4809,39.3204 C458.2379,45.1964 461.0009,51.0774 463.7629,56.9544 C472.2139,47.0664 480.6639,37.1824 489.1139,27.2944 C485.3589,37.7264 483.7379,48.9194 484.3749,59.9884 C486.7649,55.3684 490.3839,51.3974 494.7629,48.5914 C496.2689,52.9114 497.7699,57.2304 499.2749,61.5494 C504.1139,51.1214 507.7739,40.1484 510.1589,28.9044 C515.4589,40.5564 520.7549,52.2104 526.0559,63.8634 C529.7339,61.2494 532.8049,57.7784 534.9499,53.8114 C539.7499,56.9614 544.5459,60.1164 549.3459,63.2664 C556.0149,53.2984 559.7299,41.3774 559.9019,29.3844 C563.6929,36.9864 567.4879,44.5844 571.2789,52.1824 C572.7399,55.1124 574.2009,58.0394 575.6619,60.9644 C579.0529,57.2744 581.6949,52.8944 583.3759,48.1704 C586.4149,51.1454 590.1969,53.3514 594.2809,54.5404 C596.5949,48.9674 598.5209,43.2314 600.0369,37.3904 C601.2859,32.5864 602.2679,27.7104 602.9559,22.7914 C605.4219,25.8894 607.8879,28.9884 610.3539,32.0854 C613.0959,35.5334 615.8419,38.9834 618.5839,42.4304 C619.5249,37.3104 620.1209,32.1304 620.3649,26.9344 C620.6569,20.9214 620.4779,14.8924 619.8369,8.9084 C623.1989,13.2354 626.3779,17.7074 629.3639,22.3064 C634.2879,29.8844 638.6839,37.8064 642.5109,45.9934 C643.5669,41.7574 644.6239,37.5224 645.6859,33.2874 C648.4589,36.8904 651.2369,40.4894 654.0159,44.0914 C656.6419,32.9034 656.3689,21.0614 653.3309,9.9814 C652.4579,6.8024 651.3579,3.6844 650.0319,0.6624 C652.4939,3.0234 654.8719,5.4734 657.1579,8.0114 C665.4169,17.1744 672.4739,27.4184 678.0739,38.4114 L690.3969,26.6184 C693.1499,32.3754 695.8999,38.1304 698.6539,43.8874 C703.0179,42.1584 706.9609,39.3794 710.0559,35.8534 C715.6759,42.6864 721.2919,49.5154 726.9129,56.3494 C728.5299,42.1624 730.1479,27.9754 731.7649,13.7924 C739.1869,23.6244 745.2389,34.4924 749.6829,45.9814 C753.5939,37.2424 757.5049,28.5034 761.4119,19.7684 C763.5369,23.9004 765.4069,28.1634 766.9999,32.5224 L766.9999,346.0004 L-0.0001,346.0004" id="Fill-3" fill="#476735" mask="url(#mask-2)"></path>
                        </g>
                        <g id="Group-8" transform="translate(1513.000000, 8.208000)">
                            <mask id="mask-4" fill="white">
                                <use xlink:href="#path-3"></use>
                            </mask>
                            <g id="Clip-7"></g>
                            <path d="M7.4414,30.9814 C12.1704,20.8374 19.4434,11.8904 28.4064,5.1894 C25.3954,18.9634 23.4784,32.9754 22.6814,47.0494 C25.2754,44.5324 27.8704,42.0184 30.4634,39.5004 C31.7724,43.8954 33.0824,48.2944 34.3904,52.6944 C36.5764,42.8464 41.1564,33.5404 47.6254,25.8054 C46.1754,33.9634 45.7314,42.3024 46.3044,50.5694 C50.9604,47.2864 60.4034,46.6454 59.4424,52.2624 C66.3604,39.7964 70.0624,25.5614 70.0944,11.3014 C71.1994,21.6904 72.3044,32.0824 73.4094,42.4704 C78.2854,36.6984 83.1614,30.9254 88.0374,25.1494 C88.4614,30.7614 88.8854,36.3744 89.3054,41.9864 C98.0164,30.6724 106.0394,18.8324 113.3164,6.5504 C113.8574,20.3894 114.3974,34.2324 114.9374,48.0714 C118.2534,44.2804 121.5674,40.4894 124.8814,36.6984 C126.4784,40.8294 128.0764,44.9564 129.6734,49.0874 C132.7804,37.2544 137.3794,25.8134 143.3284,15.1254 C144.4644,26.0694 145.6014,37.0184 146.7394,47.9624 C148.3644,45.4094 149.9894,42.8544 151.6184,40.3004 C154.0244,44.5444 156.4344,48.7834 158.8444,53.0264 C163.0554,44.5284 167.2704,36.0294 171.4824,27.5274 C171.7424,41.0014 174.7004,54.4164 180.1254,66.7504 C184.2684,62.7664 188.4074,58.7874 192.5504,54.8034 C193.9124,58.5544 195.2684,62.3014 196.6294,66.0524 C197.4744,62.0854 196.1094,58.5394 196.9544,54.5724 C198.5554,56.9734 197.7544,55.7734 198.4314,57.2664 C199.2884,59.1554 202.0894,55.6764 203.1674,53.9034 C206.9544,47.6464 210.7454,41.3894 214.5324,35.1324 C215.7244,44.5004 218.0544,53.7194 221.4534,62.5264 C223.8994,59.3394 226.3444,56.1534 228.7954,52.9624 C230.8284,56.4734 233.7584,59.4564 237.2294,61.5574 C241.9574,54.1434 246.6894,46.7334 251.4174,39.3244 C254.7874,47.1824 258.1584,55.0364 261.5324,62.8944 C264.8274,61.4974 268.8344,61.9374 271.7444,64.0194 C277.9734,55.7334 280.8324,44.9884 279.5464,34.7004 C283.9544,42.7104 288.3614,50.7244 292.7684,58.7354 C294.4904,51.0444 296.2124,43.3594 297.9324,35.6684 C301.2234,43.4314 304.5144,51.1894 307.8044,58.9514 C316.5274,43.2144 328.8494,29.4884 343.5564,19.1244 C339.1094,28.6074 336.6474,39.0154 336.3754,49.4844 C339.9734,45.8494 343.5774,42.2104 347.1794,38.5714 C349.1654,42.4594 351.1504,46.3454 353.1364,50.2364 C363.4324,48.3754 374.6094,54.6274 378.4164,64.3724 C384.8574,53.3154 388.9564,40.8934 390.3654,28.1704 C397.7314,37.0904 403.1114,47.6344 406.0094,58.8354 C408.5354,55.6844 410.4054,52.0134 411.4584,48.1194 L416.7904,57.5584 C418.7594,50.6404 419.1914,43.2874 418.0504,36.1814 C424.1834,42.4264 429.0954,49.8604 432.4384,57.9504 L437.7584,49.8204 C440.8004,52.9224 443.8474,56.0254 446.8894,59.1274 C449.7524,52.5264 452.6184,45.9204 455.4804,39.3204 C458.2384,45.1964 461.0014,51.0774 463.7624,56.9544 C472.2134,47.0664 480.6644,37.1824 489.1144,27.2944 C485.3594,37.7264 483.7384,48.9194 484.3754,59.9884 C486.7644,55.3684 490.3834,51.3974 494.7624,48.5914 C496.2684,52.9114 497.7694,57.2304 499.2744,61.5494 C504.1144,51.1214 507.7734,40.1484 510.1594,28.9044 C515.4594,40.5564 520.7544,52.2104 526.0554,63.8634 C529.7344,61.2494 532.8044,57.7784 534.9504,53.8114 C539.7504,56.9614 544.5454,60.1164 549.3454,63.2664 C556.0144,53.2984 559.7294,41.3774 559.9024,29.3844 C563.6934,36.9864 567.4884,44.5844 571.2794,52.1824 C572.7404,55.1124 574.2014,58.0394 575.6624,60.9644 C579.0524,57.2744 581.6954,52.8944 583.3764,48.1704 C586.4154,51.1454 590.1974,53.3514 594.2814,54.5404 C596.5944,48.9674 598.5204,43.2314 600.0374,37.3904 C601.2864,32.5864 602.2674,27.7104 602.9564,22.7914 C605.4214,25.8894 607.8874,28.9884 610.3534,32.0854 C613.0954,35.5334 615.8414,38.9834 618.5844,42.4304 C619.5244,37.3104 620.1214,32.1304 620.3654,26.9344 C620.6574,20.9214 620.4774,14.8924 619.8374,8.9084 C623.1994,13.2354 626.3784,17.7074 629.3644,22.3064 C634.2884,29.8844 638.6834,37.8064 642.5104,45.9934 C643.5674,41.7574 644.6244,37.5224 645.6854,33.2874 C648.4594,36.8904 651.2374,40.4894 654.0154,44.0914 C656.6414,32.9034 656.3694,21.0614 653.3314,9.9814 C652.4584,6.8024 651.3574,3.6844 650.0324,0.6624 C652.4944,3.0234 654.8724,5.4734 657.1584,8.0114 C665.4174,17.1744 672.4734,27.4184 678.0744,38.4114 L690.3964,26.6184 C693.1504,32.3754 695.9004,38.1304 698.6544,43.8874 C703.0174,42.1584 706.9614,39.3794 710.0554,35.8534 C715.6754,42.6864 721.2924,49.5154 726.9134,56.3494 C728.5304,42.1624 730.1474,27.9754 731.7644,13.7924 C739.1864,23.6244 745.2394,34.4924 749.6824,45.9814 C753.5934,37.2424 757.5044,28.5034 761.4124,19.7684 C763.5374,23.9004 765.4074,28.1634 767.0004,32.5224 L767.0004,346.0004 L0.0004,346.0004" id="Fill-6" fill="#476735" mask="url(#mask-4)"></path>
                        </g>
                    </g>
                    <g id="Gras-Voor-Copy-2" transform="translate(0.000000, 41.000000)">
                        <path d="M767,38.7305 L767,352.2085 L0,352.2085 L0,12.1375 C2.514,8.0905 5.024,4.0475 7.534,0.0005 C7.502,12.3985 7.474,24.7925 7.442,37.1895 C12.169,27.0455 19.443,18.0985 28.406,11.3975 C25.396,25.1715 23.479,39.1835 22.682,53.2575 C25.276,50.7405 27.87,48.2265 30.464,45.7085 C31.773,50.1035 33.082,54.5025 34.391,58.9025 C36.577,49.0545 41.156,39.7485 47.625,32.0135 C46.176,40.1715 45.732,48.5105 46.304,56.7775 C50.96,53.4945 60.403,52.8535 59.442,58.4705 C66.36,46.0045 70.063,31.7695 70.095,17.5095 C71.2,27.8985 72.305,38.2905 73.41,48.6785 C78.285,42.9065 83.161,37.1335 88.037,31.3575 C88.461,36.9695 88.886,42.5825 89.306,48.1945 C98.017,36.8805 106.039,25.0405 113.316,12.7585 C113.857,26.5975 114.397,40.4405 114.938,54.2795 C118.252,50.4885 121.567,46.6975 124.882,42.9065 C126.479,47.0375 128.076,51.1645 129.673,55.2955 C132.78,43.4625 137.379,32.0215 143.328,21.3335 C144.465,32.2775 145.602,43.2265 146.739,54.1705 C148.364,51.6175 149.989,49.0625 151.619,46.5085 C154.024,50.7515 156.435,54.9915 158.844,59.2345 C163.056,50.7365 167.271,42.2375 171.482,33.7355 C171.742,47.2095 174.701,60.6245 180.125,72.9585 C184.268,68.9745 188.407,64.9955 192.551,61.0115 C193.912,64.7625 195.269,68.5095 196.63,72.2605 C197.475,68.2935 196.109,64.7475 196.954,60.7805 C198.555,63.1815 197.755,61.9815 198.431,63.4745 C199.288,65.3635 202.09,61.8845 203.167,60.1115 C206.954,53.8545 210.745,47.5975 214.532,41.3405 C215.725,50.7085 218.055,59.9275 221.453,68.7345 C223.899,65.5475 226.345,62.3615 228.795,59.1705 C230.829,62.6815 233.759,65.6645 237.229,67.7655 C241.957,60.3515 246.689,52.9415 251.417,45.5325 C254.787,53.3905 258.158,61.2445 261.533,69.1025 C264.827,67.7055 268.834,68.1455 271.745,70.2275 C277.974,61.9415 280.832,51.1965 279.547,40.9085 C283.954,48.9185 288.362,56.9325 292.769,64.9435 C294.49,57.2525 296.212,49.5675 297.933,41.8765 C301.224,49.6395 304.514,57.3975 307.805,65.1595 C316.528,49.4225 328.849,35.6965 343.557,25.3325 C339.109,34.8155 336.647,45.2235 336.375,55.6925 C339.974,52.0575 343.577,48.4185 347.18,44.7795 C349.165,48.6675 351.151,52.5535 353.136,56.4445 C363.432,54.5835 374.609,60.8355 378.416,70.5805 C384.857,59.5235 388.956,47.1015 390.365,34.3785 C397.731,43.2985 403.111,53.8425 406.01,65.0425 C408.536,61.8925 410.405,58.2215 411.458,54.3275 L416.79,63.7665 C418.76,56.8485 419.192,49.4955 418.051,42.3895 C424.184,48.6345 429.096,56.0685 432.438,64.1585 C434.211,61.4485 435.985,58.7385 437.758,56.0285 C440.801,59.1305 443.847,62.2335 446.89,65.3355 C449.752,58.7345 452.618,52.1285 455.48,45.5285 C458.238,51.4045 461,57.2855 463.763,63.1625 C472.213,53.2745 480.664,43.3905 489.115,33.5025 C485.36,43.9345 483.738,55.1275 484.375,66.1965 C486.765,61.5765 490.384,57.6055 494.763,54.7995 C496.268,59.1195 497.77,63.4385 499.274,67.7575 C504.114,57.3295 507.773,46.3565 510.159,35.1125 C515.459,46.7645 520.755,58.4175 526.056,70.0715 C529.734,67.4575 532.805,63.9865 534.951,60.0195 C539.75,63.1695 544.546,66.3245 549.346,69.4745 C556.015,59.5065 559.73,47.5855 559.902,35.5925 C563.693,43.1945 567.488,50.7925 571.279,58.3905 C572.74,61.3205 574.201,64.2475 575.662,67.1725 C579.053,63.4825 581.695,59.1025 583.376,54.3785 C586.415,57.3535 590.198,59.5595 594.281,60.7485 C596.595,55.1755 598.52,49.4395 600.038,43.5985 C601.287,38.7945 602.267,33.9185 602.956,28.9995 C605.421,32.0975 607.888,35.1965 610.354,38.2935 C613.096,41.7415 615.842,45.1915 618.584,48.6385 C619.524,43.5185 620.121,38.3385 620.365,33.1425 C620.658,27.1295 620.478,21.1005 619.837,15.1165 C623.2,19.4435 626.378,23.9155 629.364,28.5145 C634.288,36.0925 638.684,44.0145 642.511,52.2015 C643.567,47.9655 644.625,43.7305 645.685,39.4955 C648.459,43.0985 651.237,46.6975 654.016,50.2995 C656.642,39.1115 656.37,27.2695 653.331,16.1895 C652.458,13.0105 651.357,9.8925 650.033,6.8705 C652.495,9.2315 654.872,11.6815 657.158,14.2195 C665.417,23.3825 672.474,33.6265 678.074,44.6195 L690.396,32.8265 C693.15,38.5835 695.9,44.3385 698.655,50.0955 C703.018,48.3665 706.961,45.5875 710.056,42.0615 C715.676,48.8945 721.292,55.7235 726.913,62.5575 C728.53,48.3705 730.147,34.1835 731.765,20.0005 C739.186,29.8325 745.239,40.7005 749.683,52.1895 C753.594,43.4505 757.504,34.7115 761.412,25.9765 C763.537,30.1085 765.407,34.3715 767,38.7305" id="Fill-1" fill="#476735"></path>
                        <g id="Group-5" transform="translate(759.000000, 8.208000)">
                            <mask id="mask-6" fill="white">
                                <use xlink:href="#path-5"></use>
                            </mask>
                            <g id="Clip-4"></g>
                            <path d="M7.4419,30.9814 C12.1699,20.8374 19.4429,11.8904 28.4059,5.1894 C25.3959,18.9634 23.4789,32.9754 22.6819,47.0494 C25.2759,44.5324 27.8699,42.0184 30.4639,39.5004 C31.7729,43.8954 33.0819,48.2944 34.3909,52.6944 C36.5769,42.8464 41.1559,33.5404 47.6249,25.8054 C46.1759,33.9634 45.7319,42.3024 46.3039,50.5694 C50.9599,47.2864 60.4029,46.6454 59.4419,52.2624 C66.3599,39.7964 70.0629,25.5614 70.0949,11.3014 C71.1999,21.6904 72.3049,32.0824 73.4099,42.4704 C78.2849,36.6984 83.1609,30.9254 88.0369,25.1494 C88.4619,30.7614 88.8859,36.3744 89.3059,41.9864 C98.0169,30.6724 106.0389,18.8324 113.3169,6.5504 C113.8569,20.3894 114.3979,34.2324 114.9379,48.0714 C118.2529,44.2804 121.5669,40.4894 124.8819,36.6984 C126.4789,40.8294 128.0759,44.9564 129.6729,49.0874 C132.7799,37.2544 137.3789,25.8134 143.3279,15.1254 C144.4649,26.0694 145.6019,37.0184 146.7389,47.9624 C148.3639,45.4094 149.9889,42.8544 151.6189,40.3004 C154.0249,44.5444 156.4349,48.7834 158.8439,53.0264 C163.0559,44.5284 167.2709,36.0294 171.4819,27.5274 C171.7419,41.0014 174.7009,54.4164 180.1249,66.7504 C184.2679,62.7664 188.4069,58.7874 192.5509,54.8034 C193.9119,58.5544 195.2689,62.3014 196.6299,66.0524 C197.4749,62.0854 196.1089,58.5394 196.9539,54.5724 C198.5549,56.9734 197.7549,55.7734 198.4309,57.2664 C199.2879,59.1554 202.0899,55.6764 203.1669,53.9034 C206.9539,47.6464 210.7449,41.3894 214.5319,35.1324 C215.7249,44.5004 218.0549,53.7194 221.4529,62.5264 C223.8999,59.3394 226.3449,56.1534 228.7949,52.9624 C230.8279,56.4734 233.7589,59.4564 237.2299,61.5574 C241.9569,54.1434 246.6899,46.7334 251.4169,39.3244 C254.7869,47.1824 258.1579,55.0364 261.5319,62.8944 C264.8269,61.4974 268.8339,61.9374 271.7439,64.0194 C277.9739,55.7334 280.8319,44.9884 279.5469,34.7004 C283.9539,42.7104 288.3609,50.7244 292.7689,58.7354 C294.4899,51.0444 296.2119,43.3594 297.9329,35.6684 C301.2239,43.4314 304.5149,51.1894 307.8049,58.9514 C316.5269,43.2144 328.8499,29.4884 343.5569,19.1244 C339.1089,28.6074 336.6479,39.0154 336.3749,49.4844 C339.9739,45.8494 343.5769,42.2104 347.1799,38.5714 C349.1649,42.4594 351.1499,46.3454 353.1369,50.2364 C363.4329,48.3754 374.6089,54.6274 378.4159,64.3724 C384.8579,53.3154 388.9559,40.8934 390.3649,28.1704 C397.7319,37.0904 403.1109,47.6344 406.0099,58.8354 C408.5349,55.6844 410.4049,52.0134 411.4579,48.1194 L416.7899,57.5584 C418.7599,50.6404 419.1919,43.2874 418.0509,36.1814 C424.1839,42.4264 429.0959,49.8604 432.4389,57.9504 L437.7589,49.8204 C440.8009,52.9224 443.8479,56.0254 446.8899,59.1274 C449.7519,52.5264 452.6179,45.9204 455.4809,39.3204 C458.2379,45.1964 461.0009,51.0774 463.7629,56.9544 C472.2139,47.0664 480.6639,37.1824 489.1139,27.2944 C485.3589,37.7264 483.7379,48.9194 484.3749,59.9884 C486.7649,55.3684 490.3839,51.3974 494.7629,48.5914 C496.2689,52.9114 497.7699,57.2304 499.2749,61.5494 C504.1139,51.1214 507.7739,40.1484 510.1589,28.9044 C515.4589,40.5564 520.7549,52.2104 526.0559,63.8634 C529.7339,61.2494 532.8049,57.7784 534.9499,53.8114 C539.7499,56.9614 544.5459,60.1164 549.3459,63.2664 C556.0149,53.2984 559.7299,41.3774 559.9019,29.3844 C563.6929,36.9864 567.4879,44.5844 571.2789,52.1824 C572.7399,55.1124 574.2009,58.0394 575.6619,60.9644 C579.0529,57.2744 581.6949,52.8944 583.3759,48.1704 C586.4149,51.1454 590.1969,53.3514 594.2809,54.5404 C596.5949,48.9674 598.5209,43.2314 600.0369,37.3904 C601.2859,32.5864 602.2679,27.7104 602.9559,22.7914 C605.4219,25.8894 607.8879,28.9884 610.3539,32.0854 C613.0959,35.5334 615.8419,38.9834 618.5839,42.4304 C619.5249,37.3104 620.1209,32.1304 620.3649,26.9344 C620.6569,20.9214 620.4779,14.8924 619.8369,8.9084 C623.1989,13.2354 626.3779,17.7074 629.3639,22.3064 C634.2879,29.8844 638.6839,37.8064 642.5109,45.9934 C643.5669,41.7574 644.6239,37.5224 645.6859,33.2874 C648.4589,36.8904 651.2369,40.4894 654.0159,44.0914 C656.6419,32.9034 656.3689,21.0614 653.3309,9.9814 C652.4579,6.8024 651.3579,3.6844 650.0319,0.6624 C652.4939,3.0234 654.8719,5.4734 657.1579,8.0114 C665.4169,17.1744 672.4739,27.4184 678.0739,38.4114 L690.3969,26.6184 C693.1499,32.3754 695.8999,38.1304 698.6539,43.8874 C703.0179,42.1584 706.9609,39.3794 710.0559,35.8534 C715.6759,42.6864 721.2919,49.5154 726.9129,56.3494 C728.5299,42.1624 730.1479,27.9754 731.7649,13.7924 C739.1869,23.6244 745.2389,34.4924 749.6829,45.9814 C753.5939,37.2424 757.5049,28.5034 761.4119,19.7684 C763.5369,23.9004 765.4069,28.1634 766.9999,32.5224 L766.9999,346.0004 L-0.0001,346.0004" id="Fill-3" fill="#476735" mask="url(#mask-6)"></path>
                        </g>
                        <g id="Group-8" transform="translate(1513.000000, 8.208000)">
                            <mask id="mask-8" fill="white">
                                <use xlink:href="#path-7"></use>
                            </mask>
                            <g id="Clip-7"></g>
                            <path d="M7.4414,30.9814 C12.1704,20.8374 19.4434,11.8904 28.4064,5.1894 C25.3954,18.9634 23.4784,32.9754 22.6814,47.0494 C25.2754,44.5324 27.8704,42.0184 30.4634,39.5004 C31.7724,43.8954 33.0824,48.2944 34.3904,52.6944 C36.5764,42.8464 41.1564,33.5404 47.6254,25.8054 C46.1754,33.9634 45.7314,42.3024 46.3044,50.5694 C50.9604,47.2864 60.4034,46.6454 59.4424,52.2624 C66.3604,39.7964 70.0624,25.5614 70.0944,11.3014 C71.1994,21.6904 72.3044,32.0824 73.4094,42.4704 C78.2854,36.6984 83.1614,30.9254 88.0374,25.1494 C88.4614,30.7614 88.8854,36.3744 89.3054,41.9864 C98.0164,30.6724 106.0394,18.8324 113.3164,6.5504 C113.8574,20.3894 114.3974,34.2324 114.9374,48.0714 C118.2534,44.2804 121.5674,40.4894 124.8814,36.6984 C126.4784,40.8294 128.0764,44.9564 129.6734,49.0874 C132.7804,37.2544 137.3794,25.8134 143.3284,15.1254 C144.4644,26.0694 145.6014,37.0184 146.7394,47.9624 C148.3644,45.4094 149.9894,42.8544 151.6184,40.3004 C154.0244,44.5444 156.4344,48.7834 158.8444,53.0264 C163.0554,44.5284 167.2704,36.0294 171.4824,27.5274 C171.7424,41.0014 174.7004,54.4164 180.1254,66.7504 C184.2684,62.7664 188.4074,58.7874 192.5504,54.8034 C193.9124,58.5544 195.2684,62.3014 196.6294,66.0524 C197.4744,62.0854 196.1094,58.5394 196.9544,54.5724 C198.5554,56.9734 197.7544,55.7734 198.4314,57.2664 C199.2884,59.1554 202.0894,55.6764 203.1674,53.9034 C206.9544,47.6464 210.7454,41.3894 214.5324,35.1324 C215.7244,44.5004 218.0544,53.7194 221.4534,62.5264 C223.8994,59.3394 226.3444,56.1534 228.7954,52.9624 C230.8284,56.4734 233.7584,59.4564 237.2294,61.5574 C241.9574,54.1434 246.6894,46.7334 251.4174,39.3244 C254.7874,47.1824 258.1584,55.0364 261.5324,62.8944 C264.8274,61.4974 268.8344,61.9374 271.7444,64.0194 C277.9734,55.7334 280.8324,44.9884 279.5464,34.7004 C283.9544,42.7104 288.3614,50.7244 292.7684,58.7354 C294.4904,51.0444 296.2124,43.3594 297.9324,35.6684 C301.2234,43.4314 304.5144,51.1894 307.8044,58.9514 C316.5274,43.2144 328.8494,29.4884 343.5564,19.1244 C339.1094,28.6074 336.6474,39.0154 336.3754,49.4844 C339.9734,45.8494 343.5774,42.2104 347.1794,38.5714 C349.1654,42.4594 351.1504,46.3454 353.1364,50.2364 C363.4324,48.3754 374.6094,54.6274 378.4164,64.3724 C384.8574,53.3154 388.9564,40.8934 390.3654,28.1704 C397.7314,37.0904 403.1114,47.6344 406.0094,58.8354 C408.5354,55.6844 410.4054,52.0134 411.4584,48.1194 L416.7904,57.5584 C418.7594,50.6404 419.1914,43.2874 418.0504,36.1814 C424.1834,42.4264 429.0954,49.8604 432.4384,57.9504 L437.7584,49.8204 C440.8004,52.9224 443.8474,56.0254 446.8894,59.1274 C449.7524,52.5264 452.6184,45.9204 455.4804,39.3204 C458.2384,45.1964 461.0014,51.0774 463.7624,56.9544 C472.2134,47.0664 480.6644,37.1824 489.1144,27.2944 C485.3594,37.7264 483.7384,48.9194 484.3754,59.9884 C486.7644,55.3684 490.3834,51.3974 494.7624,48.5914 C496.2684,52.9114 497.7694,57.2304 499.2744,61.5494 C504.1144,51.1214 507.7734,40.1484 510.1594,28.9044 C515.4594,40.5564 520.7544,52.2104 526.0554,63.8634 C529.7344,61.2494 532.8044,57.7784 534.9504,53.8114 C539.7504,56.9614 544.5454,60.1164 549.3454,63.2664 C556.0144,53.2984 559.7294,41.3774 559.9024,29.3844 C563.6934,36.9864 567.4884,44.5844 571.2794,52.1824 C572.7404,55.1124 574.2014,58.0394 575.6624,60.9644 C579.0524,57.2744 581.6954,52.8944 583.3764,48.1704 C586.4154,51.1454 590.1974,53.3514 594.2814,54.5404 C596.5944,48.9674 598.5204,43.2314 600.0374,37.3904 C601.2864,32.5864 602.2674,27.7104 602.9564,22.7914 C605.4214,25.8894 607.8874,28.9884 610.3534,32.0854 C613.0954,35.5334 615.8414,38.9834 618.5844,42.4304 C619.5244,37.3104 620.1214,32.1304 620.3654,26.9344 C620.6574,20.9214 620.4774,14.8924 619.8374,8.9084 C623.1994,13.2354 626.3784,17.7074 629.3644,22.3064 C634.2884,29.8844 638.6834,37.8064 642.5104,45.9934 C643.5674,41.7574 644.6244,37.5224 645.6854,33.2874 C648.4594,36.8904 651.2374,40.4894 654.0154,44.0914 C656.6414,32.9034 656.3694,21.0614 653.3314,9.9814 C652.4584,6.8024 651.3574,3.6844 650.0324,0.6624 C652.4944,3.0234 654.8724,5.4734 657.1584,8.0114 C665.4174,17.1744 672.4734,27.4184 678.0744,38.4114 L690.3964,26.6184 C693.1504,32.3754 695.9004,38.1304 698.6544,43.8874 C703.0174,42.1584 706.9614,39.3794 710.0554,35.8534 C715.6754,42.6864 721.2924,49.5154 726.9134,56.3494 C728.5304,42.1624 730.1474,27.9754 731.7644,13.7924 C739.1864,23.6244 745.2394,34.4924 749.6824,45.9814 C753.5934,37.2424 757.5044,28.5034 761.4124,19.7684 C763.5374,23.9004 765.4074,28.1634 767.0004,32.5224 L767.0004,346.0004 L0.0004,346.0004" id="Fill-6" fill="#476735" mask="url(#mask-8)"></path>
                        </g>
                    </g>
                </g>
                <g id="Gras-midden" transform="translate(231.000000, 260.000000)" opacity="0.50172061" stroke="#24361B" stroke-width="6">
                    <path d="M266.38,30.38 C264.66,22.691 262.94,15 261.22,7.311 C256.81,15.32 252.4,23.341 248,31.351 C249.28,21.061 246.42,10.32 240.19,2.03 C237.28,4.11 233.28,4.551 229.98,3.16 C226.61,11.011 223.24,18.87 219.87,26.731 C215.14,19.32 210.41,11.91 205.68,4.49 C202.21,6.591 199.28,9.58 197.24,13.091 C194.8,9.901 192.35,6.71 189.9,3.521 C186.5,12.33 184.17,21.551 182.98,30.92 C179.19,24.66 175.4,18.401 171.62,12.151 C170.54,10.37 167.74,6.891 166.88,8.78 C166.2,10.28 167.01,9.08 165.4,11.481 C164.56,7.511 165.92,3.96 165.08,-6.25277607e-13 C163.72,3.75 162.36,7.49 161,11.25" id="Stroke-1-Copy"></path>
                    <path d="M134,232.435359 C132.157095,223.733702 129.334906,215.248619 125.602831,207.181215 C124.446196,210.522652 123.289562,213.864088 122.125216,217.205525 C118.747842,215.032044 115.956497,211.961326 114.113592,208.387845 C113.627805,216.949503 114.876971,225.605525 117.768558,233.680663 C111.252848,226.030939 104.737139,218.381215 98.2214294,210.739227 C96.0932213,215.279558 93.9650132,219.827624 91.8368052,224.375691 C89.6314881,219.269945 87.4184601,214.158011 85.2131431,209.053039 C82.8690298,211.450829 80.5172057,213.85558 78.1730924,216.254144 C76.8082633,214.158011 75.4357233,212.061878 74.0708942,209.965746 C71.495454,216.223204 67.7016918,221.970166 62.9749108,226.80442 C63.8539533,221.304972 63.5223846,215.61989 62.0033376,210.267403 C60.6307976,212.703867 59.2659685,215.132597 57.8934285,217.569061 C57.0837841,214.560221 55.641846,211.721547 53.6909886,209.277348 C51.4548279,217.948066 47.3063644,226.100552 41.6311428,232.999227 C40.5439061,223.161326 37.3824376,213.546961 32.4166187,205 C29.4787663,212.533702 20.8579814,217.367956 12.9234665,215.929282 C11.3889976,218.938122 9.86223961,221.946961 8.32777074,224.955801 C5.55184716,222.140331 2.76821268,219.324862 0,216.517127 C0.208194269,224.607735 2.10507538,232.659669 5.53642537,240" id="Stroke-5-Copy"></path>
                </g>
            </g>
        </g>
    </g>
</svg>