<?xml version="1.0" encoding="UTF-8"?>
<svg width="854px" height="685px" viewBox="0 0 854 685" version="1.1" xmlns="http://www.w3.org/2000/svg" xmlns:xlink="http://www.w3.org/1999/xlink">
    <!-- Generator: Sketch 55.2 (78181) - https://sketchapp.com -->
    <title>Group 50</title>
    <desc>Created with Sketch.</desc>
    <defs>
        <polygon id="path-1" points="0 0.333718584 915.816085 0.333718584 915.816085 670.22815 0 670.22815"></polygon>
    </defs>
    <g id="Page-1" stroke="none" stroke-width="1" fill="none" fill-rule="evenodd">
        <g id="Home-Page-Copy" transform="translate(-1066.000000, -3281.000000)">
            <g id="Group-50" transform="translate(1066.000000, 3281.000000)">
                <path d="M529.308649,56.4794669 C529.308649,56.4794669 532.315346,59.6297331 535.988583,59.7658632 C539.660607,59.9007885 542.284347,56 546,56 L545.912744,69.2925573 C545.912744,69.2925573 538.262087,71.3790816 534.327083,68.3854252 C530.392078,65.3905641 527,66.0977175 527,66.0977175" id="Fill-1" fill="#007934"></path>
                <path d="M528,62.4946603 C528,62.4946603 534.827712,65.7857481 539.111695,65.9844736 C543.39689,66.1819873 546,64.4298102 546,64.4298102 L545.967279,59.1769141 C545.967279,59.1769141 539.507978,62.3492514 533.50919,60.3001978 L528.778025,59 L528,62.4946603 Z" id="Fill-3" fill="#F9E300"></path>
                <path d="M529,59.3686168 C529,59.3686168 532.257584,63 535.998956,63 C539.741511,63 545.075007,59.9497802 545.988171,59.9521474 L546,56 C546,56 544.045923,56.2272574 542.522405,57.0700034 C541.00007,57.9127494 538.161216,60.5700034 534.419844,59.2727426 C530.677289,57.9766655 529.709713,56.4414948 529.709713,56.4414948 L529,59.3686168 Z" id="Fill-5" fill="#D52B1E"></path>
                <path d="M529.308649,56.4794669 C529.308649,56.4794669 532.315346,59.6297331 535.988583,59.7658632 C539.660607,59.9007885 542.284347,56 546,56 L545.912744,69.2925573 C545.912744,69.2925573 538.262087,71.3790816 534.327083,68.3854252 C530.392078,65.3905641 527,66.0977175 527,66.0977175" id="Stroke-7" stroke="#000000" stroke-width="0.5" stroke-linecap="round" stroke-linejoin="round"></path>
                <g id="Group-12" transform="translate(522.000000, 53.000000)">
                    <path d="M0.268685714,31.85655 L7.67325714,0.637371429" id="Fill-9" fill="#FFFFFF"></path>
                    <path d="M0.268685714,31.85655 L7.67325714,0.637371429" id="Stroke-11" stroke="#000000" stroke-width="0.5" stroke-linecap="round" stroke-linejoin="round"></path>
                </g>
                <path d="M530,54.5 C530,54.7765411 529.775877,55 529.500428,55 C529.224123,55 529,54.7765411 529,54.5 C529,54.2234589 529.224123,54 529.500428,54 C529.775877,54 530,54.2234589 530,54.5" id="Fill-13" fill="#FFFFFF"></path>
                <path d="M530,54.5 C530,54.7765411 529.775877,55 529.500428,55 C529.224123,55 529,54.7765411 529,54.5 C529,54.2234589 529.224123,54 529.500428,54 C529.775877,54 530,54.2234589 530,54.5 Z" id="Stroke-15" stroke="#000000" stroke-width="0.75" stroke-linecap="round" stroke-linejoin="round"></path>
                <path d="M256.066704,128.444559 C256.066704,128.444559 258.757207,131.369607 262.041916,131.495403 C265.327809,131.622419 267.675045,128 271,128 L270.921877,140.342607 C270.921877,140.342607 264.076661,142.280833 260.556399,139.501121 C257.036137,136.718966 254,137.376033 254,137.376033" id="Fill-17" fill="#008000"></path>
                <path d="M254,133.994989 C254,133.994989 260.069533,136.81647 263.877545,136.986575 C267.686733,137.15668 270,135.654083 270,135.654083 L269.972951,131.150827 C269.972951,131.150827 264.230356,133.871379 258.898199,132.113623 L254.69151,131 L254,133.994989 Z" id="Fill-19" fill="#DB161B"></path>
                <path d="M255,131.886469 C255,131.886469 258.066312,135 261.587163,135 C265.109229,135 270.128599,132.383792 270.989062,132.386007 L271,129 C271,129 269.15997,129.193834 267.727079,129.916005 C266.292974,130.638176 263.621648,132.916559 260.100798,131.804504 C256.578731,130.693557 255.667224,129.376592 255.667224,129.376592 L255,131.886469 Z" id="Fill-21" fill="#FFFFFF"></path>
                <path d="M258,130.860403 L256.410825,138 C256.410825,138 254.886604,137.524027 254,137.834497 L255.890122,129 C255.890122,129 257.225981,130.496779 258,130.860403" id="Fill-23" fill="#DB161B"></path>
                <path d="M256.066704,128.444559 C256.066704,128.444559 258.757207,131.369607 262.041916,131.495403 C265.327809,131.622419 267.675045,128 271,128 L270.921877,140.342607 C270.921877,140.342607 264.076661,142.280833 260.556399,139.501121 C257.036137,136.718966 254,137.376033 254,137.376033" id="Stroke-25" stroke="#000000" stroke-width="0.5" stroke-linecap="round" stroke-linejoin="round"></path>
                <g id="Group-30" transform="translate(249.000000, 127.000000)">
                    <path d="M0.0309714286,29.13864 L6.81268571,0.02184" id="Fill-27" fill="#FFFFFF"></path>
                    <path d="M0.0309714286,29.13864 L6.81268571,0.02184" id="Stroke-29" stroke="#000000" stroke-width="0.5" stroke-linecap="round" stroke-linejoin="round"></path>
                </g>
                <path d="M256,127.499533 C256,127.77591 255.77591,128 255.500467,128 C255.22409,128 255,127.77591 255,127.499533 C255,127.22409 255.22409,127 255.500467,127 C255.77591,127 256,127.22409 256,127.499533" id="Fill-31" fill="#FFFFFF"></path>
                <path d="M256,127.499533 C256,127.77591 255.77591,128 255.500467,128 C255.22409,128 255,127.77591 255,127.499533 C255,127.22409 255.22409,127 255.500467,127 C255.77591,127 256,127.22409 256,127.499533 Z" id="Stroke-33" stroke="#000000" stroke-width="0.5" stroke-linecap="round" stroke-linejoin="round"></path>
                <path d="M908.954762,581.787858 C902.918674,590.072915 892.459285,593.610089 882.640266,596.495615 C829.204882,612.162446 774.37017,622.524702 719.464305,631.723728 C683.496813,637.742858 647.387016,643.272956 611.18235,648.115797 C604.61262,648.994156 598.04289,649.848775 591.461302,650.667785 C530.685371,658.347487 469.660408,663.951178 408.611727,666.490109 C396.919031,666.977954 385.214476,667.344728 373.52178,667.605861 C309.864181,668.982748 246.2303,666.823647 182.845451,659.998564 C175.3626,659.190237 167.86789,658.313065 160.385039,657.327879 C119.199711,651.878495 78.2634162,643.023692 41.5488249,623.925328 C30.188173,618.0154 18.910532,610.76182 12.2933673,599.794208 C-1.15441902,577.514762 8.72389317,548.481451 2.75895796,523.152677 L2,521.335424 C26.8440145,490.012446 51.7828987,458.544658 71.6106754,423.825756 C83.3033714,403.350506 93.501869,381.379673 110.744445,365.308085 C129.623524,347.705305 156.530956,337.534151 168.306663,314.553205 C177.971518,295.704106 175.564198,271.193154 189.498192,255.252134 C195.142942,248.795012 203.017131,244.416276 207.867347,237.328872 C216.642798,224.485845 213.025889,206.894935 218.125138,192.189551 C224.232378,174.574902 229.865269,154.917475 242.506662,154.359598 C245.376472,154.240901 248.613902,155.096707 252.290105,157.184589 C256.440656,159.535979 282.30452,176.496608 284.854145,180.532309 C287.901835,185.352598 289.075848,191.072612 290.475177,196.603896 C294.815468,213.672539 301.91884,230.04087 311.405814,244.866138 C315.615659,251.431274 323.810034,263.19297 326.407093,270.54032 C328.778836,277.258576 331.494483,279.98861 334.29314,279.929261 C343.874985,279.716793 354.405526,246.741552 355.437235,228.663983 C356.338497,212.82979 349.341854,196.651375 353.824449,181.434407 C356.765411,171.440111 363.880642,163.30936 370.806134,155.52283 C387.681089,136.519424 404.556045,117.527888 421.431001,98.5363519 C428.355307,90.7498221 435.41243,82.7377678 439.230937,73.0402147 C444.021859,60.8856316 443.239184,47.3541621 444.899404,34.380569 C446.524049,21.7274581 451.658874,8.05355213 462.960232,2.40357014 C463.232983,2.26113362 463.517592,2.13056681 463.802201,2 C487.352429,36.0779376 510.893171,70.1558752 534.432726,104.245682 C538.440973,110.038101 542.567807,115.972956 548.331144,120.044267 C559.122577,127.66462 570.542523,157.162037 583.741276,156.591104 C596.2878,156.068837 613.897996,124.495408 619.993377,113.504056 C623.43122,107.296198 623.029209,99.7351926 624.913559,92.8863699 C629.21946,77.3133103 641.552527,47.6509049 656.055739,33.2885557 C657.905699,31.4606204 660.241867,30.5822618 662.56499,30.5585224 C666.005204,30.5229133 669.408656,32.3627183 671.080735,35.8286737 C698.948723,93.5629434 768.107581,155.760224 781.414248,215.917102 C785.730822,235.454644 783.869003,255.893098 787.521488,275.562395 C790.935613,293.947389 799.060021,311.08725 807.088373,327.977847 C839.581261,396.241737 872.06229,464.515122 904.542133,532.777825 C911.966876,548.375811 919.129542,567.840948 908.954762,581.787858" id="Fill-35" fill="#808080"></path>
                <g id="Group-39">
                    <mask id="mask-2" fill="white">
                        <use xlink:href="#path-1"></use>
                    </mask>
                    <g id="Clip-38"></g>
                    <path d="M907.539478,581.291338 C902.699427,587.577361 895.423927,590.92761 888.080809,593.385964 C880.05439,596.071152 871.825116,598.221915 863.657529,600.424933 C846.39705,605.082741 829.004894,609.240566 811.535628,613.037357 C776.200878,620.717635 740.563624,626.94309 704.882478,632.779009 C631.624499,644.758437 557.977417,654.587102 483.969705,660.527531 C410.389055,666.433518 336.438284,668.483334 262.684437,664.876561 C225.911906,663.078518 189.044473,660.180748 152.591054,654.930322 C119.154363,650.114561 85.68327,642.749 54.7413411,628.848018 C40.8463592,622.604748 25.392596,615.338947 16.0102506,602.831032 C6.27557788,589.852823 6.13085084,573.273779 6.35861798,557.755271 C6.47368784,549.995423 6.70501384,542.217761 6.032389,534.47454 C5.74293493,531.150418 5.37993105,527.736037 4.60054036,524.487922 C4.49377451,524.042568 3.72387413,522.278966 3.76895304,521.828862 C3.80572794,521.469016 6.52707076,518.594998 7.26256882,517.666287 C17.6829155,504.511124 28.056997,491.315582 38.0360449,477.819575 C48.4077538,463.790331 58.3500268,449.42618 67.4025843,434.502665 C75.5761031,421.029223 82.5775701,406.88003 90.8614136,393.474281 C99.1689828,380.029341 108.998558,368.232805 121.666919,358.718856 C132.21064,350.801056 143.647635,344.072055 153.621938,335.398934 C163.689957,326.643869 170.774464,316.129952 174.499406,303.271692 C178.378565,289.883757 179.271839,275.172825 186.306522,262.876304 C193.494236,250.311384 208.192335,244.777118 213.145084,230.585172 C215.453599,223.971368 215.919809,216.849267 216.593621,209.92906 C217.364707,202.023136 219.029068,194.882033 221.593821,187.389398 C223.91064,180.62358 226.170517,173.721187 229.576348,167.406662 C232.367681,162.229867 236.493588,156.30369 243.021727,156.317941 C248.007692,156.32863 252.36967,159.487674 256.407791,162.089729 C260.371177,164.645467 264.291856,167.266524 268.172201,169.944586 C272.199646,172.724782 276.259121,175.51923 280.03626,178.63552 C284.480091,182.302862 286.073275,187.187504 287.526477,192.724145 C291.660688,208.463548 296.860185,223.498699 304.843897,237.747651 C311.599803,249.804274 320.09006,260.585403 325.444961,273.40091 C326.912398,276.912674 329.27311,281.498039 333.569842,281.913702 C336.675542,282.215356 339.311472,280.012338 341.2036,277.802195 C347.863416,270.02097 351.161295,258.78261 353.6869,249.071518 C357.036975,236.185943 357.717904,224.110318 355.842384,210.901713 C354.641861,202.450676 353.022579,193.656419 354.717784,185.15194 C356.385703,176.787598 361.2305,169.623931 366.594891,163.176393 C377.979689,149.491556 390.209124,136.446841 402.030476,123.139664 C413.048711,110.733883 425.427618,98.7307025 434.801659,84.9947981 C444.310938,71.0617503 444.634794,55.5943096 446.114094,39.3786742 C447.352578,25.8114104 451.287492,10.0423166 464.666439,3.62803168 C463.855019,3.41544938 463.043599,3.20167947 462.232178,2.98909717 C484.254414,34.8610034 506.269531,66.7364724 528.279904,98.6166919 C532.994209,105.445453 537.452276,112.90721 543.572332,118.601803 C547.842966,122.574361 551.854989,125.736968 555.333183,130.534915 C561.485269,139.02158 566.830679,149.806272 575.691058,155.854773 C583.578681,161.2394 590.882652,156.947375 596.871029,150.916688 C604.95439,142.775618 611.142064,132.644111 616.889626,122.784568 C619.537419,118.243145 622.539912,113.650655 623.880416,108.521364 C625.666965,101.680727 626.12843,94.7023273 628.342042,87.9353219 C632.650637,74.7504688 638.395826,61.8245149 645.659463,49.9982883 C647.461433,47.0648901 649.370169,44.1908724 651.449731,41.4463042 C653.665715,38.5259697 656.704983,34.0795556 660.311296,32.8266264 C668.907133,29.8421609 672.681899,43.1529007 675.831491,48.712106 C683.080892,61.5074228 691.439472,73.645991 700.059035,85.5446618 C718.378868,110.83483 738.244433,135.076338 754.917699,161.527989 C762.63687,173.771067 769.746289,186.54857 774.833089,200.134835 C780.808417,216.089196 782.294835,232.443782 783.1976,249.344669 C784.164424,267.466419 786.736295,284.522883 793.33561,301.518779 C799.825787,318.232023 808.08116,334.27783 815.778978,350.453087 C832.54952,385.696619 849.317689,420.94134 866.085859,456.187248 C874.53341,473.946777 882.982147,491.705118 891.429698,509.465835 C898.803659,524.965341 908.576293,540.97552 911.633355,558.069987 C913.09842,566.255 912.335637,574.329564 907.539478,581.291338 C906.235749,583.183202 909.320095,584.966993 910.613148,583.08938 C919.220848,570.594529 915.697575,555.002389 910.450627,541.888793 C903.661505,524.924963 894.941108,508.588191 887.095005,492.094655 C870.067038,456.301258 853.041445,420.509049 836.012292,384.718028 C827.691674,367.232837 819.372242,349.746458 811.051623,332.262455 C803.02639,315.400759 794.570535,298.465432 790.327186,280.16554 C786.122984,262.034288 787.323507,243.278354 784.828745,224.925019 C782.90696,210.799579 778.173674,197.379579 771.976509,184.593763 C758.431482,156.650472 739.097373,131.834161 720.511812,107.140173 C711.119976,94.6619485 701.712719,82.1789733 692.931821,69.2577697 C688.727619,63.0691308 684.665772,56.7807326 680.875584,50.3284441 C679.225459,47.5209326 677.626344,44.6837308 676.096033,41.8097131 C674.508781,38.8264352 673.288091,35.1448423 671.023469,32.6092936 C653.370329,12.8332016 630.149944,72.1115981 626.331286,82.8321591 C624.037006,89.2737591 622.517372,95.5894724 621.458018,102.349352 C620.457978,108.739885 617.947794,113.818108 614.778035,119.325058 C608.848971,129.629956 602.502335,140.338641 594.001401,148.754049 C590.850622,151.872715 586.491016,155.838147 581.677063,154.785924 C576.441978,153.641067 572.373013,148.250502 569.294597,144.237566 C562.847126,135.832846 557.913358,125.584954 549.525121,118.883267 C542.136925,112.979655 537.188921,105.273249 531.864864,97.560906 C526.404384,89.6514193 520.943904,81.7431202 515.483424,73.8348211 C504.220813,57.526552 492.957016,41.2170954 481.692033,24.910014 C476.229181,17.0029025 470.767514,9.09697858 465.304662,1.19105469 C464.723381,0.350226372 463.795705,0.107953805 462.870401,0.552120177 C450.433366,6.51392549 445.029828,20.4766635 443.23023,33.3800529 C441.991746,42.2621927 442.065296,51.2797202 440.703438,60.1464211 C439.243119,69.6544317 435.628502,78.0258989 429.914156,85.7418051 C424.265057,93.3686405 417.58626,100.275784 411.290634,107.361069 C404.813505,114.654186 398.335191,121.946115 391.858063,129.236856 C385.379749,136.531161 378.902621,143.825465 372.425492,151.11977 C367.062288,157.159957 361.433355,163.128888 357.154417,170.02178 C352.905137,176.864793 350.578828,184.347927 350.462571,192.420117 C350.335639,201.203685 352.381984,209.842364 353.252719,218.543987 C354.648979,232.475848 351.438886,246.601288 346.686619,259.654317 C344.729245,265.03063 342.417172,270.85111 338.687485,275.283272 C337.66965,276.49226 336.176115,278.215483 334.473793,278.350871 C330.848499,278.63946 329.039411,272.799979 328.040557,270.302433 C322.704637,256.952502 313.126555,245.762835 306.378953,233.14091 C301.917327,224.796757 298.184081,216.079695 295.22904,207.090671 C292.651238,199.252441 291.492235,190.772901 288.098267,183.237511 C284.40061,175.03231 274.566289,169.981402 267.439076,165.137138 C260.271529,160.263184 250.674465,151.828773 241.435661,152.831117 C229.438738,154.13155 224.262967,169.413724 220.777655,178.971614 C218.088342,186.346676 215.205665,193.797745 214.018191,201.587283 C212.835463,209.354256 212.776148,217.295809 211.026375,224.974899 C209.035785,233.7074 204.282332,239.77609 197.595231,245.488497 C191.75158,250.481212 186.276865,255.361104 182.597002,262.230244 C175.626379,275.239331 174.851733,290.397993 170.480265,304.285911 C165.630723,319.696347 154.987354,330.57011 142.2146,339.903541 C130.392062,348.544596 117.618121,356.041982 107.164558,366.418136 C95.6457098,377.852451 87.27764,391.966016 79.4457719,406.058203 C70.7775714,421.655094 62.0097228,437.078593 52.0401652,451.895223 C41.2722364,467.898276 29.6774653,483.325338 17.8228974,498.532692 C12.1038069,505.868563 6.32540194,513.158117 0.545810737,520.446483 C0.179247995,520.907276 -0.168334153,521.565212 0.087903881,522.179207 C2.52453777,528.010375 2.66214709,534.937708 2.85432561,541.18454 C3.07734761,548.458655 2.76772665,555.733957 2.74637348,563.008072 C2.70841229,576.285559 3.71082497,590.16754 10.9412454,601.707552 C18.1526853,613.214311 30.1045287,620.596499 41.9211354,626.637874 C55.5859776,633.624587 69.9186995,639.276426 84.5610423,643.846352 C115.037947,653.35555 146.736727,658.214065 178.3928,661.749582 C213.27083,665.643757 248.311381,668.085485 283.38159,669.303973 C353.573016,671.745701 423.875954,669.217278 493.838428,663.274474 C563.351298,657.370862 632.54743,648.111062 701.400725,636.935646 C735.380736,631.420382 769.325157,625.565462 803.022831,618.493241 C819.658137,615.002853 836.231755,611.207249 852.698608,606.990044 C867.393147,603.226506 883.200424,600.111403 897.019483,593.688805 C902.400482,591.187697 906.984296,587.800632 910.613148,583.08938 C912.010595,581.274711 908.920317,579.499233 907.539478,581.291338" id="Fill-37" fill="#808080" mask="url(#mask-2)"></path>
                </g>
                <path d="M244.237202,341.411243 L248.973948,405.51187 L200.422299,451.806768 L200.422299,499.288715 L166.080889,575.259829 L172.001822,638.173408 L160.159956,657 C119.033157,651.551447 78.1550373,642.696064 41.4926216,623.596451 C30.1481144,617.684948 18.8865003,610.432081 12.2787393,599.463751 C-1.14993624,577.182848 8.71433777,548.147638 2.7578794,522.816019 L2,520.999835 C26.8087083,489.673621 51.7121516,458.204961 71.5117508,423.483787 C83.1878302,403.007198 93.3718346,381.034927 110.589907,364.962288 C129.442157,347.358357 156.31135,337.18535 168.070322,314.204087 C177.721443,295.353755 175.317544,270.8412 189.231736,254.899136 C194.868464,248.441592 202.731463,244.061382 207.574786,236.974701 C216.337766,224.130835 212.725997,206.538774 217.818,191.831241 C223.91656,174.215439 229.541447,154.557913 242.164875,154 L252.526508,176.411479 L248.973948,198.965403 L258.44744,223.893425 L248.973948,267.814226 L262,284.432907 L244.237202,341.411243 Z" id="Fill-40" fill="#FFFFFF"></path>
                <path d="M446.792564,292.641476 L433.780313,319.926186 L458.621884,370.936731 L412.487537,385.172232 L433.780313,420.760984 L395.926489,520.40949 L412.487537,539.390158 L394.743557,590.400703 L408.134347,665.825132 L410.121673,677 L371.084918,675.813708 L373.13139,666.940246 L378.18251,644.970123 L369.901986,618.871705 L373.450782,564.302285 L358.072666,531.086116 L374.633714,426.692443 L348.60921,391.103691 L354.52387,330.602812 L334,279.485501 C343.55809,279.271968 354.062526,246.316784 355.091677,228.249561 C355.990706,212.424429 349.011407,196.255272 353.48289,181.047012 C356.416561,171.058436 363.514153,162.932337 370.422476,155.150264 C387.255598,136.157733 404.08872,117.177065 420.921842,98.1963972 C427.830165,90.4143234 434.86861,82.4068541 438.677651,72.7148506 C443.456696,60.5672232 442.675961,47.0434974 444.332066,34.0773286 C445.952683,21.4314587 451.074778,7.76537786 462.34812,2.11862917 L463.353612,2 L468.08534,29.28471 L459.804816,55.3831283 L465.719476,70.8049209 L465.719476,86.2267135 L474,98.0896309 L464.536544,119.442882 L449.158428,166.894552 L460.987748,177.571178 L456.25602,207.228471 L453.890156,223.836555 L466.902408,259.425308 L446.792564,292.641476 Z" id="Fill-42" fill="#FFFFFF"></path>
                <path d="M655.715686,310.023329 L677.068627,337.311094 L655.715686,361.039586 L637.921569,406.123719 L654.529412,440.530031 L641.480392,476.122768 L630.803922,530.698298 L643.852941,561.545337 L609.45098,604.256621 L610.803333,648.272973 L610.921961,652.09326 L591.526373,655 L591.075588,650.823786 L588.098039,623.239414 L576.235294,590.019527 L598.77451,525.9526 L590.470588,480.868467 L562,461.885674 L575.04902,383.581652 L596.401961,351.548189 L575.04902,305.277631 L583.352941,251.888526 L602.333333,199.685845 L583.352941,156.97456 C595.903725,156.452534 613.519902,124.89364 619.617353,113.907349 C623.057549,107.702348 622.654216,100.144824 624.540392,93.2991539 C628.846569,77.7332636 641.183824,48.0845137 655.691961,33.7287765 C657.542549,31.9016827 659.87951,31.0237285 662.204608,31 L663.284118,31.4389771 L667.578431,97.6533321 L654.529412,120.195399 L661.647059,146.296739 L661.647059,180.703052 L677.068627,199.685845 L672.323529,218.668638 L683,230.532883 L672.323529,259.007073 L655.715686,310.023329 Z" id="Fill-44" fill="#FFFFFF"></path>
                <polygon id="Fill-46" fill="#FFFFFF" points="190 667.214286 205.311111 613.857143 202.955556 584.214286 207.666667 551.014286 222.977778 519 226.511111 553.385714 225.333333 583.028571 243 586.585714 232.4 616.228571 224.155556 624.528571 225.235578 662.841371 207.666667 685"></polygon>
                <polygon id="Fill-48" fill="#FFFFFF" points="482.235294 190.983333 474 227.666667 484.588235 246.6 481.058824 275 492.823529 264.35 492.823529 245.416667 494 218.2 494 161.4 486.941176 172.05 484.588235 133 476.352941 144.833333"></polygon>
            </g>
        </g>
    </g>
</svg>