<?xml version="1.0" encoding="UTF-8"?>
<svg width="185px" height="185px" viewBox="0 0 185 185" version="1.1" xmlns="http://www.w3.org/2000/svg" xmlns:xlink="http://www.w3.org/1999/xlink">
    <!-- Generator: Sketch 55.2 (78181) - https://sketchapp.com -->
    <title>Group 3</title>
    <desc>Created with Sketch.</desc>
    <defs>
        <polygon id="path-1" points="0 0 185 0 185 185 0 185"></polygon>
    </defs>
    <g id="Page-1" stroke="none" stroke-width="1" fill="none" fill-rule="evenodd">
        <g id="Home-Page-Copy" transform="translate(-1370.000000, -3439.000000)">
            <g id="Group-3" transform="translate(1370.000000, 3439.000000)">
                <mask id="mask-2" fill="white">
                    <use xlink:href="#path-1"></use>
                </mask>
                <g id="Clip-2"></g>
                <path d="M92.5,0 L92.5,0 C97.7171073,20.8438172 123.809586,27.8355108 138.749684,12.3924441 L138.750316,12.3924441 C132.845966,33.0526181 151.947382,52.1540338 172.607556,46.2496845 L172.607556,46.2503155 C157.164489,61.1897834 164.155552,87.2828927 185,92.5 C164.155552,97.7171073 157.164489,123.809586 172.607556,138.749684 L172.607556,138.749684 C151.947382,132.845966 132.845966,151.947382 138.750316,172.606925 L138.749684,172.606925 C123.809586,157.164489 97.7171073,164.156183 92.5,185 L92.5,185 L92.5,185 C87.2828927,164.156183 61.1904145,157.164489 46.2503155,172.606925 L46.2496845,172.606925 C52.1540338,151.947382 33.0526181,132.845966 12.3924441,138.749684 L12.3924441,138.749684 C27.8355108,123.809586 20.8444482,97.7171073 0,92.5 C20.8444482,87.2828927 27.8355108,61.1897834 12.3924441,46.2503155 L12.3924441,46.2496845 C33.0526181,52.1540338 52.1540338,33.0526181 46.2496845,12.3924441 L46.2503155,12.3924441 C61.1904145,27.8355108 87.2828927,20.8438172 92.5,0" id="Fill-1" fill="#FF0000" mask="url(#mask-2)"></path>
            </g>
        </g>
    </g>
</svg>