<?xml version="1.0" encoding="UTF-8"?>
<svg width="478px" height="408px" viewBox="0 0 478 408" version="1.1" xmlns="http://www.w3.org/2000/svg" xmlns:xlink="http://www.w3.org/1999/xlink">
    <!-- Generator: Sketch 55.2 (78181) - https://sketchapp.com -->
    <title>VLIEGTUIG</title>
    <desc>Created with Sketch.</desc>
    <defs>
        <polygon id="path-1" points="11.6500514 9.92702301 123.332793 9.89152898 123.292097 137.741343 11.6093553 137.776837"></polygon>
        <polygon id="path-3" points="0 0 218 0 218 100 0 100"></polygon>
        <polygon id="path-5" points="0 0 218 0 218 100 0 100"></polygon>
    </defs>
    <g id="Page-1" stroke="none" stroke-width="1" fill="none" fill-rule="evenodd">
        <g id="Home-Page-Copy" transform="translate(-1059.000000, -1215.000000)">
            <g id="VLIEGTUIG" transform="translate(1059.000000, 1215.000000)">
                <g id="Group-3" transform="translate(169.000000, 130.000000)">
                    <mask id="mask-2" fill="white">
                        <use xlink:href="#path-1"></use>
                    </mask>
                    <g id="Clip-2" transform="translate(67.471074, 73.834183) rotate(11.000000) translate(-67.471074, -73.834183) "></g>
                    <path d="M76.6337675,88.193092 C74.2858492,101.382362 72.0629957,111.934715 70.371153,119.401032 L89.9953793,130.062203 C89.9953793,130.062203 91.185996,136.180638 88.4773812,137.751719 L67.5843469,132.458144 L46.6879383,137.765 C43.9720415,136.195644 45.1748353,130.076448 45.1748353,130.076448 L64.8721168,119.369705 C63.1767482,111.895369 60.9606093,101.353523 58.6293685,88.1665662 L14.8011673,92.7696056 C9.71783988,87.6363788 12.2629689,79.3164639 12.2629689,79.3164639 L54.7032982,63.8653742 C54.6950349,63.8074962 54.6867743,63.7413494 54.6785108,63.6842983 C48.3981131,20.6718606 67.6564828,9.90820405 67.6564828,9.90820405 C67.6564828,9.90820405 86.908004,20.6596217 80.6002223,63.6760601 C80.5836273,63.7752893 80.5670326,63.8736917 80.5587191,63.9737453 L122.674553,79.2813738 C122.674553,79.2813738 125.214386,87.5996727 120.127789,92.7361316 L76.6337675,88.193092 Z" id="Fill-1" fill="#FFFFFF" mask="url(#mask-2)" transform="translate(67.467233, 73.836602) rotate(11.000000) translate(-67.467233, -73.836602) "></path>
                </g>
                <g id="Group-3" transform="translate(0.000000, 308.000000)">
                    <mask id="mask-4" fill="white">
                        <use xlink:href="#path-3"></use>
                    </mask>
                    <g id="Clip-2"></g>
                    <path d="M0,99.3493325 C2.64772755,99.3908085 5.29479068,99.3563005 7.93952832,99.2959114 C10.5845982,99.2355223 13.2283392,99.1635199 15.8700869,99.0470553 C21.1532502,98.8045035 26.4317625,98.5214712 31.6976507,98.0861389 C36.963539,97.6521338 42.2231152,97.1730028 47.4664131,96.5545125 C50.0882281,96.2522352 52.7060566,95.9167772 55.3202308,95.5604152 C56.6288128,95.3945112 57.9347372,95.2063759 59.2399971,95.0192361 C60.5465858,94.8387325 61.8505169,94.6409749 63.1531191,94.4369128 C68.3661857,93.6342689 73.5586552,92.7135013 78.7275376,91.6888777 C83.9014032,90.6878126 89.0443731,89.5414154 94.1564473,88.2825353 C104.376277,85.7515027 114.476843,82.7612477 124.345192,79.1475251 C129.281194,77.3448114 134.133147,75.332395 138.942244,73.2333767 C143.751341,71.1303766 148.460775,68.8110377 153.073867,66.3218129 C162.310682,61.3639355 171.144857,55.6528537 179.30896,49.0863704 C183.386859,45.8004743 187.317256,42.3261112 191.022414,38.6178233 C194.714283,34.8979221 198.224432,30.9922084 201.49705,26.8837599 C204.740101,22.7530802 207.749275,18.4345972 210.521914,13.9541917 L212.531795,10.5501719 L213.035096,9.6984204 L213.501189,8.82676039 L214.433375,7.08111772 C215.736309,4.78036001 216.808689,2.36678753 218,0 C216.127322,4.94891855 213.964624,9.80128093 211.474365,14.4983571 C211.176703,15.0929573 210.82921,15.6593538 210.504971,16.2393545 L209.516973,17.9710612 C209.182436,18.5457529 208.868828,19.1337169 208.516684,19.697459 L207.455932,21.3873579 L206.393851,23.078584 L205.861315,23.9233676 L205.295891,24.74592 L203.022566,28.0334751 C199.86888,32.3303907 196.482314,36.4637248 192.850907,40.3820472 C189.188273,44.2705069 185.286446,47.9303508 181.224825,51.4047139 L178.136917,53.9619593 L174.957983,56.4050628 L174.163,57.0155897 L173.351407,57.603222 L171.723902,58.7725139 L170.095732,59.9421376 C169.54725,60.3240488 168.989135,60.6906968 168.436334,61.06564 L166.773282,62.1844971 C166.219485,62.5581131 165.667349,62.9350471 165.098271,63.2847729 L161.708382,65.4236083 C160.568564,66.1204054 159.41147,66.7876716 158.258363,67.4622375 C157.112565,68.1500758 155.932217,68.7748706 154.762831,69.4205692 C145.399776,74.5675772 135.606174,78.8963464 125.580023,82.5240049 C120.56263,84.3290412 115.494407,85.9821094 110.38632,87.4934955 L106.546949,88.5970894 C105.263282,88.9504651 103.973636,89.2799506 102.687313,89.6230402 C101.402318,89.972766 100.105031,90.2703979 98.8143881,90.5952381 L96.8756004,91.071051 L94.9308329,91.5183284 C89.7450077,92.7138331 84.5339344,93.7935368 79.2986096,94.7259177 C74.0609593,95.6453581 68.8023797,96.4340661 63.5331694,97.1159318 C62.2159498,97.2888039 60.8983981,97.4560352 59.578853,97.6050171 C58.2599724,97.7609669 56.9410918,97.9179121 55.620218,98.0522944 C54.2993441,98.1923175 52.9784702,98.326368 51.6556031,98.442169 C50.3334004,98.5619518 49.0118621,98.6863798 47.6879983,98.7875813 C42.3955331,99.213623 37.098417,99.5630169 31.7949888,99.7494931 C29.1439391,99.8473765 26.4918928,99.917388 23.8401787,99.9588641 C21.1884646,100.008967 18.5364183,100.008635 15.8850365,99.9827543 C10.5836015,99.9316558 5.28183442,99.7577883 0,99.3493325" id="Fill-1" fill="#FFFFFF" mask="url(#mask-4)"></path>
                </g>
                <g id="Group-3-Copy" transform="translate(369.000000, 50.000000) scale(-1, -1) translate(-369.000000, -50.000000) translate(260.000000, 0.000000)">
                    <mask id="mask-6" fill="white">
                        <use xlink:href="#path-5"></use>
                    </mask>
                    <g id="Clip-2"></g>
                    <path d="M0,99.3493325 C2.64772755,99.3908085 5.29479068,99.3563005 7.93952832,99.2959114 C10.5845982,99.2355223 13.2283392,99.1635199 15.8700869,99.0470553 C21.1532502,98.8045035 26.4317625,98.5214712 31.6976507,98.0861389 C36.963539,97.6521338 42.2231152,97.1730028 47.4664131,96.5545125 C50.0882281,96.2522352 52.7060566,95.9167772 55.3202308,95.5604152 C56.6288128,95.3945112 57.9347372,95.2063759 59.2399971,95.0192361 C60.5465858,94.8387325 61.8505169,94.6409749 63.1531191,94.4369128 C68.3661857,93.6342689 73.5586552,92.7135013 78.7275376,91.6888777 C83.9014032,90.6878126 89.0443731,89.5414154 94.1564473,88.2825353 C104.376277,85.7515027 114.476843,82.7612477 124.345192,79.1475251 C129.281194,77.3448114 134.133147,75.332395 138.942244,73.2333767 C143.751341,71.1303766 148.460775,68.8110377 153.073867,66.3218129 C162.310682,61.3639355 171.144857,55.6528537 179.30896,49.0863704 C183.386859,45.8004743 187.317256,42.3261112 191.022414,38.6178233 C194.714283,34.8979221 198.224432,30.9922084 201.49705,26.8837599 C204.740101,22.7530802 207.749275,18.4345972 210.521914,13.9541917 L212.531795,10.5501719 L213.035096,9.6984204 L213.501189,8.82676039 L214.433375,7.08111772 C215.736309,4.78036001 216.808689,2.36678753 218,0 C216.127322,4.94891855 213.964624,9.80128093 211.474365,14.4983571 C211.176703,15.0929573 210.82921,15.6593538 210.504971,16.2393545 L209.516973,17.9710612 C209.182436,18.5457529 208.868828,19.1337169 208.516684,19.697459 L207.455932,21.3873579 L206.393851,23.078584 L205.861315,23.9233676 L205.295891,24.74592 L203.022566,28.0334751 C199.86888,32.3303907 196.482314,36.4637248 192.850907,40.3820472 C189.188273,44.2705069 185.286446,47.9303508 181.224825,51.4047139 L178.136917,53.9619593 L174.957983,56.4050628 L174.163,57.0155897 L173.351407,57.603222 L171.723902,58.7725139 L170.095732,59.9421376 C169.54725,60.3240488 168.989135,60.6906968 168.436334,61.06564 L166.773282,62.1844971 C166.219485,62.5581131 165.667349,62.9350471 165.098271,63.2847729 L161.708382,65.4236083 C160.568564,66.1204054 159.41147,66.7876716 158.258363,67.4622375 C157.112565,68.1500758 155.932217,68.7748706 154.762831,69.4205692 C145.399776,74.5675772 135.606174,78.8963464 125.580023,82.5240049 C120.56263,84.3290412 115.494407,85.9821094 110.38632,87.4934955 L106.546949,88.5970894 C105.263282,88.9504651 103.973636,89.2799506 102.687313,89.6230402 C101.402318,89.972766 100.105031,90.2703979 98.8143881,90.5952381 L96.8756004,91.071051 L94.9308329,91.5183284 C89.7450077,92.7138331 84.5339344,93.7935368 79.2986096,94.7259177 C74.0609593,95.6453581 68.8023797,96.4340661 63.5331694,97.1159318 C62.2159498,97.2888039 60.8983981,97.4560352 59.578853,97.6050171 C58.2599724,97.7609669 56.9410918,97.9179121 55.620218,98.0522944 C54.2993441,98.1923175 52.9784702,98.326368 51.6556031,98.442169 C50.3334004,98.5619518 49.0118621,98.6863798 47.6879983,98.7875813 C42.3955331,99.213623 37.098417,99.5630169 31.7949888,99.7494931 C29.1439391,99.8473765 26.4918928,99.917388 23.8401787,99.9588641 C21.1884646,100.008967 18.5364183,100.008635 15.8850365,99.9827543 C10.5836015,99.9316558 5.28183442,99.7577883 0,99.3493325" id="Fill-1" fill="#FFFFFF" mask="url(#mask-6)"></path>
                </g>
            </g>
        </g>
    </g>
</svg>