<svg width="28" height="26" xmlns="http://www.w3.org/2000/svg" xmlns:xlink="http://www.w3.org/1999/xlink"><defs><path id="a" d="M.213.551h4.338v3.616H.213z"/><path id="c" d="M.191.551H4.53v3.616H.191z"/></defs><g fill="none" fill-rule="evenodd"><path stroke="#000" stroke-width="2" stroke-linecap="round" stroke-linejoin="round" d="M1 1h3.603l3.542 18H25"/><path stroke="#000" stroke-width="2" stroke-linecap="round" stroke-linejoin="round" d="M5 5h22l-1.8 10H7.172"/><g transform="translate(8 21)"><mask id="b" fill="#fff"><use xlink:href="#a"/></mask><path d="M4.551 2.359c0 .998-.97 1.808-2.169 1.808-1.198 0-2.169-.81-2.169-1.808S1.184.55 2.383.55c1.197 0 2.168.81 2.168 1.808" fill="#000" mask="url(#b)"/></g><g transform="translate(21 21)"><mask id="d" fill="#fff"><use xlink:href="#c"/></mask><path d="M4.53 2.359c0 .998-.972 1.808-2.17 1.808S.191 3.357.191 2.36 1.162.55 2.361.55c1.197 0 2.168.81 2.168 1.808" fill="#000" mask="url(#d)"/></g><path d="M13.5 5v9M20.5 5v9M7 9.5h19" stroke="#000"/></g></svg>