<?xml version="1.0" encoding="UTF-8"?>
<svg width="141px" height="119px" viewBox="0 0 141 119" version="1.1" xmlns="http://www.w3.org/2000/svg" xmlns:xlink="http://www.w3.org/1999/xlink">
    <!-- Generator: Sketch 55.2 (78181) - https://sketchapp.com -->
    <title>Group 6</title>
    <desc>Created with Sketch.</desc>
    <defs>
        <polygon id="path-1" points="0.0147280963 0.0144057623 31.5059125 0.0144057623 31.5059125 118.322377 0.0147280963 118.322377"></polygon>
        <polygon id="path-3" points="0.0147280963 0.0144057623 31.5059125 0.0144057623 31.5059125 118.322377 0.0147280963 118.322377"></polygon>
    </defs>
    <g id="Page-1" stroke="none" stroke-width="1" fill="none" fill-rule="evenodd">
        <g id="Djibouti" transform="translate(-635.000000, -1830.000000)">
            <g id="Group-10" transform="translate(490.000000, 1829.000000)">
                <g id="Group-12">
                    <g id="Group-6" transform="translate(145.000000, 0.000000)">
                        <polygon id="Fill-1" fill="#52AA5E" points="1.47920757 7.29185038 0.0003 118.930891 16.2619086 118.930891 10.3484032 63.5473507 28.3247797 69.3092121 28.3247797 48.7543178 11.8273108 50.5653122 13.3040935 22.437562 31.0424849 21.5353103 34.0003 2.9645042"></polygon>
                        <path d="M120.039378,25.4609071 L118.370764,100.148965 L124.851394,97.8700519 C128.066427,97.8700519 129.680265,93.3035531 131.898764,82.6700727 C133.190255,76.4838329 134.096195,69.1917459 134.085752,60.9239113 C134.07302,49.5098328 133.567379,40.745451 132.526601,34.6307661 C131.487931,28.5182495 129.419017,25.4609071 126.321966,25.4609071 L120.039378,25.4609071 Z M132.511854,8.41568076 C134.795665,11.002496 137.745237,14.4024343 139.161031,21.2998857 C140.29451,26.8811619 139.96795,34.266487 140.38089,40.758461 C140.79383,47.2526033 141.0003,53.4410114 141.0003,59.3258536 C141.0003,74.2417818 140.130176,86.876629 138.392036,97.2260585 C136.034485,111.177081 132.193721,119.815699 127.27215,119.815699 L110.0003,119.939294 L113.436551,5.98064843 L128.428803,2.9645042 C130.447153,3.06858395 131.169798,6.89351451 132.511854,8.41568076 L132.511854,8.41568076 Z" id="Fill-8" fill="#52AA5E"></path>
                        <g id="Group-4" transform="translate(35.000300, 0.947697)">
                            <mask id="mask-2" fill="white">
                                <use xlink:href="#path-1"></use>
                            </mask>
                            <g id="Clip-3"></g>
                            <path d="M22.2515375,88.2928451 C23.8474125,81.4666747 24.6442875,71.760072 24.6442875,59.1687155 C24.6442875,46.6313806 23.8474125,36.9355822 22.2515375,30.0856423 C20.6556625,23.2357023 18.4966625,19.8085714 15.7809125,19.8085714 C13.0609125,19.8085714 10.8934125,23.2205762 9.2741625,30.0467467 C7.6549125,36.8729172 4.0615375,46.4455462 4.0615375,59.0347419 C4.0615375,71.6239376 7.6549125,81.4666747 9.2741625,88.2928451 C10.8934125,95.1168547 13.0609125,98.5288595 15.7809125,98.5288595 C18.4966625,98.5288595 20.6556625,95.1168547 22.2515375,88.2928451 M23.9451625,104.462593 C21.4652875,113.162233 20.4729125,118.322377 15.7809125,118.322377 C11.0867875,118.322377 7.4997875,113.976879 5.0199125,105.2794 C1.6921625,94.6133733 0.0282875,79.2431453 0.0282875,59.1687155 C0.0282875,38.6923649 -0.3563375,21.7144538 2.9714125,11.4481873 C5.4512875,2.75503001 11.0867875,0.0128931573 15.7809125,0.0128931573 C20.4729125,0.0128931573 24.0599125,4.36271309 26.5397875,13.0580312 C29.8505375,23.3242977 31.5059125,38.6923649 31.5059125,59.1687155 C31.5059125,79.2431453 27.2580375,93.7965666 23.9451625,104.462593" id="Fill-2" fill="#52AA5E" mask="url(#mask-2)"></path>
                        </g>
                        <g id="Group-7" transform="translate(74.000300, 0.947697)">
                            <mask id="mask-4" fill="white">
                                <use xlink:href="#path-3"></use>
                            </mask>
                            <g id="Clip-6"></g>
                            <path d="M22.2515375,88.2928451 C23.8474125,81.4666747 24.6442875,71.760072 24.6442875,59.1687155 C24.6442875,46.6313806 23.8474125,36.9355822 22.2515375,30.0856423 C20.6556625,23.2357023 18.4966625,19.8085714 15.7809125,19.8085714 C13.0609125,19.8085714 10.8934125,23.2205762 9.2741625,30.0467467 C7.6549125,36.8729172 4.0615375,46.4455462 4.0615375,59.0347419 C4.0615375,71.6239376 7.6549125,81.4666747 9.2741625,88.2928451 C10.8934125,95.1168547 13.0609125,98.5288595 15.7809125,98.5288595 C18.4966625,98.5288595 20.6556625,95.1168547 22.2515375,88.2928451 M23.9451625,104.462593 C21.4652875,113.162233 20.4729125,118.322377 15.7809125,118.322377 C11.0867875,118.322377 7.4997875,113.976879 5.0199125,105.2794 C1.6921625,94.6133733 0.0282875,79.2431453 0.0282875,59.1687155 C0.0282875,38.6923649 -0.3563375,21.7144538 2.9714125,11.4481873 C5.4512875,2.75503001 11.0867875,0.0128931573 15.7809125,0.0128931573 C20.4729125,0.0128931573 24.0599125,4.36271309 26.5397875,13.0580312 C29.8505375,23.3242977 31.5059125,38.6923649 31.5059125,59.1687155 C31.5059125,79.2431453 27.2580375,93.7965666 23.9451625,104.462593" id="Fill-5" fill="#52AA5E" mask="url(#mask-4)"></path>
                        </g>
                    </g>
                </g>
            </g>
        </g>
    </g>
</svg>