<?xml version="1.0" encoding="UTF-8"?>
<svg width="295px" height="120px" viewBox="0 0 295 120" version="1.1" xmlns="http://www.w3.org/2000/svg" xmlns:xlink="http://www.w3.org/1999/xlink">
    <!-- Generator: Sketch 55.2 (78181) - https://sketchapp.com -->
    <title>Group 9</title>
    <desc>Created with Sketch.</desc>
    <defs>
        <polygon id="path-1" points="0.677525 0.567329435 41 0.567329435 41 116.425107 0.677525 116.425107"></polygon>
        <polygon id="path-3" points="0.361458333 0.855586603 23.6322917 0.855586603 23.6322917 118.947368 0.361458333 118.947368"></polygon>
        <polygon id="path-5" points="0.762476923 0.893018182 24.4622462 0.893018182 24.4622462 120 0.762476923 120"></polygon>
    </defs>
    <g id="Page-1" stroke="none" stroke-width="1" fill="none" fill-rule="evenodd">
        <g id="Djibouti" transform="translate(-1068.000000, -1829.000000)">
            <g id="Group-10" transform="translate(490.000000, 1829.000000)">
                <g id="Group-13" transform="translate(510.000000, 0.000000)">
                    <g id="Group-9" transform="translate(68.000000, 0.000000)">
                        <polygon id="Fill-10" fill="#52AA5E" points="167.163636 120 167.163636 4.21052632 183.930728 10.9025631 178.526044 48.3578951 194.404924 56.7234866 199.801229 4.21052632 211.163636 4.21052632 211.163636 120 196.499763 106.908308 199.801229 68.3118163 177.646211 65.4512815 183.930728 120"></polygon>
                        <g id="Group-14" transform="translate(253.163636, 1.052632)">
                            <mask id="mask-2" fill="white">
                                <use xlink:href="#path-1"></use>
                            </mask>
                            <g id="Clip-13"></g>
                            <path d="M26.437825,17.9895517 C24.879825,15.4220663 22.696575,14.1383236 19.890125,14.1383236 L8.799625,14.1383236 L8.799625,48.251384 L19.890125,48.251384 C22.696575,48.251384 24.879825,46.8650292 26.437825,44.08577 C27.995825,41.3108772 28.776875,36.9072904 28.776875,30.8793762 C28.776875,24.8558285 27.995825,20.5592203 26.437825,17.9895517 M34.851025,57.4777388 C31.404975,63.1366862 30.999075,61.8442105 24.601025,61.8442105 L12.301025,64.0274464 L12.899625,116.425107 L0.677525,116.425107 L0.677525,0.567329435 L25.960175,0.567329435 C31.788325,0.567329435 31.384475,5.65645224 34.851025,11.6297856 C38.315525,17.6031189 41.001025,23.1245224 41.001025,35.6453801 C41.001025,49.3233528 38.297075,51.8187914 34.851025,57.4777388" id="Fill-12" fill="#52AA5E" mask="url(#mask-2)"></path>
                        </g>
                        <path d="M71.0515148,89.8069381 C72.6224981,82.9440886 73.4090357,73.1853294 73.4090357,60.5263158 C73.4090357,47.921614 72.6224981,38.1737173 71.0515148,31.2869705 C69.4805315,24.4002238 67.3552066,20.9546779 64.6818155,20.9546779 C62.0063326,20.9546779 59.8705484,24.3850165 58.2786465,31.247866 C56.6846528,38.1107155 53.1452337,47.7347811 53.1452337,60.3916223 C53.1452337,73.0484635 56.6846528,82.9440886 58.2786465,89.8069381 C59.8705484,96.6676151 62.0063326,100.100126 64.6818155,100.100126 C67.3552066,100.100126 69.4805315,96.6676151 71.0515148,89.8069381 M72.7208153,106.065743 C70.2796202,114.809956 69.300632,120 64.6818155,120 C60.0609072,120 56.5319474,115.62898 54.0907523,106.884767 C50.8128151,96.1614284 49.1769843,80.7086115 49.1769843,60.5263158 C49.1769843,39.9399397 48.7983585,22.8708012 52.0742038,12.5515434 C54.5153989,3.80950275 60.0609072,1.05263158 64.6818155,1.05263158 C69.300632,1.05263158 72.8316836,5.42582439 75.2749706,14.1700375 C78.5340811,24.4892953 80.1636364,39.9399397 80.1636364,60.5263158 C80.1636364,80.7086115 75.9799258,95.3424052 72.7208153,106.065743" id="Fill-15" fill="#52AA5E"></path>
                        <path d="M239.051515,89.8069381 C240.622498,82.9440886 241.409036,73.1853294 241.409036,60.5263158 C241.409036,47.921614 240.622498,38.1737173 239.051515,31.2869705 C237.480532,24.4002238 235.355207,20.9546779 232.681816,20.9546779 C230.006333,20.9546779 227.870548,24.3850165 226.278647,31.247866 C224.684653,38.1107155 221.145234,47.7347811 221.145234,60.3916223 C221.145234,73.0484635 224.684653,82.9440886 226.278647,89.8069381 C227.870548,96.6676151 230.006333,100.100126 232.681816,100.100126 C235.355207,100.100126 237.480532,96.6676151 239.051515,89.8069381 M240.720815,106.065743 C238.27962,114.809956 237.300632,120 232.681816,120 C228.060907,120 224.531947,115.62898 222.090752,106.884767 C218.812815,96.1614284 217.176984,80.7086115 217.176984,60.5263158 C217.176984,39.9399397 216.798358,22.8708012 220.074204,12.5515434 C222.515399,3.80950275 228.060907,1.05263158 232.681816,1.05263158 C237.300632,1.05263158 240.831684,5.42582439 243.274971,14.1700375 C246.534081,24.4892953 248.163636,39.9399397 248.163636,60.5263158 C248.163636,80.7086115 243.979926,95.3424052 240.720815,106.065743" id="Fill-17" fill="#52AA5E"></path>
                        <polygon id="Fill-19" fill="#52AA5E" points="12.2704023 3.93530918 10.2145752 65.2525043 12.2704023 100.290902 14.7291716 83.5819659 18.7298112 16.2972937 26.5337309 3.15789474 30.7420091 70.0593344 32.8286736 91.5313023 32.9129625 70.7863812 37.6310858 3.15789474 45.1636364 8.31510883 35.2031539 120 28.1208295 120 23.844709 51.6707456 22.5947662 42.216948 21.3468791 51.6707456 17.0728145 120 10.2001844 120 0.163636364 3.15789474"></polygon>
                        <g id="Group-23" transform="translate(87.163636, 1.052632)">
                            <mask id="mask-4" fill="white">
                                <use xlink:href="#path-3"></use>
                            </mask>
                            <g id="Clip-22"></g>
                            <path d="M7.76979167,23.8301321 L7.76979167,54.755223 L13.6114583,54.755223 C14.771875,54.755223 15.6427083,54.131223 16.2239583,52.8788593 C17.2510417,50.6948593 17.7635417,46.3748593 17.7635417,39.9188593 C17.7635417,32.9414048 17.2677083,28.2570411 16.2739583,25.8614048 C15.7135417,24.5086775 14.878125,23.8301321 13.7614583,23.8301321 L7.76979167,23.8301321 Z M18.990625,6.80540478 C19.946875,8.62940478 20.7572917,11.3108593 21.4239583,14.8497684 C21.971875,17.7668593 22.4072917,20.9937684 22.7302083,24.5326775 C23.0489583,28.0737684 23.209375,32.1101321 23.209375,36.6374048 C23.209375,42.1028593 22.8989583,47.4810411 22.2760417,52.7654048 C21.653125,58.0497684 16.603125,61.523223 15.171875,63.7115866 C16.3697917,65.8454048 21.2385417,69.1399502 21.7385417,73.067223 C22.2364583,77.0010411 22.4864583,82.9988593 22.4864583,91.0694048 L22.4864583,98.7974048 C22.4864583,104.057768 22.534375,107.625041 22.6302083,109.499223 C22.7260417,111.47595 22.9072917,113.123223 23.171875,114.417041 C23.4510417,115.780678 23.6322917,117.174859 23.6322917,118.590859 L23.6322917,118.948678 L15.171875,118.948678 C15.878125,116.090496 15.5947917,116.655587 15.878125,115.139223 C16.5802083,111.329768 17.0697917,106.24395 17.0572917,102.862132 L17.021875,92.1603139 C17.0010417,84.8206775 16.715625,79.9268593 16.1635417,77.4810411 C15.615625,75.0330411 14.584375,73.8090411 13.071875,73.8090411 L6.709375,70.3770411 L7.76979167,118.948678 L1.77395833,118.948678 L2.478125,61.8068593 C3.16979167,59.7995866 2.43854167,54.1399502 2.36145833,52.1370411 L0.361458333,0.855586603 L15.878125,0.855586603 C17.6510417,1.01267751 18.034375,4.9835866 18.990625,6.80540478 L18.990625,6.80540478 Z" id="Fill-21" fill="#52AA5E" mask="url(#mask-4)"></path>
                        </g>
                        <path d="M145.706626,78.2713008 C145.849785,83.3301192 147.538225,91.7964319 147.959282,94.3039982 C148.731922,98.862614 148.378234,106.136304 150.254044,106.136304 C151.376161,106.136304 153.969874,100.537965 154.670934,99.3366052 C156.001475,97.0343622 156.666745,92.7509672 156.666745,86.4886043 C156.666745,82.8321008 156.340426,80.0034437 155.687787,77.9960801 C155.037254,76.0433237 154.003558,74.3155494 152.590911,72.812757 L150.171938,70.1806861 C147.797175,67.5791953 147.350854,57.5532987 146.464529,54.4974753 C144.961354,49.3884181 143.022386,48.5933361 143.022386,37.7221188 C143.022386,27.8032524 141.154997,24.2472263 142.927648,17.8647274 C144.441349,12.408368 148.86245,3.15789474 151.715112,3.15789474 C154.094086,3.15789474 156.125687,6.25085109 157.80781,12.4389481 C159.487829,18.6270451 160.369943,27.6066662 160.45205,39.3756272 L157.454122,38.5193851 C157.372016,31.8572969 155.285678,27.98018 154.169876,25.1733658 C153.422499,23.3210869 152.243539,17.4737393 151.138264,17.4737393 C149.906671,17.4737393 149.174032,23.5963076 148.439287,25.9990279 C147.704542,28.4039325 147.336117,31.7633724 147.336117,36.0707946 C147.336117,40.0287303 147.700332,42.9840763 148.42455,44.9346484 C148.889818,46.2408545 149.877197,47.7654898 151.388793,49.5194756 L155.30673,54.1064871 C157.022539,56.1094822 158.308868,58.7874232 159.167825,62.1424945 C160.496261,67.352029 161.163636,74.8922023 161.163636,84.7630142 C161.163636,94.8806511 160.374154,103.281435 158.7994,109.969735 C157.222541,116.65585 154.995148,120 152.117222,120 C149.178242,120 145.582414,110.919901 143.90029,104.334263 C142.216061,97.7486255 142.658171,94.4787415 142.658171,82.9587897 L145.706626,78.2713008 Z" id="Fill-24" fill="#52AA5E"></path>
                        <g id="Group-28" transform="translate(117.163636, 0.000000)">
                            <mask id="mask-6" fill="white">
                                <use xlink:href="#path-5"></use>
                            </mask>
                            <g id="Clip-27"></g>
                            <polygon id="Fill-26" fill="#52AA5E" mask="url(#mask-6)" points="0.762476923 1.68938182 6.37432308 7.46465455 5.8634 45.5068364 20.0176308 0.893018182 24.4622462 1.10683636 10.9643231 56.0646545 21.2949385 119.601382 14.7900154 116.415927 9.84693846 68.1301091 6.24763077 73.1941091 4.84363077 120.000655 0.891246154 113.426836"></polygon>
                        </g>
                    </g>
                </g>
            </g>
        </g>
    </g>
</svg>