<?xml version="1.0" encoding="UTF-8"?>
<svg width="72px" height="64px" viewBox="0 0 72 64" version="1.1" xmlns="http://www.w3.org/2000/svg" xmlns:xlink="http://www.w3.org/1999/xlink">
    <!-- Generator: Sketch 55.2 (78181) - https://sketchapp.com -->
    <title>Calender</title>
    <desc>Created with Sketch.</desc>
    <g id="Page-1" stroke="none" stroke-width="1" fill="none" fill-rule="evenodd">
        <g id="Home-Page-Copy" transform="translate(-488.000000, -2029.000000)">
            <g id="Waarom-met-ons-reizen" transform="translate(457.000000, 1896.000000)">
                <g id="Calender" transform="translate(33.000000, 135.000000)">
                    <polygon id="Stroke-1" stroke="#000000" stroke-width="4" stroke-linecap="round" stroke-linejoin="round" points="62 5 68 52 56 52"></polygon>
                    <polygon id="Fill-3" fill="#FFFFFF" points="0 59 63 59 63 5 0 5"></polygon>
                    <g id="Group-14" stroke="#000000" stroke-width="4">
                        <polygon id="Stroke-4" points="0 59.2857143 62.5303209 59.2857143 62.5303209 4.48209263 0 4.48209263"></polygon>
                        <path d="M4.78010149,0.400549107 L4.78010149,9.16371875" id="Stroke-6" stroke-linecap="round" stroke-linejoin="round"></path>
                        <path d="M11.9067179,0.400549107 L11.9067179,9.16371875" id="Stroke-7" stroke-linecap="round" stroke-linejoin="round"></path>
                        <path d="M19.1086522,0.400549107 L19.1086522,9.16371875" id="Stroke-8" stroke-linecap="round" stroke-linejoin="round"></path>
                        <path d="M26.3110097,0.400549107 L26.3110097,9.16371875" id="Stroke-9" stroke-linecap="round" stroke-linejoin="round"></path>
                        <path d="M34.3393724,0.400549107 L34.3393724,9.16371875" id="Stroke-10" stroke-linecap="round" stroke-linejoin="round"></path>
                        <path d="M41.6592672,0.400549107 L41.6592672,9.16371875" id="Stroke-11" stroke-linecap="round" stroke-linejoin="round"></path>
                        <path d="M49.0976396,0.400549107 L49.0976396,9.16371875" id="Stroke-12" stroke-linecap="round" stroke-linejoin="round"></path>
                        <path d="M57.1260022,0.400549107 L57.1260022,9.16371875" id="Stroke-13" stroke-linecap="round" stroke-linejoin="round"></path>
                    </g>
                    <g id="Group-2" transform="translate(13.000000, 15.000000)" stroke="#000000" stroke-linecap="round" stroke-linejoin="round" stroke-width="2">
                        <polygon id="Stroke-22" points="0 8 8 8 8 0 0 0"></polygon>
                        <polygon id="Stroke-22-Copy" points="14 8 22 8 22 0 14 0"></polygon>
                        <polygon id="Stroke-22-Copy-2" points="28 8 36 8 36 0 28 0"></polygon>
                        <polygon id="Stroke-22-Copy-3" points="28 22 36 22 36 14 28 14"></polygon>
                        <polygon id="Stroke-22-Copy-4" points="14 22 22 22 22 14 14 14"></polygon>
                        <polygon id="Stroke-22-Copy-5" points="0 22 8 22 8 14 0 14"></polygon>
                        <polygon id="Stroke-22-Copy-6" points="0 36 8 36 8 28 0 28"></polygon>
                        <polygon id="Stroke-22-Copy-7" points="14 36 22 36 22 28 14 28"></polygon>
                        <polygon id="Stroke-22-Copy-8" points="28 36 36 36 36 28 28 28"></polygon>
                    </g>
                </g>
            </g>
        </g>
    </g>
</svg>