<?xml version="1.0" encoding="UTF-8"?>
<svg width="48px" height="65px" viewBox="0 0 48 65" version="1.1" xmlns="http://www.w3.org/2000/svg" xmlns:xlink="http://www.w3.org/1999/xlink">
    <!-- Generator: Sketch 55.2 (78181) - https://sketchapp.com -->
    <title>Group 5</title>
    <desc>Created with Sketch.</desc>
    <g id="Page-1" stroke="none" stroke-width="1" fill="none" fill-rule="evenodd" stroke-linecap="round" stroke-linejoin="round">
        <g id="Home-Page-Copy" transform="translate(-1371.000000, -2028.000000)" stroke="#000000" stroke-width="3">
            <g id="Group-5" transform="translate(1373.000000, 2030.000000)">
                <path d="M44.2567568,0.925843329 C44.2567568,1.43961374 43.8352652,1.85829039 43.3173756,1.85829039 L24.8619795,22.8700472 L24.8619795,54.7040012 L33.9242293,59.4349153 C34.3384079,59.4349153 34.6714793,59.7723661 34.6714793,60.1771749 L34.6714793,60.2577404 C34.6714793,60.669153 34.3384079,61 33.9242293,61 L10.5826361,61 C10.1751056,61 9.84203417,60.669153 9.84203417,60.2577404 L9.84203417,60.1771749 C9.84203417,59.7723661 10.1751056,59.4349153 10.5826361,59.4349153 L19.0535354,54.7106049 L19.0535354,23.0245745 L1.19613788,1.85829039 C0.678913169,1.85829039 0.256756757,1.43961374 0.256756757,0.925843329 C0.256756757,0.418016282 0.678913169,0 1.19613788,0 L43.3173756,0 C43.8352652,0 44.2567568,0.418016282 44.2567568,0.925843329 Z" id="Stroke-1"></path>
                <polygon id="Stroke-3" points="14 10 21.9996583 19 30 10"></polygon>
            </g>
        </g>
    </g>
</svg>