<?xml version="1.0" encoding="UTF-8"?>
<svg width="64px" height="64px" viewBox="0 0 64 64" version="1.1" xmlns="http://www.w3.org/2000/svg" xmlns:xlink="http://www.w3.org/1999/xlink">
    <!-- Generator: Sketch 55.2 (78181) - https://sketchapp.com -->
    <title>Group 17</title>
    <desc>Created with Sketch.</desc>
    <g id="Page-1" stroke="none" stroke-width="1" fill="none" fill-rule="evenodd">
        <g id="Home-Page-Copy" transform="translate(-708.000000, -2028.000000)">
            <g id="Group-17" transform="translate(710.000000, 2029.000000)">
                <path d="M60,31 C60,31.5921739 59.9836957,32.173913 59.951087,32.7543478 C59.5441304,39.7926087 56.7143478,46.1741304 52.2821739,51.0836957 C46.7921739,57.1717391 38.846087,61 29.9993478,61 C21.8047826,61 14.3693478,57.7143478 8.96021739,52.3867391 C3.42652174,46.945 0,39.3745652 0,31 C0,29.8926087 0.0593478261,28.8008696 0.178695652,27.7254348 C1.19478261,18.3197826 6.56543478,10.2165217 14.2284783,5.47521739 C18.8126087,2.635 24.2158696,1 29.9993478,1 C33.9267391,1 37.6786957,1.75521739 41.1228261,3.12934783 C52.1856522,7.54456522 60,18.3628261 60,31 Z" id="Stroke-1" stroke="#000000" stroke-width="4"></path>
                <path d="M60,31.2053466 C60,31.8046834 59.5849911,32.8433826 59.5531415,33.4316326 C50.6586585,33.7890173 34.3968366,28.5732215 34.0334914,21.4066153 C33.6174969,13.1508988 36.6707463,14.3795608 41.2492861,3.61236907 C51.9702452,8.08098188 60,18.4164533 60,31.2053466 Z" id="Stroke-3" stroke="#000000" stroke-width="4"></path>
                <path d="M53,50.1793666 C47.4231642,56.2086128 38.4604521,61 29.4752581,61 C21.1520342,61 14.0221041,56.9518657 8.52867129,51.6763563 C10.4640146,46.4060362 15.3819701,36.1476663 21.1295522,36.0030163 C28.9234627,35.8097171 26.9263881,44.9739119 39.1216119,44.2902298 C44.9302687,43.9678484 49.651403,46.9574983 53,50.1793666 Z" id="Stroke-5" stroke="#000000" stroke-width="4"></path>
                <path d="M17.6553388,25.075889 C16.0442701,30.0831946 6.96958519,29.2811991 1,28.155872 C1.74668853,20.9019121 4.86551891,14.3939481 9.52480304,9.50064178 C11.1541794,7.79065123 13.5936671,6.71891249 15.5630417,5.44025289 C15.6689643,6.75957893 15.274697,7.72865158 15.5630417,9.17464358 C16.7223051,14.9952781 18.8289867,21.4225759 17.6553388,25.075889 Z" id="Stroke-7" stroke="#000000" stroke-width="4"></path>
                <path d="M15.5976042,38.0704674 L11.5900916,47.735291 C11.4501374,48.0708245 11.074378,48.2264343 10.7497783,48.0829815 C10.5927708,48.0130787 10.4757503,47.8854301 10.4140058,47.735291 L6.40531714,38.0704674 C5.31802577,35.4469845 6.49352358,32.4083397 9.03151686,31.2832083 C11.5695101,30.158077 14.5091368,31.373778 15.5976042,33.9978688 C16.156245,35.3460813 16.1115537,36.8189032 15.5976042,38.0704674" id="Fill-9" fill="#FF0A0A"></path>
                <path d="M13,36 C13,37.1038116 12.1042926,38 10.9996901,38 C9.89508756,38 9,37.1038116 9,36 C9,34.8955686 9.89508756,34 10.9996901,34 C12.1042926,34 13,34.8955686 13,36" id="Fill-11" fill="#FFFFFF"></path>
                <path d="M52.5973746,8.07002608 L48.5898164,17.7349427 C48.4504486,18.0710873 48.0746849,18.2266985 47.7494934,18.0826366 C47.5924842,18.0127331 47.4760504,17.8850832 47.4137171,17.7349427 L43.4055708,8.07002608 C42.317679,5.44651789 43.4937783,2.40784379 46.0318005,1.28330946 C48.5698227,0.158167282 51.5094828,1.37327221 52.5973746,3.99738825 C53.1566098,5.34561373 53.11133,6.81844977 52.5973746,8.07002608" id="Fill-13" fill="#FF0A0A"></path>
                <path d="M50,7 C50,8.10443136 49.1049124,9 47.9996901,9 C46.8950876,9 46,8.10443136 46,7 C46,5.89556864 46.8950876,5 47.9996901,5 C49.1049124,5 50,5.89556864 50,7" id="Fill-15" fill="#FFFFFF"></path>
            </g>
        </g>
    </g>
</svg>