<?xml version="1.0" encoding="UTF-8"?>
<svg width="55px" height="63px" viewBox="0 0 55 63" version="1.1" xmlns="http://www.w3.org/2000/svg" xmlns:xlink="http://www.w3.org/1999/xlink">
    <!-- Generator: Sketch 55.2 (78181) - https://sketchapp.com -->
    <title>Group 3 Copy 2</title>
    <desc>Created with Sketch.</desc>
    <defs>
        <polygon id="path-1" points="8.69003411 7.43021406 92.2527881 7.44233398 92.2666844 103.321061 8.70393035 103.308941"></polygon>
    </defs>
    <g id="Page-1" stroke="none" stroke-width="1" fill="none" fill-rule="evenodd">
        <g id="Home-Page-Copy" transform="translate(-1146.000000, -2030.000000)">
            <g id="Group-3-Copy-2" transform="translate(1117.000000, 1986.000000)">
                <mask id="mask-2" fill="white">
                    <use xlink:href="#path-1"></use>
                </mask>
                <g id="Clip-2" transform="translate(50.478359, 55.375637) rotate(11.000000) translate(-50.478359, -55.375637) "></g>
                <path d="M61.7196783,81.6166909 C60.5743724,88.0370787 59.489637,93.1737666 58.6639036,96.8082033 L68.2637517,102.00282 C68.2637517,102.00282 68.8474138,104.981722 67.5230892,105.745956 L57.3039249,103.164153 L47.0854972,105.742947 C45.7569041,104.978323 46.3437661,101.999593 46.3437661,101.999593 L55.9745313,96.7917057 C55.1437094,93.1525971 54.0575081,88.0200176 52.9144194,81.5996954 L31.4807834,83.8306521 C28.9935694,81.3304956 30.2364198,77.2806963 30.2364198,77.2806963 L50.988859,69.7682788 C50.9848047,69.7401002 50.9807498,69.7078962 50.9766956,69.6801202 C47.8955118,48.7389917 57.3116095,43.5032971 57.3116095,43.5032971 C57.3116095,43.5032971 66.7292024,48.7417644 63.653997,69.6819865 C63.6459034,69.7302905 63.6378097,69.7781919 63.6337664,69.8268989 L84.2344333,77.2886458 C84.2344333,77.2886458 85.47844,81.3388113 82.9919397,83.8382355 L61.7196783,81.6166909 Z" id="Fill-1" fill="#000000" mask="url(#mask-2)" transform="translate(57.235760, 74.624627) rotate(11.000000) translate(-57.235760, -74.624627) "></path>
            </g>
        </g>
    </g>
</svg>