<?xml version="1.0" encoding="UTF-8"?>
<svg width="292px" height="241px" viewBox="0 0 292 241" version="1.1" xmlns="http://www.w3.org/2000/svg" xmlns:xlink="http://www.w3.org/1999/xlink">
    <!-- Generator: Sketch 55.2 (78181) - https://sketchapp.com -->
    <title>Fireworks</title>
    <desc>Created with Sketch.</desc>
    <defs>
        <polygon id="path-1" points="0.0206279172 0.252923611 60.8179912 0.252923611 60.8179912 76.7469629 0.0206279172 76.7469629"></polygon>
    </defs>
    <g id="Page-1" stroke="none" stroke-width="1" fill="none" fill-rule="evenodd" opacity="0.700265067">
        <g id="Home-Page" transform="translate(-125.000000, -257.000000)">
            <g id="Intro-Image" transform="translate(-122.000000, 257.000000)">
                <g id="Fireworks" transform="translate(247.000000, 0.000000)">
                    <g id="Group-38" transform="translate(0.000000, 84.000000)">
                        <g id="Group-3" transform="translate(80.000000, 0.000000)">
                            <mask id="mask-2" fill="white">
                                <use xlink:href="#path-1"></use>
                            </mask>
                            <g id="Clip-2"></g>
                            <path d="M0.0440585153,76.5373316 L50.5826917,2.69593576 C52.3367747,0.132744792 55.8297572,-0.518012153 58.3837659,1.24309549 C60.938041,3.00420312 61.5858664,6.50984201 59.8312507,9.07330035 C59.7063205,9.25644271 59.5504908,9.45348785 59.4082463,9.61684549 L0.253962445,76.7017587 C0.205215721,76.7571024 0.120774672,76.7624497 0.0656349345,76.7132552 C0.0147572052,76.6680712 0.00623318777,76.5921406 0.0440585153,76.5373316" id="Fill-1" fill="#E1730E" mask="url(#mask-2)"></path>
                        </g>
                        <path d="M83.0866736,79.7366178 L144.498658,56.4055417 C147.761028,55.1661967 151.389534,56.8628546 152.602922,60.1947444 C153.816309,63.5271754 152.155452,67.2330335 148.893082,68.4723786 C148.527476,68.6114666 148.12266,68.7183534 147.751756,68.7851914 L83.1555559,79.9980168 C83.0829646,80.0107349 83.0143472,79.9609446 83.0018955,79.887071 C82.9910332,79.8213154 83.0278588,79.7590775 83.0866736,79.7366178" id="Fill-4" fill="#0646E0"></path>
                        <path d="M79.24347,88.0531641 L121.240295,143.153868 C124.154031,146.976305 123.368015,152.400123 119.484645,155.268074 C115.601275,158.136025 110.091646,157.362024 107.178447,153.539587 C106.744098,152.970383 106.376593,152.323753 106.104923,151.696942 L79.0107255,88.1847627 C78.9814647,88.1168493 79.0142154,88.0388943 79.0829381,88.0103549 C79.1411913,87.9863077 79.2072295,88.0055983 79.24347,88.0531641" id="Fill-6" fill="#D013E0"></path>
                        <path d="M70.9557723,86.2328534 L27.7975524,125.178663 C24.9242899,127.771447 20.467944,127.572043 17.8436634,124.733531 C15.2191133,121.894753 15.4209396,117.491626 18.2942022,114.899108 C18.702705,114.530383 19.1758785,114.202125 19.6385431,113.946015 L70.7986765,86.0166772 C70.8641555,85.9810027 70.94688,86.0044307 70.9832573,86.0691239 C71.0139758,86.1244991 71.0010417,86.1921207 70.9557723,86.2328534" id="Fill-8" fill="#E30E0E"></path>
                        <path d="M68.8527236,81.9992774 L4.49860098,75.2968111 C1.75099709,75.010421 -0.251557251,72.4794929 0.0256332281,69.6434313 C0.302823708,66.8073696 2.75481117,64.740344 5.50241506,65.0264585 C5.74595814,65.0518174 6.01059761,65.1025352 6.24105559,65.1617978 L68.8994561,81.7280475 C68.9707565,81.7470666 69.0140175,81.8220408 68.9958586,81.896188 C68.9793019,81.9631685 68.917348,82.0061684 68.8527236,81.9992774" id="Fill-10" fill="#E90B89"></path>
                        <path d="M72.7542579,74.9405581 L42.3769528,29.6463546 C39.8774585,25.919198 40.8750777,20.8732953 44.6054561,18.3756942 C48.3358345,15.8783586 53.386099,16.8753817 55.8855934,20.6022728 C56.3295406,21.2643003 56.6725303,22.0049005 56.900216,22.728512 L72.9938991,74.82615 C73.0159503,74.8970246 72.9763644,74.9721465 72.9051628,74.9939132 C72.8475108,75.0119637 72.7864049,74.9886042 72.7542579,74.9405581" id="Fill-12" fill="#16D911"></path>
                        <path d="M75.8720332,75.8678731 L75.0011666,46.3710342 C74.9638097,45.1051492 75.8282519,44.0439234 76.9323014,44.0013543 C78.0363509,43.9582394 78.9614682,44.9498812 78.999063,46.216039 C79.0021562,46.3246448 78.9973974,46.4449844 78.9876418,46.5503156 L76.109737,75.8785154 C76.1023608,75.9535571 76.0433512,76.0075871 75.9776793,75.9991278 C75.9181939,75.9914872 75.8739367,75.9344555 75.8720332,75.8678731" id="Fill-14" fill="#22307F"></path>
                        <path d="M74.9999073,89.1363991 L73.7017856,125.765764 C73.636131,127.616395 72.0832696,129.063276 70.2333869,128.997867 C68.3832417,128.932195 66.9367406,127.378926 67.0021326,125.528294 C67.0089607,125.335482 67.0365356,125.128747 67.07409,124.945654 L74.7393901,89.1043512 C74.7543593,89.0329003 74.8244784,88.9877181 74.8959105,89.002954 C74.9592015,89.0166137 75.0022709,89.0738795 74.9999073,89.1363991" id="Fill-16" fill="#E2ADAD"></path>
                        <path d="M69.9030133,83.2626551 L41.1064631,91.8964142 C39.836978,92.2770201 38.4935555,91.5760307 38.1055891,90.3306303 C37.7176226,89.0854975 38.4321684,87.7675625 39.7016536,87.3869566 C39.8140602,87.353232 39.940654,87.3264665 40.0536062,87.3090689 L69.8429904,83.0014235 C69.918019,82.9907173 69.9873182,83.0415718 69.9985043,83.1146417 C70.0085991,83.1812879 69.966583,83.2436516 69.9030133,83.2626551" id="Fill-18" fill="#43319B"></path>
                        <path d="M69.7968019,76.9816536 L48.4556077,64.5009546 C47.0635333,63.6871323 46.5867734,61.8839679 47.3904313,60.4746325 C48.1938202,59.0644795 49.9733293,58.5812555 51.3651346,59.3956229 C51.5529328,59.5051864 51.73535,59.6444574 51.8889786,59.786999 L69.9566187,76.7622541 C70.0115053,76.8140379 70.0147339,76.9007075 69.9638831,76.9560343 C69.9200276,77.0040024 69.8503432,77.0129964 69.7968019,76.9816536" id="Fill-20" fill="#D10D0D"></path>
                        <path d="M82.053473,77.7593917 L103.795209,61.4032405 C104.67075,60.7445874 105.922608,60.9101198 106.590862,61.7733485 C107.259117,62.6363098 107.091171,63.8701812 106.215631,64.5288344 C106.145902,64.5812485 106.063693,64.63393 105.989895,64.6756474 L82.2029688,77.9824192 C82.1378526,78.0190556 82.0548296,77.9965924 82.0176591,77.9321444 C81.9837444,77.8730448 82.0002948,77.7992371 82.053473,77.7593917" id="Fill-22" fill="#63F255"></path>
                        <path d="M82.1666181,83.003123 L101.126925,87.1993744 C102.408997,87.4833459 103.223496,88.7751654 102.945627,90.0856745 C102.667758,91.3961836 101.403702,92.2280138 100.121357,91.9446001 C99.9436627,91.9049892 99.764058,91.8405516 99.6060168,91.7649561 L82.0787264,83.2672891 C82.0102146,83.234094 81.9807354,83.1501299 82.0132171,83.0801134 C82.0413315,83.020139 82.1054761,82.9897334 82.1666181,83.003123" id="Fill-24" fill="#4D812F"></path>
                        <path d="M83.1256744,82.162184 L117.992169,80.0034904 C119.038017,79.9388336 119.935372,80.7802153 119.996689,81.8827542 C120.058006,82.9855743 119.260356,83.9318124 118.214508,83.9964692 C118.151059,84.000686 118.085477,84.0009671 118.023094,83.9981559 L83.1280738,82.4433005 C83.0539606,82.4399271 82.9971761,82.374427 83,82.2968388 C83.0030412,82.2243108 83.0582261,82.1666819 83.1256744,82.162184" id="Fill-26" fill="#FAEA8E"></path>
                        <path d="M81.1979129,86.0159909 L121.247831,107.575467 C124.711323,109.439826 126.011528,113.766107 124.151701,117.238268 C122.29214,120.710696 117.976991,122.013989 114.513764,120.14963 C113.867781,119.801961 113.27574,119.344264 112.786801,118.846338 L81.037945,86.228855 C80.9863939,86.1758388 80.9874568,86.0903202 81.0406023,86.0383696 C81.0833844,85.9962764 81.1476905,85.9888168 81.1979129,86.0159909" id="Fill-28" fill="#DACC14"></path>
                        <path d="M77.277031,88.0998221 L82.9060468,107.815247 C83.289219,109.156816 82.4656931,110.542746 81.0669883,110.909998 C79.6680033,111.277249 78.2236094,110.487363 77.8404372,109.145793 C77.7866193,108.957866 77.7569073,108.75569 77.7490589,108.569107 L77.0000931,88.1401498 C76.9972901,88.0654091 77.0581155,88.0027666 77.1360394,88 C77.2024708,87.9979273 77.2599327,88.0404059 77.277031,88.0998221" id="Fill-30" fill="#D2DC23"></path>
                        <path d="M71.9904783,87.1914952 L65.8317074,103.326686 C65.3060273,104.703658 63.8405182,105.362473 62.5581657,104.797892 C61.2758132,104.233311 60.6626477,102.659354 61.188072,101.282107 C61.2816968,101.037318 61.4124133,100.805991 61.5592456,100.609556 L71.7702298,87.0516551 C71.8149958,86.9917628 71.8965977,86.9826966 71.9521075,87.0310499 C71.997385,87.0706118 72.0114543,87.1362735 71.9904783,87.1914952" id="Fill-32" fill="#D43DD5"></path>
                        <path d="M78.0031746,74.8377593 L80.9815455,61.2429607 C81.1701488,60.3814225 81.9902836,59.8433565 82.8131882,60.0408143 C83.6358411,60.2385358 84.1497788,61.0969104 83.9609237,61.9584486 C83.9372538,62.0668 83.8997346,62.1777876 83.8571793,62.2750666 L78.2413838,74.9231749 C78.2119224,74.9896093 78.1366322,75.0186085 78.0731769,74.9875003 C78.018283,74.9606102 77.9900806,74.897603 78.0031746,74.8377593" id="Fill-34" fill="#468430"></path>
                        <path d="M68.8378381,78.9964485 L56.8886198,76.2034514 C56.2643757,76.0575617 55.8815722,75.4534126 56.0331258,74.8535321 C56.1849407,74.2539028 56.8138882,73.8860397 57.437871,74.0319295 C57.4997989,74.0462422 57.565385,74.068088 57.6223483,74.0911893 L68.9204086,78.7581536 C68.98704,78.7855236 69.0178733,78.8598495 68.9893917,78.9236292 C68.963523,78.9808802 68.8989821,79.0107613 68.8378381,78.9964485" id="Fill-36" fill="#3E746A"></path>
                    </g>
                    <g id="Group-31" transform="translate(153.000000, 0.000000)">
                        <path d="M81.1560615,85.0056693 L96.5734216,89.9917765 C97.6572085,90.3421134 98.2506488,91.500938 97.8984713,92.5800227 C97.5460569,93.6591074 96.3819281,94.2496078 95.2981412,93.8987991 C95.1419603,93.8483129 94.9867273,93.7749427 94.852113,93.6933154 L81.0565228,85.219882 C81.0005915,85.1854381 80.9832908,85.1120679 81.0176553,85.0563914 C81.0470429,85.0087362 81.1048702,84.989391 81.1560615,85.0056693" id="Fill-1" fill="#ED6F6F"></path>
                        <path d="M75.665541,74.6770573 L70.3068461,6.51877785 C70.0763348,3.58663318 72.3449187,1.02884118 75.3740639,0.805692853 C78.4029572,0.582544524 81.0453977,2.77866552 81.2761609,5.71081018 C81.2968188,5.97371061 81.2942995,6.2636815 81.2761609,6.51877785 L75.917466,74.6770573 C75.9121755,74.7443676 75.8514616,74.7948504 75.7819304,74.7900866 C75.7186972,74.7850952 75.6700757,74.7363196 75.665541,74.6770573" id="Fill-3" fill="#90E55E" transform="translate(75.790725, 37.790087) rotate(2.000000) translate(-75.790725, -37.790087) "></path>
                        <path d="M77.0113292,75.8262022 L93.5157002,40.1739906 C94.7799985,37.4424398 98.0396786,36.2440114 100.796585,37.4966816 C103.553247,38.7493519 104.763045,41.9792952 103.498747,44.7106028 C103.291549,45.1581588 103.012176,45.5845532 102.708745,45.9455168 L77.2187723,75.9563339 C77.1745832,76.0081434 77.0965159,76.0147108 77.0442255,75.9714146 C77.0005274,75.9349291 76.9884982,75.8750928 77.0113292,75.8262022" id="Fill-5" fill="#7B30A5"></path>
                        <path d="M81.0755515,79.7628717 L132.322586,58.3719806 C134.784699,57.344224 137.608721,58.519294 138.63027,60.9961237 C139.651818,63.4734444 138.483846,66.3146293 136.021734,67.342386 C135.774522,67.4455054 135.497293,67.5319293 135.244957,67.5915912 L81.1497395,79.9968545 C81.0838489,80.0120769 81.0182023,79.9705837 81.0030718,79.9040471 C80.9896497,79.8446307 81.0213748,79.7854598 81.0755515,79.7628717" id="Fill-7" fill="#16D911"></path>
                        <path d="M72.9983388,89.1441633 L62.8670231,151.251195 C62.1510618,155.641172 58.0427032,158.614098 53.6905664,157.891912 C49.3386736,157.169479 46.3913729,153.025401 47.1070901,148.635424 C47.2161681,147.968866 47.4211468,147.298124 47.675418,146.704671 L72.7643215,89.0742584 C72.791652,89.0114917 72.8643706,88.982939 72.9263522,89.0105071 C72.979061,89.0338908 73.0073676,89.0895193 72.9983388,89.1441633" id="Fill-9" fill="#0646E0"></path>
                        <path d="M66.8533231,79.9974628 L6.55175428,67.429942 C3.4687873,66.7870466 1.48371669,63.7342794 2.11807304,60.6110106 C2.75194273,57.4879884 5.7655612,55.4769681 8.84852818,56.119617 C9.18018437,56.1886395 9.52838688,56.2985825 9.83279033,56.4206045 L66.9236449,79.7615537 C66.9861802,79.7869441 67.0163529,79.8591713 66.9910468,79.9225241 C66.9689039,79.9789746 66.9097752,80.0092952 66.8533231,79.9974628" id="Fill-11" fill="#E90B89"></path>
                        <path d="M79.2021211,88.0267873 L119.348635,119.624692 C122.395973,122.023109 122.88911,126.396364 120.449809,129.392688 C118.011001,132.389497 113.5634,132.874175 110.516308,130.475758 C110.018979,130.084427 109.570718,129.611872 109.211221,129.129861 L79.0236055,88.1940848 C78.9834149,88.1395313 78.9957433,88.0629138 79.0514678,88.0231504 C79.0975761,87.9904182 79.1594647,87.9930853 79.2021211,88.0267873" id="Fill-13" fill="#4D812F"></path>
                        <path d="M66.9191248,84.2449997 L6.62272829,106.695878 C4.05388426,107.652439 1.22074383,106.277397 0.294487339,103.624506 C-0.631769157,100.971614 0.699709317,98.0455264 3.26855334,97.0889646 C3.49627736,97.0043621 3.75350311,96.9328528 3.98366529,96.8837532 L66.8537821,84.002523 C66.9201,83.9886744 66.9844674,84.0332418 66.9976335,84.1017295 C67.0095805,84.1639224 66.9752024,84.2243527 66.9191248,84.2449997" id="Fill-15" fill="#E1730E"></path>
                        <path d="M66.8822926,81.846876 L28.2144252,83.995159 C26.5365491,84.0884243 25.0995046,82.8228564 25.00491,81.168561 C24.9103153,79.5142656 26.1939228,78.0974172 27.8720471,78.0041519 C28.0210151,77.9960738 28.1848798,78.0002353 28.3293788,78.0127196 L66.8872582,81.6020853 C66.9555352,81.6084499 67.0056877,81.6684236 66.9994807,81.7359858 C66.993522,81.7971835 66.9428729,81.8434489 66.8822926,81.846876" id="Fill-17" fill="#0A9817"></path>
                        <path d="M70.7623772,75.9248631 L58.4115285,47.0729069 C57.3095649,44.4994771 58.496916,41.5172626 61.0629448,40.4126114 C63.6292183,39.307715 66.6026115,40.4982452 67.7043304,43.071675 C67.9152302,43.5643759 68.0431891,44.0948636 68.0926111,44.6015506 L70.9994559,75.8642569 C71.0058172,75.9324695 70.9556612,75.9930756 70.8876448,75.9994552 C70.8328402,76.004608 70.7829289,75.97271 70.7623772,75.9248631" id="Fill-19" fill="#D43DD5"></path>
                        <path d="M68.7902796,76.9734442 L57.171893,68.2419022 C55.8441138,67.2441793 55.60971,65.4013266 56.6481112,64.1258064 C57.6865125,62.8502863 59.6045007,62.625065 60.9320254,63.6225433 C61.2521991,63.8634151 61.5158716,64.1666446 61.7062452,64.4860137 L68.9831983,76.8140041 C69.0183207,76.8739164 68.9966873,76.9497238 68.9340779,76.9837148 C68.887248,77.0093915 68.8304922,77.0037671 68.7902796,76.9734442" id="Fill-21" fill="#63F255"></path>
                        <path d="M79.0355263,76.783795 L92.2822938,63.0192523 C93.56524,61.6856851 95.6741077,61.6570602 96.9923052,62.9549719 C98.3107509,64.2528835 98.3390512,66.3856871 97.0558567,67.7190032 C96.7919689,67.9929482 96.4806658,68.2176785 96.1611705,68.3811415 L79.182241,76.9864289 C79.1201789,77.0180669 79.0444633,76.9924552 79.013184,76.9296814 C78.9888557,76.8799645 78.9992821,76.8214593 79.0355263,76.783795" id="Fill-23" fill="#D0EC57"></path>
                        <path d="M81.1177862,83.1416844 L106.877842,82.0029455 C108.527931,81.9302235 109.924311,83.2129323 109.997045,84.868096 C110.069778,86.5235054 108.791191,87.9243875 107.141347,87.9973553 C106.921188,88.0071826 106.690254,87.9890021 106.48185,87.9531324 L81.1016232,83.3868756 C81.0345225,83.3748372 80.989952,83.3104683 81.0019517,83.243397 C81.0122373,83.1854159 81.0614608,83.1443869 81.1177862,83.1416844" id="Fill-25" fill="#E1730E"></path>
                        <path d="M76.2435514,89.0749641 L86.6639909,112.492801 C87.5490228,114.48216 86.6255113,116.7997 84.600677,117.669581 C82.5763457,118.539709 80.2175182,117.632018 79.3319833,115.64266 C79.1725316,115.28334 79.0701707,114.894612 79.0241461,114.524418 L76.0008529,89.1394638 C75.9928049,89.070763 76.0426021,89.0087345 76.1125194,89.0008265 C76.1691071,88.9944013 76.2216708,89.0260333 76.2435514,89.0749641" id="Fill-27" fill="#E30E0E"></path>
                        <path d="M50.7419404,111.508727 C49.5232761,113.133416 47.1878523,113.485078 45.5257905,112.293816 C43.8637287,111.103037 43.5037305,108.820127 44.7221481,107.195196 C44.8933878,106.966785 45.1021325,106.75188 45.3128512,106.574361 L68.7953956,87.0288888 C68.8474584,86.9854737 68.9259227,86.9917448 68.9705832,87.0426369 C69.0083349,87.0865344 69.0093219,87.1487627 68.9760116,87.1931425 L50.7419404,111.508727 Z" id="Fill-29" fill="#EB6868"></path>
                    </g>
                </g>
            </g>
        </g>
    </g>
</svg>