<?xml version="1.0" encoding="UTF-8"?>
<svg width="1920px" height="349px" viewBox="0 0 1920 349" version="1.1" xmlns="http://www.w3.org/2000/svg" xmlns:xlink="http://www.w3.org/1999/xlink">
    <!-- Generator: Sketch 55.2 (78181) - https://sketchapp.com -->
    <title>Gras achter</title>
    <desc>Created with Sketch.</desc>
    <defs>
        <polygon id="path-1" points="-0.0001 0.6624 766.9999 0.6624 766.9999 346 -0.0001 346"></polygon>
        <polygon id="path-3" points="0.0004 0.6624 767 0.6624 767 346 0.0004 346"></polygon>
    </defs>
    <g id="Page-1" stroke="none" stroke-width="1" fill="none" fill-rule="evenodd" opacity="0.494349888">
        <g id="Home-Page" transform="translate(0.000000, -952.000000)">
            <g id="Intro-Image" transform="translate(-122.000000, 257.000000)">
                <g id="Group" transform="translate(0.000000, 689.000000)">
                    <g id="Gras-achter" transform="translate(1140.000000, 177.500000) scale(-1, 1) translate(-1140.000000, -177.500000) ">
                        <path d="M767,38.7305 L767,352.2085 L0,352.2085 L0,12.1375 C2.514,8.0905 5.024,4.0475 7.534,0.0005 C7.502,12.3985 7.474,24.7925 7.442,37.1895 C12.169,27.0455 19.443,18.0985 28.406,11.3975 C25.396,25.1715 23.479,39.1835 22.682,53.2575 C25.276,50.7405 27.87,48.2265 30.464,45.7085 C31.773,50.1035 33.082,54.5025 34.391,58.9025 C36.577,49.0545 41.156,39.7485 47.625,32.0135 C46.176,40.1715 45.732,48.5105 46.304,56.7775 C50.96,53.4945 60.403,52.8535 59.442,58.4705 C66.36,46.0045 70.063,31.7695 70.095,17.5095 C71.2,27.8985 72.305,38.2905 73.41,48.6785 C78.285,42.9065 83.161,37.1335 88.037,31.3575 C88.461,36.9695 88.886,42.5825 89.306,48.1945 C98.017,36.8805 106.039,25.0405 113.316,12.7585 C113.857,26.5975 114.397,40.4405 114.938,54.2795 C118.252,50.4885 121.567,46.6975 124.882,42.9065 C126.479,47.0375 128.076,51.1645 129.673,55.2955 C132.78,43.4625 137.379,32.0215 143.328,21.3335 C144.465,32.2775 145.602,43.2265 146.739,54.1705 C148.364,51.6175 149.989,49.0625 151.619,46.5085 C154.024,50.7515 156.435,54.9915 158.844,59.2345 C163.056,50.7365 167.271,42.2375 171.482,33.7355 C171.742,47.2095 174.701,60.6245 180.125,72.9585 C184.268,68.9745 188.407,64.9955 192.551,61.0115 C193.912,64.7625 195.269,68.5095 196.63,72.2605 C197.475,68.2935 196.109,64.7475 196.954,60.7805 C198.555,63.1815 197.755,61.9815 198.431,63.4745 C199.288,65.3635 202.09,61.8845 203.167,60.1115 C206.954,53.8545 210.745,47.5975 214.532,41.3405 C215.725,50.7085 218.055,59.9275 221.453,68.7345 C223.899,65.5475 226.345,62.3615 228.795,59.1705 C230.829,62.6815 233.759,65.6645 237.229,67.7655 C241.957,60.3515 246.689,52.9415 251.417,45.5325 C254.787,53.3905 258.158,61.2445 261.533,69.1025 C264.827,67.7055 268.834,68.1455 271.745,70.2275 C277.974,61.9415 280.832,51.1965 279.547,40.9085 C283.954,48.9185 288.362,56.9325 292.769,64.9435 C294.49,57.2525 296.212,49.5675 297.933,41.8765 C301.224,49.6395 304.514,57.3975 307.805,65.1595 C316.528,49.4225 328.849,35.6965 343.557,25.3325 C339.109,34.8155 336.647,45.2235 336.375,55.6925 C339.974,52.0575 343.577,48.4185 347.18,44.7795 C349.165,48.6675 351.151,52.5535 353.136,56.4445 C363.432,54.5835 374.609,60.8355 378.416,70.5805 C384.857,59.5235 388.956,47.1015 390.365,34.3785 C397.731,43.2985 403.111,53.8425 406.01,65.0425 C408.536,61.8925 410.405,58.2215 411.458,54.3275 L416.79,63.7665 C418.76,56.8485 419.192,49.4955 418.051,42.3895 C424.184,48.6345 429.096,56.0685 432.438,64.1585 C434.211,61.4485 435.985,58.7385 437.758,56.0285 C440.801,59.1305 443.847,62.2335 446.89,65.3355 C449.752,58.7345 452.618,52.1285 455.48,45.5285 C458.238,51.4045 461,57.2855 463.763,63.1625 C472.213,53.2745 480.664,43.3905 489.115,33.5025 C485.36,43.9345 483.738,55.1275 484.375,66.1965 C486.765,61.5765 490.384,57.6055 494.763,54.7995 C496.268,59.1195 497.77,63.4385 499.274,67.7575 C504.114,57.3295 507.773,46.3565 510.159,35.1125 C515.459,46.7645 520.755,58.4175 526.056,70.0715 C529.734,67.4575 532.805,63.9865 534.951,60.0195 C539.75,63.1695 544.546,66.3245 549.346,69.4745 C556.015,59.5065 559.73,47.5855 559.902,35.5925 C563.693,43.1945 567.488,50.7925 571.279,58.3905 C572.74,61.3205 574.201,64.2475 575.662,67.1725 C579.053,63.4825 581.695,59.1025 583.376,54.3785 C586.415,57.3535 590.198,59.5595 594.281,60.7485 C596.595,55.1755 598.52,49.4395 600.038,43.5985 C601.287,38.7945 602.267,33.9185 602.956,28.9995 C605.421,32.0975 607.888,35.1965 610.354,38.2935 C613.096,41.7415 615.842,45.1915 618.584,48.6385 C619.524,43.5185 620.121,38.3385 620.365,33.1425 C620.658,27.1295 620.478,21.1005 619.837,15.1165 C623.2,19.4435 626.378,23.9155 629.364,28.5145 C634.288,36.0925 638.684,44.0145 642.511,52.2015 C643.567,47.9655 644.625,43.7305 645.685,39.4955 C648.459,43.0985 651.237,46.6975 654.016,50.2995 C656.642,39.1115 656.37,27.2695 653.331,16.1895 C652.458,13.0105 651.357,9.8925 650.033,6.8705 C652.495,9.2315 654.872,11.6815 657.158,14.2195 C665.417,23.3825 672.474,33.6265 678.074,44.6195 L690.396,32.8265 C693.15,38.5835 695.9,44.3385 698.655,50.0955 C703.018,48.3665 706.961,45.5875 710.056,42.0615 C715.676,48.8945 721.292,55.7235 726.913,62.5575 C728.53,48.3705 730.147,34.1835 731.765,20.0005 C739.186,29.8325 745.239,40.7005 749.683,52.1895 C753.594,43.4505 757.504,34.7115 761.412,25.9765 C763.537,30.1085 765.407,34.3715 767,38.7305" id="Fill-1" fill="#476735"></path>
                        <g id="Group-5" transform="translate(759.000000, 8.208000)">
                            <mask id="mask-2" fill="white">
                                <use xlink:href="#path-1"></use>
                            </mask>
                            <g id="Clip-4"></g>
                            <path d="M7.4419,30.9814 C12.1699,20.8374 19.4429,11.8904 28.4059,5.1894 C25.3959,18.9634 23.4789,32.9754 22.6819,47.0494 C25.2759,44.5324 27.8699,42.0184 30.4639,39.5004 C31.7729,43.8954 33.0819,48.2944 34.3909,52.6944 C36.5769,42.8464 41.1559,33.5404 47.6249,25.8054 C46.1759,33.9634 45.7319,42.3024 46.3039,50.5694 C50.9599,47.2864 60.4029,46.6454 59.4419,52.2624 C66.3599,39.7964 70.0629,25.5614 70.0949,11.3014 C71.1999,21.6904 72.3049,32.0824 73.4099,42.4704 C78.2849,36.6984 83.1609,30.9254 88.0369,25.1494 C88.4619,30.7614 88.8859,36.3744 89.3059,41.9864 C98.0169,30.6724 106.0389,18.8324 113.3169,6.5504 C113.8569,20.3894 114.3979,34.2324 114.9379,48.0714 C118.2529,44.2804 121.5669,40.4894 124.8819,36.6984 C126.4789,40.8294 128.0759,44.9564 129.6729,49.0874 C132.7799,37.2544 137.3789,25.8134 143.3279,15.1254 C144.4649,26.0694 145.6019,37.0184 146.7389,47.9624 C148.3639,45.4094 149.9889,42.8544 151.6189,40.3004 C154.0249,44.5444 156.4349,48.7834 158.8439,53.0264 C163.0559,44.5284 167.2709,36.0294 171.4819,27.5274 C171.7419,41.0014 174.7009,54.4164 180.1249,66.7504 C184.2679,62.7664 188.4069,58.7874 192.5509,54.8034 C193.9119,58.5544 195.2689,62.3014 196.6299,66.0524 C197.4749,62.0854 196.1089,58.5394 196.9539,54.5724 C198.5549,56.9734 197.7549,55.7734 198.4309,57.2664 C199.2879,59.1554 202.0899,55.6764 203.1669,53.9034 C206.9539,47.6464 210.7449,41.3894 214.5319,35.1324 C215.7249,44.5004 218.0549,53.7194 221.4529,62.5264 C223.8999,59.3394 226.3449,56.1534 228.7949,52.9624 C230.8279,56.4734 233.7589,59.4564 237.2299,61.5574 C241.9569,54.1434 246.6899,46.7334 251.4169,39.3244 C254.7869,47.1824 258.1579,55.0364 261.5319,62.8944 C264.8269,61.4974 268.8339,61.9374 271.7439,64.0194 C277.9739,55.7334 280.8319,44.9884 279.5469,34.7004 C283.9539,42.7104 288.3609,50.7244 292.7689,58.7354 C294.4899,51.0444 296.2119,43.3594 297.9329,35.6684 C301.2239,43.4314 304.5149,51.1894 307.8049,58.9514 C316.5269,43.2144 328.8499,29.4884 343.5569,19.1244 C339.1089,28.6074 336.6479,39.0154 336.3749,49.4844 C339.9739,45.8494 343.5769,42.2104 347.1799,38.5714 C349.1649,42.4594 351.1499,46.3454 353.1369,50.2364 C363.4329,48.3754 374.6089,54.6274 378.4159,64.3724 C384.8579,53.3154 388.9559,40.8934 390.3649,28.1704 C397.7319,37.0904 403.1109,47.6344 406.0099,58.8354 C408.5349,55.6844 410.4049,52.0134 411.4579,48.1194 L416.7899,57.5584 C418.7599,50.6404 419.1919,43.2874 418.0509,36.1814 C424.1839,42.4264 429.0959,49.8604 432.4389,57.9504 L437.7589,49.8204 C440.8009,52.9224 443.8479,56.0254 446.8899,59.1274 C449.7519,52.5264 452.6179,45.9204 455.4809,39.3204 C458.2379,45.1964 461.0009,51.0774 463.7629,56.9544 C472.2139,47.0664 480.6639,37.1824 489.1139,27.2944 C485.3589,37.7264 483.7379,48.9194 484.3749,59.9884 C486.7649,55.3684 490.3839,51.3974 494.7629,48.5914 C496.2689,52.9114 497.7699,57.2304 499.2749,61.5494 C504.1139,51.1214 507.7739,40.1484 510.1589,28.9044 C515.4589,40.5564 520.7549,52.2104 526.0559,63.8634 C529.7339,61.2494 532.8049,57.7784 534.9499,53.8114 C539.7499,56.9614 544.5459,60.1164 549.3459,63.2664 C556.0149,53.2984 559.7299,41.3774 559.9019,29.3844 C563.6929,36.9864 567.4879,44.5844 571.2789,52.1824 C572.7399,55.1124 574.2009,58.0394 575.6619,60.9644 C579.0529,57.2744 581.6949,52.8944 583.3759,48.1704 C586.4149,51.1454 590.1969,53.3514 594.2809,54.5404 C596.5949,48.9674 598.5209,43.2314 600.0369,37.3904 C601.2859,32.5864 602.2679,27.7104 602.9559,22.7914 C605.4219,25.8894 607.8879,28.9884 610.3539,32.0854 C613.0959,35.5334 615.8419,38.9834 618.5839,42.4304 C619.5249,37.3104 620.1209,32.1304 620.3649,26.9344 C620.6569,20.9214 620.4779,14.8924 619.8369,8.9084 C623.1989,13.2354 626.3779,17.7074 629.3639,22.3064 C634.2879,29.8844 638.6839,37.8064 642.5109,45.9934 C643.5669,41.7574 644.6239,37.5224 645.6859,33.2874 C648.4589,36.8904 651.2369,40.4894 654.0159,44.0914 C656.6419,32.9034 656.3689,21.0614 653.3309,9.9814 C652.4579,6.8024 651.3579,3.6844 650.0319,0.6624 C652.4939,3.0234 654.8719,5.4734 657.1579,8.0114 C665.4169,17.1744 672.4739,27.4184 678.0739,38.4114 L690.3969,26.6184 C693.1499,32.3754 695.8999,38.1304 698.6539,43.8874 C703.0179,42.1584 706.9609,39.3794 710.0559,35.8534 C715.6759,42.6864 721.2919,49.5154 726.9129,56.3494 C728.5299,42.1624 730.1479,27.9754 731.7649,13.7924 C739.1869,23.6244 745.2389,34.4924 749.6829,45.9814 C753.5939,37.2424 757.5049,28.5034 761.4119,19.7684 C763.5369,23.9004 765.4069,28.1634 766.9999,32.5224 L766.9999,346.0004 L-0.0001,346.0004" id="Fill-3" fill="#476735" mask="url(#mask-2)"></path>
                        </g>
                        <g id="Group-8" transform="translate(1513.000000, 8.208000)">
                            <mask id="mask-4" fill="white">
                                <use xlink:href="#path-3"></use>
                            </mask>
                            <g id="Clip-7"></g>
                            <path d="M7.4414,30.9814 C12.1704,20.8374 19.4434,11.8904 28.4064,5.1894 C25.3954,18.9634 23.4784,32.9754 22.6814,47.0494 C25.2754,44.5324 27.8704,42.0184 30.4634,39.5004 C31.7724,43.8954 33.0824,48.2944 34.3904,52.6944 C36.5764,42.8464 41.1564,33.5404 47.6254,25.8054 C46.1754,33.9634 45.7314,42.3024 46.3044,50.5694 C50.9604,47.2864 60.4034,46.6454 59.4424,52.2624 C66.3604,39.7964 70.0624,25.5614 70.0944,11.3014 C71.1994,21.6904 72.3044,32.0824 73.4094,42.4704 C78.2854,36.6984 83.1614,30.9254 88.0374,25.1494 C88.4614,30.7614 88.8854,36.3744 89.3054,41.9864 C98.0164,30.6724 106.0394,18.8324 113.3164,6.5504 C113.8574,20.3894 114.3974,34.2324 114.9374,48.0714 C118.2534,44.2804 121.5674,40.4894 124.8814,36.6984 C126.4784,40.8294 128.0764,44.9564 129.6734,49.0874 C132.7804,37.2544 137.3794,25.8134 143.3284,15.1254 C144.4644,26.0694 145.6014,37.0184 146.7394,47.9624 C148.3644,45.4094 149.9894,42.8544 151.6184,40.3004 C154.0244,44.5444 156.4344,48.7834 158.8444,53.0264 C163.0554,44.5284 167.2704,36.0294 171.4824,27.5274 C171.7424,41.0014 174.7004,54.4164 180.1254,66.7504 C184.2684,62.7664 188.4074,58.7874 192.5504,54.8034 C193.9124,58.5544 195.2684,62.3014 196.6294,66.0524 C197.4744,62.0854 196.1094,58.5394 196.9544,54.5724 C198.5554,56.9734 197.7544,55.7734 198.4314,57.2664 C199.2884,59.1554 202.0894,55.6764 203.1674,53.9034 C206.9544,47.6464 210.7454,41.3894 214.5324,35.1324 C215.7244,44.5004 218.0544,53.7194 221.4534,62.5264 C223.8994,59.3394 226.3444,56.1534 228.7954,52.9624 C230.8284,56.4734 233.7584,59.4564 237.2294,61.5574 C241.9574,54.1434 246.6894,46.7334 251.4174,39.3244 C254.7874,47.1824 258.1584,55.0364 261.5324,62.8944 C264.8274,61.4974 268.8344,61.9374 271.7444,64.0194 C277.9734,55.7334 280.8324,44.9884 279.5464,34.7004 C283.9544,42.7104 288.3614,50.7244 292.7684,58.7354 C294.4904,51.0444 296.2124,43.3594 297.9324,35.6684 C301.2234,43.4314 304.5144,51.1894 307.8044,58.9514 C316.5274,43.2144 328.8494,29.4884 343.5564,19.1244 C339.1094,28.6074 336.6474,39.0154 336.3754,49.4844 C339.9734,45.8494 343.5774,42.2104 347.1794,38.5714 C349.1654,42.4594 351.1504,46.3454 353.1364,50.2364 C363.4324,48.3754 374.6094,54.6274 378.4164,64.3724 C384.8574,53.3154 388.9564,40.8934 390.3654,28.1704 C397.7314,37.0904 403.1114,47.6344 406.0094,58.8354 C408.5354,55.6844 410.4054,52.0134 411.4584,48.1194 L416.7904,57.5584 C418.7594,50.6404 419.1914,43.2874 418.0504,36.1814 C424.1834,42.4264 429.0954,49.8604 432.4384,57.9504 L437.7584,49.8204 C440.8004,52.9224 443.8474,56.0254 446.8894,59.1274 C449.7524,52.5264 452.6184,45.9204 455.4804,39.3204 C458.2384,45.1964 461.0014,51.0774 463.7624,56.9544 C472.2134,47.0664 480.6644,37.1824 489.1144,27.2944 C485.3594,37.7264 483.7384,48.9194 484.3754,59.9884 C486.7644,55.3684 490.3834,51.3974 494.7624,48.5914 C496.2684,52.9114 497.7694,57.2304 499.2744,61.5494 C504.1144,51.1214 507.7734,40.1484 510.1594,28.9044 C515.4594,40.5564 520.7544,52.2104 526.0554,63.8634 C529.7344,61.2494 532.8044,57.7784 534.9504,53.8114 C539.7504,56.9614 544.5454,60.1164 549.3454,63.2664 C556.0144,53.2984 559.7294,41.3774 559.9024,29.3844 C563.6934,36.9864 567.4884,44.5844 571.2794,52.1824 C572.7404,55.1124 574.2014,58.0394 575.6624,60.9644 C579.0524,57.2744 581.6954,52.8944 583.3764,48.1704 C586.4154,51.1454 590.1974,53.3514 594.2814,54.5404 C596.5944,48.9674 598.5204,43.2314 600.0374,37.3904 C601.2864,32.5864 602.2674,27.7104 602.9564,22.7914 C605.4214,25.8894 607.8874,28.9884 610.3534,32.0854 C613.0954,35.5334 615.8414,38.9834 618.5844,42.4304 C619.5244,37.3104 620.1214,32.1304 620.3654,26.9344 C620.6574,20.9214 620.4774,14.8924 619.8374,8.9084 C623.1994,13.2354 626.3784,17.7074 629.3644,22.3064 C634.2884,29.8844 638.6834,37.8064 642.5104,45.9934 C643.5674,41.7574 644.6244,37.5224 645.6854,33.2874 C648.4594,36.8904 651.2374,40.4894 654.0154,44.0914 C656.6414,32.9034 656.3694,21.0614 653.3314,9.9814 C652.4584,6.8024 651.3574,3.6844 650.0324,0.6624 C652.4944,3.0234 654.8724,5.4734 657.1584,8.0114 C665.4174,17.1744 672.4734,27.4184 678.0744,38.4114 L690.3964,26.6184 C693.1504,32.3754 695.9004,38.1304 698.6544,43.8874 C703.0174,42.1584 706.9614,39.3794 710.0554,35.8534 C715.6754,42.6864 721.2924,49.5154 726.9134,56.3494 C728.5304,42.1624 730.1474,27.9754 731.7644,13.7924 C739.1864,23.6244 745.2394,34.4924 749.6824,45.9814 C753.5934,37.2424 757.5044,28.5034 761.4124,19.7684 C763.5374,23.9004 765.4074,28.1634 767.0004,32.5224 L767.0004,346.0004 L0.0004,346.0004" id="Fill-6" fill="#476735" mask="url(#mask-4)"></path>
                        </g>
                    </g>
                </g>
            </g>
        </g>
    </g>
</svg>