<?xml version="1.0" encoding="UTF-8"?>
<svg width="1920px" height="565px" viewBox="0 0 1920 565" version="1.1" xmlns="http://www.w3.org/2000/svg" xmlns:xlink="http://www.w3.org/1999/xlink">
    <!-- Generator: Sketch 55.2 (78181) - https://sketchapp.com -->
    <title>Group 7</title>
    <desc>Created with Sketch.</desc>
    <g id="Page-1" stroke="none" stroke-width="1" fill="none" fill-rule="evenodd">
        <g id="Home-Page-Copy" transform="translate(0.000000, -529.000000)">
            <g id="Intro-Image" transform="translate(-122.000000, 529.000000)">
                <g id="Group">
                    <g id="Group-7" transform="translate(30.000000, 0.000000)">
                        <g id="Group-6" transform="translate(521.260246, 164.792737)">
                            <g id="Group-69" transform="translate(0.000000, 0.203285)">
                                <path d="M490.805736,46.1453573 C490.805736,46.1453573 427.687627,128.193407 251.472368,126.694283 C92.3215354,125.34096 19.467201,41.889117 19.467201,41.889117" id="Stroke-1" stroke="#000000" stroke-width="3" stroke-linecap="round"></path>
                                <path d="M63.4587976,395.852156 L14.2301062,12.5667351" id="Stroke-3" stroke="#000000" stroke-width="7" stroke-linecap="round"></path>
                                <path d="M27.8465527,13.6148838 C27.8465527,21.1322592 21.7497738,27.2279261 14.2291852,27.2279261 C6.70859658,27.2279261 0.613659586,21.1322592 0.613659586,13.6148838 C0.613659586,6.09566691 6.70859658,0 14.2291852,0 C21.7497738,0 27.8465527,6.09566691 27.8465527,13.6148838" id="Fill-5" fill="#75BBBA"></path>
                                <path d="M27.8465527,13.6148838 C27.8465527,21.1322592 21.7497738,27.2279261 14.2291852,27.2279261 C6.70859658,27.2279261 0.613659586,21.1322592 0.613659586,13.6148838 C0.613659586,6.09566691 6.70859658,0 14.2291852,0 C21.7497738,0 27.8465527,6.09566691 27.8465527,13.6148838 Z" id="Stroke-7" stroke="#000000" stroke-width="7" stroke-linecap="round"></path>
                                <path d="M62.4113787,81.1610893 C62.4113787,87.2330202 57.4878575,92.1560575 51.4153298,92.1560575 C45.3391015,92.1560575 40.4155804,87.2330202 40.4155804,81.1610893 C40.4155804,75.0873083 45.3391015,70.164271 51.4153298,70.164271 C57.4878575,70.164271 62.4113787,75.0873083 62.4113787,81.1610893" id="Fill-9" fill="#CE1126"></path>
                                <path d="M62.4113787,81.1610893 C62.4113787,87.2330202 57.4878575,92.1560575 51.4153298,92.1560575 C45.3391015,92.1560575 40.4155804,87.2330202 40.4155804,81.1610893 C40.4155804,75.0873083 45.3391015,70.164271 51.4153298,70.164271 C57.4878575,70.164271 62.4113787,75.0873083 62.4113787,81.1610893 Z" id="Stroke-11" stroke="#000000" stroke-width="2"></path>
                                <path d="M93.8339477,88.4907598 C93.8339477,94.5640299 88.9089906,99.486653 82.8369736,99.486653 C76.7612564,99.486653 71.8381494,94.5640299 71.8381494,88.4907598 C71.8381494,82.4174897 76.7612564,77.4948665 82.8369736,77.4948665 C88.9089906,77.4948665 93.8339477,82.4174897 93.8339477,88.4907598" id="Fill-13" fill="#3A75C4"></path>
                                <path d="M93.8339477,88.4907598 C93.8339477,94.5640299 88.9089906,99.486653 82.8369736,99.486653 C76.7612564,99.486653 71.8381494,94.5640299 71.8381494,88.4907598 C71.8381494,82.4174897 76.7612564,77.4948665 82.8369736,77.4948665 C88.9089906,77.4948665 93.8339477,82.4174897 93.8339477,88.4907598 Z" id="Stroke-15" stroke="#000000" stroke-width="2"></path>
                                <path d="M117.924584,108.387165 C117.924584,114.460946 113.001063,119.383984 106.926685,119.383984 C100.852307,119.383984 95.9287856,114.460946 95.9287856,108.387165 C95.9287856,102.315234 100.852307,97.3921971 106.926685,97.3921971 C113.001063,97.3921971 117.924584,102.315234 117.924584,108.387165" id="Fill-17" fill="#CE1126"></path>
                                <path d="M117.924584,108.387165 C117.924584,114.460946 113.001063,119.383984 106.926685,119.383984 C100.852307,119.383984 95.9287856,114.460946 95.9287856,108.387165 C95.9287856,102.315234 100.852307,97.3921971 106.926685,97.3921971 C113.001063,97.3921971 117.924584,102.315234 117.924584,108.387165 Z" id="Stroke-19" stroke="#000000" stroke-width="2"></path>
                                <path d="M146.204896,112.577002 C146.204896,118.650272 141.281789,123.572895 135.207922,123.572895 C129.134055,123.572895 124.209098,118.650272 124.209098,112.577002 C124.209098,106.505582 129.134055,101.581109 135.207922,101.581109 C141.281789,101.581109 146.204896,106.505582 146.204896,112.577002" id="Fill-21" fill="#FFC61E"></path>
                                <path d="M146.204896,112.577002 C146.204896,118.650272 141.281789,123.572895 135.207922,123.572895 C129.134055,123.572895 124.209098,118.650272 124.209098,112.577002 C124.209098,106.505582 129.134055,101.581109 135.207922,101.581109 C141.281789,101.581109 146.204896,106.505582 146.204896,112.577002 Z" id="Stroke-23" stroke="#000000" stroke-width="2"></path>
                                <path d="M171.342951,123.049281 C171.342951,129.120701 166.419844,134.045175 160.345977,134.045175 C154.27026,134.045175 149.347153,129.120701 149.347153,123.049281 C149.347153,116.976011 154.27026,112.053388 160.345977,112.053388 C166.419844,112.053388 171.342951,116.976011 171.342951,123.049281" id="Fill-25" fill="#3A75C4"></path>
                                <path d="M171.342951,123.049281 C171.342951,129.120701 166.419844,134.045175 160.345977,134.045175 C154.27026,134.045175 149.347153,129.120701 149.347153,123.049281 C149.347153,116.976011 154.27026,112.053388 160.345977,112.053388 C166.419844,112.053388 171.342951,116.976011 171.342951,123.049281 Z" id="Stroke-27" stroke="#000000" stroke-width="2"></path>
                                <path d="M201.718101,124.096509 C201.718101,130.169779 196.79458,135.092402 190.720202,135.092402 C184.645824,135.092402 179.722303,130.169779 179.722303,124.096509 C179.722303,118.023239 184.645824,113.100616 190.720202,113.100616 C196.79458,113.100616 201.718101,118.023239 201.718101,124.096509" id="Fill-29" fill="#CE1126"></path>
                                <path d="M201.718101,124.096509 C201.718101,130.169779 196.79458,135.092402 190.720202,135.092402 C184.645824,135.092402 179.722303,130.169779 179.722303,124.096509 C179.722303,118.023239 184.645824,113.100616 190.720202,113.100616 C196.79458,113.100616 201.718101,118.023239 201.718101,124.096509 Z" id="Stroke-31" stroke="#000000" stroke-width="2"></path>
                                <path d="M232.093251,128.285421 C232.093251,134.358691 227.16973,139.281314 221.095352,139.281314 C215.020974,139.281314 210.097453,134.358691 210.097453,128.285421 C210.097453,122.214001 215.020974,117.289528 221.095352,117.289528 C227.16973,117.289528 232.093251,122.214001 232.093251,128.285421" id="Fill-33" fill="#3D8E33"></path>
                                <path d="M232.093251,128.285421 C232.093251,134.358691 227.16973,139.281314 221.095352,139.281314 C215.020974,139.281314 210.097453,134.358691 210.097453,128.285421 C210.097453,122.214001 215.020974,117.289528 221.095352,117.289528 C227.16973,117.289528 232.093251,122.214001 232.093251,128.285421 Z" id="Stroke-35" stroke="#000000" stroke-width="2"></path>
                                <path d="M262.468401,132.475258 C262.468401,138.547189 257.543444,143.470226 251.471427,143.470226 C245.39571,143.470226 240.472603,138.547189 240.472603,132.475258 C240.472603,126.401477 245.39571,121.478439 251.471427,121.478439 C257.543444,121.478439 262.468401,126.401477 262.468401,132.475258" id="Fill-37" fill="#3A75C4"></path>
                                <path d="M262.468401,132.475258 C262.468401,138.547189 257.543444,143.470226 251.471427,143.470226 C245.39571,143.470226 240.472603,138.547189 240.472603,132.475258 C240.472603,126.401477 245.39571,121.478439 251.471427,121.478439 C257.543444,121.478439 262.468401,126.401477 262.468401,132.475258 Z" id="Stroke-39" stroke="#000000" stroke-width="2"></path>
                                <path d="M291.796133,139.804928 C291.796133,145.878198 286.872611,150.800821 280.798233,150.800821 C274.723855,150.800821 269.800334,145.878198 269.800334,139.804928 C269.800334,133.731658 274.723855,128.809035 280.798233,128.809035 C286.872611,128.809035 291.796133,133.731658 291.796133,139.804928" id="Fill-41" fill="#3D8E33"></path>
                                <path d="M291.796133,139.804928 C291.796133,145.878198 286.872611,150.800821 280.798233,150.800821 C274.723855,150.800821 269.800334,145.878198 269.800334,139.804928 C269.800334,133.731658 274.723855,128.809035 280.798233,128.809035 C286.872611,128.809035 291.796133,133.731658 291.796133,139.804928 Z" id="Stroke-43" stroke="#000000" stroke-width="2"></path>
                                <path d="M323.218702,125.143737 C323.218702,131.217007 318.293744,136.13963 312.221727,136.13963 C306.14601,136.13963 301.222903,131.217007 301.222903,125.143737 C301.222903,119.070467 306.14601,114.147844 312.221727,114.147844 C318.293744,114.147844 323.218702,119.070467 323.218702,125.143737" id="Fill-45" fill="#FFC61E"></path>
                                <path d="M323.218702,125.143737 C323.218702,131.217007 318.293744,136.13963 312.221727,136.13963 C306.14601,136.13963 301.222903,131.217007 301.222903,125.143737 C301.222903,119.070467 306.14601,114.147844 312.221727,114.147844 C318.293744,114.147844 323.218702,119.070467 323.218702,125.143737 Z" id="Stroke-47" stroke="#000000" stroke-width="2"></path>
                                <path d="M352.546433,126.190965 C352.546433,132.264235 347.623326,137.186858 341.549459,137.186858 C335.473741,137.186858 330.550634,132.264235 330.550634,126.190965 C330.550634,120.119545 335.473741,115.195072 341.549459,115.195072 C347.623326,115.195072 352.546433,120.119545 352.546433,126.190965" id="Fill-49" fill="#CE1126"></path>
                                <path d="M352.546433,126.190965 C352.546433,132.264235 347.623326,137.186858 341.549459,137.186858 C335.473741,137.186858 330.550634,132.264235 330.550634,126.190965 C330.550634,120.119545 335.473741,115.195072 341.549459,115.195072 C347.623326,115.195072 352.546433,120.119545 352.546433,126.190965 Z" id="Stroke-51" stroke="#000000" stroke-width="2"></path>
                                <path d="M380.826745,112.577927 C380.826745,118.649858 375.903224,123.572895 369.830696,123.572895 C363.754468,123.572895 358.830947,118.649858 358.830947,112.577927 C358.830947,106.504146 363.754468,101.581109 369.830696,101.581109 C375.903224,101.581109 380.826745,106.504146 380.826745,112.577927" id="Fill-53" fill="#3A75C4"></path>
                                <path d="M380.826745,112.577927 C380.826745,118.649858 375.903224,123.572895 369.830696,123.572895 C363.754468,123.572895 358.830947,118.649858 358.830947,112.577927 C358.830947,106.504146 363.754468,101.581109 369.830696,101.581109 C375.903224,101.581109 380.826745,106.504146 380.826745,112.577927 Z" id="Stroke-55" stroke="#000000" stroke-width="2"></path>
                                <path d="M412.249314,109.435318 C412.249314,115.508588 407.326207,120.431211 401.25234,120.431211 C395.176623,120.431211 390.253516,115.508588 390.253516,109.435318 C390.253516,103.362048 395.176623,98.4394251 401.25234,98.4394251 C407.326207,98.4394251 412.249314,103.362048 412.249314,109.435318" id="Fill-57" fill="#FFC61E"></path>
                                <path d="M412.249314,109.435318 C412.249314,115.508588 407.326207,120.431211 401.25234,120.431211 C395.176623,120.431211 390.253516,115.508588 390.253516,109.435318 C390.253516,103.362048 395.176623,98.4394251 401.25234,98.4394251 C407.326207,98.4394251 412.249314,103.362048 412.249314,109.435318 Z" id="Stroke-59" stroke="#000000" stroke-width="2"></path>
                                <path d="M437.387369,95.8204302 C437.387369,101.894211 432.463848,106.817248 426.38947,106.817248 C420.315092,106.817248 415.391571,101.894211 415.391571,95.8204302 C415.391571,89.7484993 420.315092,84.825462 426.38947,84.825462 C432.463848,84.825462 437.387369,89.7484993 437.387369,95.8204302" id="Fill-61" fill="#CE1126"></path>
                                <path d="M437.387369,95.8204302 C437.387369,101.894211 432.463848,106.817248 426.38947,106.817248 C420.315092,106.817248 415.391571,101.894211 415.391571,95.8204302 C415.391571,89.7484993 420.315092,84.825462 426.38947,84.825462 C432.463848,84.825462 437.387369,89.7484993 437.387369,95.8204302 Z" id="Stroke-63" stroke="#000000" stroke-width="2"></path>
                                <path d="M463.572843,78.0194055 C463.572843,84.0913365 458.649322,89.0143737 452.576794,89.0143737 C446.500566,89.0143737 441.577045,84.0913365 441.577045,78.0194055 C441.577045,71.9456245 446.500566,67.0225873 452.576794,67.0225873 C458.649322,67.0225873 463.572843,71.9456245 463.572843,78.0194055" id="Fill-65" fill="#3A75C4"></path>
                                <path d="M463.572843,78.0194055 C463.572843,84.0913365 458.649322,89.0143737 452.576794,89.0143737 C446.500566,89.0143737 441.577045,84.0913365 441.577045,78.0194055 C441.577045,71.9456245 446.500566,67.0225873 452.576794,67.0225873 C458.649322,67.0225873 463.572843,71.9456245 463.572843,78.0194055 Z" id="Stroke-67" stroke="#000000" stroke-width="2"></path>
                            </g>
                        </g>
                        <g id="Group-6-Copy" transform="translate(270.760246, 316.292737) rotate(8.000000) translate(-270.760246, -316.292737) translate(25.260246, 117.792737)">
                            <g id="Group-69" transform="translate(0.000000, 0.203285)">
                                <path d="M490.805736,46.1453573 C490.805736,46.1453573 427.687627,128.193407 251.472368,126.694283 C92.3215354,125.34096 19.467201,41.889117 19.467201,41.889117" id="Stroke-1" stroke="#000000" stroke-width="3" stroke-linecap="round"></path>
                                <path d="M63.4587976,395.852156 L14.2301062,12.5667351" id="Stroke-3" stroke="#000000" stroke-width="7" stroke-linecap="round"></path>
                                <path d="M62.4113787,81.1610893 C62.4113787,87.2330202 57.4878575,92.1560575 51.4153298,92.1560575 C45.3391015,92.1560575 40.4155804,87.2330202 40.4155804,81.1610893 C40.4155804,75.0873083 45.3391015,70.164271 51.4153298,70.164271 C57.4878575,70.164271 62.4113787,75.0873083 62.4113787,81.1610893" id="Fill-9" fill="#CE1126"></path>
                                <path d="M62.4113787,81.1610893 C62.4113787,87.2330202 57.4878575,92.1560575 51.4153298,92.1560575 C45.3391015,92.1560575 40.4155804,87.2330202 40.4155804,81.1610893 C40.4155804,75.0873083 45.3391015,70.164271 51.4153298,70.164271 C57.4878575,70.164271 62.4113787,75.0873083 62.4113787,81.1610893 Z" id="Stroke-11" stroke="#000000" stroke-width="2"></path>
                                <path d="M93.8339477,88.4907598 C93.8339477,94.5640299 88.9089906,99.486653 82.8369736,99.486653 C76.7612564,99.486653 71.8381494,94.5640299 71.8381494,88.4907598 C71.8381494,82.4174897 76.7612564,77.4948665 82.8369736,77.4948665 C88.9089906,77.4948665 93.8339477,82.4174897 93.8339477,88.4907598" id="Fill-13" fill="#3A75C4"></path>
                                <path d="M93.8339477,88.4907598 C93.8339477,94.5640299 88.9089906,99.486653 82.8369736,99.486653 C76.7612564,99.486653 71.8381494,94.5640299 71.8381494,88.4907598 C71.8381494,82.4174897 76.7612564,77.4948665 82.8369736,77.4948665 C88.9089906,77.4948665 93.8339477,82.4174897 93.8339477,88.4907598 Z" id="Stroke-15" stroke="#000000" stroke-width="2"></path>
                                <path d="M117.924584,108.387165 C117.924584,114.460946 113.001063,119.383984 106.926685,119.383984 C100.852307,119.383984 95.9287856,114.460946 95.9287856,108.387165 C95.9287856,102.315234 100.852307,97.3921971 106.926685,97.3921971 C113.001063,97.3921971 117.924584,102.315234 117.924584,108.387165" id="Fill-17" fill="#CE1126"></path>
                                <path d="M117.924584,108.387165 C117.924584,114.460946 113.001063,119.383984 106.926685,119.383984 C100.852307,119.383984 95.9287856,114.460946 95.9287856,108.387165 C95.9287856,102.315234 100.852307,97.3921971 106.926685,97.3921971 C113.001063,97.3921971 117.924584,102.315234 117.924584,108.387165 Z" id="Stroke-19" stroke="#000000" stroke-width="2"></path>
                                <path d="M146.204896,112.577002 C146.204896,118.650272 141.281789,123.572895 135.207922,123.572895 C129.134055,123.572895 124.209098,118.650272 124.209098,112.577002 C124.209098,106.505582 129.134055,101.581109 135.207922,101.581109 C141.281789,101.581109 146.204896,106.505582 146.204896,112.577002" id="Fill-21" fill="#FFC61E"></path>
                                <path d="M146.204896,112.577002 C146.204896,118.650272 141.281789,123.572895 135.207922,123.572895 C129.134055,123.572895 124.209098,118.650272 124.209098,112.577002 C124.209098,106.505582 129.134055,101.581109 135.207922,101.581109 C141.281789,101.581109 146.204896,106.505582 146.204896,112.577002 Z" id="Stroke-23" stroke="#000000" stroke-width="2"></path>
                                <path d="M171.342951,123.049281 C171.342951,129.120701 166.419844,134.045175 160.345977,134.045175 C154.27026,134.045175 149.347153,129.120701 149.347153,123.049281 C149.347153,116.976011 154.27026,112.053388 160.345977,112.053388 C166.419844,112.053388 171.342951,116.976011 171.342951,123.049281" id="Fill-25" fill="#3A75C4"></path>
                                <path d="M171.342951,123.049281 C171.342951,129.120701 166.419844,134.045175 160.345977,134.045175 C154.27026,134.045175 149.347153,129.120701 149.347153,123.049281 C149.347153,116.976011 154.27026,112.053388 160.345977,112.053388 C166.419844,112.053388 171.342951,116.976011 171.342951,123.049281 Z" id="Stroke-27" stroke="#000000" stroke-width="2"></path>
                                <path d="M201.718101,124.096509 C201.718101,130.169779 196.79458,135.092402 190.720202,135.092402 C184.645824,135.092402 179.722303,130.169779 179.722303,124.096509 C179.722303,118.023239 184.645824,113.100616 190.720202,113.100616 C196.79458,113.100616 201.718101,118.023239 201.718101,124.096509" id="Fill-29" fill="#CE1126"></path>
                                <path d="M201.718101,124.096509 C201.718101,130.169779 196.79458,135.092402 190.720202,135.092402 C184.645824,135.092402 179.722303,130.169779 179.722303,124.096509 C179.722303,118.023239 184.645824,113.100616 190.720202,113.100616 C196.79458,113.100616 201.718101,118.023239 201.718101,124.096509 Z" id="Stroke-31" stroke="#000000" stroke-width="2"></path>
                                <path d="M232.093251,128.285421 C232.093251,134.358691 227.16973,139.281314 221.095352,139.281314 C215.020974,139.281314 210.097453,134.358691 210.097453,128.285421 C210.097453,122.214001 215.020974,117.289528 221.095352,117.289528 C227.16973,117.289528 232.093251,122.214001 232.093251,128.285421" id="Fill-33" fill="#3D8E33"></path>
                                <path d="M232.093251,128.285421 C232.093251,134.358691 227.16973,139.281314 221.095352,139.281314 C215.020974,139.281314 210.097453,134.358691 210.097453,128.285421 C210.097453,122.214001 215.020974,117.289528 221.095352,117.289528 C227.16973,117.289528 232.093251,122.214001 232.093251,128.285421 Z" id="Stroke-35" stroke="#000000" stroke-width="2"></path>
                                <path d="M262.468401,132.475258 C262.468401,138.547189 257.543444,143.470226 251.471427,143.470226 C245.39571,143.470226 240.472603,138.547189 240.472603,132.475258 C240.472603,126.401477 245.39571,121.478439 251.471427,121.478439 C257.543444,121.478439 262.468401,126.401477 262.468401,132.475258" id="Fill-37" fill="#3A75C4"></path>
                                <path d="M262.468401,132.475258 C262.468401,138.547189 257.543444,143.470226 251.471427,143.470226 C245.39571,143.470226 240.472603,138.547189 240.472603,132.475258 C240.472603,126.401477 245.39571,121.478439 251.471427,121.478439 C257.543444,121.478439 262.468401,126.401477 262.468401,132.475258 Z" id="Stroke-39" stroke="#000000" stroke-width="2"></path>
                                <path d="M291.796133,139.804928 C291.796133,145.878198 286.872611,150.800821 280.798233,150.800821 C274.723855,150.800821 269.800334,145.878198 269.800334,139.804928 C269.800334,133.731658 274.723855,128.809035 280.798233,128.809035 C286.872611,128.809035 291.796133,133.731658 291.796133,139.804928" id="Fill-41" fill="#3D8E33"></path>
                                <path d="M291.796133,139.804928 C291.796133,145.878198 286.872611,150.800821 280.798233,150.800821 C274.723855,150.800821 269.800334,145.878198 269.800334,139.804928 C269.800334,133.731658 274.723855,128.809035 280.798233,128.809035 C286.872611,128.809035 291.796133,133.731658 291.796133,139.804928 Z" id="Stroke-43" stroke="#000000" stroke-width="2"></path>
                                <path d="M323.218702,125.143737 C323.218702,131.217007 318.293744,136.13963 312.221727,136.13963 C306.14601,136.13963 301.222903,131.217007 301.222903,125.143737 C301.222903,119.070467 306.14601,114.147844 312.221727,114.147844 C318.293744,114.147844 323.218702,119.070467 323.218702,125.143737" id="Fill-45" fill="#FFC61E"></path>
                                <path d="M323.218702,125.143737 C323.218702,131.217007 318.293744,136.13963 312.221727,136.13963 C306.14601,136.13963 301.222903,131.217007 301.222903,125.143737 C301.222903,119.070467 306.14601,114.147844 312.221727,114.147844 C318.293744,114.147844 323.218702,119.070467 323.218702,125.143737 Z" id="Stroke-47" stroke="#000000" stroke-width="2"></path>
                                <path d="M352.546433,126.190965 C352.546433,132.264235 347.623326,137.186858 341.549459,137.186858 C335.473741,137.186858 330.550634,132.264235 330.550634,126.190965 C330.550634,120.119545 335.473741,115.195072 341.549459,115.195072 C347.623326,115.195072 352.546433,120.119545 352.546433,126.190965" id="Fill-49" fill="#CE1126"></path>
                                <path d="M352.546433,126.190965 C352.546433,132.264235 347.623326,137.186858 341.549459,137.186858 C335.473741,137.186858 330.550634,132.264235 330.550634,126.190965 C330.550634,120.119545 335.473741,115.195072 341.549459,115.195072 C347.623326,115.195072 352.546433,120.119545 352.546433,126.190965 Z" id="Stroke-51" stroke="#000000" stroke-width="2"></path>
                                <path d="M380.826745,112.577927 C380.826745,118.649858 375.903224,123.572895 369.830696,123.572895 C363.754468,123.572895 358.830947,118.649858 358.830947,112.577927 C358.830947,106.504146 363.754468,101.581109 369.830696,101.581109 C375.903224,101.581109 380.826745,106.504146 380.826745,112.577927" id="Fill-53" fill="#3A75C4"></path>
                                <path d="M380.826745,112.577927 C380.826745,118.649858 375.903224,123.572895 369.830696,123.572895 C363.754468,123.572895 358.830947,118.649858 358.830947,112.577927 C358.830947,106.504146 363.754468,101.581109 369.830696,101.581109 C375.903224,101.581109 380.826745,106.504146 380.826745,112.577927 Z" id="Stroke-55" stroke="#000000" stroke-width="2"></path>
                                <path d="M412.249314,109.435318 C412.249314,115.508588 407.326207,120.431211 401.25234,120.431211 C395.176623,120.431211 390.253516,115.508588 390.253516,109.435318 C390.253516,103.362048 395.176623,98.4394251 401.25234,98.4394251 C407.326207,98.4394251 412.249314,103.362048 412.249314,109.435318" id="Fill-57" fill="#FFC61E"></path>
                                <path d="M412.249314,109.435318 C412.249314,115.508588 407.326207,120.431211 401.25234,120.431211 C395.176623,120.431211 390.253516,115.508588 390.253516,109.435318 C390.253516,103.362048 395.176623,98.4394251 401.25234,98.4394251 C407.326207,98.4394251 412.249314,103.362048 412.249314,109.435318 Z" id="Stroke-59" stroke="#000000" stroke-width="2"></path>
                                <path d="M437.387369,95.8204302 C437.387369,101.894211 432.463848,106.817248 426.38947,106.817248 C420.315092,106.817248 415.391571,101.894211 415.391571,95.8204302 C415.391571,89.7484993 420.315092,84.825462 426.38947,84.825462 C432.463848,84.825462 437.387369,89.7484993 437.387369,95.8204302" id="Fill-61" fill="#CE1126"></path>
                                <path d="M437.387369,95.8204302 C437.387369,101.894211 432.463848,106.817248 426.38947,106.817248 C420.315092,106.817248 415.391571,101.894211 415.391571,95.8204302 C415.391571,89.7484993 420.315092,84.825462 426.38947,84.825462 C432.463848,84.825462 437.387369,89.7484993 437.387369,95.8204302 Z" id="Stroke-63" stroke="#000000" stroke-width="2"></path>
                                <path d="M463.572843,78.0194055 C463.572843,84.0913365 458.649322,89.0143737 452.576794,89.0143737 C446.500566,89.0143737 441.577045,84.0913365 441.577045,78.0194055 C441.577045,71.9456245 446.500566,67.0225873 452.576794,67.0225873 C458.649322,67.0225873 463.572843,71.9456245 463.572843,78.0194055" id="Fill-65" fill="#3A75C4"></path>
                                <path d="M463.572843,78.0194055 C463.572843,84.0913365 458.649322,89.0143737 452.576794,89.0143737 C446.500566,89.0143737 441.577045,84.0913365 441.577045,78.0194055 C441.577045,71.9456245 446.500566,67.0225873 452.576794,67.0225873 C458.649322,67.0225873 463.572843,71.9456245 463.572843,78.0194055 Z" id="Stroke-67" stroke="#000000" stroke-width="2"></path>
                            </g>
                        </g>
                        <g id="van--12" transform="translate(783.000000, 0.000000)">
                            <polygon id="Path" fill="#FFFFFF" fill-rule="nonzero" points="45.1075472 213 1216.10755 213 1201.29687 136.648825 1179.07515 73.8110313 1150.11407 52.1873368 1090.18831 39.3479112 845.077809 38.6739556 346.113847 38 279.44871 41.381201 227.594253 46.7842689 187.863835 52.1873368 159.585795 64.3528068 147.461756 76.5068538 139.379064 95.4347258 122.553402 119.080287 85.5096257 166.37141 70.0272851 190.028394 62.6162529 192.724217 51.1752586 201.508486"></polygon>
                            <path d="M840.450203,78.16 L1175.26598,76 C1176.83534,76 1178.10755,77.1192881 1178.10755,78.5 C1178.10755,79.8807119 1176.83534,81 1175.26598,81 L1175.26598,81 L840.450203,78.8 C840.359767,78.8 840.273036,78.7683929 840.209088,78.712132 C840.145141,78.6558711 840.107547,78.5795649 840.107547,78.5 C840.099722,78.4144353 840.131042,78.3292445 840.195694,78.2647798 C840.260346,78.2003152 840.352523,78.1623666 840.450203,78.16 Z" id="Path" fill="#000000" fill-rule="nonzero"></path>
                            <polygon id="Path" stroke="#000000" stroke-width="5" fill="#666666" fill-rule="nonzero" points="811.107547 426 854.299159 426 1085.10755 426 1075.70615 375.470037 1052.00274 336.89279 1026.95137 312.42088 970.143151 305 882.035005 307.968352 854.299159 322.06236 832.823298 350.250375"></polygon>
                            <polygon id="Path" stroke="#000000" stroke-width="5" fill="#666666" fill-rule="nonzero" points="145.107547 426 188.299159 426 419.107547 426 409.706146 375.470037 386.002736 336.89279 360.951373 312.42088 304.143151 305 216.035005 307.968352 188.299159 322.06236 166.823298 350.250375"></polygon>
                            <path d="M42.6887308,213 L393.413313,213.670239 L394.107547,330.541743 L391.080233,336.926053 L381.975529,337.255492 L263.15914,337.596292 L248.011189,336.926053 L234.900415,339.629729 L224.134103,341.640446 L216.383723,343.651163 L205.275984,349.706034 L195.192524,357.805701 L187.783571,367.882006 L179.373101,382.331904 L170.962631,399.462759 L164.22515,411.89058 L158.841993,418.61569 L150.761568,425 L37.3283362,424.659201 L38.0111891,392.737649 L34.596925,384.342621 L26.8579265,383.331583 L19.1075472,329.246705 L25.5036018,329.246705 C30.4735079,317.943246 31.7709854,305.369699 29.2137687,293.292359 L27.1879721,288.259886 L22.2031466,288.259886 L30.9550434,242.899475 L42.6887308,213 Z" id="Path" fill="#F3D501" fill-rule="nonzero"></path>
                            <path d="M1166.462,213.672397 L393.407052,213 L394.078443,330.247733 L392.394277,334.965905 L387.353158,336.310699 L248.011181,336.652595 L219.084492,342.088751 L197.213093,355.912769 L185.082546,373.09877 L170.607822,401.749703 L162.186992,414.889928 L154.107547,423.653877 L163.211147,431.414929 L169.265041,441.854172 L180.394192,413.887032 L184.76392,392.643858 L192.171975,377.144546 L207.625336,363.297735 L231.19228,351.901182 L268.209793,350.214493 L313.306752,351.901182 L335.860921,357.964148 L350.995656,368.756684 L363.786214,386.615081 L372.537049,414.582221 L394.749833,453 L834.624405,452.6695 L847.073578,414.912721 L854.481632,386.261788 L870.299137,366.386201 L893.888841,353.211786 L924.85246,349.79282 L1000.56027,350.476613 L1021.76028,358.556769 L1038.59056,372.711287 L1051.03974,393.282065 L1062.14613,424.622584 L1078.32778,451.427276 L1230.10755,451.928724 L1223.38226,411.482359 L1219.96841,244.63683 L1213.57313,213.284914 C1213.57313,213.284914 1165.96131,213.170948 1166.462,213.672397 Z" id="Path" fill="#F3D501" fill-rule="nonzero"></path>
                            <polygon id="Path" fill="#000000" fill-rule="nonzero" opacity="0.34" points="381.823156 255 336.107547 255.682028 337.983416 260.723502 384.220099 261 386.107547 257.046083"></polygon>
                            <polyline id="Path" stroke="#000000" stroke-width="3" fill="#B3B3B3" fill-rule="nonzero" stroke-linecap="round" stroke-linejoin="round" points="319.854254 84 386.107547 84 385.983096 109.974829 382.97364 110.861775 319.107547 111 319.854254 84"></polyline>
                            <path d="M1215.24833,218 L1039.01768,216.39 C1038.50016,216.341831 1038.10755,215.960066 1038.10755,215.505 C1038.10755,215.049934 1038.50016,214.668169 1039.01768,214.62 L1215.24833,213 C1216.82743,213 1218.10755,214.119288 1218.10755,215.5 C1218.10755,216.880712 1216.82743,218 1215.24833,218 L1215.24833,218 Z" id="Path" fill="#000000" fill-rule="nonzero"></path>
                            <g id="wiel" transform="translate(867.107547, 370.000000)">
                                <ellipse id="Oval" fill="#FFFFFF" fill-rule="nonzero" cx="89.2726676" cy="88.7761428" rx="57.0647576" ry="57.2233812"></ellipse>
                                <path d="M88.9421547,135.776611 C115.164571,135.776611 136.422039,114.637374 136.422039,88.5608042 C136.422039,62.4842345 115.164571,41.3449979 88.9421547,41.3449979 C62.7197387,41.3449979 41.4622705,62.4842345 41.4622705,88.5608042 C41.4622705,114.637374 62.7197387,135.776611 88.9421547,135.776611 Z" id="Oval" stroke="#000000" stroke-width="5" stroke-linecap="round" stroke-linejoin="round" stroke-dasharray="18.69"></path>
                                <path d="M88.8965667,0.294673046 C52.9898941,0.290089792 20.6164748,21.7965232 6.87345666,54.7845791 C-6.86956151,87.7726351 0.72460123,125.745094 26.1144531,150.993731 C51.504305,176.242367 89.6891441,183.794292 122.861702,170.127711 C156.03426,156.46113 177.660979,124.267768 177.65637,88.5608042 C177.65637,39.8127665 137.917252,0.294673046 88.8965667,0.294673046 L88.8965667,0.294673046 Z M88.8965667,145.070169 C57.5442254,145.070169 32.128131,119.795435 32.128131,88.6174723 C32.128131,57.4395092 57.5442254,32.1647764 88.8965667,32.1647764 C120.248908,32.1647764 145.665004,57.4395092 145.665004,88.6174723 C145.668026,103.59058 139.688054,117.951291 129.041252,128.538877 C118.394449,139.126463 103.953419,145.073175 88.8965667,145.070169 L88.8965667,145.070169 Z" id="Shape" stroke="#000000" stroke-width="5" fill="#4D4D4D" fill-rule="nonzero" stroke-linecap="round" stroke-linejoin="round"></path>
                                <path d="M107.462273,96.1996553 C108.808334,99.2855865 108.121192,102.876121 105.729364,105.254645 C103.337537,107.633169 99.7269207,108.31649 96.6237298,106.977915 C95.3753727,110.110354 92.3304628,112.167434 88.9421547,112.167434 C85.5538466,112.167434 82.5089367,110.110354 81.2605796,106.977915 C80.2322949,107.422685 79.1223744,107.650381 78.0010388,107.646598 C75.2235436,107.651963 72.6302244,106.265485 71.1028208,103.958571 C69.5754171,101.651657 69.3194828,98.7347672 70.4220366,96.1996553 C69.3761005,95.7815279 68.4262274,95.1569419 67.6297727,94.363611 C65.6598722,92.4104941 64.8121511,89.6018148 65.3749076,86.8927659 C65.937664,84.183717 67.8351424,81.9389779 70.4220366,80.9219532 C69.9839543,79.8969241 69.7590956,78.7943047 69.7610109,77.6805416 C69.755269,74.9212616 71.148304,72.3449198 73.466157,70.828077 C75.7840101,69.3112342 78.7145026,69.0581855 81.2605796,70.1550266 C82.5000451,67.0128288 85.547978,64.9459432 88.9421547,64.9459432 C92.3363314,64.9459432 95.3842643,67.0128288 96.6237298,70.1550266 C99.7243337,68.8205075 103.329971,69.5033997 105.72023,71.8778645 C108.110488,74.2523293 108.800993,77.8371922 107.462273,80.9219532 C110.612231,82.1633671 112.680817,85.1913415 112.680817,88.5608042 C112.680817,91.930267 110.612231,94.9582414 107.462273,96.1996553 L107.462273,96.1996553 Z" id="Path" stroke="#000000" stroke-width="5" stroke-linecap="round" stroke-linejoin="round"></path>
                                <path d="M122.278367,6.80016413 C122.278367,6.80016413 179.115185,62.1535002 156.469354,119.456217 C133.823524,176.758933 51.3092748,166.513352 32.2421009,155.723759 C32.2421009,155.723759 115.964432,221.617349 172.356766,121.25826 C172.333972,121.269594 205.305481,49.2218547 122.278367,6.80016413 Z" id="Path" fill="#000000" fill-rule="nonzero" opacity="0.29"></path>
                                <path d="M16.1723369,50.0718752 C16.1723369,50.0718752 1.73234335,79.8339269 8.95803865,104.473188 C16.1837339,129.11245 33.7237104,23.3925646 16.1723369,50.0718752 Z" id="Path" fill="#FFFFFF" fill-rule="nonzero" opacity="0.35"></path>
                            </g>
                            <g id="wiel-2" transform="translate(187.107547, 370.000000)">
                                <ellipse id="Oval" fill="#FFFFFF" fill-rule="nonzero" cx="89.1042628" cy="88.7761428" rx="57.0324328" ry="57.2233812"></ellipse>
                                <path d="M88.7739371,135.776611 C114.981499,135.776611 136.226926,114.637374 136.226926,88.5608042 C136.226926,62.4842345 114.981499,41.3449979 88.7739371,41.3449979 C62.5663751,41.3449979 41.3209483,62.4842345 41.3209483,88.5608042 C41.3209483,114.637374 62.5663751,135.776611 88.7739371,135.776611 Z" id="Oval" stroke="#000000" stroke-width="5" stroke-linecap="round" stroke-linejoin="round" stroke-dasharray="18.69"></path>
                                <path d="M88.7739371,0.29467305 C52.8886404,0.29467305 20.5370551,21.8040142 6.80541094,54.7924331 C-6.92623325,87.7808521 0.666439544,125.751452 26.0428051,150.997738 C51.4191707,176.244025 89.5814859,183.793872 122.733855,170.126627 C155.886223,156.459381 177.499459,124.266737 177.494852,88.5608042 C177.494852,65.1492071 168.147133,42.6966537 151.508407,26.1432175 C134.86968,9.58978119 112.303139,0.291667667 88.7739371,0.29467305 Z M88.7739371,145.0135 C57.4393556,145.0135 32.0376584,119.738767 32.0376584,88.5608042 C32.0376584,57.3828412 57.4393556,32.1081083 88.7739371,32.1081083 C120.108519,32.1081083 145.510257,57.3828412 145.510257,88.5608042 C145.528359,103.543727 139.55845,117.919004 128.916039,128.518851 C118.273627,139.118698 103.832135,145.073188 88.7739371,145.070169 L88.7739371,145.0135 Z" id="Shape" stroke="#000000" stroke-width="5" fill="#4D4D4D" fill-rule="nonzero" stroke-linecap="round" stroke-linejoin="round"></path>
                                <path d="M107.283564,96.1996553 C108.628863,99.2855865 107.94211,102.876121 105.551638,105.254645 C103.161165,107.633169 99.5525939,108.31649 96.4511609,106.977915 C95.2085255,110.112526 92.1662074,112.172592 88.7796324,112.172592 C85.3930574,112.172592 82.3507393,110.112526 81.1081038,106.977915 C78.0066708,108.31649 74.3980995,107.633169 72.0076272,105.254645 C69.617155,102.876121 68.9304018,99.2855865 70.2757005,96.1996553 C67.1177182,94.9670835 65.0404499,91.9361029 65.0404499,88.5608042 C65.0404499,85.1855056 67.1177182,82.154525 70.2757005,80.9219532 C69.8286972,79.8993877 69.5998572,78.7956405 69.6036586,77.6805416 C69.5962427,74.9181988 70.9900106,72.3385859 73.3098191,70.8211069 C75.6296277,69.3036279 78.5623119,69.0531365 81.1081038,70.1550266 C82.3507393,67.0204162 85.3930574,64.9603496 88.7796324,64.9603496 C92.1662074,64.9603496 95.2085255,67.0204162 96.4511609,70.1550266 C99.5500085,68.8205075 103.153603,69.5033997 105.542508,71.8778645 C107.931413,74.2523293 108.621526,77.8371922 107.283564,80.9219532 C110.431738,82.1633671 112.499152,85.1913415 112.499152,88.5608042 C112.499152,91.930267 110.431738,94.9582414 107.283564,96.1996553 L107.283564,96.1996553 Z" id="Path" stroke="#000000" stroke-width="5" stroke-linecap="round" stroke-linejoin="round"></path>
                                <path d="M122.102657,6.80016413 C122.102657,6.80016413 178.895888,62.1535002 156.217323,119.456217 C133.538759,176.758933 51.105422,166.513352 32.0604395,155.723759 C32.0604395,155.723759 115.735345,221.617349 172.095736,121.25826 C172.152688,121.269594 205.071348,49.2218547 122.102657,6.80016413 Z" id="Path" fill="#000000" fill-rule="nonzero" opacity="0.29"></path>
                                <path d="M16.1022932,50.0718752 C16.1022932,50.0718752 1.65908875,79.8339269 8.88069098,104.473188 C16.1022932,129.11245 33.5867718,23.3925646 16.1022932,50.0718752 Z" id="Path" fill="#FFFFFF" fill-rule="nonzero" opacity="0.35"></path>
                            </g>
                            <path d="M1180.10755,452.879212 L1079.48489,452.879212 L1069.91317,438.135763 C1065.42836,431.192616 1061.75488,423.761296 1058.96429,415.986567 C1057.36456,411.587995 1056.00814,407.105303 1054.90114,402.558688 L1054.90114,402.558688 C1049.541,380.676274 1033.41199,362.994546 1012.06168,355.595133 C1010.7073,355.130148 1009.33016,354.699185 1007.93025,354.324928 C1004.94242,353.504925 1001.89966,352.898524 998.825157,352.51035 C997.391105,352.340233 995.945671,352.20414 994.488857,352.113411 C993.032042,352.022682 991.882524,352 990.562285,352 L913.783594,352 C912.395067,352 911.017922,352.068047 909.652158,352.181458 C907.603512,352.328892 905.577629,352.567056 903.58589,352.907289 C902.197363,353.145453 900.820218,353.417639 899.465836,353.746532 C897.678961,354.154812 895.926231,354.653821 894.207645,355.209535 C891.166692,356.200215 888.203279,357.41323 885.341561,358.838692 C881.042173,360.962065 876.98902,363.548126 873.254551,366.55065 C871.797736,367.684761 870.409209,368.920943 869.066208,370.202488 C859.558024,379.177628 852.935447,390.761672 850.036565,403.488659 C849.786175,404.62277 849.569929,405.756882 849.376446,406.890993 C848.473836,412.247755 847.265451,417.548878 845.757172,422.768553 C844.638177,426.654296 843.312267,430.477887 841.785075,434.223079 L835.092832,453.809183 C835.092832,454.115393 780.724049,453.967959 780.724049,453.967959 L394.895757,453.967959 L385.33541,439.22451 C378.334619,428.269886 373.254395,416.208674 370.312008,403.556706 C368.381966,395.610726 364.977292,388.09462 360.273643,381.396168 C358.842039,379.345179 357.295512,377.37626 355.641427,375.498789 C354.298426,373.967738 352.875756,372.504735 351.396178,371.109778 C349.623579,369.430545 347.757901,367.851653 345.807928,366.380533 C340.564971,362.419922 334.761936,359.255401 328.587922,356.99009 C327.165251,356.468399 325.719817,356.003413 324.251621,355.583792 C321.190109,354.694275 318.066941,354.030911 314.90752,353.599097 C312.465454,353.269911 310.007257,353.073042 307.543777,353.009359 L247.097344,353.009359 C246.220979,353.009359 245.344614,353.009359 244.47963,353.066065 C239.330302,353.262171 234.222416,354.065426 229.262745,355.45904 C221.201696,357.728548 213.646989,361.504089 207.000794,366.584673 C205.483278,367.741467 204.026463,368.958746 202.630349,370.236512 C200.886957,371.805533 199.234019,373.471558 197.679455,375.226602 C196.219131,376.852252 194.843951,378.551898 193.559401,380.318762 L192.569222,381.713719 C191.704238,382.961242 190.88478,384.254129 190.110847,385.569698 C186.021614,392.434451 183.228829,399.987511 181.870738,407.854988 C180.332968,417.187695 177.779875,426.32579 174.256605,435.107686 L166.107547,455" id="Path" stroke="#000000" stroke-width="5" stroke-linecap="round" stroke-linejoin="round"></path>
                            <path d="M22.1262121,329 C22.1262121,329 21.2160289,375.390583 32.1075472,402" id="Path" stroke="#000000" stroke-width="5"></path>
                            <rect id="Rectangle" fill="#000000" fill-rule="nonzero" x="30.1075472" y="398" width="42" height="5" rx="2.5"></rect>
                            <path d="M50.6075472,417 L87.6075472,417 C88.988259,417 90.1075472,418.119288 90.1075472,419.5 C90.1075472,420.880712 88.988259,422 87.6075472,422 L50.6075472,422 C49.2268353,422 48.1075472,420.880712 48.1075472,419.5 C48.1075472,418.119288 49.2268353,417 50.6075472,417 Z" id="Rectangle" fill="#000000" fill-rule="nonzero" transform="translate(69.107547, 419.500000) rotate(90.000000) translate(-69.107547, -419.500000) "></path>
                            <rect id="Rectangle" stroke="#000000" stroke-width="5" fill="#FFFFFF" fill-rule="nonzero" stroke-linecap="round" stroke-linejoin="round" x="18.1075472" y="384" width="21" height="64" rx="9"></rect>
                            <rect id="Rectangle" stroke="#000000" stroke-width="5" fill="#FFFFFF" fill-rule="nonzero" stroke-linecap="round" stroke-linejoin="round" x="0.10754717" y="425" width="169" height="42" rx="16.5"></rect>
                            <path d="M112.107547,425 C112.107547,425 152.531752,431.741808 151.408857,450.843597 C150.285963,471.06902 125.582282,466.574482 125.582282,466.574482 L152.531752,466.574482 L164.883592,458.709039 L166.006487,447.472693 L166.107547,436.550964 L158.146225,427.247269 L144.67149,426.123635 L126.705177,425 L112.107547,425 Z" id="Path" fill="#000000" fill-rule="nonzero" opacity="0.28"></path>
                            <path d="M38.1075472,422 L36.5347523,388.057203 L28.1075472,385 C33.1736978,396.73998 33.1736978,410.215225 28.1075472,421.955206 L38.1075472,422 Z" id="Path" fill="#000000" fill-rule="nonzero" opacity="0.28"></path>
                            <g id="lamp" transform="translate(6.107547, 286.000000)" fill-rule="nonzero">
                                <path d="M24.9920006,34.0722094 C24.3689639,37.9137984 23.0876243,39.4784578 21.8885725,43.2032813 L21.6299535,44.0790234 L21.5123994,44.3942906 C8.78129091,47.4418734 1.99841962,34.8078328 2.62145632,24.5441344 L2.86831992,20.6441625 C3.50311203,10.3571109 9.72172367,0.23353125 24.028057,3.12931875 L24.028057,3.29279062 L24.2396544,4.89247969 C25.7137493,12.1908074 26.1804161,19.6545334 25.6267927,27.0779484" id="Path" fill="#FFFFFF"></path>
                                <path d="M25.5327495,34.1539453 C25.4141895,36.044101 25.0547402,37.9116862 24.4630072,39.7119891 C24.2043882,40.5994078 23.9457692,41.4517969 23.7341718,42.3041859 C23.6283731,42.7362188 23.5343298,43.156575 23.452042,43.5769313 C23.3800441,44.0605524 23.281941,44.5399824 23.1581567,45.0131484 C23.0137309,45.4772506 22.6559604,45.8456228 22.1942132,46.0056563 L21.9238387,46.0990688 L21.9238387,46.0990688 C18.8066866,46.9591131 15.4985302,46.8449604 12.4489787,45.772125 C9.43619676,44.593215 6.8370454,42.5635625 4.97253822,39.9338438 C3.19146673,37.4032073 1.93657614,34.5450511 1.28133964,31.5267188 C0.938981122,30.0378598 0.730482418,28.5217298 0.658302933,26.9962125 C0.658302933,26.2255594 0.658302933,25.4549063 0.658302933,24.6609 L0.787612437,22.5240891 C0.881655713,16.8492797 2.39810354,10.3104047 6.91218079,5.74486875 C9.15343117,3.48609706 12.0158949,1.93448709 15.1409675,1.28442188 C18.1751103,0.72918484 21.291563,0.796738557 24.2984315,1.48292344 L24.2984315,1.48292344 C24.9212297,1.61541024 25.4111527,2.09295119 25.5562603,2.7089625 L25.5562603,2.87243438 L25.5562603,2.87243438 L25.5562603,2.97752344 C25.6738144,3.93500156 25.8031239,4.89247969 25.9676996,5.86163438 C26.1322753,6.83078906 26.2615849,7.85832656 26.3908944,8.86251094 C26.6260025,10.8708797 26.7670675,12.890925 26.8258445,14.9109703 C26.9683612,18.9466825 26.6489176,22.9854152 25.8736563,26.9495063 C25.8325159,27.1350356 25.6499895,27.254177 25.462217,27.2180672 C25.3060424,27.1825393 25.1915486,27.0498591 25.1800872,26.8911234 C25.0390223,22.9094156 24.7333816,18.9977672 24.2396544,15.0977953 C24.0045462,13.1594859 23.710661,11.2211766 23.3697541,9.25951406 C23.2051784,8.30203594 23.0170918,7.33288125 22.8290053,6.37540313 C22.734962,5.8849875 22.6174079,5.39457188 22.5233646,4.89247969 L22.3117673,3.37452656 L22.3117673,3.51464531 L22.3117673,3.36285 L23.7224164,4.670625 C21.1593211,4.14514657 18.515186,4.14514657 15.9520907,4.670625 C13.4964152,5.20589083 11.2598675,6.46313968 9.53363711,8.27868281 C7.82716223,10.1739829 6.57699143,12.4299599 5.87770476,14.8759406 C5.5078457,16.1264996 5.23278377,17.4028133 5.05482609,18.6941766 C4.96078281,19.3480641 4.90200577,20.0019516 4.85498413,20.6558391 L4.70216381,22.7692969 L4.5728543,24.8594016 C4.5728543,25.5016125 4.5728543,26.1438234 4.5728543,26.7977109 C4.63846098,28.0947461 4.81543481,29.3838494 5.10184773,30.6509766 C5.65446024,33.1628005 6.69678228,35.5428715 8.17000961,37.6569141 C10.9187259,41.9501257 16.1497004,43.9812459 21.1009601,42.6778359 L21.1009601,42.6778359 L19.9254191,43.7637563 C20.1287943,43.3855202 20.3093621,42.9956143 20.466168,42.5961 C20.6660099,42.1407141 20.8776073,41.7086813 21.0892047,41.2766484 C21.5123994,40.4242594 21.9708604,39.6069 22.4175659,38.8128938 C23.3328864,37.2963407 24.0442627,35.6672239 24.5335397,33.9671203 C24.6137901,33.6787142 24.9118388,33.507317 25.203598,33.5817938 C25.445629,33.65503 25.6089922,33.8793409 25.6032819,34.1305922 L25.5327495,34.1539453 Z" id="Path" fill="#000000"></path>
                                <path d="M14.1064914,44.2424953 L14.1064914,44.2424953 C3.74997563,43.6236375 0.96394358,34.7961563 1.59873569,24.5091047 L1.84559929,20.5974563 C2.48039141,10.3220813 6.28914409,2.31195937 16.6456599,2.94249375 L16.6456599,2.94249375 L16.8102356,3.78320625 C19.3656404,16.8645024 18.5569903,30.3747686 14.4591537,43.0631625 L14.1064914,44.2424953 Z" id="Path" stroke="#000000" stroke-width="3" fill="#D9E021" stroke-linecap="round" stroke-linejoin="round"></path>
                            </g>
                            <polygon id="Path" fill="#CCCCCC" fill-rule="nonzero" points="155.087663 77.6726759 385.093795 77.3306373 392.100104 82.0507698 393.107547 179.497564 390.405768 191.639934 231.607547 194 70.1075472 191.297895 72.8093264 184.559735 151.698991 77"></polygon>
                            <polygon id="Path" stroke="#000000" stroke-width="3" fill="#FFFFFF" fill-rule="nonzero" stroke-linecap="round" stroke-linejoin="round" points="154.703517 85 386.107547 85 386.107547 185 85.1075472 185"></polygon>
                            <polygon id="Path" fill="#808080" fill-rule="nonzero" points="384.772525 84 319.854254 84 319.107547 111.038982 386.107547 113"></polygon>
                            <polygon id="Path" fill="#808080" fill-rule="nonzero" points="311.777874 85 195.107547 85 195.107547 184.42275 199.143206 185 199.904865 177.054329 200.154963 112.108093 286.563532 112.108093 287.3934 184.252971 298.329467 184.92077 298.329467 112.108093 312.107547 112.277872"></polygon>
                            <polygon id="Path" fill="#808080" fill-rule="nonzero" points="187.599129 85 152.269709 86.2700229 86.1075472 185 103.393768 184.748284 154.856993 106.750572 188.107547 114.187643"></polygon>
                            <polygon id="Path" stroke="#000000" stroke-width="3" stroke-linecap="round" stroke-linejoin="round" points="154.703517 85 386.107547 85 386.107547 185 85.1075472 185"></polygon>
                            <polyline id="Path" stroke="#000000" stroke-width="3" stroke-linecap="round" stroke-linejoin="round" points="385.107547 112 299.107547 112 299.107547 185"></polyline>
                            <polyline id="Path" stroke="#000000" stroke-width="3" stroke-linecap="round" stroke-linejoin="round" points="287.107547 185 287.107547 112 201.107547 112 201.107547 185"></polyline>
                            <path d="M22.1075472,289 C22.1075472,289 29.9191507,213.538634 62.5300371,190.728953 L384.807008,190.728953 C389.391269,190.728953 393.107547,187.021873 393.107547,182.448959 L393.107547,84.2799936 C393.107547,82.0840028 392.233029,79.977954 390.676375,78.425154 C389.119722,76.872354 387.008448,76 384.807008,76 L141.896839,76" id="Path" stroke="#000000" stroke-width="5" stroke-linecap="round" stroke-linejoin="round"></path>
                            <polyline id="Path" stroke="#000000" stroke-width="3" fill="#FFFFFF" fill-rule="nonzero" stroke-linecap="round" stroke-linejoin="round" points="187.107547 112.761732 154.773717 107 102.107547 186"></polyline>
                            <polygon id="Path" fill="#FFFFFF" fill-rule="nonzero" opacity="0.54" points="122.278768 183 89.1075472 182.73946 156.70561 86 188.107547 86.2605395 187.605299 182.490249"></polygon>
                            <path d="M189.107547,77.6307464 L189.107547,193 L194.107547,192.655957 L194.107547,77 C194.107547,77 189.107547,77.3440435 189.107547,77.6307464 Z" id="Path" stroke="#000000" stroke-width="3" fill="#999999" fill-rule="nonzero" stroke-linecap="round" stroke-linejoin="round"></path>
                            <path d="M312.107547,77.6307464 L312.107547,193 L317.107547,192.655957 L317.107547,77 C317.107547,77 312.107547,77.3440435 312.107547,77.6307464 Z" id="Path" stroke="#000000" stroke-width="3" fill="#999999" fill-rule="nonzero" stroke-linecap="round" stroke-linejoin="round"></path>
                            <path d="M69.1075472,192 L150.107547,78" id="Path" stroke="#000000" stroke-width="5" stroke-linecap="round" stroke-linejoin="round"></path>
                            <path d="M22.1075472,289 C22.1075472,289 29.9191507,213.538634 62.5300371,190.728953 L384.807008,190.728953 C389.391269,190.728953 393.107547,187.021873 393.107547,182.448959 L393.107547,84.2799936 C393.107547,82.0840028 392.233029,79.977954 390.676375,78.425154 C389.119722,76.872354 387.008448,76 384.807008,76 L141.896839,76" id="Path" stroke="#000000" stroke-width="5" stroke-linecap="round" stroke-linejoin="round"></path>
                            <polygon id="Path" fill="#FFFFFF" fill-rule="nonzero" opacity="0.54" points="196.107547 86 310.854623 86 311.107547 182.624648 196.16503 183"></polygon>
                            <polygon id="Path" fill="#FFFFFF" fill-rule="nonzero" opacity="0.54" points="320.107547 86 382.859604 86 383.107547 183 320.35549 183"></polygon>
                            <path d="M45.9569723,212 L388.435083,213.91 C388.806475,213.91 389.107547,214.174152 389.107547,214.5 C389.107547,214.825848 388.806475,215.09 388.435083,215.09 L45.9569723,217 C44.3832783,217 43.1075472,215.880712 43.1075472,214.5 C43.1075472,213.119288 44.3832783,212 45.9569723,212 Z" id="Path" fill="#000000" fill-rule="nonzero"></path>
                            <path d="M390.053494,191 C390.053494,191 394.098777,192.685337 394.098777,211.497348 L394.098777,332.090077 C394.110471,332.283488 394.110471,332.477425 394.098777,332.670836 C393.798798,335.586631 391.326418,337.799068 388.3851,337.783785 L267.369434,337.783785 C265.941015,337.783785 264.524024,337.783785 263.129886,337.783785 C259.57598,337.783785 256.136347,337.840722 252.788132,337.965984 C251.119739,338.022921 249.4742,338.091245 247.851516,338.182345 C246.228832,338.273444 244.331891,338.398706 242.617788,338.558129 C241.657891,338.641637 240.70942,338.732736 239.772377,338.831427 C235.962654,339.228083 232.178122,339.836358 228.436443,340.653414 C226.813759,341.006424 225.225357,341.416371 223.65981,341.871867 C213.064821,344.826397 203.431634,350.495807 195.719932,358.315295 C192.014252,362.14603 188.755748,366.382562 186.006683,370.943939 C185.183913,372.264879 184.372571,373.619982 183.572656,375.009246 C183.058426,375.920239 182.544195,376.854007 182.029964,377.787776 C180.601545,380.395494 179.230262,383.071536 177.881835,385.758966 C168.865653,403.76247 161.426447,422.198696 151.107547,425" id="Path" stroke="#000000" stroke-width="3" stroke-linecap="round" stroke-linejoin="round"></path>
                            <path d="M147.107547,76.664959 C165.952125,45.7102457 289.136033,41 363.854328,41 L1024.50698,41 C1085.76324,41 1162.49572,40.3292904 1183.35448,88.7806406 C1203.1777,134.786102 1215.39937,205.955777 1218.88152,248.480113 C1218.99531,249.84526 1219.09773,251.176279 1219.18877,252.473169 C1219.25704,253.326386 1219.31394,254.168226 1219.37084,254.987315 C1219.50739,257.126045 1219.65533,259.537806 1219.80326,262.211219 C1219.80326,263.348842 1219.92844,264.600227 1219.99671,265.874364 C1220.48604,275.29388 1220.99812,287.159284 1221.52158,300.264698 C1221.69227,304.712802 1221.86297,309.297422 1222.04504,313.984427 C1222.28401,320.616768 1222.53436,327.442504 1222.77333,334.313745 L1222.77333,334.313745 C1222.77333,335.519625 1222.85299,336.736881 1222.89851,337.942761 C1223.26265,348.488523 1223.61542,359.113919 1223.93405,369.329771 C1223.93405,370.558403 1224.01371,371.77566 1224.05922,372.992916 C1224.35509,382.287293 1224.6282,391.194879 1224.87855,399.272 C1224.87855,400.409623 1224.94683,401.547245 1224.98097,402.684868 C1225.04925,404.960113 1225.11752,407.235359 1225.17442,409.339961 C1225.26546,412.263651 1225.3565,415.028074 1225.43615,417.644606 C1225.8572,431.910395 1226.10755,441 1226.10755,441" id="Path" stroke="#000000" stroke-width="5" stroke-linecap="round" stroke-linejoin="round"></path>
                            <path d="M42.8068137,184.083257 L79.931329,184.06815 C81.3120399,184.065554 82.4317834,185.184386 82.4323453,186.565098 C82.4323455,186.565776 82.4323455,186.566455 82.4303114,186.567132 L82.4300296,187.259634 C82.4274326,188.639551 81.3089289,189.758055 79.9290125,189.760652 L42.8044972,189.775759 C41.4237863,189.778354 40.3040428,188.659522 40.3034809,187.27881 C40.3034806,187.278132 40.3034806,187.277453 40.3055147,187.276776 L40.3057965,186.584274 C40.3083935,185.204357 41.4268972,184.085854 42.8068137,184.083257 Z" id="Rectangle" fill="#000000" fill-rule="nonzero" transform="translate(61.367913, 186.921954) rotate(45.000000) translate(-61.367913, -186.921954) "></path>
                            <rect id="Rectangle" stroke="#000000" stroke-width="5" fill="#FFFFFF" fill-rule="nonzero" stroke-linecap="round" stroke-linejoin="round" x="40.1075472" y="136" width="18" height="49" rx="5.77"></rect>
                            <path d="M39.8262675,409.399615 C39.8262675,409.399615 76.2494804,412.509265 100.926207,406.289966 C125.602934,400.070667 166.066847,396.434949 170.107547,405.249519 L160.762717,420.552268 L154.206538,426 L38.1075472,423.919107 L39.8262675,409.399615 Z" id="Path" fill="#000000" fill-rule="nonzero" opacity="0.28"></path>
                            <path d="M773.421349,344.237996 C707.265708,329.079203 538.332962,327.491139 420.424149,350.479199 C302.515337,373.467259 1012.90796,399.131706 773.421349,344.237996 Z" id="Path" fill="#000000" fill-rule="nonzero" opacity="0.04"></path>
                            <path d="M431.645046,215.04902 C474.101896,214.297386 516.562545,213.781046 559.026992,213.5 C601.491438,213.218954 643.955885,213.052288 686.420332,213 L750.117003,213 L813.802278,213.294118 L845.707587,213.529412 L877.555922,213.852941 L909.461231,214.294118 L925.413885,214.519608 L941.36654,214.823529 C941.568025,214.826076 941.759895,214.898085 941.899132,215.023413 C942.03837,215.148741 942.113327,215.316902 942.107547,215.490196 C942.095308,215.837816 941.770567,216.11722 941.36654,216.127451 L925.413885,216.431373 L909.461231,216.656863 L877.555922,217.107843 L845.707587,217.421569 L813.802278,217.656863 L750.117003,217.95098 L686.420332,218 C643.948289,217.941176 601.483842,217.77451 559.026992,217.5 C516.570141,217.22549 474.109493,216.735294 431.645046,216.029412 C431.499976,216.026839 431.362039,215.974774 431.261597,215.884677 C431.161155,215.79458 431.107547,215.673835 431.107547,215.54902 C431.0967,215.420172 431.147424,215.29263 431.24928,215.197536 C431.351136,215.102442 431.494747,215.04855 431.645046,215.04902 L431.645046,215.04902 Z" id="Path" fill="#000000" fill-rule="nonzero"></path>
                            <path d="M384.853848,73 L772.497723,75 C772.775123,75 773,75.1969947 773,75.44 C773,75.6830053 772.775123,75.88 772.497723,75.88 L384.853848,78 C383.277711,78 382,76.8807119 382,75.5 C382,74.1192881 383.277711,73 384.853848,73 Z" id="Path" fill="#000000" fill-rule="nonzero"></path>
                            <polygon id="Path" fill="#CCCCCC" fill-rule="nonzero" points="434.853384 96.3302418 508.110205 96 704.926561 97.3437427 718.429649 98.698873 720.107547 107.786217 720.004819 182.113407 718.429649 188.957384 709.309642 193 433.848928 191.314628 428.107547 183.229397 429.79686 100.714487"></polygon>
                            <rect id="Rectangle" stroke="#000000" stroke-width="5" stroke-linecap="round" stroke-linejoin="round" x="427.107547" y="96" width="291" height="95" rx="8.38"></rect>
                            <rect id="Rectangle" stroke="#000000" stroke-width="3" fill="#FFFFFF" fill-rule="nonzero" stroke-linecap="round" stroke-linejoin="round" x="436.107547" y="106" width="271" height="77" rx="5.78"></rect>
                            <path d="M436.525359,123 L707.107547,123 L707.107547,128 L436.194546,127.733096 C436.194546,127.733096 435.852326,123.524911 436.525359,123 Z" id="Path" stroke="#000000" stroke-width="3" fill="#999999" fill-rule="nonzero" stroke-linecap="round" stroke-linejoin="round"></path>
                            <path d="M436.525359,158 L707.107547,158 L707.107547,163 L436.194546,162.741993 C436.194546,162.741993 435.852326,158.507117 436.525359,158 Z" id="Path" stroke="#000000" stroke-width="3" fill="#999999" fill-rule="nonzero" stroke-linecap="round" stroke-linejoin="round"></path>
                            <polygon id="Path" fill="#CCCCCC" fill-rule="nonzero" points="768.5936 96.3302418 849.878891 96 1068.25252 97.3437427 1083.23603 98.698873 1085.10755 107.786217 1084.98202 182.113407 1083.23603 188.957384 1073.11389 193 767.475256 191.314628 761.107547 183.229397 762.97906 100.714487"></polygon>
                            <rect id="Rectangle" stroke="#000000" stroke-width="5" stroke-linecap="round" stroke-linejoin="round" x="761.107547" y="96" width="324" height="95" rx="8.38"></rect>
                            <rect id="Rectangle" stroke="#000000" stroke-width="3" fill="#FFFFFF" fill-rule="nonzero" stroke-linecap="round" stroke-linejoin="round" x="772.107547" y="106" width="302" height="77" rx="5.78"></rect>
                            <path d="M773.596177,123 L1074.10755,123 L1074.10755,128 L773.185206,127.733096 C773.185206,127.733096 772.84273,123.524911 773.596177,123 Z" id="Path" stroke="#000000" stroke-width="3" fill="#999999" fill-rule="nonzero" stroke-linecap="round" stroke-linejoin="round"></path>
                            <path d="M773.596177,158 L1074.10755,158 L1074.10755,163 L773.185206,162.741993 C773.185206,162.741993 772.84273,158.507117 773.596177,158 Z" id="Path" stroke="#000000" stroke-width="3" fill="#999999" fill-rule="nonzero" stroke-linecap="round" stroke-linejoin="round"></path>
                            <path d="M1131.10618,102.336303 L1131.10618,188.205751 C1131.19921,194.286787 1126.53125,199.414156 1120.39091,199.97559 C1117.21306,200.181188 1114.09055,199.08111 1111.76406,196.936305 C1109.43757,194.7915 1108.11439,191.793072 1108.1084,188.652273 L1108.1084,102.737027 C1108.03517,96.6696647 1112.70747,91.5680133 1118.83528,91.0244342 C1122.01004,90.8188285 1125.1296,91.9176954 1127.45392,94.0603546 C1129.77823,96.2030137 1131.10019,99.1985353 1131.10618,102.336303 L1131.10618,102.336303 Z" id="Path" stroke="#000000" stroke-width="3" fill="#999999" fill-rule="nonzero" stroke-linecap="round" stroke-linejoin="round"></path>
                            <rect id="Rectangle" stroke="#000000" stroke-width="2" fill="#FFFFFF" fill-rule="nonzero" x="1108.10755" y="113" width="23" height="8" rx="0.04"></rect>
                            <rect id="Rectangle" stroke="#000000" stroke-width="2" fill="#FFFFFF" fill-rule="nonzero" x="1108.10755" y="131" width="23" height="8" rx="0.04"></rect>
                            <rect id="Rectangle" stroke="#000000" stroke-width="2" fill="#FFFFFF" fill-rule="nonzero" x="1108.10755" y="144" width="23" height="8" rx="0.04"></rect>
                            <rect id="Rectangle" stroke="#000000" stroke-width="2" fill="#FFFFFF" fill-rule="nonzero" x="1108.10755" y="161" width="23" height="8" rx="0.04"></rect>
                            <rect id="Rectangle" stroke="#000000" stroke-width="2" fill="#FFFFFF" fill-rule="nonzero" x="1108.10755" y="173" width="23" height="8" rx="0.04"></rect>
                            <rect id="Rectangle" fill="#000000" fill-rule="nonzero" x="1205.10755" y="394" width="42" height="5" rx="2.5"></rect>
                            <path d="M1189.60755,412 L1226.60755,412 C1227.98826,412 1229.10755,413.119288 1229.10755,414.5 C1229.10755,415.880712 1227.98826,417 1226.60755,417 L1189.60755,417 C1188.22684,417 1187.10755,415.880712 1187.10755,414.5 C1187.10755,413.119288 1188.22684,412 1189.60755,412 Z" id="Rectangle" fill="#000000" fill-rule="nonzero" transform="translate(1208.107547, 414.500000) rotate(90.000000) translate(-1208.107547, -414.500000) "></path>
                            <rect id="Rectangle" stroke="#000000" stroke-width="5" fill="#FFFFFF" fill-rule="nonzero" stroke-linecap="round" stroke-linejoin="round" x="1093.10755" y="425" width="191" height="42" rx="16.5"></rect>
                            <rect id="Rectangle" stroke="#000000" stroke-width="5" fill="#FEF7C3" fill-rule="nonzero" x="382.107547" y="442" width="463" height="21" rx="9.17"></rect>
                            <rect id="Rectangle" stroke="#000000" stroke-width="5" fill="#000000" fill-rule="nonzero" opacity="0.15" x="382.107547" y="442" width="463" height="21" rx="9.17"></rect>
                            <path d="M855.107547,384 C855.107547,384 848.043144,410.144197 776.143727,418.178976 C704.244309,426.213755 373.107547,415.527159 373.107547,415.527159 L387.943935,442 L840.225509,441.671356 L855.107547,384 Z" id="Path" fill="#000000" fill-rule="nonzero" opacity="0.28"></path>
                            <path d="M1222.05067,282 C1222.05067,282 1225.08319,422.59952 1141.10755,424.668505 L1229.10755,425 L1222.05067,282 Z" id="Path" fill="#000000" fill-rule="nonzero" opacity="0.28"></path>
                            <path d="M1181.10394,80.0223566 L1125.10755,78 C1125.10755,78 1179.60484,94.1334066 1200.10755,140 L1181.10394,80.0223566 Z" id="Path" fill="#000000" fill-rule="nonzero" opacity="0.28"></path>
                            <rect id="Rectangle" fill="#000000" fill-rule="nonzero" x="339.107547" y="0" width="8" height="54" rx="3.55"></rect>
                            <path d="M672.657547,-420 L673.557547,-420 C675.518158,-420 677.107547,-418.410611 677.107547,-416.45 L677.107547,460.45 C677.107547,462.410611 675.518158,464 673.557547,464 L672.657547,464 C670.696936,464 669.107547,462.410611 669.107547,460.45 L669.107547,-416.45 C669.107547,-418.410611 670.696936,-420 672.657547,-420 Z" id="Rectangle" fill="#000000" fill-rule="nonzero" transform="translate(673.107547, 22.000000) rotate(90.000000) translate(-673.107547, -22.000000) "></path>
                            <rect id="Rectangle" fill="#000000" fill-rule="nonzero" x="658.107547" y="0" width="8" height="54" rx="3.55"></rect>
                            <rect id="Rectangle" fill="#000000" fill-rule="nonzero" x="925.107547" y="0" width="8" height="54" rx="3.55"></rect>
                            <path d="M1059.10755,41 C1059.10755,41 1148.3695,64.3257143 1133.23862,77 L1176.10755,76.4971429 L1165.01233,65.3428571 L1144.33384,53.5714286 L1105.51194,43.4342857 L1059.10755,41 Z" id="Path" fill="#000000" fill-rule="nonzero" opacity="0.28"></path>
                            <path d="M393.941635,95 C393.941635,95 397.775723,83.8891611 420.791662,82.8750765 C443.807602,81.860992 579.107547,78.1022658 579.107547,78.1022658 L390.107547,77 L393.941635,95 Z" id="Path" fill="#000000" fill-rule="nonzero" opacity="0.28"></path>
                            <g id="Group" opacity="0.69" transform="translate(543.107547, 230.000000)" fill-rule="nonzero">
                                <path d="M95.305136,10.9041595 C97.534671,14.2864896 99.1251872,18.0476146 99.9980625,22.0016148 C101.129944,26.3950356 101.970869,30.8580693 102.515385,35.3617684 C103.177972,40.904328 103.489933,46.4830657 103.449414,52.0648031 C103.454687,59.5184899 102.852799,66.9602641 101.649699,74.3165654 C100.442296,81.6049556 90.7033342,86.4032406 87.9809813,89.4163816 C90.2591009,92.3613006 99.6791257,96.909438 100.647327,102.321722 C101.615527,107.734005 102.093933,116.022986 102.093933,127.165922 L102.093933,137.831304 C102.093933,145.085584 102.185057,150.012732 102.367307,152.612751 C102.475577,154.91648 102.822951,157.202783 103.403851,159.434957 C103.975309,161.300523 104.278291,163.237686 104.303709,165.188351 L104.303709,165.688646 L87.9468095,165.688646 C88.5796782,163.950192 89.0338406,162.152012 89.3022907,160.321844 C90.703384,154.783053 91.4676868,149.102937 91.5804103,143.391402 L91.5120667,128.609956 C91.4665043,118.47519 90.9159587,111.724996 89.86043,108.359374 C88.8049012,104.993752 86.8153434,103.303361 83.8917565,103.288201 L71.6240821,98.5581378 L73.6629992,165.574943 L62.1015419,165.574943 L63.4684137,86.7329805 C64.8011137,83.9586167 63.3886795,76.1471907 63.2406017,73.3841972 L59.3791889,2.6379197 L89.3022907,2.6379197 C92.7308607,2.91080795 93.459859,8.39131353 95.305136,10.9041595 Z M73.6629992,34.3952892 L73.6629992,77.0568182 L84.9396915,77.0568182 C86.9652791,77.1694926 88.8942601,76.1828107 89.9857266,74.4757502 C91.9676907,71.4436586 92.9586727,65.4818085 92.9586727,56.5901998 C92.9586727,46.9633089 91.9980656,40.4973736 90.0768513,37.1923937 C89.1383943,35.4063132 87.2547981,34.3179821 85.2358471,34.3952892 L73.6629992,34.3952892 Z" id="Shape" fill="#0200FF"></path>
                                <polygon id="Path" fill="#FF3F12" points="53.9230923 1.96706943 51.8044411 20.4666184 35.4475419 20.2164708 24.3644898 165.688646 17.2453658 165.427128 21.5282308 29.5628932 0.899857266 32.4282198 2.41480684 1.96706943"></polygon>
                                <path d="M111.297536,2.88806726 L118.952018,2.6379197 L127.164639,99.6951722 C127.164639,110.406036 127.681013,118.225042 128.713761,123.152191 C130.319835,131.884615 135.183621,147.098134 140.571374,147.098134 C145.959127,147.098134 148.043606,131.884615 149.683852,123.152191 C150.709006,118.217462 155.903119,106.23312 155.903119,95.5222561 L143.521539,2.88806726 L164.742223,3.9682499 L164.742223,99.7747646 C164.742223,116.341355 168.569464,128.09829 166.473594,137.296898 C162.566619,154.215969 152.406205,165.597683 141.414278,165.597683 C130.422351,165.597683 117.129522,157.729406 113.188375,140.810334 C111.092505,131.566245 113.700952,116.307244 113.700952,99.7406536 L111.297536,2.88806726 Z" id="Path" fill="#005564"></path>
                                <path d="M171.998034,32.8944039 C176.018915,20.387026 191.669598,4.19565677 197.512974,0.966479201 C204.700442,-3.01314104 209.41615,13.9741522 213.266172,30.7454089 C215.371901,40.0528974 216.516938,49.5512306 216.683351,59.0916754 L206.169829,59.0916754 C205.785529,53.5341393 204.932002,48.0188976 203.618335,42.6046773 C201.761668,35.9985077 198.071114,37.3743192 194.414732,37.3743192 C190.75835,37.3743192 188.719433,37.3743192 186.56661,46.6752602 C184.413786,55.9762013 180.689061,69.7343169 180.689061,86.7784619 C180.689061,103.822607 184.527692,115.977504 186.805812,124.516632 C189.083932,133.05576 191.954363,137.240047 195.439886,137.240047 C198.925409,137.240047 201.738886,133.601537 203.618335,126.324517 C204.65488,122.401748 203.481648,108.2343 204.165084,100.388763 L216.569445,108.689114 C215.66046,123.652637 212.784363,138.431893 208.015106,152.646862 C204.335943,163.016615 197.934427,165.631794 192.204956,165.631794 C185.097222,165.631794 182.910227,157.672554 178.843784,143.64155 C174.77734,129.610546 172.738423,110.235481 172.738423,85.6527979 C172.704251,59.1257864 167.327889,47.2551478 171.998034,32.8944039 Z" id="Path" fill="#87006D"></path>
                                <polygon id="Path" fill="#146700" points="222.18501 1.92158806 234.896918 9.88082854 233.757858 62.2981123 265.845174 0.818664735 275.925853 1.11429367 245.319316 76.8407817 287.829028 146.745654 270.652006 169.190712 242.779212 93.4642239 234.646325 100.434245 242.050214 167.14405 222.344479 167.655716"></polygon>
                                <path d="M280.82381,68.1538392 C281.484465,72.5541621 287.806247,78.7282587 289.731258,80.9113646 C293.239563,84.8796145 302.819056,90.7921932 311.373395,90.7921932 C316.487774,90.7921932 328.265652,85.9256861 331.45502,84.8796145 C337.530006,82.8784341 340.567499,79.1527515 340.567499,73.7025668 C340.61358,70.5965956 338.892296,67.732889 336.125165,66.3118435 C333.16361,64.6138722 328.466886,63.0978264 322.034995,61.7637061 L311.054458,59.4896374 C300.256171,57.2155687 298.228645,48.5058856 294.196373,45.8452252 C287.362014,41.3994208 278.545691,40.7058299 278.545691,31.2570744 C278.545691,22.6269836 270.059695,19.5342502 278.124239,13.9741522 C284.958598,9.23271896 305.097175,1.18251573 318.059676,1.18251573 C328.880745,1.18251573 338.110926,3.87349703 345.750221,9.25545964 C353.389515,14.6374223 357.361037,22.4602186 357.664787,32.7238487 L344.053022,31.9847764 C343.677132,26.1859012 334.188763,22.8089091 329.108557,20.3756556 C325.691377,18.7610668 320.371968,13.6785233 315.337323,13.6785233 C309.74454,13.6785233 306.418485,18.9998441 303.069649,21.0919873 C299.914115,22.8677468 297.992651,26.2319756 298.069176,29.8471518 C298.005938,33.1627634 299.947293,36.1907379 302.989915,37.5221337 C305.108566,38.659168 309.600259,39.9894982 316.464993,41.5131243 L334.268498,45.5041149 C342.082448,47.2399873 347.933419,49.5709077 351.82141,52.4968761 C357.896395,57.0450136 360.933888,63.6019117 360.933888,72.1675705 C360.933888,80.9682164 359.920125,91.6677096 350.192554,94.0895928 C296.725086,107.415635 306.908281,112.009254 296.098603,117.614834 C284.878863,123.44782 276.392868,104.857308 271.30127,95.1584051 C267.234827,87.4265715 264.307443,81.1956232 264.307443,71.1783506 L280.82381,68.1538392 Z" id="Path" fill="#5F6100"></path>
                            </g>
                            <g id="Group" opacity="0.69" transform="translate(70.107547, 225.000000)" fill-rule="nonzero">
                                <polygon id="Path" fill="#C60005" points="266.135385 91.9050832 263.860723 2.28505925 244.321382 2.28505925 237.91821 70.3912503 204.503434 2.28505925 180.972061 2.28505925 178.56092 90.3626682 208.393105 92.4192215 197.895542 22.2107759 238.248036 92.4192215"></polygon>
                                <path d="M359.396502,164.524266 C358.840753,162.131207 358.513238,159.690399 358.418398,157.234927 C358.259171,154.553791 358.179558,149.461917 358.179558,141.959306 L358.179558,130.92247 C358.179558,119.390538 357.762537,110.821565 356.928495,105.215553 C356.098243,99.6057329 347.966329,94.9327867 345.964627,91.8708073 C348.353021,88.7402761 356.780642,83.7702723 357.826986,76.2295767 C358.626809,70.4791618 359.116576,64.6895131 359.294142,58.885977 L359.385129,51.6309138 C359.385129,45.7925875 359.07805,40.5712271 358.588997,35.9211315 C358.108301,31.27694 357.379357,26.6620748 356.405322,22.096523 C355.668889,18.0763515 354.298212,14.2000856 352.345052,10.6141002 C350.741416,8.00913269 350.07039,2.34218574 347.136077,2.12510511 L327.278283,2.01085214 L327.02807,75.2470012 C327.153177,78.1147506 327.278283,84.7528477 327.278283,92.0993132 L326.277432,162.684794 C326.277432,162.684794 325.993099,166.226635 326.027219,166.226635 L331.907219,167.014981 C331.907219,167.014981 331.907219,167.014981 331.907219,167.014981 L331.782113,101.422355 L342.416155,106.323807 C344.941029,106.323807 346.669772,108.071877 347.579636,111.568018 C348.489501,115.064159 348.978553,122.045015 349.024046,132.522011 L349.080913,147.797633 C348.979702,153.689833 348.317025,159.558757 347.101957,165.324037 C346.635652,167.483418 345.464201,163.038978 344.304124,166.99213 L358.327411,166.99213 L360.954645,168.888729 C361.068378,166.809326 359.885554,166.477992 359.396502,164.524266 Z M343.348766,79.0744755 L333.601842,79.0744755 L333.601842,34.8699968 L343.610352,34.8699968 C345.473858,34.8666221 347.144945,36.022168 347.807102,37.7720295 C349.111242,40.4683994 349.903582,45.198472 350.184123,51.9622474 L350.27511,59.8457019 C350.161377,67.9576622 349.308379,73.4608466 347.716116,76.355255 C346.909279,78.0360743 345.194149,79.083282 343.337393,79.0287743 L343.348766,79.0744755 Z" id="Shape" fill="#FF340D"></path>
                                <path d="M271.389852,1.65666796 L270.081922,19.125946 L287.938014,17.4807033 L287.642308,25.6726407 L300.255306,25.6726407 L300.016466,12.0879635 L314.176233,12.2364923 L316.018709,1.65666796 L271.389852,1.65666796 Z M284.560142,119.600001 L297.264126,136.520865 L299.800373,36.172488 L286.152405,36.172488 L284.560142,119.600001 Z" id="Shape" fill="#0AEEFF"></path>
                                <path d="M169.462275,58.0405051 L169.462275,2.81062288 L151.083011,2.18223159 L161.819412,55.5954917 C161.819412,61.7651516 157.27009,68.6774559 156.428465,71.5223547 C155.040921,76.5609103 153.209819,85.3241125 148.56951,85.3241125 C143.9292,85.3241125 139.686957,76.5609103 138.333533,71.5223547 C137.446415,68.6736474 137.002856,64.1644639 137.002856,57.9948039 L129.883166,2.01085214 L123.252528,2.1479557 L125.299724,58.0062292 C125.299724,67.5577768 121.546532,87.5748959 123.354888,92.899084 C126.76688,102.656287 139.777943,95.9724887 149.308775,95.9724887 C158.839606,95.9724887 167.619799,89.4257939 170.997671,79.6685909 C172.806027,74.3786787 169.462275,67.5920527 169.462275,58.0405051 Z" id="Path" fill="#004B38"></path>
                                <path d="M104.850518,19.9942685 C100.687887,7.60924732 94.6714077,1.42054517 86.8010793,1.42815501 C78.9307508,1.42815501 69.4795327,5.32418806 65.3282756,17.7092092 C59.7326085,32.3107379 60.380887,56.4866648 60.380887,85.6325955 C60.380887,114.218687 63.1749295,136.101938 68.7630143,151.282348 C72.9142714,163.655944 65.3510222,169.334316 73.1872307,169.334316 C81.0234393,169.334316 91.8849475,163.256058 96.0362046,150.882463 C101.597752,135.698244 113.187152,114.218687 113.187152,85.6325955 C113.187152,56.4904732 110.408274,34.6110308 104.850518,19.9942685 Z M97.6625875,127.094996 C94.978487,136.814114 91.3579843,141.673674 86.8010793,141.673674 C82.2517564,141.673674 78.6009249,136.806498 75.8940778,127.094996 C73.1872307,117.383494 67.1025115,103.364655 67.1025115,85.4497908 C67.1025115,67.5349263 73.1417375,53.8931225 75.8485846,44.1816207 C78.5554317,34.4701188 82.2062632,29.6029426 86.755586,29.6029426 C91.3049088,29.6029426 94.9329938,34.4815441 97.6170942,44.2273219 C100.301195,53.9730996 101.631872,67.7862828 101.631872,85.6325955 C101.631872,103.478908 100.335315,117.372069 97.6625875,127.094996 Z" id="Shape" fill="#FF87FB"></path>
                                <path d="M39.3061491,131.790792 C37.1452208,139.331488 34.0137702,143.101836 29.9117975,143.101836 C25.8098248,143.101836 22.5039835,138.706905 19.9942738,129.917044 C17.4011598,121.130991 13.0565565,108.494613 13.0565565,90.8311054 C13.0565565,73.1675973 17.3329199,58.9431035 19.7895542,49.2887281 C22.2461886,39.6343528 24.5435966,39.6686287 28.8085867,39.6686287 C33.0735768,39.6686287 37.2362072,38.2404666 39.3743889,45.0842191 C40.8861789,50.6915973 41.8686258,56.4296079 42.3087022,62.2221635 L54.2847945,62.2221635 C54.0906367,52.3173233 52.7780983,42.4666165 50.3723768,32.8591521 C45.9481604,15.4812764 40.5344663,-2.10225451 32.2888187,2.01085214 C25.5671942,5.35846395 7.5973691,22.1193736 2.97980644,35.0756596 C-2.33152794,49.9285447 3.85555108,62.2907153 3.85555108,89.7685528 C3.85555108,115.193645 6.18707902,135.199339 10.8501349,149.785634 C15.5131908,164.250059 18.0266916,172.521974 26.1586062,172.521974 C32.7551242,172.521974 40.0909073,169.825604 44.2990309,159.0744 C49.7713351,144.461055 53.0857433,129.121989 54.1369415,113.544594 L39.8975611,104.964197 C39.1355495,113.110433 40.488973,127.734812 39.3061491,131.790792 Z" id="Path" fill="#0700CB"></path>
                                <polygon id="Path" fill="#FAA5FF" points="396.086791 0.868322517 394.198822 51.7223162 393.800756 62.6906006 393.36857 73.9102416 389.956578 62.2907153 386.828919 51.7223162 374.102188 8.77462754 360.533833 4.57011851 373.863349 51.9622474 376.331356 60.7483003 381.290118 78.4118083 380.289267 168.340315 393.050118 168.043258 398.441065 105.786818 405.265049 63.513222 407.073405 52.213604 415.330426 0.719793665"></polygon>
                            </g>
                            <polygon id="Path" fill="#000000" fill-rule="nonzero" opacity="0.5" points="507.167421 288 500.107547 318.581459 512.551875 316.10679 522.107547 342 521.703135 307.411394 509.998303 309.806601"></polygon>
                            <g id="Group" opacity="0.69" transform="translate(947.107547, 230.000000)" fill-rule="nonzero">
                                <path d="M1.43679458,80.9357255 C3.22950524,74.2288457 12.3414995,70.886735 19.0441821,63.3981411 C24.8562186,56.8725283 25.4956568,51.2419214 27.2084376,48.4209534 C29.8347017,44.0252281 34.9616258,39.165006 34.9616258,33.94225 C34.9616258,29.6824749 30.3942101,26.1930847 28.8983814,23.3721167 C27.4025528,20.5511487 25.2330304,19.1463292 22.4240697,19.1463292 C18.61789,19.1463292 16.0068506,21.3895086 14.5909518,25.8758675 C13.6100948,29.9189063 13.1345529,34.0663627 13.1750529,38.2246834 L0.0779884063,41.9973033 C0.283522113,33.4437656 2.11048839,22.7376821 3.88036197,17.4809385 C7.30592375,7.44327711 11.462272,0.1019627 20.0604321,0.1019627 C26.9115556,0.1019627 34.0367241,5.37003554 38.0560499,11.272543 C42.0753757,17.1750504 44.0736201,24.9695323 44.0736201,34.6786472 C44.2069452,41.5277763 42.7496224,48.3154562 39.814505,54.516057 C37.9532831,58.356652 32.7806848,62.7523773 28.5215697,67.4653199 L25.5870051,72.9713057 C22.4126512,76.4909071 20.2469349,79.0361982 19.0898562,80.607179 C17.8623037,82.2983467 16.8712996,84.1467034 16.1438731,86.1018357 L43.4113448,82.1479487 L42.7833252,103.004986 L0.203592338,103.50347 C0.31777773,96.2981057 -0.42442732,86.9062081 1.43679458,80.9357255 Z" id="Path" fill="#00615D"></path>
                                <path d="M51.7126228,56.917845 C53.3340554,52.6807284 59.7056003,50.2336236 62.8799542,48.0924069 C59.7741116,45.101501 52.1008532,41.3628687 51.164533,37.8961369 C50.2698171,34.7115766 49.7976726,31.4248098 49.7600526,28.1190469 C49.7600526,21.3215335 51.2330442,10.2189284 54.7613728,5.46066905 C58.2897015,0.702409712 62.9027913,1.04228538 69.3200104,1.04228538 C75.7372294,1.04228538 85.1461057,2.17520427 88.6630158,6.91080523 C92.1799259,11.6464062 100.766667,17.9567644 100.766667,24.708961 C100.766667,27.7451836 91.8487883,32.3335051 88.7429456,37.8961369 C86.9273979,41.1476141 85.7969625,44.3990913 82.7025383,46.959488 C85.9717951,49.6557446 88.4455423,53.1787926 89.8619624,57.155758 C91.5133523,61.698628 92.3256445,66.4997036 92.2598557,71.3285733 C92.2598557,79.1457137 90.2616113,85.799724 86.2651226,91.2906042 C82.2572153,96.7852608 76.5022715,98.6092602 69.3200104,98.6092602 C62.1377492,98.6092602 56.417061,109.496611 52.7288728,104.001954 C49.0406847,98.5072975 47.6362043,79.1457137 47.6362043,71.3285733 C47.6362043,66.0944881 50.0797717,61.1776201 51.7126228,56.917845 Z M63.1996733,80.7091417 C64.6571071,83.0424092 67.2270344,84.4619596 69.9937042,84.4619596 C72.7603739,84.4619596 75.3303013,83.0424092 76.787735,80.7091417 C78.4320047,78.1827326 79.242721,74.6366965 79.242721,70.0597042 C79.242721,65.4827119 78.4091676,61.7214211 76.7420609,59.2629872 C75.2757996,56.9710076 72.7298109,55.5824204 69.9937042,55.5824204 C67.2575975,55.5824204 64.7116087,56.9710076 63.2453475,59.2629872 C61.5782408,61.7251975 60.7446874,65.3241032 60.7446874,70.0597042 C60.7446874,74.6518021 61.563016,78.2091674 63.1996733,80.7318001 L63.1996733,80.7091417 Z M63.9989711,38.3946212 C65.2782789,40.4357477 67.5489181,41.6547967 69.9708671,41.6007817 C72.3996165,41.6831234 74.6836349,40.4568915 75.9427631,38.3946212 C77.4457081,35.9016398 78.1800617,33.0265948 78.0551929,30.1243133 C78.0551929,26.4536561 84.9748277,20.1206395 83.5703473,18.0473979 C82.165867,15.9741564 71.4781143,14.9998461 68.9089429,14.9998461 C66.3397716,14.9998461 65.4833812,19.429559 63.9989711,21.5028005 C62.4306509,24.0990258 61.6828959,27.1021575 61.8522857,30.1243133 C61.7243301,33.0385615 62.4714704,35.9248762 63.9989711,38.4172796 L63.9989711,38.3946212 Z" id="Shape" fill="#420061"></path>
                                <polygon id="Path" fill="#00770B" points="114.788634 0.781714034 131.996372 0.781714034 99.4992096 118.752558 91.334954 112.15897"></polygon>
                                <path d="M176.608605,22.6583778 C179.897144,37.601578 169.597622,65.8452459 169.597622,93.3411874 C169.597622,120.837129 168.878254,139.575607 165.589715,154.439503 C162.301175,169.303399 156.591906,176.735347 148.381976,176.735347 C140.172046,176.735347 136.107046,163.808742 132.818507,148.944847 C129.529968,134.080951 124.688507,119.330347 124.688507,91.8230761 C124.550476,70.1304064 126.728338,48.4842297 131.185656,27.2466993 C134.474195,12.3148283 140.560277,1.31418591 148.735951,1.31418591 C156.911625,1.31418591 173.320066,7.71517764 176.608605,22.6583778 Z M140.948507,134.817348 C142.158872,144.968301 144.636695,150.043778 148.381976,150.043778 C152.127257,150.043778 154.586049,144.968301 155.758352,134.817348 C156.900206,124.621078 160.919532,108.307046 160.919532,89.1493875 C160.983752,72.7153394 160.194827,56.2889155 158.555895,39.9353909 C157.414041,30.2829219 152.127257,31.8010333 148.381976,31.8010333 C144.636695,31.8010333 142.158872,36.6272677 140.948507,46.2797367 C139.738142,55.9322056 139.132959,70.7961015 139.132959,90.860095 C139.132959,110.036635 139.738142,124.689053 140.948507,134.817348 Z" id="Shape" fill="#8A6400"></path>
                                <path d="M183.847959,97.2044408 C186.268689,89.7158469 188.027144,80.8790796 192.697327,77.0951305 C188.281722,72.2100671 185.179166,66.2989934 183.676681,59.9087509 C182.283619,53.734343 184.190515,43.243514 184.190515,37.8734785 C184.190515,25.909855 181.998156,18.7158201 187.239265,10.2869035 C192.480375,1.85798698 201.729391,1.94862049 211.27529,1.94862049 C220.821189,1.94862049 230.081624,-0.237912967 235.254223,8.20233277 C240.426821,16.6425785 241.580093,30.645456 241.580093,42.5977503 C241.580093,47.9677858 239.010922,55.1278332 237.629279,61.290912 C236.247636,67.4539907 227.683731,71.8383868 223.070641,76.3813916 C227.786498,80.9130671 239.307804,83.4734638 241.694279,90.9620577 C244.080753,98.4506516 244.743029,109.859145 244.743029,119.092434 C244.743029,132.936703 241.766596,144.722835 235.813731,154.450832 C229.853254,164.171276 215.123338,171.637212 204.447004,171.637212 C193.77067,171.637212 192.103563,164.171276 186.611245,154.450832 C181.118928,144.730388 174.313479,129.266045 174.313479,115.421777 C174.370571,106.188488 181.427229,104.693035 183.847959,97.2044408 Z M201.569532,135.780329 C204.013099,140.244029 207.278801,149.250735 211.617846,149.250735 C215.956891,149.250735 222.728085,143.835382 225.160234,139.360353 C227.592383,134.885323 225.445697,125.028929 225.445697,116.939888 C225.445697,108.53363 224.204883,102.159073 221.723254,97.816217 C219.241624,93.4733612 215.895992,91.298157 211.686358,91.2906042 C207.461498,91.2906042 202.243226,89.7271761 199.765403,94.0775847 C197.28758,98.4279932 197.915599,108.53363 197.915599,116.939888 C197.915599,125.028929 199.133577,131.309076 201.569532,135.780329 L201.569532,135.780329 Z M202.711386,60.871732 C204.842846,64.6481283 207.804054,66.5363264 211.595009,66.5363264 C215.385964,66.5363264 218.343366,64.6481283 220.467214,60.871732 C222.553001,57.0953357 223.5997,52.2124553 223.607313,46.2230907 C223.607313,39.7201363 222.560613,34.6333305 220.467214,30.9626733 C218.377622,27.2920161 215.043408,21.2082416 211.218197,21.2082416 C207.392987,21.2082416 200.484771,23.7912967 198.349504,27.4619539 C196.214237,31.1326111 199.491358,39.7201363 199.491358,46.2230907 C199.537032,52.2049025 200.629405,57.0877829 202.768478,60.871732 L202.711386,60.871732 Z" id="Shape" fill="#B500A1"></path>
                            </g>
                            <ellipse id="Oval" fill="#000000" fill-rule="nonzero" opacity="0.49" cx="927.107547" cy="289" rx="11" ry="9"></ellipse>
                            <rect id="Rectangle" stroke="#000000" stroke-width="3" stroke-linecap="round" stroke-linejoin="round" x="336.107547" y="255" width="50" height="6" rx="3"></rect>
                        </g>
                    </g>
                </g>
            </g>
        </g>
    </g>
</svg>