<?xml version="1.0" encoding="UTF-8"?>
<svg width="1920px" height="676px" viewBox="0 0 1920 676" version="1.1" xmlns="http://www.w3.org/2000/svg" xmlns:xlink="http://www.w3.org/1999/xlink">
    <!-- Generator: Sketch 55.2 (78181) - https://sketchapp.com -->
    <title>Group 3</title>
    <desc>Created with Sketch.</desc>
    <defs>
        <polygon id="path-1" points="-0.0001 0.6624 766.9999 0.6624 766.9999 346 -0.0001 346"></polygon>
        <polygon id="path-3" points="0.0004 0.6624 767 0.6624 767 346 0.0004 346"></polygon>
        <polygon id="path-5" points="-0.0001 0.6624 766.9999 0.6624 766.9999 346 -0.0001 346"></polygon>
        <polygon id="path-7" points="0.0004 0.6624 767 0.6624 767 346 0.0004 346"></polygon>
    </defs>
    <g id="Page-1" stroke="none" stroke-width="1" fill="none" fill-rule="evenodd">
        <g id="Djibouti" transform="translate(0.000000, -937.000000)">
            <g id="Group-3" transform="translate(-180.000000, 931.000000)">
                <g id="Gras-achter-Copy-4" opacity="0.494349888" transform="translate(1140.000000, 177.500000) scale(-1, 1) translate(-1140.000000, -177.500000) ">
                    <path d="M767,38.7305 L767,352.2085 L0,352.2085 L0,12.1375 C2.514,8.0905 5.024,4.0475 7.534,0.0005 C7.502,12.3985 7.474,24.7925 7.442,37.1895 C12.169,27.0455 19.443,18.0985 28.406,11.3975 C25.396,25.1715 23.479,39.1835 22.682,53.2575 C25.276,50.7405 27.87,48.2265 30.464,45.7085 C31.773,50.1035 33.082,54.5025 34.391,58.9025 C36.577,49.0545 41.156,39.7485 47.625,32.0135 C46.176,40.1715 45.732,48.5105 46.304,56.7775 C50.96,53.4945 60.403,52.8535 59.442,58.4705 C66.36,46.0045 70.063,31.7695 70.095,17.5095 C71.2,27.8985 72.305,38.2905 73.41,48.6785 C78.285,42.9065 83.161,37.1335 88.037,31.3575 C88.461,36.9695 88.886,42.5825 89.306,48.1945 C98.017,36.8805 106.039,25.0405 113.316,12.7585 C113.857,26.5975 114.397,40.4405 114.938,54.2795 C118.252,50.4885 121.567,46.6975 124.882,42.9065 C126.479,47.0375 128.076,51.1645 129.673,55.2955 C132.78,43.4625 137.379,32.0215 143.328,21.3335 C144.465,32.2775 145.602,43.2265 146.739,54.1705 C148.364,51.6175 149.989,49.0625 151.619,46.5085 C154.024,50.7515 156.435,54.9915 158.844,59.2345 C163.056,50.7365 167.271,42.2375 171.482,33.7355 C171.742,47.2095 174.701,60.6245 180.125,72.9585 C184.268,68.9745 188.407,64.9955 192.551,61.0115 C193.912,64.7625 195.269,68.5095 196.63,72.2605 C197.475,68.2935 196.109,64.7475 196.954,60.7805 C198.555,63.1815 197.755,61.9815 198.431,63.4745 C199.288,65.3635 202.09,61.8845 203.167,60.1115 C206.954,53.8545 210.745,47.5975 214.532,41.3405 C215.725,50.7085 218.055,59.9275 221.453,68.7345 C223.899,65.5475 226.345,62.3615 228.795,59.1705 C230.829,62.6815 233.759,65.6645 237.229,67.7655 C241.957,60.3515 246.689,52.9415 251.417,45.5325 C254.787,53.3905 258.158,61.2445 261.533,69.1025 C264.827,67.7055 268.834,68.1455 271.745,70.2275 C277.974,61.9415 280.832,51.1965 279.547,40.9085 C283.954,48.9185 288.362,56.9325 292.769,64.9435 C294.49,57.2525 296.212,49.5675 297.933,41.8765 C301.224,49.6395 304.514,57.3975 307.805,65.1595 C316.528,49.4225 328.849,35.6965 343.557,25.3325 C339.109,34.8155 336.647,45.2235 336.375,55.6925 C339.974,52.0575 343.577,48.4185 347.18,44.7795 C349.165,48.6675 351.151,52.5535 353.136,56.4445 C363.432,54.5835 374.609,60.8355 378.416,70.5805 C384.857,59.5235 388.956,47.1015 390.365,34.3785 C397.731,43.2985 403.111,53.8425 406.01,65.0425 C408.536,61.8925 410.405,58.2215 411.458,54.3275 L416.79,63.7665 C418.76,56.8485 419.192,49.4955 418.051,42.3895 C424.184,48.6345 429.096,56.0685 432.438,64.1585 C434.211,61.4485 435.985,58.7385 437.758,56.0285 C440.801,59.1305 443.847,62.2335 446.89,65.3355 C449.752,58.7345 452.618,52.1285 455.48,45.5285 C458.238,51.4045 461,57.2855 463.763,63.1625 C472.213,53.2745 480.664,43.3905 489.115,33.5025 C485.36,43.9345 483.738,55.1275 484.375,66.1965 C486.765,61.5765 490.384,57.6055 494.763,54.7995 C496.268,59.1195 497.77,63.4385 499.274,67.7575 C504.114,57.3295 507.773,46.3565 510.159,35.1125 C515.459,46.7645 520.755,58.4175 526.056,70.0715 C529.734,67.4575 532.805,63.9865 534.951,60.0195 C539.75,63.1695 544.546,66.3245 549.346,69.4745 C556.015,59.5065 559.73,47.5855 559.902,35.5925 C563.693,43.1945 567.488,50.7925 571.279,58.3905 C572.74,61.3205 574.201,64.2475 575.662,67.1725 C579.053,63.4825 581.695,59.1025 583.376,54.3785 C586.415,57.3535 590.198,59.5595 594.281,60.7485 C596.595,55.1755 598.52,49.4395 600.038,43.5985 C601.287,38.7945 602.267,33.9185 602.956,28.9995 C605.421,32.0975 607.888,35.1965 610.354,38.2935 C613.096,41.7415 615.842,45.1915 618.584,48.6385 C619.524,43.5185 620.121,38.3385 620.365,33.1425 C620.658,27.1295 620.478,21.1005 619.837,15.1165 C623.2,19.4435 626.378,23.9155 629.364,28.5145 C634.288,36.0925 638.684,44.0145 642.511,52.2015 C643.567,47.9655 644.625,43.7305 645.685,39.4955 C648.459,43.0985 651.237,46.6975 654.016,50.2995 C656.642,39.1115 656.37,27.2695 653.331,16.1895 C652.458,13.0105 651.357,9.8925 650.033,6.8705 C652.495,9.2315 654.872,11.6815 657.158,14.2195 C665.417,23.3825 672.474,33.6265 678.074,44.6195 L690.396,32.8265 C693.15,38.5835 695.9,44.3385 698.655,50.0955 C703.018,48.3665 706.961,45.5875 710.056,42.0615 C715.676,48.8945 721.292,55.7235 726.913,62.5575 C728.53,48.3705 730.147,34.1835 731.765,20.0005 C739.186,29.8325 745.239,40.7005 749.683,52.1895 C753.594,43.4505 757.504,34.7115 761.412,25.9765 C763.537,30.1085 765.407,34.3715 767,38.7305" id="Fill-1" fill="#476735"></path>
                    <g id="Group-5" transform="translate(759.000000, 8.208000)">
                        <mask id="mask-2" fill="white">
                            <use xlink:href="#path-1"></use>
                        </mask>
                        <g id="Clip-4"></g>
                        <path d="M7.4419,30.9814 C12.1699,20.8374 19.4429,11.8904 28.4059,5.1894 C25.3959,18.9634 23.4789,32.9754 22.6819,47.0494 C25.2759,44.5324 27.8699,42.0184 30.4639,39.5004 C31.7729,43.8954 33.0819,48.2944 34.3909,52.6944 C36.5769,42.8464 41.1559,33.5404 47.6249,25.8054 C46.1759,33.9634 45.7319,42.3024 46.3039,50.5694 C50.9599,47.2864 60.4029,46.6454 59.4419,52.2624 C66.3599,39.7964 70.0629,25.5614 70.0949,11.3014 C71.1999,21.6904 72.3049,32.0824 73.4099,42.4704 C78.2849,36.6984 83.1609,30.9254 88.0369,25.1494 C88.4619,30.7614 88.8859,36.3744 89.3059,41.9864 C98.0169,30.6724 106.0389,18.8324 113.3169,6.5504 C113.8569,20.3894 114.3979,34.2324 114.9379,48.0714 C118.2529,44.2804 121.5669,40.4894 124.8819,36.6984 C126.4789,40.8294 128.0759,44.9564 129.6729,49.0874 C132.7799,37.2544 137.3789,25.8134 143.3279,15.1254 C144.4649,26.0694 145.6019,37.0184 146.7389,47.9624 C148.3639,45.4094 149.9889,42.8544 151.6189,40.3004 C154.0249,44.5444 156.4349,48.7834 158.8439,53.0264 C163.0559,44.5284 167.2709,36.0294 171.4819,27.5274 C171.7419,41.0014 174.7009,54.4164 180.1249,66.7504 C184.2679,62.7664 188.4069,58.7874 192.5509,54.8034 C193.9119,58.5544 195.2689,62.3014 196.6299,66.0524 C197.4749,62.0854 196.1089,58.5394 196.9539,54.5724 C198.5549,56.9734 197.7549,55.7734 198.4309,57.2664 C199.2879,59.1554 202.0899,55.6764 203.1669,53.9034 C206.9539,47.6464 210.7449,41.3894 214.5319,35.1324 C215.7249,44.5004 218.0549,53.7194 221.4529,62.5264 C223.8999,59.3394 226.3449,56.1534 228.7949,52.9624 C230.8279,56.4734 233.7589,59.4564 237.2299,61.5574 C241.9569,54.1434 246.6899,46.7334 251.4169,39.3244 C254.7869,47.1824 258.1579,55.0364 261.5319,62.8944 C264.8269,61.4974 268.8339,61.9374 271.7439,64.0194 C277.9739,55.7334 280.8319,44.9884 279.5469,34.7004 C283.9539,42.7104 288.3609,50.7244 292.7689,58.7354 C294.4899,51.0444 296.2119,43.3594 297.9329,35.6684 C301.2239,43.4314 304.5149,51.1894 307.8049,58.9514 C316.5269,43.2144 328.8499,29.4884 343.5569,19.1244 C339.1089,28.6074 336.6479,39.0154 336.3749,49.4844 C339.9739,45.8494 343.5769,42.2104 347.1799,38.5714 C349.1649,42.4594 351.1499,46.3454 353.1369,50.2364 C363.4329,48.3754 374.6089,54.6274 378.4159,64.3724 C384.8579,53.3154 388.9559,40.8934 390.3649,28.1704 C397.7319,37.0904 403.1109,47.6344 406.0099,58.8354 C408.5349,55.6844 410.4049,52.0134 411.4579,48.1194 L416.7899,57.5584 C418.7599,50.6404 419.1919,43.2874 418.0509,36.1814 C424.1839,42.4264 429.0959,49.8604 432.4389,57.9504 L437.7589,49.8204 C440.8009,52.9224 443.8479,56.0254 446.8899,59.1274 C449.7519,52.5264 452.6179,45.9204 455.4809,39.3204 C458.2379,45.1964 461.0009,51.0774 463.7629,56.9544 C472.2139,47.0664 480.6639,37.1824 489.1139,27.2944 C485.3589,37.7264 483.7379,48.9194 484.3749,59.9884 C486.7649,55.3684 490.3839,51.3974 494.7629,48.5914 C496.2689,52.9114 497.7699,57.2304 499.2749,61.5494 C504.1139,51.1214 507.7739,40.1484 510.1589,28.9044 C515.4589,40.5564 520.7549,52.2104 526.0559,63.8634 C529.7339,61.2494 532.8049,57.7784 534.9499,53.8114 C539.7499,56.9614 544.5459,60.1164 549.3459,63.2664 C556.0149,53.2984 559.7299,41.3774 559.9019,29.3844 C563.6929,36.9864 567.4879,44.5844 571.2789,52.1824 C572.7399,55.1124 574.2009,58.0394 575.6619,60.9644 C579.0529,57.2744 581.6949,52.8944 583.3759,48.1704 C586.4149,51.1454 590.1969,53.3514 594.2809,54.5404 C596.5949,48.9674 598.5209,43.2314 600.0369,37.3904 C601.2859,32.5864 602.2679,27.7104 602.9559,22.7914 C605.4219,25.8894 607.8879,28.9884 610.3539,32.0854 C613.0959,35.5334 615.8419,38.9834 618.5839,42.4304 C619.5249,37.3104 620.1209,32.1304 620.3649,26.9344 C620.6569,20.9214 620.4779,14.8924 619.8369,8.9084 C623.1989,13.2354 626.3779,17.7074 629.3639,22.3064 C634.2879,29.8844 638.6839,37.8064 642.5109,45.9934 C643.5669,41.7574 644.6239,37.5224 645.6859,33.2874 C648.4589,36.8904 651.2369,40.4894 654.0159,44.0914 C656.6419,32.9034 656.3689,21.0614 653.3309,9.9814 C652.4579,6.8024 651.3579,3.6844 650.0319,0.6624 C652.4939,3.0234 654.8719,5.4734 657.1579,8.0114 C665.4169,17.1744 672.4739,27.4184 678.0739,38.4114 L690.3969,26.6184 C693.1499,32.3754 695.8999,38.1304 698.6539,43.8874 C703.0179,42.1584 706.9609,39.3794 710.0559,35.8534 C715.6759,42.6864 721.2919,49.5154 726.9129,56.3494 C728.5299,42.1624 730.1479,27.9754 731.7649,13.7924 C739.1869,23.6244 745.2389,34.4924 749.6829,45.9814 C753.5939,37.2424 757.5049,28.5034 761.4119,19.7684 C763.5369,23.9004 765.4069,28.1634 766.9999,32.5224 L766.9999,346.0004 L-0.0001,346.0004" id="Fill-3" fill="#476735" mask="url(#mask-2)"></path>
                    </g>
                    <g id="Group-8" transform="translate(1513.000000, 8.208000)">
                        <mask id="mask-4" fill="white">
                            <use xlink:href="#path-3"></use>
                        </mask>
                        <g id="Clip-7"></g>
                        <path d="M7.4414,30.9814 C12.1704,20.8374 19.4434,11.8904 28.4064,5.1894 C25.3954,18.9634 23.4784,32.9754 22.6814,47.0494 C25.2754,44.5324 27.8704,42.0184 30.4634,39.5004 C31.7724,43.8954 33.0824,48.2944 34.3904,52.6944 C36.5764,42.8464 41.1564,33.5404 47.6254,25.8054 C46.1754,33.9634 45.7314,42.3024 46.3044,50.5694 C50.9604,47.2864 60.4034,46.6454 59.4424,52.2624 C66.3604,39.7964 70.0624,25.5614 70.0944,11.3014 C71.1994,21.6904 72.3044,32.0824 73.4094,42.4704 C78.2854,36.6984 83.1614,30.9254 88.0374,25.1494 C88.4614,30.7614 88.8854,36.3744 89.3054,41.9864 C98.0164,30.6724 106.0394,18.8324 113.3164,6.5504 C113.8574,20.3894 114.3974,34.2324 114.9374,48.0714 C118.2534,44.2804 121.5674,40.4894 124.8814,36.6984 C126.4784,40.8294 128.0764,44.9564 129.6734,49.0874 C132.7804,37.2544 137.3794,25.8134 143.3284,15.1254 C144.4644,26.0694 145.6014,37.0184 146.7394,47.9624 C148.3644,45.4094 149.9894,42.8544 151.6184,40.3004 C154.0244,44.5444 156.4344,48.7834 158.8444,53.0264 C163.0554,44.5284 167.2704,36.0294 171.4824,27.5274 C171.7424,41.0014 174.7004,54.4164 180.1254,66.7504 C184.2684,62.7664 188.4074,58.7874 192.5504,54.8034 C193.9124,58.5544 195.2684,62.3014 196.6294,66.0524 C197.4744,62.0854 196.1094,58.5394 196.9544,54.5724 C198.5554,56.9734 197.7544,55.7734 198.4314,57.2664 C199.2884,59.1554 202.0894,55.6764 203.1674,53.9034 C206.9544,47.6464 210.7454,41.3894 214.5324,35.1324 C215.7244,44.5004 218.0544,53.7194 221.4534,62.5264 C223.8994,59.3394 226.3444,56.1534 228.7954,52.9624 C230.8284,56.4734 233.7584,59.4564 237.2294,61.5574 C241.9574,54.1434 246.6894,46.7334 251.4174,39.3244 C254.7874,47.1824 258.1584,55.0364 261.5324,62.8944 C264.8274,61.4974 268.8344,61.9374 271.7444,64.0194 C277.9734,55.7334 280.8324,44.9884 279.5464,34.7004 C283.9544,42.7104 288.3614,50.7244 292.7684,58.7354 C294.4904,51.0444 296.2124,43.3594 297.9324,35.6684 C301.2234,43.4314 304.5144,51.1894 307.8044,58.9514 C316.5274,43.2144 328.8494,29.4884 343.5564,19.1244 C339.1094,28.6074 336.6474,39.0154 336.3754,49.4844 C339.9734,45.8494 343.5774,42.2104 347.1794,38.5714 C349.1654,42.4594 351.1504,46.3454 353.1364,50.2364 C363.4324,48.3754 374.6094,54.6274 378.4164,64.3724 C384.8574,53.3154 388.9564,40.8934 390.3654,28.1704 C397.7314,37.0904 403.1114,47.6344 406.0094,58.8354 C408.5354,55.6844 410.4054,52.0134 411.4584,48.1194 L416.7904,57.5584 C418.7594,50.6404 419.1914,43.2874 418.0504,36.1814 C424.1834,42.4264 429.0954,49.8604 432.4384,57.9504 L437.7584,49.8204 C440.8004,52.9224 443.8474,56.0254 446.8894,59.1274 C449.7524,52.5264 452.6184,45.9204 455.4804,39.3204 C458.2384,45.1964 461.0014,51.0774 463.7624,56.9544 C472.2134,47.0664 480.6644,37.1824 489.1144,27.2944 C485.3594,37.7264 483.7384,48.9194 484.3754,59.9884 C486.7644,55.3684 490.3834,51.3974 494.7624,48.5914 C496.2684,52.9114 497.7694,57.2304 499.2744,61.5494 C504.1144,51.1214 507.7734,40.1484 510.1594,28.9044 C515.4594,40.5564 520.7544,52.2104 526.0554,63.8634 C529.7344,61.2494 532.8044,57.7784 534.9504,53.8114 C539.7504,56.9614 544.5454,60.1164 549.3454,63.2664 C556.0144,53.2984 559.7294,41.3774 559.9024,29.3844 C563.6934,36.9864 567.4884,44.5844 571.2794,52.1824 C572.7404,55.1124 574.2014,58.0394 575.6624,60.9644 C579.0524,57.2744 581.6954,52.8944 583.3764,48.1704 C586.4154,51.1454 590.1974,53.3514 594.2814,54.5404 C596.5944,48.9674 598.5204,43.2314 600.0374,37.3904 C601.2864,32.5864 602.2674,27.7104 602.9564,22.7914 C605.4214,25.8894 607.8874,28.9884 610.3534,32.0854 C613.0954,35.5334 615.8414,38.9834 618.5844,42.4304 C619.5244,37.3104 620.1214,32.1304 620.3654,26.9344 C620.6574,20.9214 620.4774,14.8924 619.8374,8.9084 C623.1994,13.2354 626.3784,17.7074 629.3644,22.3064 C634.2884,29.8844 638.6834,37.8064 642.5104,45.9934 C643.5674,41.7574 644.6244,37.5224 645.6854,33.2874 C648.4594,36.8904 651.2374,40.4894 654.0154,44.0914 C656.6414,32.9034 656.3694,21.0614 653.3314,9.9814 C652.4584,6.8024 651.3574,3.6844 650.0324,0.6624 C652.4944,3.0234 654.8724,5.4734 657.1584,8.0114 C665.4174,17.1744 672.4734,27.4184 678.0744,38.4114 L690.3964,26.6184 C693.1504,32.3754 695.9004,38.1304 698.6544,43.8874 C703.0174,42.1584 706.9614,39.3794 710.0554,35.8534 C715.6754,42.6864 721.2924,49.5154 726.9134,56.3494 C728.5304,42.1624 730.1474,27.9754 731.7644,13.7924 C739.1864,23.6244 745.2394,34.4924 749.6824,45.9814 C753.5934,37.2424 757.5044,28.5034 761.4124,19.7684 C763.5374,23.9004 765.4074,28.1634 767.0004,32.5224 L767.0004,346.0004 L0.0004,346.0004" id="Fill-6" fill="#476735" mask="url(#mask-4)"></path>
                    </g>
                </g>
                <g id="Gras-Voor-Copy-4" transform="translate(0.000000, 41.000000)">
                    <path d="M767,38.7305 L767,352.2085 L0,352.2085 L0,12.1375 C2.514,8.0905 5.024,4.0475 7.534,0.0005 C7.502,12.3985 7.474,24.7925 7.442,37.1895 C12.169,27.0455 19.443,18.0985 28.406,11.3975 C25.396,25.1715 23.479,39.1835 22.682,53.2575 C25.276,50.7405 27.87,48.2265 30.464,45.7085 C31.773,50.1035 33.082,54.5025 34.391,58.9025 C36.577,49.0545 41.156,39.7485 47.625,32.0135 C46.176,40.1715 45.732,48.5105 46.304,56.7775 C50.96,53.4945 60.403,52.8535 59.442,58.4705 C66.36,46.0045 70.063,31.7695 70.095,17.5095 C71.2,27.8985 72.305,38.2905 73.41,48.6785 C78.285,42.9065 83.161,37.1335 88.037,31.3575 C88.461,36.9695 88.886,42.5825 89.306,48.1945 C98.017,36.8805 106.039,25.0405 113.316,12.7585 C113.857,26.5975 114.397,40.4405 114.938,54.2795 C118.252,50.4885 121.567,46.6975 124.882,42.9065 C126.479,47.0375 128.076,51.1645 129.673,55.2955 C132.78,43.4625 137.379,32.0215 143.328,21.3335 C144.465,32.2775 145.602,43.2265 146.739,54.1705 C148.364,51.6175 149.989,49.0625 151.619,46.5085 C154.024,50.7515 156.435,54.9915 158.844,59.2345 C163.056,50.7365 167.271,42.2375 171.482,33.7355 C171.742,47.2095 174.701,60.6245 180.125,72.9585 C184.268,68.9745 188.407,64.9955 192.551,61.0115 C193.912,64.7625 195.269,68.5095 196.63,72.2605 C197.475,68.2935 196.109,64.7475 196.954,60.7805 C198.555,63.1815 197.755,61.9815 198.431,63.4745 C199.288,65.3635 202.09,61.8845 203.167,60.1115 C206.954,53.8545 210.745,47.5975 214.532,41.3405 C215.725,50.7085 218.055,59.9275 221.453,68.7345 C223.899,65.5475 226.345,62.3615 228.795,59.1705 C230.829,62.6815 233.759,65.6645 237.229,67.7655 C241.957,60.3515 246.689,52.9415 251.417,45.5325 C254.787,53.3905 258.158,61.2445 261.533,69.1025 C264.827,67.7055 268.834,68.1455 271.745,70.2275 C277.974,61.9415 280.832,51.1965 279.547,40.9085 C283.954,48.9185 288.362,56.9325 292.769,64.9435 C294.49,57.2525 296.212,49.5675 297.933,41.8765 C301.224,49.6395 304.514,57.3975 307.805,65.1595 C316.528,49.4225 328.849,35.6965 343.557,25.3325 C339.109,34.8155 336.647,45.2235 336.375,55.6925 C339.974,52.0575 343.577,48.4185 347.18,44.7795 C349.165,48.6675 351.151,52.5535 353.136,56.4445 C363.432,54.5835 374.609,60.8355 378.416,70.5805 C384.857,59.5235 388.956,47.1015 390.365,34.3785 C397.731,43.2985 403.111,53.8425 406.01,65.0425 C408.536,61.8925 410.405,58.2215 411.458,54.3275 L416.79,63.7665 C418.76,56.8485 419.192,49.4955 418.051,42.3895 C424.184,48.6345 429.096,56.0685 432.438,64.1585 C434.211,61.4485 435.985,58.7385 437.758,56.0285 C440.801,59.1305 443.847,62.2335 446.89,65.3355 C449.752,58.7345 452.618,52.1285 455.48,45.5285 C458.238,51.4045 461,57.2855 463.763,63.1625 C472.213,53.2745 480.664,43.3905 489.115,33.5025 C485.36,43.9345 483.738,55.1275 484.375,66.1965 C486.765,61.5765 490.384,57.6055 494.763,54.7995 C496.268,59.1195 497.77,63.4385 499.274,67.7575 C504.114,57.3295 507.773,46.3565 510.159,35.1125 C515.459,46.7645 520.755,58.4175 526.056,70.0715 C529.734,67.4575 532.805,63.9865 534.951,60.0195 C539.75,63.1695 544.546,66.3245 549.346,69.4745 C556.015,59.5065 559.73,47.5855 559.902,35.5925 C563.693,43.1945 567.488,50.7925 571.279,58.3905 C572.74,61.3205 574.201,64.2475 575.662,67.1725 C579.053,63.4825 581.695,59.1025 583.376,54.3785 C586.415,57.3535 590.198,59.5595 594.281,60.7485 C596.595,55.1755 598.52,49.4395 600.038,43.5985 C601.287,38.7945 602.267,33.9185 602.956,28.9995 C605.421,32.0975 607.888,35.1965 610.354,38.2935 C613.096,41.7415 615.842,45.1915 618.584,48.6385 C619.524,43.5185 620.121,38.3385 620.365,33.1425 C620.658,27.1295 620.478,21.1005 619.837,15.1165 C623.2,19.4435 626.378,23.9155 629.364,28.5145 C634.288,36.0925 638.684,44.0145 642.511,52.2015 C643.567,47.9655 644.625,43.7305 645.685,39.4955 C648.459,43.0985 651.237,46.6975 654.016,50.2995 C656.642,39.1115 656.37,27.2695 653.331,16.1895 C652.458,13.0105 651.357,9.8925 650.033,6.8705 C652.495,9.2315 654.872,11.6815 657.158,14.2195 C665.417,23.3825 672.474,33.6265 678.074,44.6195 L690.396,32.8265 C693.15,38.5835 695.9,44.3385 698.655,50.0955 C703.018,48.3665 706.961,45.5875 710.056,42.0615 C715.676,48.8945 721.292,55.7235 726.913,62.5575 C728.53,48.3705 730.147,34.1835 731.765,20.0005 C739.186,29.8325 745.239,40.7005 749.683,52.1895 C753.594,43.4505 757.504,34.7115 761.412,25.9765 C763.537,30.1085 765.407,34.3715 767,38.7305" id="Fill-1" fill="#476735"></path>
                    <g id="Group-5" transform="translate(759.000000, 8.208000)">
                        <mask id="mask-6" fill="white">
                            <use xlink:href="#path-5"></use>
                        </mask>
                        <g id="Clip-4"></g>
                        <path d="M7.4419,30.9814 C12.1699,20.8374 19.4429,11.8904 28.4059,5.1894 C25.3959,18.9634 23.4789,32.9754 22.6819,47.0494 C25.2759,44.5324 27.8699,42.0184 30.4639,39.5004 C31.7729,43.8954 33.0819,48.2944 34.3909,52.6944 C36.5769,42.8464 41.1559,33.5404 47.6249,25.8054 C46.1759,33.9634 45.7319,42.3024 46.3039,50.5694 C50.9599,47.2864 60.4029,46.6454 59.4419,52.2624 C66.3599,39.7964 70.0629,25.5614 70.0949,11.3014 C71.1999,21.6904 72.3049,32.0824 73.4099,42.4704 C78.2849,36.6984 83.1609,30.9254 88.0369,25.1494 C88.4619,30.7614 88.8859,36.3744 89.3059,41.9864 C98.0169,30.6724 106.0389,18.8324 113.3169,6.5504 C113.8569,20.3894 114.3979,34.2324 114.9379,48.0714 C118.2529,44.2804 121.5669,40.4894 124.8819,36.6984 C126.4789,40.8294 128.0759,44.9564 129.6729,49.0874 C132.7799,37.2544 137.3789,25.8134 143.3279,15.1254 C144.4649,26.0694 145.6019,37.0184 146.7389,47.9624 C148.3639,45.4094 149.9889,42.8544 151.6189,40.3004 C154.0249,44.5444 156.4349,48.7834 158.8439,53.0264 C163.0559,44.5284 167.2709,36.0294 171.4819,27.5274 C171.7419,41.0014 174.7009,54.4164 180.1249,66.7504 C184.2679,62.7664 188.4069,58.7874 192.5509,54.8034 C193.9119,58.5544 195.2689,62.3014 196.6299,66.0524 C197.4749,62.0854 196.1089,58.5394 196.9539,54.5724 C198.5549,56.9734 197.7549,55.7734 198.4309,57.2664 C199.2879,59.1554 202.0899,55.6764 203.1669,53.9034 C206.9539,47.6464 210.7449,41.3894 214.5319,35.1324 C215.7249,44.5004 218.0549,53.7194 221.4529,62.5264 C223.8999,59.3394 226.3449,56.1534 228.7949,52.9624 C230.8279,56.4734 233.7589,59.4564 237.2299,61.5574 C241.9569,54.1434 246.6899,46.7334 251.4169,39.3244 C254.7869,47.1824 258.1579,55.0364 261.5319,62.8944 C264.8269,61.4974 268.8339,61.9374 271.7439,64.0194 C277.9739,55.7334 280.8319,44.9884 279.5469,34.7004 C283.9539,42.7104 288.3609,50.7244 292.7689,58.7354 C294.4899,51.0444 296.2119,43.3594 297.9329,35.6684 C301.2239,43.4314 304.5149,51.1894 307.8049,58.9514 C316.5269,43.2144 328.8499,29.4884 343.5569,19.1244 C339.1089,28.6074 336.6479,39.0154 336.3749,49.4844 C339.9739,45.8494 343.5769,42.2104 347.1799,38.5714 C349.1649,42.4594 351.1499,46.3454 353.1369,50.2364 C363.4329,48.3754 374.6089,54.6274 378.4159,64.3724 C384.8579,53.3154 388.9559,40.8934 390.3649,28.1704 C397.7319,37.0904 403.1109,47.6344 406.0099,58.8354 C408.5349,55.6844 410.4049,52.0134 411.4579,48.1194 L416.7899,57.5584 C418.7599,50.6404 419.1919,43.2874 418.0509,36.1814 C424.1839,42.4264 429.0959,49.8604 432.4389,57.9504 L437.7589,49.8204 C440.8009,52.9224 443.8479,56.0254 446.8899,59.1274 C449.7519,52.5264 452.6179,45.9204 455.4809,39.3204 C458.2379,45.1964 461.0009,51.0774 463.7629,56.9544 C472.2139,47.0664 480.6639,37.1824 489.1139,27.2944 C485.3589,37.7264 483.7379,48.9194 484.3749,59.9884 C486.7649,55.3684 490.3839,51.3974 494.7629,48.5914 C496.2689,52.9114 497.7699,57.2304 499.2749,61.5494 C504.1139,51.1214 507.7739,40.1484 510.1589,28.9044 C515.4589,40.5564 520.7549,52.2104 526.0559,63.8634 C529.7339,61.2494 532.8049,57.7784 534.9499,53.8114 C539.7499,56.9614 544.5459,60.1164 549.3459,63.2664 C556.0149,53.2984 559.7299,41.3774 559.9019,29.3844 C563.6929,36.9864 567.4879,44.5844 571.2789,52.1824 C572.7399,55.1124 574.2009,58.0394 575.6619,60.9644 C579.0529,57.2744 581.6949,52.8944 583.3759,48.1704 C586.4149,51.1454 590.1969,53.3514 594.2809,54.5404 C596.5949,48.9674 598.5209,43.2314 600.0369,37.3904 C601.2859,32.5864 602.2679,27.7104 602.9559,22.7914 C605.4219,25.8894 607.8879,28.9884 610.3539,32.0854 C613.0959,35.5334 615.8419,38.9834 618.5839,42.4304 C619.5249,37.3104 620.1209,32.1304 620.3649,26.9344 C620.6569,20.9214 620.4779,14.8924 619.8369,8.9084 C623.1989,13.2354 626.3779,17.7074 629.3639,22.3064 C634.2879,29.8844 638.6839,37.8064 642.5109,45.9934 C643.5669,41.7574 644.6239,37.5224 645.6859,33.2874 C648.4589,36.8904 651.2369,40.4894 654.0159,44.0914 C656.6419,32.9034 656.3689,21.0614 653.3309,9.9814 C652.4579,6.8024 651.3579,3.6844 650.0319,0.6624 C652.4939,3.0234 654.8719,5.4734 657.1579,8.0114 C665.4169,17.1744 672.4739,27.4184 678.0739,38.4114 L690.3969,26.6184 C693.1499,32.3754 695.8999,38.1304 698.6539,43.8874 C703.0179,42.1584 706.9609,39.3794 710.0559,35.8534 C715.6759,42.6864 721.2919,49.5154 726.9129,56.3494 C728.5299,42.1624 730.1479,27.9754 731.7649,13.7924 C739.1869,23.6244 745.2389,34.4924 749.6829,45.9814 C753.5939,37.2424 757.5049,28.5034 761.4119,19.7684 C763.5369,23.9004 765.4069,28.1634 766.9999,32.5224 L766.9999,346.0004 L-0.0001,346.0004" id="Fill-3" fill="#476735" mask="url(#mask-6)"></path>
                    </g>
                    <g id="Group-8" transform="translate(1513.000000, 8.208000)">
                        <mask id="mask-8" fill="white">
                            <use xlink:href="#path-7"></use>
                        </mask>
                        <g id="Clip-7"></g>
                        <path d="M7.4414,30.9814 C12.1704,20.8374 19.4434,11.8904 28.4064,5.1894 C25.3954,18.9634 23.4784,32.9754 22.6814,47.0494 C25.2754,44.5324 27.8704,42.0184 30.4634,39.5004 C31.7724,43.8954 33.0824,48.2944 34.3904,52.6944 C36.5764,42.8464 41.1564,33.5404 47.6254,25.8054 C46.1754,33.9634 45.7314,42.3024 46.3044,50.5694 C50.9604,47.2864 60.4034,46.6454 59.4424,52.2624 C66.3604,39.7964 70.0624,25.5614 70.0944,11.3014 C71.1994,21.6904 72.3044,32.0824 73.4094,42.4704 C78.2854,36.6984 83.1614,30.9254 88.0374,25.1494 C88.4614,30.7614 88.8854,36.3744 89.3054,41.9864 C98.0164,30.6724 106.0394,18.8324 113.3164,6.5504 C113.8574,20.3894 114.3974,34.2324 114.9374,48.0714 C118.2534,44.2804 121.5674,40.4894 124.8814,36.6984 C126.4784,40.8294 128.0764,44.9564 129.6734,49.0874 C132.7804,37.2544 137.3794,25.8134 143.3284,15.1254 C144.4644,26.0694 145.6014,37.0184 146.7394,47.9624 C148.3644,45.4094 149.9894,42.8544 151.6184,40.3004 C154.0244,44.5444 156.4344,48.7834 158.8444,53.0264 C163.0554,44.5284 167.2704,36.0294 171.4824,27.5274 C171.7424,41.0014 174.7004,54.4164 180.1254,66.7504 C184.2684,62.7664 188.4074,58.7874 192.5504,54.8034 C193.9124,58.5544 195.2684,62.3014 196.6294,66.0524 C197.4744,62.0854 196.1094,58.5394 196.9544,54.5724 C198.5554,56.9734 197.7544,55.7734 198.4314,57.2664 C199.2884,59.1554 202.0894,55.6764 203.1674,53.9034 C206.9544,47.6464 210.7454,41.3894 214.5324,35.1324 C215.7244,44.5004 218.0544,53.7194 221.4534,62.5264 C223.8994,59.3394 226.3444,56.1534 228.7954,52.9624 C230.8284,56.4734 233.7584,59.4564 237.2294,61.5574 C241.9574,54.1434 246.6894,46.7334 251.4174,39.3244 C254.7874,47.1824 258.1584,55.0364 261.5324,62.8944 C264.8274,61.4974 268.8344,61.9374 271.7444,64.0194 C277.9734,55.7334 280.8324,44.9884 279.5464,34.7004 C283.9544,42.7104 288.3614,50.7244 292.7684,58.7354 C294.4904,51.0444 296.2124,43.3594 297.9324,35.6684 C301.2234,43.4314 304.5144,51.1894 307.8044,58.9514 C316.5274,43.2144 328.8494,29.4884 343.5564,19.1244 C339.1094,28.6074 336.6474,39.0154 336.3754,49.4844 C339.9734,45.8494 343.5774,42.2104 347.1794,38.5714 C349.1654,42.4594 351.1504,46.3454 353.1364,50.2364 C363.4324,48.3754 374.6094,54.6274 378.4164,64.3724 C384.8574,53.3154 388.9564,40.8934 390.3654,28.1704 C397.7314,37.0904 403.1114,47.6344 406.0094,58.8354 C408.5354,55.6844 410.4054,52.0134 411.4584,48.1194 L416.7904,57.5584 C418.7594,50.6404 419.1914,43.2874 418.0504,36.1814 C424.1834,42.4264 429.0954,49.8604 432.4384,57.9504 L437.7584,49.8204 C440.8004,52.9224 443.8474,56.0254 446.8894,59.1274 C449.7524,52.5264 452.6184,45.9204 455.4804,39.3204 C458.2384,45.1964 461.0014,51.0774 463.7624,56.9544 C472.2134,47.0664 480.6644,37.1824 489.1144,27.2944 C485.3594,37.7264 483.7384,48.9194 484.3754,59.9884 C486.7644,55.3684 490.3834,51.3974 494.7624,48.5914 C496.2684,52.9114 497.7694,57.2304 499.2744,61.5494 C504.1144,51.1214 507.7734,40.1484 510.1594,28.9044 C515.4594,40.5564 520.7544,52.2104 526.0554,63.8634 C529.7344,61.2494 532.8044,57.7784 534.9504,53.8114 C539.7504,56.9614 544.5454,60.1164 549.3454,63.2664 C556.0144,53.2984 559.7294,41.3774 559.9024,29.3844 C563.6934,36.9864 567.4884,44.5844 571.2794,52.1824 C572.7404,55.1124 574.2014,58.0394 575.6624,60.9644 C579.0524,57.2744 581.6954,52.8944 583.3764,48.1704 C586.4154,51.1454 590.1974,53.3514 594.2814,54.5404 C596.5944,48.9674 598.5204,43.2314 600.0374,37.3904 C601.2864,32.5864 602.2674,27.7104 602.9564,22.7914 C605.4214,25.8894 607.8874,28.9884 610.3534,32.0854 C613.0954,35.5334 615.8414,38.9834 618.5844,42.4304 C619.5244,37.3104 620.1214,32.1304 620.3654,26.9344 C620.6574,20.9214 620.4774,14.8924 619.8374,8.9084 C623.1994,13.2354 626.3784,17.7074 629.3644,22.3064 C634.2884,29.8844 638.6834,37.8064 642.5104,45.9934 C643.5674,41.7574 644.6244,37.5224 645.6854,33.2874 C648.4594,36.8904 651.2374,40.4894 654.0154,44.0914 C656.6414,32.9034 656.3694,21.0614 653.3314,9.9814 C652.4584,6.8024 651.3574,3.6844 650.0324,0.6624 C652.4944,3.0234 654.8724,5.4734 657.1584,8.0114 C665.4174,17.1744 672.4734,27.4184 678.0744,38.4114 L690.3964,26.6184 C693.1504,32.3754 695.9004,38.1304 698.6544,43.8874 C703.0174,42.1584 706.9614,39.3794 710.0554,35.8534 C715.6754,42.6864 721.2924,49.5154 726.9134,56.3494 C728.5304,42.1624 730.1474,27.9754 731.7644,13.7924 C739.1864,23.6244 745.2394,34.4924 749.6824,45.9814 C753.5934,37.2424 757.5044,28.5034 761.4124,19.7684 C763.5374,23.9004 765.4074,28.1634 767.0004,32.5224 L767.0004,346.0004 L0.0004,346.0004" id="Fill-6" fill="#476735" mask="url(#mask-8)"></path>
                    </g>
                </g>
                <path d="M2116,365 L2116,665.420622 C2114.311,670.030449 2112.08,674.430284 2109.35,678.520131 C2104.55,675.370249 2099.75,672.210367 2094.95,669.060485 C2092.8,673.030336 2089.73,676.500206 2086.061,679.110108 C2080.76,667.460545 2075.46,655.810982 2070.16,644.151419 C2067.77,655.400998 2064.11,666.370586 2059.27,676.800195 C2057.77,672.480357 2056.27,668.160519 2054.76,663.840681 C2050.38,666.650576 2046.76,670.620427 2044.37,675.240254 C2043.74,664.170669 2045.36,652.981088 2049.11,642.54148 C2040.66,652.431109 2032.21,662.320738 2023.76,672.200368 C2021,666.330588 2018.24,660.450808 2015.48,654.571029 C2012.62,661.170781 2009.75,667.780533 2006.89,674.380286 C2003.85,671.280402 2000.8,668.170519 1997.76,665.070635 C1995.99,667.780533 1994.21,670.490432 1992.439,673.20033 C1989.1,665.110633 1984.18,657.680912 1978.05,651.431146 C1979.189,658.54088 1978.76,665.890604 1976.79,672.810345 C1975.01,669.660463 1973.24,666.520581 1971.46,663.370699 C1970.41,667.260553 1968.54,670.930415 1966.01,674.090297 C1963.11,662.880717 1957.73,652.341112 1950.37,643.421447 C1948.96,656.14097 1944.86,668.570504 1938.42,679.620089 C1934.61,669.880455 1923.43,663.630689 1913.14,665.490619 C1911.15,661.600765 1909.17,657.710911 1907.18,653.821057 C1903.58,657.46092 1899.97,661.100784 1896.38,664.730648 C1896.65,654.27104 1899.11,643.86143 1903.561,634.371786 C1888.85,644.741397 1876.53,658.470882 1867.8,674.200293 C1864.51,666.440584 1861.22,658.680875 1857.93,650.921166 C1856.21,658.610877 1854.49,666.300589 1852.77,673.9903 C1848.36,665.980601 1843.95,657.960902 1839.55,649.951202 C1840.83,660.240816 1837.97,670.980413 1831.74,679.270102 C1828.83,677.19018 1824.83,676.750197 1821.53,678.140145 C1818.16,670.290439 1814.79,662.430734 1811.42,654.571029 C1806.689,661.980751 1801.96,669.390473 1797.23,676.810195 C1793.76,674.710273 1790.83,671.720386 1788.79,668.210517 C1786.35,671.400398 1783.9,674.590278 1781.45,677.780158 C1778.05,668.970489 1775.72,659.750834 1774.53,650.381186 C1770.74,656.640951 1766.95,662.900716 1763.17,669.150482 C1762.09,670.930415 1759.29,674.410285 1758.43,672.520356 C1757.75,671.020412 1758.561,672.220367 1756.95,669.820457 C1756.11,673.790308 1757.47,677.340175 1756.63,681.300026 C1755.27,677.550167 1753.91,673.810307 1752.55,670.050448 C1748.41,674.040299 1744.27,678.020149 1740.12,682 C1734.7,669.670462 1731.74,656.250966 1731.48,642.781471 C1727.27,651.281152 1723.061,659.780833 1718.84,668.280515 C1716.43,664.030674 1714.02,659.790833 1711.62,655.550992 C1709.99,658.100896 1708.36,660.6608 1706.74,663.210705 C1705.6,652.271115 1704.47,641.321526 1703.33,630.381936 C1697.38,641.061535 1692.78,652.501106 1689.67,664.340662 C1688.08,660.210817 1686.48,656.080972 1684.88,651.951127 C1681.57,655.740985 1678.25,659.530843 1674.939,663.320701 C1674.4,649.48122 1673.86,635.641739 1673.32,621.802258 C1666.04,634.081797 1658.02,645.921353 1649.311,657.240929 C1648.89,651.621139 1648.46,646.01135 1648.04,640.40156 C1643.16,646.181343 1638.29,651.951127 1633.41,657.720911 C1632.3,647.3313 1631.2,636.94169 1630.09,626.55208 C1630.061,640.811545 1626.36,655.051011 1619.439,667.510543 C1620.4,661.900754 1610.96,662.54073 1606.3,665.820607 C1605.73,657.550917 1606.18,649.21123 1607.63,641.061535 C1601.16,648.791245 1596.58,658.100896 1594.39,667.940527 C1593.08,663.550692 1591.77,659.150857 1590.46,654.751022 C1587.87,657.270927 1585.28,659.780833 1582.68,662.300739 C1583.48,648.231266 1585.4,634.211792 1588.41,620.442309 C1581.05,625.942102 1574.83,632.951839 1570.23,640.901541 C1569.35,638.911616 1568.41,636.951689 1567.41,635.021762 C1563.5,643.751434 1559.59,652.491107 1555.68,661.230779 C1551.24,649.74121 1545.189,638.871617 1537.76,629.041986 C1536.15,643.231454 1534.53,657.410922 1532.91,671.60039 C1527.29,664.770646 1521.68,657.940902 1516.061,651.101159 C1512.96,654.631026 1509.02,657.410922 1504.65,659.140857 C1501.9,653.381073 1499.15,647.621289 1496.4,641.871505 L1484.07,653.661063 C1478.47,642.671475 1471.42,632.421859 1463.16,623.262203 C1460.87,620.722298 1458.49,618.27239 1456.03,615.912479 C1457.36,618.932365 1458.46,622.052248 1459.33,625.232129 C1462.37,636.311713 1462.64,648.151269 1460.02,659.34085 C1457.24,655.740985 1454.46,652.14112 1451.689,648.541255 C1450.62,652.771096 1449.57,657.010937 1448.51,661.240779 C1444.68,653.061085 1440.29,645.131383 1435.36,637.561667 C1432.38,632.961839 1429.2,628.492007 1425.84,624.162169 C1426.48,630.141945 1426.66,636.171719 1426.37,642.181493 C1426.12,647.381298 1425.52,652.561104 1424.58,657.680912 C1421.84,654.231041 1419.1,650.781171 1416.35,647.3413 C1413.89,644.241416 1411.42,641.141532 1408.96,638.041649 C1408.27,642.961464 1407.29,647.841281 1406.04,652.641101 C1404.52,658.480882 1402.59,664.220667 1400.28,669.790458 C1396.2,668.600503 1392.41,666.400585 1389.38,663.420697 C1387.7,668.14052 1385.05,672.520356 1381.66,676.220217 C1380.2,673.290327 1378.74,670.360437 1377.28,667.430546 C1373.49,659.830831 1369.689,652.241116 1365.9,644.631401 C1365.73,656.630951 1362.01,668.550504 1355.35,678.520131 C1350.55,675.370249 1345.75,672.210367 1340.95,669.060485 C1338.8,673.030336 1335.73,676.500206 1332.061,679.110108 C1326.76,667.460545 1321.46,655.810982 1316.16,644.151419 C1313.77,655.400998 1310.11,666.370586 1305.27,676.800195 C1303.77,672.480357 1302.27,668.160519 1300.76,663.840681 C1296.38,666.650576 1292.76,670.620427 1290.37,675.240254 C1289.74,664.170669 1291.36,652.981088 1295.11,642.54148 C1286.66,652.431109 1278.21,662.320738 1269.76,672.200368 C1267,666.330588 1264.24,660.450808 1261.48,654.571029 C1258.62,661.170781 1255.75,667.780533 1252.89,674.380286 C1249.85,671.280402 1246.8,668.170519 1243.76,665.070635 C1241.99,667.780533 1240.21,670.490432 1238.439,673.20033 C1235.1,665.110633 1230.18,657.680912 1224.05,651.431146 C1225.189,658.54088 1224.76,665.890604 1222.79,672.810345 C1221.01,669.660463 1219.24,666.520581 1217.46,663.370699 C1216.41,667.260553 1214.54,670.930415 1212.01,674.090297 C1209.11,662.880717 1203.73,652.341112 1196.37,643.421447 C1194.96,656.14097 1190.86,668.570504 1184.42,679.620089 C1180.61,669.880455 1169.43,663.630689 1159.14,665.490619 C1157.15,661.600765 1155.17,657.710911 1153.18,653.821057 C1149.58,657.46092 1145.97,661.100784 1142.38,664.730648 C1142.65,654.27104 1145.11,643.86143 1149.56,634.371786 C1134.85,644.741397 1122.53,658.470882 1113.8,674.200293 C1110.51,666.440584 1107.22,658.680875 1103.93,650.921166 C1102.21,658.610877 1100.49,666.300589 1098.77,673.9903 C1094.36,665.980601 1089.95,657.960902 1085.55,649.951202 C1086.83,660.240816 1083.97,670.980413 1077.74,679.270102 C1074.83,677.19018 1070.83,676.750197 1067.53,678.140145 C1064.16,670.290439 1060.79,662.430734 1057.42,654.571029 C1052.69,661.980751 1047.96,669.390473 1043.23,676.810195 C1039.76,674.710273 1036.83,671.720386 1034.79,668.210517 C1032.35,671.400398 1029.9,674.590278 1027.45,677.780158 C1024.05,668.970489 1021.72,659.750834 1020.53,650.381186 C1016.74,656.640951 1012.95,662.900716 1009.17,669.150482 C1008.09,670.930415 1005.29,674.410285 1004.43,672.520356 C1003.75,671.020412 1004.56,672.220367 1002.95,669.820457 C1002.11,673.790308 1003.47,677.340175 1002.63,681.300026 C1001.27,677.550167 999.91,673.810307 998.55,670.050448 C994.41,674.040299 990.27,678.020149 986.12,682 C980.7,669.670462 977.74,656.250966 977.48,642.781471 C973.27,651.281152 969.06,659.780833 964.84,668.280515 C962.43,664.030674 960.02,659.790833 957.62,655.550992 C955.99,658.100896 954.36,660.6608 952.74,663.210705 C951.6,652.271115 950.47,641.321526 949.33,630.381936 C943.38,641.061535 938.78,652.501106 935.67,664.340662 C934.08,660.210817 932.48,656.080972 930.88,651.951127 C927.57,655.740985 924.25,659.530843 920.94,663.320701 C920.4,649.48122 919.86,635.641739 919.32,621.802258 C912.04,634.081797 904.02,645.921353 895.31,657.240929 C894.89,651.621139 894.46,646.01135 894.04,640.40156 C889.16,646.181343 884.29,651.951127 879.41,657.720911 C878.3,647.3313 877.2,636.94169 876.09,626.55208 C876.06,640.811545 872.36,655.051011 865.44,667.510543 C866.4,661.900754 856.96,662.54073 852.3,665.820607 C851.73,657.550917 852.18,649.21123 853.63,641.061535 C847.16,648.791245 842.58,658.100896 840.39,667.940527 C839.08,663.550692 837.77,659.150857 836.46,654.751022 C833.87,657.270927 831.28,659.780833 828.68,662.300739 C829.48,648.231266 831.4,634.211792 834.41,620.442309 C825.7,626.952065 818.58,635.581741 813.85,645.371374 C812.3,641.151532 810.47,637.021687 808.41,633.021837 C804.5,641.751509 800.59,650.491182 796.68,659.230854 C792.24,647.741285 786.19,636.871692 778.76,627.042061 C777.15,641.231529 775.53,655.410997 773.91,669.600465 C768.29,662.770721 762.68,655.940977 757.06,649.101234 C753.96,652.631101 750.02,655.410997 745.65,657.140932 C742.9,651.381148 740.15,645.621364 737.4,639.87158 L725.07,651.661138 C719.47,640.67155 712.42,630.421934 704.16,621.262278 C701.87,618.722373 699.49,616.272465 697.03,613.912554 C698.36,616.93244 699.46,620.052323 700.33,623.232204 C703.37,634.311788 703.64,646.151344 701.02,657.340925 C698.24,653.74106 695.46,650.141195 692.69,646.54133 C691.62,650.771171 690.57,655.011012 689.51,659.240854 C685.68,651.06116 681.29,643.131458 676.36,635.561742 C673.38,630.961914 670.2,626.492082 666.84,622.162244 C667.48,628.14202 667.66,634.171794 667.37,640.181568 C667.12,645.381373 666.52,650.561179 665.58,655.680987 C662.84,652.231116 660.1,648.781246 657.35,645.341375 C654.89,642.241491 652.42,639.141607 649.96,636.041724 C649.27,640.961539 648.29,645.841356 647.04,650.641176 C645.52,656.480957 643.59,662.220742 641.28,667.790533 C637.2,666.600578 633.41,664.40066 630.38,661.420772 C628.7,666.140595 626.05,670.520431 622.66,674.220292 C621.2,671.290402 619.74,668.360512 618.28,665.430621 C614.49,657.830906 610.69,650.241191 606.9,642.631476 C606.73,654.631026 603.01,666.550579 596.35,676.520206 C591.55,673.370324 586.75,670.210442 581.95,667.06056 C579.8,671.030411 576.73,674.500281 573.06,677.110183 C567.76,665.46062 562.46,653.811057 557.16,642.151494 C554.77,653.401073 551.11,664.370661 546.27,674.80027 C544.77,670.480432 543.27,666.160594 541.76,661.840756 C537.38,664.650651 533.76,668.620502 531.37,673.240329 C530.74,662.170744 532.36,650.981163 536.11,640.541555 C527.66,650.431184 519.21,660.320813 510.76,670.200443 C508,664.330663 505.24,658.450883 502.48,652.571104 C499.62,659.170856 496.75,665.780608 493.89,672.380361 C490.85,669.280477 487.8,666.170594 484.76,663.07071 C482.99,665.780608 481.21,668.490507 479.44,671.200405 C476.1,663.110708 471.18,655.680987 465.05,649.431221 C466.19,656.540955 465.76,663.890679 463.79,670.81042 C462.01,667.660538 460.24,664.520656 458.46,661.370774 C457.41,665.260628 455.54,668.93049 453.01,672.090372 C450.11,660.880792 444.73,650.341187 437.37,641.421522 C435.96,654.141045 431.86,666.570579 425.42,677.620164 C421.61,667.88053 410.43,661.630764 400.14,663.490694 C398.15,659.60084 396.17,655.710986 394.18,651.821132 C390.58,655.460995 386.97,659.100859 383.38,662.730723 C383.65,652.271115 386.11,641.861505 390.56,632.371861 C375.85,642.741472 363.53,656.470957 354.8,672.200368 C351.51,664.440659 348.22,656.68095 344.93,648.921241 C343.21,656.610952 341.49,664.300664 339.77,671.990375 C335.36,663.980676 330.95,655.960977 326.55,647.951277 C327.83,658.240891 324.97,668.980488 318.74,677.270177 C315.83,675.190255 311.83,674.750272 308.53,676.14022 C305.16,668.290514 301.79,660.430809 298.42,652.571104 C293.69,659.980826 288.96,667.390548 284.23,674.81027 C280.76,672.710348 277.83,669.720461 275.79,666.210592 C273.35,669.400473 270.9,672.590353 268.45,675.780233 C265.05,666.970564 262.72,657.750909 261.53,648.381261 C257.74,654.641026 253.95,660.900791 250.17,667.150557 C249.09,668.93049 246.29,672.41036 245.43,670.520431 C244.75,669.020487 245.56,670.220442 243.95,667.820532 C243.11,671.790383 244.47,675.34025 243.63,679.300101 C242.27,675.550242 240.91,671.810382 239.55,668.050523 C235.41,672.040374 231.27,676.020224 227.12,680.000075 C221.7,667.670537 218.74,654.251041 218.48,640.781546 C214.27,649.281227 210.06,657.780908 205.84,666.28059 C203.43,662.030749 201.02,657.790908 198.62,653.551067 C196.99,656.100971 195.36,658.660875 193.74,661.21078 C192.6,650.27119 191.47,639.321601 190.33,628.382011 C184.38,639.06161 179.78,650.501181 176.67,662.340737 C175.08,658.210892 173.48,654.081047 171.88,649.951202 C169.59,652.571104 167.29,655.201005 165,657.820907 L165,355 L2116,365 Z" id="Gras-Copy-4" fill="#476735"></path>
                <path d="M360.26976,202.931276 C357.114025,196.530536 353.95829,190.129796 350.795058,183.729056 C348.988569,186.929426 347.182079,190.121512 345.383085,193.314352 C344.161268,191.394883 342.939451,189.467131 341.72513,187.546156 C340.870608,195.785038 340.023582,204.030697 339.16906,212.268073 C334.709054,204.226485 331.260982,195.611088 328.929786,186.695234 C327.737952,189.805241 326.538623,192.915247 325.339294,196.026007 C322.858181,193.17203 320.369573,190.318053 317.88846,187.464076 L316.674139,218.729056 C311.217191,209.481869 305.205553,200.566014 298.676704,192.042488 C298.36188,196.273753 298.03956,200.498995 297.724736,204.723483 C294.066781,200.37098 290.416323,196.026007 286.758368,191.681034 C285.926334,199.504244 285.101795,207.328961 284.26976,215.152171" id="Stroke-1" stroke="#24361B" stroke-width="6" opacity="0.498163132" transform="translate(322.269760, 201.229056) rotate(9.000000) translate(-322.269760, -201.229056) "></path>
                <path d="M528.26976,522.711448 C524.331152,516.556963 520.392543,510.402478 516.453935,504.239687 C513.564512,505.983873 511.12474,508.467262 509.426059,511.382544 C507.394303,508.733042 505.35422,506.08271 503.314138,503.434039 C500.483003,510.751315 498.542843,518.409122 497.551945,526.190684 C494.396063,520.992179 491.24018,515.792843 488.092624,510.601813 C487.193322,509.123408 484.861799,506.233042 484.145689,507.80281 C483.579462,509.048657 484.253938,508.051979 482.913312,510.045335 C482.213855,506.747993 483.346309,503.798657 482.646852,500.510451 C481.514398,503.625069 480.381944,506.731381 479.24949,509.854305 C475.802167,506.540351 472.354844,503.234703 468.899194,499.929056 C464.386032,510.169089 461.921279,521.316099 461.70478,532.503806 C458.199169,525.444006 454.693558,518.384205 451.17962,511.324404 C449.172844,514.854305 447.166069,518.375899 445.167621,521.897494 C443.810342,519.779554 442.453062,517.653308 441.10411,515.535368 C440.154847,524.621747 439.213911,533.716431 438.264648,542.801979 C433.310162,533.932378 429.479803,524.430717 426.890147,514.595999 C425.566175,518.027062 424.233876,521.457295 422.901577,524.887527 C420.145384,521.739687 417.380864,518.591846 414.624671,515.444006 C414.17502,526.939022 413.725369,538.434039 413.275718,549.929056 C407.213758,539.72972 400.535611,529.895002 393.282909,520.49384 C392.933181,525.161614 392.575125,529.821082 392.225397,534.480551 C388.161885,529.679886 384.106701,524.887527 380.043189,520.095169 C379.118907,528.724737 378.202952,537.354305 377.278669,545.983873 C377.253689,534.140019 374.172748,522.312777 368.410555,511.963939 C369.209935,516.623408 361.349372,516.091846 357.469051,513.367594 C356.99442,520.236365 357.369129,527.163275 358.576525,533.932378" id="Stroke-7" stroke="#24361B" stroke-width="6" opacity="0.501674107" transform="translate(442.769760, 524.929056) rotate(9.000000) translate(-442.769760, -524.929056) "></path>
                <path d="M1977.64976,272.109056 C1975.92976,264.420056 1974.20976,256.729056 1972.48976,249.040056 C1968.07976,257.049056 1963.66976,265.070056 1959.26976,273.080056 C1960.54976,262.790056 1957.68976,252.049056 1951.45976,243.759056 C1948.54976,245.839056 1944.54976,246.280056 1941.24976,244.889056 C1937.87976,252.740056 1934.50976,260.599056 1931.13976,268.460056 C1926.40976,261.049056 1921.67976,253.639056 1916.94976,246.219056 C1913.47976,248.320056 1910.54976,251.309056 1908.50976,254.820056 C1906.06976,251.630056 1903.61976,248.439056 1901.16976,245.250056 C1897.76976,254.059056 1895.43976,263.280056 1894.24976,272.649056 C1890.45976,266.389056 1886.66976,260.130056 1882.88976,253.880056 C1881.80976,252.099056 1879.00976,248.620056 1878.14976,250.509056 C1877.46976,252.009056 1878.27976,250.809056 1876.66976,253.210056 C1875.82976,249.240056 1877.18976,245.689056 1876.34976,241.729056 C1874.98976,245.479056 1873.62976,249.219056 1872.26976,252.979056" id="Stroke-1" stroke="#24361B" stroke-width="6" opacity="0.498163132"></path>
                <path d="M1876.26976,577.164415 C1874.42686,568.462757 1871.60467,559.977674 1867.87259,551.910271 C1866.71596,555.251708 1865.55932,558.593144 1864.39498,561.93458 C1861.0176,559.7611 1858.22626,556.690382 1856.38335,553.116901 C1855.89757,561.678558 1857.14673,570.33458 1860.03832,578.409719 C1853.52261,570.759995 1847.0069,563.110271 1840.49119,555.468282 C1838.36298,560.008614 1836.23477,564.55668 1834.10657,569.104746 C1831.90125,563.999 1829.68822,558.887067 1827.4829,553.782094 C1825.13879,556.179884 1822.78697,558.584636 1820.44285,560.983199 C1819.07802,558.887067 1817.70548,556.790934 1816.34065,554.694801 C1813.76521,560.95226 1809.97145,566.699221 1805.24467,571.533476 C1806.12371,566.034028 1805.79214,560.348945 1804.2731,554.996459 C1802.90056,557.432923 1801.53573,559.861652 1800.16319,562.298116 C1799.35354,559.289277 1797.91161,556.450603 1795.96075,554.006404 C1793.72459,562.677122 1789.57612,570.829608 1783.9009,577.728282 C1782.81367,567.890382 1779.6522,558.276017 1774.68638,549.729056 C1771.74853,557.262757 1763.12774,562.097011 1755.19323,560.658337 C1753.65876,563.667177 1752.132,566.676017 1750.59753,569.684857 C1747.82161,566.869387 1745.03797,564.053918 1742.26976,561.246183 C1742.47795,569.33679 1744.37484,577.388724 1747.80619,584.729056" id="Stroke-5" stroke="#24361B" stroke-width="6" opacity="0.498163132"></path>
            </g>
        </g>
    </g>
</svg>