<?xml version="1.0" encoding="utf-8"?>
<!-- Generator: Adobe Illustrator 23.0.4, SVG Export Plug-In . SVG Version: 6.00 Build 0)  -->
<svg version="1.1" id="Layer_1" xmlns="http://www.w3.org/2000/svg" xmlns:xlink="http://www.w3.org/1999/xlink" x="0px" y="0px"
	 viewBox="0 0 1204 720.5" style="enable-background:new 0 0 1204 720.5;" xml:space="preserve">
<style type="text/css">
	.st0{fill:#FFFFFF;}
	.st1{fill:#666666;stroke:#000000;stroke-width:5;stroke-miterlimit:10;}
	.st2{fill:#04E762;}
	.st3{opacity:0.34;enable-background:new    ;}
	.st4{fill:#B3B3B3;stroke:#000000;stroke-width:3;stroke-linecap:round;stroke-linejoin:round;}
	.st5{fill:none;stroke:#000000;stroke-width:5;stroke-linecap:round;stroke-linejoin:round;stroke-dasharray:18.69,18.69;}
	.st6{fill:#4D4D4D;stroke:#000000;stroke-width:5;stroke-linecap:round;stroke-linejoin:round;}
	.st7{fill:none;stroke:#000000;stroke-width:5;stroke-linecap:round;stroke-linejoin:round;}
	.st8{opacity:0.29;enable-background:new    ;}
	.st9{opacity:0.35;fill:#FFFFFF;enable-background:new    ;}
	.st10{fill:none;stroke:#000000;stroke-width:5;stroke-miterlimit:10;}
	.st11{fill:#FFFFFF;stroke:#000000;stroke-width:5;stroke-linecap:round;stroke-linejoin:round;}
	.st12{opacity:0.28;enable-background:new    ;}
	.st13{fill:#D9E021;stroke:#000000;stroke-width:3;stroke-linecap:round;stroke-linejoin:round;}
	.st14{fill:#CCCCCC;}
	.st15{fill:#FFFFFF;stroke:#000000;stroke-width:3;stroke-linecap:round;stroke-linejoin:round;}
	.st16{fill:#808080;}
	.st17{fill:none;stroke:#000000;stroke-width:3;stroke-linecap:round;stroke-linejoin:round;}
	.st18{opacity:0.54;fill:#FFFFFF;enable-background:new    ;}
	.st19{fill:#999999;stroke:#000000;stroke-width:3;stroke-linecap:round;stroke-linejoin:round;}
	.st20{opacity:4.000000e-02;enable-background:new    ;}
	.st21{fill:#FFFFFF;stroke:#000000;stroke-width:2;stroke-miterlimit:10;}
	.st22{fill:#FEF7C3;stroke:#000000;stroke-width:5;stroke-miterlimit:10;}
	.st23{opacity:0.15;stroke:#000000;stroke-width:5;stroke-miterlimit:10;enable-background:new    ;}
	.st24{fill:#A67C52;stroke:#000000;stroke-width:4;stroke-miterlimit:10;}
	.st25{opacity:4.000000e-02;stroke:#000000;stroke-miterlimit:10;enable-background:new    ;}
	.st26{opacity:0.34;fill:#D9E021;enable-background:new    ;}
	.st27{fill:none;stroke:#000000;stroke-width:4;stroke-miterlimit:10;}
	.st28{fill:#FCEE21;}
	.st29{fill:none;stroke:#A67C52;stroke-width:9;stroke-miterlimit:10;}
	.st30{opacity:0.2;fill:#754C24;stroke:#000000;stroke-width:3;stroke-miterlimit:10;enable-background:new    ;}
	.st31{opacity:0.41;fill:#FCEE21;enable-background:new    ;}
	.st32{opacity:0.42;fill:none;stroke:#FCEE21;stroke-width:6;stroke-miterlimit:10;enable-background:new    ;}
	.st33{fill:none;stroke:#000000;stroke-width:2;stroke-linecap:round;stroke-linejoin:round;}
	.st34{fill:#476735;}
</style>
<title>van</title>
<g>
	<g id="GROEN">
		<polygon class="st0" points="1133.4,377.9 1123.4,370.2 1116.9,367.9 1103.3,347.2 1070.7,305.8 1055.9,285.1 1048.8,268.5 
			1038.2,257.9 1013.3,247.2 978.4,242.5 932.9,237.8 874.3,234.8 436,235.4 220.7,236 168.1,247.2 142.7,266.1 123.1,321.2 
			110.1,388 1138.8,388 		"/>
		<path d="M439.6,267.3c0,0.2-0.1,0.3-0.3,0.3l-294.6,2.2l0,0c-1.4,0-2.5-1.1-2.5-2.5s1.1-2.5,2.5-2.5l294.6,2.2
			C439.5,267,439.6,267.1,439.6,267.3z"/>
		<polygon class="st1" points="446.3,508.7 427.5,483.8 403.2,471.4 326.1,468.7 276.4,475.3 254.4,496.9 233.7,530.9 225.5,575.5 
			427.5,575.5 465.3,575.5 		"/>
		<polygon class="st1" points="1031.9,508.7 1013.1,483.8 988.8,471.4 911.7,468.7 862,475.3 840,496.9 819.3,530.9 811.1,575.5 
			1013.1,575.5 1050.9,575.5 		"/>
		<path class="st2" d="M1149.9,413.7l7.7,39.9h-4.3l-1.8,4.4c-2.2,10.6-1.1,21.7,3.2,31.6h5.6l-6.8,47.6l-6.8,0.9l-3,7.4l0.6,28.1
			l-99.7,0.3l-7.1-5.6l-4.8-5.9l-5.9-10.9l-7.4-15.1l-7.4-12.7l-6.5-8.9l-8.9-7.1l-9.8-5.3l-6.8-1.8l-9.5-1.8l-11.5-2.4l-13.3,0.6
			l-104.4-0.3l-8-0.3l-2.7-5.6l0.6-102.9l308.2-0.6L1149.9,413.7z"/>
		<path class="st2" d="M110.8,388.3l-5.6,27.5l-3,146.4l-5.9,35.5l133.4-0.4l14.1-23.6l9.8-27.5l10.9-18l14.8-12.4l18.6-7.1
			l66.5-0.6l27.2,3l20.7,11.5l13.9,17.5l6.5,25.2l10.9,33.1l386.5,0.3l19.5-33.7l7.7-24.5l11.2-15.7l13.3-9.5l19.8-5.3l39.6-1.5
			l32.5,1.5l20.7,10l13.6,12.1l6.5,13.6l3.8,18.6l9.8,24.5l5.3-9.2l8-6.8l-7.1-7.7l-7.4-11.5l-12.7-25.1l-10.7-15.1l-19.2-12.1
			l-25.4-4.7l-122.4-0.3l-4.4-1.2l-1.5-4.1l0.6-102.9l-679.3,0.6C152.6,388.1,110.8,388.3,110.8,388.3z"/>
		<polygon class="st3" points="839.6,425 841.2,429.3 881.1,429 882.8,423.5 843.3,422.8 		"/>
		<polyline class="st4" points="897.7,273.8 898.4,297.3 841.9,297.2 839.3,296.4 839.1,273.8 897.7,273.8 		"/>
		<path d="M110.7,390.8c-1.4,0-2.5-1.1-2.5-2.5s1.1-2.5,2.5-2.5l154.1,1.6c0.4,0,0.7,0.4,0.8,0.8c0.1,0.5-0.3,0.9-0.8,1L110.7,390.8
			L110.7,390.8z"/>
		<g id="wiel">
			<ellipse class="st0" cx="338.3" cy="602.2" rx="50.1" ry="50.5"/>
			<circle class="st5" cx="338.6" cy="602" r="41.7"/>
			<path class="st6" d="M338.6,524.1c-43,0-77.9,34.8-77.9,77.9l0,0c0,43,34.9,77.9,77.9,77.9s77.9-34.9,77.9-77.9
				S381.7,524.2,338.6,524.1L338.6,524.1z M338.6,651.8c-27.5,0-49.8-22.3-49.8-49.8s22.3-49.8,49.8-49.8s49.8,22.3,49.8,49.8
				S366.1,651.8,338.6,651.8L338.6,651.8z"/>
			<path class="st7" d="M322.4,608.8c-1.9-0.7-3.4-2.2-4.1-4.1c-1.5-3.7,0.4-7.9,4.1-9.4c-0.8-1.8-0.8-3.9,0-5.7
				c1.6-3.7,5.8-5.3,9.5-3.8c0.7-1.9,2.2-3.3,4.1-4.1c3.7-1.5,7.9,0.4,9.4,4.1c0.9-0.4,1.9-0.6,2.9-0.6c4,0,7.2,3.3,7.2,7.2
				c0,1-0.2,2-0.6,2.9c1.9,0.7,3.3,2.2,4.1,4.1c1.5,3.7-0.3,7.9-4.1,9.4c1.2,2.7,0.6,5.9-1.5,8s-5.3,2.7-8,1.5
				c-0.7,1.9-2.2,3.3-4.1,4.1c-3.7,1.5-7.9-0.4-9.4-4.1c-1.8,0.8-3.9,0.8-5.8,0C322.5,616.7,320.8,612.4,322.4,608.8L322.4,608.8z"
				/>
			<path class="st8" d="M265.4,630.8c49.5,88.5,123,30.4,123,30.4c-16.7,9.5-89.1,18.6-109-32s30-99.4,30-99.4
				C236.5,567.3,265.4,630.9,265.4,630.8z"/>
			<path class="st9" d="M408.8,616.1c6.3-21.7-6.3-48-6.3-48C387.1,544.5,402.5,637.8,408.8,616.1z"/>
		</g>
		<g id="wiel-2">
			<ellipse class="st0" cx="934.6" cy="602.2" rx="50.1" ry="50.5"/>
			<circle class="st5" cx="934.8" cy="602" r="41.7"/>
			<path class="st6" d="M857,602L857,602c0,43.1,34.9,77.9,77.9,77.9s77.9-34.9,77.9-77.9s-34.9-77.9-77.9-77.9
				C891.8,524.1,857,559,857,602z M934.8,651.8c-27.5,0-49.8-22.3-49.8-49.8s22.3-49.8,49.8-49.8s49.8,22.3,49.8,49.8
				S962.4,651.8,934.8,651.8L934.8,651.8z"/>
			<path class="st7" d="M918.6,608.8c-1.9-0.7-3.3-2.2-4.1-4.1c-1.5-3.7,0.3-7.9,4.1-9.4c-0.8-1.8-0.8-3.9,0-5.7
				c1.6-3.7,5.8-5.3,9.5-3.8c0.7-1.9,2.2-3.4,4.1-4.1c3.7-1.5,7.9,0.4,9.4,4.1c0.9-0.4,1.9-0.6,2.9-0.6c4,0,7.2,3.3,7.2,7.2
				c0,1-0.2,2-0.6,2.9c0.9,0.4,1.8,0.9,2.5,1.6c2.8,2.8,2.8,7.4,0,10.2c-0.7,0.7-1.5,1.3-2.5,1.6c0.4,0.9,0.6,1.9,0.6,2.9
				c0,4-3.3,7.2-7.2,7.2c-1,0-2-0.2-2.9-0.6c-0.4,0.9-0.9,1.8-1.6,2.5c-2.8,2.8-7.4,2.8-10.2,0c-0.7-0.7-1.2-1.5-1.6-2.5
				c-1.8,0.8-3.9,0.8-5.8,0C918.7,616.7,917.1,612.4,918.6,608.8L918.6,608.8z"/>
			<path class="st8" d="M861.7,630.8c49.5,88.5,122.9,30.4,122.9,30.4c-16.7,9.5-89.1,18.6-109-32s30-99.4,30-99.4
				C832.7,567.3,861.6,630.9,861.7,630.8z"/>
			<path class="st9" d="M1005,616.1c6.3-21.7-6.3-48-6.3-48C983.3,544.5,998.7,637.8,1005,616.1z"/>
		</g>
		<path class="st7" d="M140.9,597.3h88.4l8.4-13c6.2-9.7,10.6-20.3,13.2-31.4c6.3-26.1,29.7-44.5,56.5-44.6h66.7
			c28.3,0.1,52.5,20.5,57.3,48.4c1.3,8.3,3.6,16.3,6.7,24.1L444,598c0,0.3,47.8,0.1,47.8,0.1h339l8.4-13
			c6.1-9.7,10.6-20.3,13.2-31.5c6.3-26.1,29.7-44.5,56.5-44.6h51.7c28.3,0.1,52.5,20.5,57.3,48.4c1.3,8.3,3.6,16.3,6.7,24.1
			l7.2,17.5"/>
		<path class="st10" d="M1149.4,551.5c10.7-23.1,9.8-63.3,9.8-63.3"/>
		<path d="M1150.8,552.6L1150.8,552.6c0,1.4-1.1,2.5-2.5,2.5h-32c-1.4,0-2.5-1.1-2.5-2.5l0,0c0-1.4,1.1-2.5,2.5-2.5h32
			C1149.7,550.1,1150.8,551.2,1150.8,552.6z"/>
		<path d="M1116.3,550.1L1116.3,550.1c1.4,0,2.5,1.1,2.5,2.5v32c0,1.4-1.1,2.5-2.5,2.5l0,0c-1.4,0-2.5-1.1-2.5-2.5v-32
			C1113.8,551.2,1114.9,550.1,1116.3,550.1z"/>
		<path class="st11" d="M1161.8,546.1v39c0,5-4,9-9,9l0,0c-5,0-9-4-9-9v-39c0-5,4-9,9-9l0,0C1157.8,537.1,1161.8,541.1,1161.8,546.1
			z"/>
		<path class="st11" d="M1177.8,589.6v4c0,9.1-7.4,16.5-16.5,16.5h-115c-9.1,0-16.5-7.4-16.5-16.5v-4c0-9.1,7.4-16.5,16.5-16.5h115
			C1170.4,573.1,1177.8,580.5,1177.8,589.6z"/>
		<path class="st12" d="M1066.3,572.6l-16,1l-12,1l-7.1,8.3l0.1,9.7l1,10l11,7h24c0,0-21.9,4-23-14c-1-17,35-23,35-23H1066.3z"/>
		<path class="st12" d="M1153.3,571.6c-4.8-10.5-4.8-22.5,0-33l-7.9,2.7l-1.5,30.3H1153.3z"/>
		<g id="lamp">
			<path class="st0" d="M1150.9,475.1c-0.5-6.4-0.1-12.7,1.2-19l0.2-1.4v-0.1c12.2-2.5,17.5,6.2,18,15l0.2,3.4
				c0.5,8.8-5.2,19.6-16.1,17l-0.1-0.3l-0.2-0.8c-1-3.2-2.1-4.5-2.6-7.8"/>
			<path d="M1150.9,481.1c0-0.2,0.1-0.4,0.3-0.5c0.2-0.1,0.5,0.1,0.6,0.3c0.4,1.4,1,2.8,1.8,4.1c0.4,0.7,0.8,1.4,1.1,2.1
				c0.2,0.4,0.3,0.8,0.5,1.1c0.2,0.4,0.3,0.7,0.5,1l-1.1-0.9l0,0c2.1,0.5,4.2,0.4,6.2-0.4s3.6-2.2,4.8-4c1.2-1.8,2.1-3.9,2.6-6
				c0.2-1.1,0.4-2.2,0.5-3.3c0-0.6,0-1.1,0-1.7l-0.1-1.8l-0.1-1.8c0-0.6-0.1-1.1-0.2-1.7c-0.1-1.1-0.4-2.2-0.7-3.3
				c-0.6-2.1-1.6-4-3.1-5.6s-3.4-2.7-5.5-3.1c-2.2-0.5-4.4-0.5-6.6,0l1.1-1v0.1v-0.1l-0.2,1.3c-0.1,0.4-0.2,0.8-0.3,1.3
				c-0.2,0.8-0.3,1.6-0.5,2.5c-0.3,1.7-0.5,3.3-0.8,5c-0.4,3.3-0.7,6.7-0.8,10.1c0,0.1-0.1,0.2-0.2,0.3c-0.2,0-0.3-0.1-0.3-0.2
				c-0.6-3.4-0.9-6.9-0.7-10.3c0-1.7,0.2-3.5,0.4-5.2c0.1-0.9,0.2-1.7,0.4-2.6c0.1-0.8,0.3-1.6,0.4-2.5v-0.1v-0.1
				c0.1-0.5,0.5-0.9,1.1-1l0,0c2.6-0.6,5.2-0.6,7.8-0.2c2.7,0.5,5.1,1.9,7.1,3.8c3.8,3.9,5.1,9.5,5.2,14.4l0.1,1.8c0,0.7,0,1.3,0,2
				c-0.1,1.3-0.2,2.6-0.5,3.9c-0.6,2.6-1.6,5-3.1,7.2c-1.6,2.3-3.8,4-6.4,5c-2.6,0.9-5.4,1-8.1,0.3l0,0l-0.2-0.1
				c-0.4-0.1-0.7-0.4-0.8-0.9c-0.1-0.5-0.2-0.9-0.2-1.2c-0.1-0.4-0.2-0.7-0.2-1.1c-0.2-0.7-0.4-1.5-0.6-2.2
				C1151.3,484.3,1151,482.7,1150.9,481.1L1150.9,481.1z"/>
			<path class="st13" d="M1160.3,488.8c-3.5-10.9-4.2-22.4-2-33.6l0.1-0.7l0,0c8.8-0.5,12.1,6.3,12.6,15.1l0.2,3.4
				c0.5,8.8-1.8,16.4-10.6,16.9l0,0L1160.3,488.8z"/>
		</g>
		<polygon class="st14" points="1043.2,267 1112.1,361.4 1114.5,367.3 973.4,369.7 834.7,367.6 832.3,356.9 833.2,271.5 
			839.4,267.3 1040.3,267.6 		"/>
		<polygon class="st15" points="1102.7,362.1 839.1,362.1 839.1,273.8 1041.7,273.8 		"/>
		<polygon class="st16" points="839.1,299 898.4,297.3 897.7,273.8 840.3,273.8 		"/>
		<polygon class="st16" points="903.3,297.9 915.5,297.8 915.5,362.1 925.1,361.5 925.8,297.8 1001.8,297.8 1002,355.2 
			1002.7,362.2 1006.2,361.7 1006.2,273.8 903.6,273.8 		"/>
		<polygon class="st16" points="1010.8,299.3 1040.3,292.8 1085.8,360.9 1101.1,361.2 1042.6,274.9 1011.3,273.8 		"/>
		<polygon class="st17" points="1102.7,362.1 839.1,362.1 839.1,273.8 1041.7,273.8 		"/>
		<polyline class="st17" points="915.5,361.4 915.5,297.8 839.4,297.8 		"/>
		<polyline class="st17" points="1001.8,361.4 1001.8,297.8 925.8,297.8 925.8,361.4 		"/>
		<path class="st7" d="M1053,267.3H839.4c-4,0-7.3,3.3-7.3,7.3v86.5c0,4,3.3,7.3,7.3,7.3h283.4c28.7,20.1,35.6,86.6,35.6,86.6"/>
		<polyline class="st15" points="1086,361.6 1040.3,292.8 1012.2,297.8 		"/>
		<polygon class="st18" points="1013.3,360.3 1012.8,275.3 1040.3,275.1 1099.6,360.5 1070.5,360.7 		"/>
		<path class="st19" d="M1006.3,267.3v100.9l5.3,0.3V267.9C1011.6,267.6,1006.3,267.3,1006.3,267.3z"/>
		<path class="st19" d="M898.1,267.3v100.9l5.2,0.3V267.9C903.3,267.6,898.1,267.3,898.1,267.3z"/>
		<line class="st7" x1="1045.6" y1="267.9" x2="1116.3" y2="368.2"/>
		<path class="st7" d="M1053,267.3H839.4c-4,0-7.3,3.3-7.3,7.3v86.5c0,4,3.3,7.3,7.3,7.3h283.4c28.7,20.1,35.6,86.6,35.6,86.6"/>
		<polygon class="st18" points="1004.8,360.6 904.8,360.3 905,275.3 1004.8,275.3 		"/>
		<polygon class="st18" points="896.4,360.5 840.7,360.5 840.9,275.5 896.6,275.5 		"/>
		<path d="M1140.1,388c0,1.4-1.1,2.5-2.5,2.5l-300.5-1.9c-0.3,0-0.6-0.3-0.6-0.6c0-0.3,0.3-0.6,0.6-0.6l300.5-1.9
			C1139,385.5,1140.1,386.6,1140.1,388z"/>
		<path class="st17" d="M1043.8,573.1c-14.2-3.8-22.1-41.7-39-58.6c-16.9-16.8-36.7-18-62.7-18H836.2c-2.8,0-5-2.2-5-5v-106
			c0-16.5,3.5-18,3.5-18"/>
		<path class="st17" d="M882.9,426L882.9,426c0,1.7-1.4,3.1-3.1,3.1h-37.5c-1.7,0-3.1-1.4-3.1-3.1l0,0c0-1.7,1.4-3.1,3.1-3.1h37.5
			C881.5,422.9,882.9,424.3,882.9,426z"/>
		<path class="st7" d="M100.1,586.7c0,0,3.5-127.2,5.9-163.5s13.3-103.5,31.7-146.1s85.8-42,139.6-42h580.6
			c65.6,0,173.9,4.1,190.5,31.4"/>
		<path d="M1136.8,350.9L1136.8,350.9c1,1,1,2.6,0,3.5l-22.6,22.6c-1,1-2.6,1-3.5,0l0,0c-1-1-1-2.6,0-3.5l22.6-22.6
			C1134.2,349.9,1135.8,349.9,1136.8,350.9z"/>
		<path class="st11" d="M1142.2,325.3v31.1c0,3.2-2.6,5.8-5.8,5.8h-4.4c-3.2,0-5.8-2.6-5.8-5.8v-31.1c0-3.2,2.6-5.8,5.8-5.8h4.4
			C1139.7,319.5,1142.2,322.1,1142.2,325.3z"/>
		<path class="st12" d="M1144.6,572.1l-102,1.8l-5.8-4.7l-8.2-13.1c3.6-7.5,39-4.4,60.8,0.9s53.7,2.7,53.7,2.7L1144.6,572.1z"/>
		<path class="st18" d="M1002,426.9c-25.4-17.3-65.1-17.9-82.1-8C858.5,454.7,1027.4,444.2,1002,426.9z"/>
		<path class="st18" d="M520.5,426.1c-48-17.1-118-17.2-146-7.1C273.2,455.9,568.5,443.2,520.5,426.1z"/>
		<path class="st20" d="M807.6,507.6C704.2,487,556,488.4,497.9,502C287.7,551.5,911.1,528.3,807.6,507.6z"/>
		<path d="M798.5,388.4c0,0.3-0.2,0.5-0.5,0.5c-37.3,0.7-74.5,1.3-111.8,1.5s-74.5,0.5-111.8,0.5h-55.9l-55.9-0.3l-28-0.2l-28-0.3
			l-27.9-0.5l-14-0.2l-14-0.3l0,0c-0.4,0-0.7-0.3-0.7-0.6c0-0.4,0.3-0.7,0.7-0.7l14-0.3l14-0.2l27.9-0.5l28-0.3l28-0.2l55.9-0.3
			h55.9c37.3,0.1,74.5,0.2,111.8,0.5s74.5,0.8,111.8,1.6C798.3,387.9,798.5,388.1,798.5,388.4z"/>
		<path d="M841.9,267.3c0,1.4-1.1,2.5-2.5,2.5l-339.6-2c-0.2,0-0.4-0.2-0.4-0.5l0,0c0-0.2,0.2-0.4,0.4-0.4l339.6-2.1
			C840.7,264.8,841.9,265.9,841.9,267.3z"/>
		<polygon class="st14" points="800.7,288.3 802.2,360.8 797.2,367.9 555.8,369.4 547.8,365.8 546.4,359.8 546.4,294.5 547.8,286.6 
			559.7,285.4 732.1,284.2 796.3,284.5 		"/>
		<path class="st7" d="M801.6,292.6v67.2c0,4.6-3.8,8.4-8.4,8.4H554.8c-4.6,0-8.4-3.8-8.4-8.4v-67.2c0-4.6,3.8-8.4,8.4-8.4h238.4
			C797.8,284.2,801.6,287.9,801.6,292.6z"/>
		<path class="st15" d="M793,298.3V354c0,3.2-2.6,5.8-5.8,5.8H560.8c-3.2,0-5.8-2.6-5.8-5.8v-55.7c0-3.2,2.6-5.8,5.8-5.8h226.4
			C790.4,292.6,793,295.1,793,298.3z"/>
		<path class="st19" d="M793,313.8l-237.5,0.3v-5.6h237.2C793.3,309,793,313.8,793,313.8z"/>
		<path class="st19" d="M793,343.6l-237.5,0.3v-5.6h237.2C793.3,338.9,793,343.6,793,343.6z"/>
		<polygon class="st14" points="507.2,288.3 508.8,360.8 503.2,367.9 235.4,369.4 226.5,365.8 225,359.8 224.9,294.5 226.5,286.6 
			239.6,285.4 431,284.2 502.2,284.5 		"/>
		<path class="st7" d="M508.1,292.6v67.2c0,4.6-3.8,8.4-8.4,8.4H233.4c-4.6,0-8.4-3.8-8.4-8.4v-67.2c0-4.6,3.8-8.4,8.4-8.4h266.4
			C504.4,284.2,508.1,287.9,508.1,292.6z"/>
		<path class="st15" d="M498.6,298.3V354c0,3.2-2.6,5.8-5.8,5.8H240.3c-3.2,0-5.8-2.6-5.8-5.8v-55.7c0-3.2,2.6-5.8,5.8-5.8h252.5
			C496,292.6,498.6,295.1,498.6,298.3z"/>
		<path class="st19" d="M498.6,313.8L235,314.1v-5.6h263.2C498.9,309,498.6,313.8,498.6,313.8z"/>
		<path class="st19" d="M498.6,343.6L235,343.9v-5.6h263.2C498.9,338.9,498.6,343.6,498.6,343.6z"/>
		<path class="st19" d="M184.4,289.6c0.4-5.5,5.1-9.6,10.6-9.3c5.3,0.5,9.3,4.9,9.2,10.2v75.1c0,0.2,0,0.4,0,0.6
			c-0.4,5.5-5.1,9.6-10.6,9.3c-5.3-0.5-9.3-5-9.2-10.3v-75C184.4,290.1,184.4,289.9,184.4,289.6z"/>
		<path class="st21" d="M204.2,299.2v7l0,0h-19.7l0,0v-7l0,0H204.2C204.2,299.1,204.2,299.1,204.2,299.2z"/>
		<path class="st21" d="M204.2,314.1v7l0,0h-19.7l0,0v-7l0,0H204.2C204.2,314,204.2,314,204.2,314.1z"/>
		<path class="st21" d="M204.2,327.2v7l0,0h-19.7l0,0v-7l0,0H204.2L204.2,327.2z"/>
		<path class="st21" d="M204.2,340.1v7l0,0h-19.7l0,0v-7l0,0H204.2C204.2,340,204.2,340.1,204.2,340.1z"/>
		<path class="st21" d="M204.2,352.6v7l0,0h-19.7l0,0v-7l0,0H204.2L204.2,352.6z"/>
		<path d="M119.4,547.8L119.4,547.8c0,1.4-1.1,2.5-2.5,2.5h-32c-1.4,0-2.5-1.1-2.5-2.5l0,0c0-1.4,1.1-2.5,2.5-2.5h32
			C118.3,545.3,119.4,546.5,119.4,547.8z"/>
		<path d="M116.9,545.3L116.9,545.3c1.4,0,2.5,1.1,2.5,2.5v32c0,1.4-1.1,2.5-2.5,2.5l0,0c-1.4,0-2.5-1.1-2.5-2.5v-32
			C114.4,546.5,115.5,545.3,116.9,545.3z"/>
		<path class="st11" d="M93.3,545.3v39c0,5-4,9-9,9l0,0c-5,0-9-4-9-9v-39c0-5,4-9,9-9l0,0C89.3,536.3,93.3,540.3,93.3,545.3z"/>
		<path class="st11" d="M218.4,589.6v4c0,9.1-7.4,16.5-16.5,16.5H66.3c-9.1,0-16.5-7.4-16.5-16.5v-4c0-9.1,7.4-16.5,16.5-16.5h135.6
			C211,573.1,218.4,580.5,218.4,589.6z"/>
		<path class="st22" d="M841.8,597.4L841.8,597.4c0,5.1-4.1,9.2-9.2,9.2H443.4c-5.1,0-9.2-4.1-9.2-9.2l0,0c0-5.1,4.1-9.2,9.2-9.2
			h389.2C837.7,588.2,841.8,592.3,841.8,597.4z"/>
		<path class="st23" d="M841.8,597.4L841.8,597.4c0,5.1-4.1,9.2-9.2,9.2H443.4c-5.1,0-9.2-4.1-9.2-9.2l0,0c0-5.1,4.1-9.2,9.2-9.2
			h389.2C837.7,588.2,841.8,592.3,841.8,597.4z"/>
		<path class="st12" d="M440.5,587.9l396.3,0.3l13-23.4c0,0-290.1,9.4-353.1,2.4S427.5,537,427.5,537L440.5,587.9z"/>
		<path class="st12" d="M99.2,573.4l77.2-0.3c-73.7-1.8-71-124.8-71-124.8L99.2,573.4z"/>
		<path class="st0" d="M124.9,440c8.3,10.4,16.8-8.9,6.8-35.5C128.2,395.1,116.6,429.7,124.9,440z"/>
		<path class="st12" d="M122.7,321.9c18.2-40.4,66.6-54.6,66.6-54.6l-49.7,1.8L122.7,321.9z"/>
		<path d="M179.6,420.8c0-0.2,0.1-0.3,0.3-0.4c2-0.1,3.9-0.2,5.9-0.3l5.9-0.2c3.9-0.1,7.8-0.1,11.8-0.1c3.9,0,7.8,0,11.8,0.1
			l5.9,0.2c2,0.1,3.9,0.2,5.9,0.3c0.2,0,0.3,0.1,0.3,0.3c0,0.2-0.1,0.3-0.3,0.4c-2,0.1-3.9,0.2-5.9,0.3l-5.9,0.2
			c-3.9,0.1-7.8,0.2-11.8,0.1s-7.8,0-11.8-0.1l-5.9-0.2c-2-0.1-3.9-0.2-5.9-0.3C179.8,421.1,179.6,421,179.6,420.8z"/>
		<path d="M179.6,426.4c0-0.2,0.1-0.3,0.3-0.4c2-0.1,3.9-0.2,5.9-0.3l5.9-0.2c3.9-0.1,7.8-0.1,11.8-0.1c3.9,0,7.8,0,11.8,0.1
			l5.9,0.2c2,0.1,3.9,0.2,5.9,0.3c0.2,0,0.3,0.1,0.3,0.3c0,0.2-0.1,0.3-0.3,0.4c-2,0.1-3.9,0.2-5.9,0.3l-5.9,0.2
			c-3.9,0.1-7.8,0.1-11.8,0.1s-7.8,0-11.8-0.1l-5.9-0.2c-2-0.1-3.9-0.2-5.9-0.3C179.8,426.7,179.6,426.6,179.6,426.4z"/>
		<path d="M179.6,432.1C179.6,432,179.6,432,179.6,432.1c0-0.2,0.1-0.3,0.3-0.4c2-0.1,3.9-0.2,5.9-0.3l5.9-0.2
			c3.9-0.1,7.8-0.1,11.8-0.1c3.9,0,7.8,0,11.8,0.1l5.9,0.2c2,0.1,3.9,0.2,5.9,0.3c0.2,0,0.3,0.1,0.3,0.3l0,0c0,0.2-0.1,0.3-0.3,0.3
			c-2,0.1-3.9,0.2-5.9,0.3l-5.9,0.2c-3.9,0.1-7.8,0.1-11.8,0.1s-7.8,0-11.8-0.1l-5.9-0.2c-2-0.1-3.9-0.2-5.9-0.3
			C179.8,432.3,179.6,432.2,179.6,432.1z"/>
		<path d="M179.6,415.2L179.6,415.2c0-0.2,0.1-0.3,0.3-0.4c2-0.1,3.9-0.2,5.9-0.3l5.9-0.2c3.9-0.1,7.8-0.1,11.8-0.1
			c3.9,0,7.8,0,11.8,0.1l5.9,0.2c2,0.1,3.9,0.1,5.9,0.3c0.2,0,0.3,0.1,0.3,0.3l0,0c0,0.2-0.1,0.3-0.3,0.3c-2,0.1-3.9,0.2-5.9,0.3
			l-5.9,0.2c-3.9,0.1-7.8,0.1-11.8,0.1s-7.8,0-11.8-0.1l-5.8-0.2c-2-0.1-3.9-0.2-5.9-0.3C179.7,415.5,179.6,415.4,179.6,415.2z"/>
		<path d="M179.6,443.5c0-0.2,0.1-0.3,0.3-0.4c2-0.1,3.9-0.2,5.9-0.3l5.9-0.2c3.9-0.1,7.8-0.1,11.8-0.1c3.9,0,7.8,0,11.8,0.1
			l5.9,0.2c2,0.1,3.9,0.2,5.9,0.3c0.2,0,0.3,0.1,0.3,0.3l0,0c0,0.2-0.1,0.3-0.3,0.3c-2,0.1-3.9,0.2-5.9,0.3l-5.9,0.2
			c-3.9,0.1-7.8,0.1-11.8,0.1s-7.8,0-11.8-0.1l-5.9-0.2c-2-0.1-3.9-0.2-5.9-0.3C179.8,443.8,179.6,443.6,179.6,443.5z"/>
		<path d="M179.6,449c0-0.2,0.1-0.3,0.3-0.4c2-0.1,3.9-0.2,5.9-0.3l5.9-0.2c3.9-0.1,7.8-0.1,11.8-0.1c3.9,0,7.8,0,11.8,0.1l5.9,0.2
			c2,0.1,3.9,0.2,5.9,0.3c0.2,0,0.3,0.1,0.3,0.3c0,0.2-0.1,0.3-0.3,0.4c-2,0.1-3.9,0.2-5.9,0.3l-5.9,0.2c-3.9,0.1-7.8,0.1-11.8,0.1
			s-7.8,0-11.8-0.1l-5.9-0.2c-2-0.1-3.9-0.2-5.9-0.3C179.8,449.3,179.6,449.2,179.6,449z"/>
		<path d="M179.6,454.7c0-0.2,0.1-0.3,0.3-0.4c2-0.1,3.9-0.2,5.9-0.3l5.9-0.2c3.9-0.1,7.8-0.1,11.8-0.1c3.9,0,7.8,0,11.8,0.1
			l5.9,0.2c2,0.1,3.9,0.2,5.9,0.3c0.2,0,0.3,0.1,0.3,0.3c0,0.2-0.1,0.3-0.3,0.4c-2,0.1-3.9,0.2-5.9,0.3l-5.9,0.2
			c-3.9,0.1-7.8,0.1-11.8,0.1s-7.8,0-11.8-0.1l-5.9-0.2c-2-0.1-3.9-0.2-5.9-0.3C179.8,455,179.6,454.9,179.6,454.7z"/>
		<path d="M179.6,437.8c0-0.2,0.1-0.3,0.3-0.4c2-0.1,3.9-0.2,5.9-0.3l5.9-0.2c3.9-0.1,7.8-0.1,11.8-0.1c3.9,0,7.8,0,11.8,0.1
			l5.9,0.2c2,0.1,3.9,0.2,5.9,0.3c0.2,0,0.3,0.1,0.3,0.3c0,0.2-0.1,0.3-0.3,0.4c-2,0.1-3.9,0.2-5.9,0.3l-5.9,0.2
			c-3.9,0.1-7.8,0.2-11.8,0.1s-7.8,0-11.8-0.1l-5.9-0.2c-2-0.1-3.9-0.2-5.9-0.3C179.8,438.1,179.6,438,179.6,437.8z"/>
		<path class="st12" d="M66.3,573.2l-13,5l-2.4,10l0.6,14.2l12.1,7.7l16.9-0.6c0,0-15.1-6.8-15.1-17.5s32.2-18.6,32.2-18.6
			L66.3,573.2z"/>
		<path class="st12" d="M79.1,537.1l-3.8,8.2l0.8,13.7v14.5l9.5-0.6c-10.3-28.7,2.7-34.9,2.7-34.9L79.1,537.1z"/>
		<path class="st12" d="M206.5,238.1l-34.2,8.9l-18.2,10.2l-9.8,9.8l37.7,0.4c-13.3-11.1,65.2-31.5,65.2-31.5L206.5,238.1z"/>
		<path class="st24" d="M281.1,65h71.2c7.6,0,13.8,6.2,13.8,13.8v139.1c0,7.6-6.2,13.8-13.8,13.8h-71.2c-7.6,0-13.8-6.2-13.8-13.8
			V78.8C267.4,71.2,273.5,65,281.1,65z"/>
		<rect x="325.9" y="65" class="st25" width="12" height="166.6"/>
		<rect x="292.7" y="65" class="st25" width="12" height="166.6"/>
		<path class="st26" d="M366.1,217.9c0,7.6-6.2,13.8-13.8,13.8h-8.4v-11.2c0-5.4,4.4-9.7,9.7-9.7h12.5L366.1,217.9z"/>
		<path class="st26" d="M366.1,78.8V86h-12.5c-5.4,0-9.7-4.4-9.7-9.8V65h8.4C359.9,65,366.1,71.2,366.1,78.8z"/>
		<path class="st26" d="M285.7,77.1c0,5.4-4.4,9.7-9.7,9.7h-8.7v-8c0-7.6,6.2-13.8,13.8-13.8h4.6L285.7,77.1L285.7,77.1z"/>
		<path class="st26" d="M285.7,223v8.7h-4.6c-7.6,0-13.8-6.2-13.8-13.8v-4.6h8.7C281.4,213.3,285.7,217.6,285.7,223z"/>
		<path class="st27" d="M281.1,65h71.2c7.6,0,13.8,6.2,13.8,13.8v139.1c0,7.6-6.2,13.8-13.8,13.8h-71.2c-7.6,0-13.8-6.2-13.8-13.8
			V78.8C267.4,71.2,273.5,65,281.1,65z"/>
		<rect x="403.5" y="124.7" class="st28" width="3.8" height="10.3"/>
		<rect x="371.9" y="123.9" class="st28" width="3.8" height="11.5"/>
		<path class="st29" d="M373.8,126.1v-5c0-1.2-0.8-5.6,7.4-5.6h17.6c6.5,0,7,3.4,7,4.6v5.9"/>
		<path class="st24" d="M472.1,145.7v71.2c0,7.6-6.2,13.8-13.8,13.8H319.2c-7.6,0-13.8-6.2-13.8-13.8v-71.2
			c0-7.6,6.2-13.8,13.8-13.8h139.1C465.9,131.9,472.1,138.1,472.1,145.7z"/>
		<rect x="421.7" y="131.9" class="st30" width="12" height="98.7"/>
		<rect x="342.2" y="131.9" class="st30" width="10.3" height="98.7"/>
		<path class="st31" d="M458.3,132c7.6,0,13.8,6.2,13.8,13.8v8.4h-11.2c-5.4,0-9.7-4.4-9.7-9.7V132H458.3z"/>
		<path class="st31" d="M319.2,132h7.2v12.4c0,5.4-4.4,9.7-9.7,9.7h-11.2v-8.4C305.5,138.2,311.6,132,319.2,132z"/>
		<path class="st31" d="M317.5,212.3c5.4,0,9.7,4.4,9.7,9.7v8.7h-8c-7.6,0-13.8-6.2-13.8-13.8v-4.6L317.5,212.3z"/>
		<path class="st31" d="M463.4,212.3h8.7v4.6c0,7.6-6.2,13.8-13.8,13.8h-4.6V222C453.7,216.6,458.1,212.3,463.4,212.3z"/>
		<path class="st32" d="M434.9,158.9v2.6c0,3.3-2.7,6-6,6h-2.6c-3.3,0-6-2.7-6-6v-2.6c0-3.3,2.7-6,6-6h2.6
			C432.2,152.9,434.9,155.6,434.9,158.9z"/>
		<path class="st32" d="M354.2,161.9v2.6c0,3.3-2.7,6-6,6h-2.6c-3.3,0-6-2.7-6-6v-2.6c0-3.3,2.7-6,6-6h2.6
			C351.5,155.9,354.2,158.6,354.2,161.9z"/>
		<path class="st27" d="M472.1,145.7v71.2c0,7.6-6.2,13.8-13.8,13.8H319.2c-7.6,0-13.8-6.2-13.8-13.8v-71.2
			c0-7.6,6.2-13.8,13.8-13.8h139.1C465.9,131.9,472.1,138.1,472.1,145.7z"/>
		<path d="M880,203.4v40.8c0,2-1.6,3.6-3.5,3.6h-0.7c-2,0-3.5-1.6-3.5-3.6v-40.8c0-2,1.6-3.6,3.5-3.6h0.7
			C878.4,199.9,880,201.5,880,203.4z"/>
		<path d="M201.8,214.6H971c2,0,3.5,1.6,3.5,3.5v0.7c0,2-1.6,3.5-3.5,3.5H201.8c-2,0-3.6-1.6-3.6-3.5v-0.7
			C198.2,216.2,199.8,214.6,201.8,214.6z"/>
		<path d="M601.4,203.4v40.8c0,2-1.6,3.6-3.5,3.6h-0.7c-2,0-3.5-1.6-3.5-3.6v-40.8c0-2,1.6-3.6,3.5-3.6h0.7
			C599.8,199.9,601.4,201.5,601.4,203.4z"/>
		<path d="M366.2,203.4v40.8c0,2-1.6,3.6-3.5,3.6H362c-2,0-3.5-1.6-3.5-3.6v-40.8c0-2,1.6-3.6,3.5-3.6h0.7
			C364.7,199.9,366.2,201.5,366.2,203.4z"/>
		<path class="st33" d="M410.3,126v-5.2c0-7.9-6.3-9.8-12.7-9.8h-17c-11.4,0-11.5,9-11.5,9v6h9.2v-2.6l0,0c0-1.9,1.5-3.4,3.4-3.4
			h16.2l0,0c1.9,0,3.4,1.5,3.4,3.4v2.5C401.4,126,410.3,126,410.3,126z"/>
		<polygon class="st33" points="403.6,130.9 403.6,126.2 407.5,126.2 407.6,131.3 		"/>
		<rect x="371.8" y="126.6" class="st33" width="4.1" height="4.2"/>
	</g>
</g>
<path class="st34" d="M183.5,626.1c0,0,31.5-33.2,39.9-38.6c0,0-16.1,31.9-14.1,50.7l15.8-15.4l10.1,18.8c0,0,23.8-5,37.2,21.1
	c0,0,6-15.1,23.5-40.6c0,0,4,29.5,0,40.6c0,0,33.6-30.5,43.3-34.6c0,0,15.4,18.5,15.1,32.5c0,0,30.5-16.1,30.5-27.2
	c0,0,18.1,11.1,18.8,21.8l1.3,54.4l-219.4,8.7L183.5,626.1z"/>
<path class="st34" d="M806,659.8c0,0,9.4-52.9,8.3-71.2c0,0,22.3,41.5,26.3,55.5c0,0,28.6-61.5,52.6-77.5c0,0,0.6,56.9-2,80.9
	c0,0,36-4.3,39.5-18.3c0,0,7.1,9.7,7.1,20c0,0,35.7-25.2,35.7-37.7c0,0,15.7,13.4,15.2,23.7c0,0,30.9-23.4,47.5-55.2
	c0,0-7.7,57.2-4.6,74L1047,637l6.9,19.2c0,0,18.9-50,23.7-55.5l2.3,54.9l0.3,62l-273.9-0.3L806,659.8z"/>
</svg>
