<?xml version="1.0" encoding="UTF-8"?>
<svg width="322px" height="443px" viewBox="0 0 322 443" version="1.1" xmlns="http://www.w3.org/2000/svg" xmlns:xlink="http://www.w3.org/1999/xlink">
    <!-- Generator: Sketch 55.2 (78181) - https://sketchapp.com -->
    <title>Group 19</title>
    <desc>Created with Sketch.</desc>
    <g id="Page-1" stroke="none" stroke-width="1" fill="none" fill-rule="evenodd">
        <g id="Djibouti" transform="translate(-1419.000000, -641.000000)">
            <g id="Group-19" transform="translate(1419.000000, 643.000000)">
                <path d="M119.708333,30.7847814 C119.708333,30.7847814 155.794083,68.8109329 199.862208,70.4542288 C243.930333,72.0967331 275.407,25 320,25 L318.951042,185.458818 C318.951042,185.458818 227.14225,210.650481 179.926458,174.505887 C132.710667,138.361294 92,146.901524 92,146.901524" id="Fill-1" fill="#007934"></path>
                <path d="M102,104.93472 C102,104.93472 183.936353,144.432649 235.351741,146.812329 C286.767129,149.192009 318,128.154844 318,128.154844 L317.616362,65.1099829 C317.616362,65.1099829 240.097777,103.184862 168.116234,78.5948361 L111.330706,63 L102,104.93472 Z" id="Fill-3" fill="#F9E300"></path>
                <path d="M110,66.3811296 C110,66.3811296 150.051181,111 196.056024,111 C242.060867,111 307.628872,73.5183333 318.866745,73.5462037 L319,25 C319,25 294.979127,27.7942037 276.253569,38.1420741 C257.528012,48.4907407 222.627787,81.1388889 176.622944,65.212963 C130.618101,49.287037 118.720297,30.4211852 118.720297,30.4211852 L110,66.3811296 Z" id="Fill-5" fill="#D52B1E"></path>
                <path d="M119.708333,30.7847814 C119.708333,30.7847814 155.794083,68.8109329 199.862208,70.4542288 C243.930333,72.0967331 275.407,25 320,25 L318.951042,185.458818 C318.951042,185.458818 227.14225,210.650481 179.926458,174.505887 C132.710667,138.361294 92,146.901524 92,146.901524" id="Stroke-7" stroke="#000000" stroke-width="4" stroke-linecap="round" stroke-linejoin="round"></path>
                <g id="Group-12" transform="translate(31.000000, 3.000000)">
                    <path d="M0.395833333,385.604508 L94.6041667,0.395491803" id="Fill-9" fill="#FFFFFF"></path>
                    <path d="M0.395833333,385.604508 L94.6041667,0.395491803" id="Stroke-11" stroke="#000000" stroke-width="4" stroke-linecap="round" stroke-linejoin="round"></path>
                </g>
                <path d="M133,8.5 C133,13.1944286 129.194429,17 124.5,17 C119.805571,17 116,13.1944286 116,8.5 C116,3.80557143 119.805571,0 124.5,0 C129.194429,0 133,3.80557143 133,8.5" id="Fill-13" fill="#FFFFFF"></path>
                <path d="M133,8.5 C133,13.1944286 129.194429,17 124.5,17 C119.805571,17 116,13.1944286 116,8.5 C116,3.80557143 119.805571,0 124.5,0 C129.194429,0 133,3.80557143 133,8.5 Z" id="Stroke-15" stroke="#000000" stroke-width="4" stroke-linecap="round" stroke-linejoin="round"></path>
                <path d="M4.8,392.646885 C4.8,392.646885 35.4912,378.572165 38.9456,365 C38.9456,365 48.8,380.756774 47.2,395.024907 C45.6,409.293039 48,441 48,441 L0,435.451282 L4.8,392.646885 Z" id="Fill-17" fill="#476735"></path>
            </g>
        </g>
    </g>
</svg>