<?xml version="1.0" encoding="UTF-8"?>
<svg width="415px" height="443px" viewBox="0 0 415 443" version="1.1" xmlns="http://www.w3.org/2000/svg" xmlns:xlink="http://www.w3.org/1999/xlink">
    <!-- Generator: Sketch 55.2 (78181) - https://sketchapp.com -->
    <title>Group 30</title>
    <desc>Created with Sketch.</desc>
    <defs>
        <polygon id="path-1" points="0 0.0005 47.9998 0.0005 47.9998 76 0 76"></polygon>
    </defs>
    <g id="Page-1" stroke="none" stroke-width="1" fill="none" fill-rule="evenodd">
        <g id="Djibouti" transform="translate(-1110.000000, -642.000000)">
            <g id="Group-30" transform="translate(1110.000000, 644.000000)">
                <path d="M119.7085,30.7847 C119.7085,30.7847 155.7935,68.8107 199.8625,70.4537 C243.9305,72.0967 275.4075,24.9997 320.0005,24.9997 L318.9515,185.4587 C318.9515,185.4587 227.1425,210.6507 179.9265,174.5057 C132.7105,138.3617 92.0005,146.9017 92.0005,146.9017" id="Fill-1" fill="#3A75C4"></path>
                <path d="M97.564,116.6899 C97.564,116.6899 197,153.9999 242,161.9999 C287,169.9999 318,147.9999 318,147.9999 L319.031,102.1249 C319.031,102.1249 187,116.9999 149,100.9999 C111,84.9999 105.78,84.9449 105.78,84.9449" id="Fill-3" fill="#CE1126"></path>
                <path d="M102,89.9346 C102,89.9346 183.937,129.4326 235.352,131.8126 C286.767,134.1916 318,113.1546 318,113.1546 L317.616,50.1096 C317.616,50.1096 240.098,88.1846 168.116,63.5946 L111.331,47.9996 L102,89.9346 Z" id="Fill-5" fill="#FFFFFF"></path>
                <path d="M114,52 C114,52 150.051,96 196.056,96 C242.061,96 307.629,58.519 318.867,58.546 L319,25 C319,25 294.979,27.794 276.253,38.142 C257.528,48.491 222.628,81.139 176.623,65.213 C130.618,49.287 118.72,30.421 118.72,30.421 L114,52 Z" id="Fill-7" fill="#FFC61E"></path>
                <path d="M119.7085,30.7847 C119.7085,30.7847 155.7935,68.8107 199.8625,70.4537 C243.9305,72.0967 275.4075,24.9997 320.0005,24.9997 L318.9515,185.4587 C318.9515,185.4587 227.1425,210.6507 179.9265,174.5057 C132.7105,138.3617 92.0005,146.9017 92.0005,146.9017" id="Stroke-9" stroke="#000000" stroke-width="4" stroke-linecap="round" stroke-linejoin="round"></path>
                <g id="Group-14" transform="translate(31.000000, 3.000000)">
                    <path d="M0.396,385.6045 L94.604,0.3955" id="Fill-11" fill="#FFFFFF"></path>
                    <path d="M0.396,385.6045 L94.604,0.3955" id="Stroke-13" stroke="#000000" stroke-width="4" stroke-linecap="round" stroke-linejoin="round"></path>
                </g>
                <path d="M133,8.5 C133,13.194 129.194,17 124.5,17 C119.806,17 116,13.194 116,8.5 C116,3.806 119.806,0 124.5,0 C129.194,0 133,3.806 133,8.5" id="Fill-15" fill="#FFFFFF"></path>
                <path d="M133,8.5 C133,13.194 129.194,17 124.5,17 C119.806,17 116,13.194 116,8.5 C116,3.806 119.806,0 124.5,0 C129.194,0 133,3.806 133,8.5 Z" id="Stroke-17" stroke="#000000" stroke-width="4" stroke-linecap="round" stroke-linejoin="round"></path>
                <g id="Group-21" transform="translate(0.000000, 365.000000)">
                    <mask id="mask-2" fill="white">
                        <use xlink:href="#path-1"></use>
                    </mask>
                    <g id="Clip-20"></g>
                    <path d="M4.7998,27.6465 C4.7998,27.6465 35.4908,13.5725 38.9458,0.0005 C38.9458,0.0005 48.7998,15.7565 47.1998,30.0255 C45.5998,44.2925 47.9998,76.0005 47.9998,76.0005 L-0.0002,70.4515 L4.7998,27.6465 Z" id="Fill-19" fill="#476735" mask="url(#mask-2)"></path>
                </g>
                <polygon id="Fill-22" fill="#3D8E33" points="119.7085 30.7847 156.7885 112.9687 92.0005 146.9017"></polygon>
                <path d="M137.8926,91.0596 C136.2566,88.9546 134.0136,87.5966 131.6276,87.1586 C130.4456,86.9036 129.2246,86.8836 128.0366,87.0236 C126.8466,87.1546 125.6766,87.4336 124.5706,87.8716 C120.1136,89.6136 116.7736,93.4696 115.6426,98.0536 C114.9976,100.3466 114.8196,102.7286 115.2876,104.9256 C115.7426,107.1276 116.9396,109.0666 118.6876,110.4446 C120.4506,111.8076 122.7876,112.5556 125.2536,112.6356 C127.7306,112.7606 130.2776,112.2776 132.8466,111.6416 L132.8646,111.6376 C133.0746,111.5846 133.2876,111.7136 133.3396,111.9236 C133.3826,112.0976 133.3016,112.2736 133.1536,112.3586 C130.8016,113.7056 128.1796,114.7116 125.3356,115.0546 C122.5166,115.3716 119.3906,114.9176 116.7756,113.2316 C114.1236,111.6126 112.2556,108.8056 111.4866,105.8476 C110.6876,102.8686 110.9356,99.7776 111.7186,96.9776 C112.4226,94.1236 113.9666,91.4196 116.0266,89.2756 C118.1096,87.1436 120.7406,85.5556 123.5956,84.8216 C126.4296,84.0556 129.5016,84.0996 132.2306,85.1486 C134.9446,86.2116 137.1896,88.3636 138.1076,90.9406 C138.1316,91.0046 138.0986,91.0766 138.0336,91.1006 C137.9826,91.1196 137.9246,91.1006 137.8926,91.0596" id="Fill-24" fill="#FFFFFF"></path>
                <path d="M415,195 L394,207" id="Stroke-26" stroke="#FFFFFF" stroke-linecap="round" stroke-linejoin="round"></path>
                <path d="M400.5,187.5 L408.5,216.5" id="Stroke-28" stroke="#FFFFFF" stroke-linecap="round" stroke-linejoin="round"></path>
            </g>
        </g>
    </g>
</svg>