<?xml version="1.0" encoding="UTF-8"?>
<svg width="322px" height="443px" viewBox="0 0 322 443" version="1.1" xmlns="http://www.w3.org/2000/svg" xmlns:xlink="http://www.w3.org/1999/xlink">
    <!-- Generator: Sketch 55.2 (78181) - https://sketchapp.com -->
    <title>Group 21</title>
    <desc>Created with Sketch.</desc>
    <g id="Page-1" stroke="none" stroke-width="1" fill="none" fill-rule="evenodd">
        <g id="Djibouti" transform="translate(-1455.000000, -186.000000)">
            <g id="Group-21" transform="translate(1455.000000, 188.000000)">
                <path d="M119.207921,30.3301115 C119.207921,30.3301115 155.312475,68.3645801 199.403564,70.0082354 C243.494653,71.6510989 274.987723,24.5440648 319.60396,24.5440648 L318.554455,185.037979 C318.554455,185.037979 226.697822,210.235151 179.457426,174.082652 C132.21703,137.930153 91.4851485,146.472252 91.4851485,146.472252" id="Fill-1" fill="#12AD2B"></path>
                <path d="M105.640475,84.9266241 C105.640475,84.9266241 142.574337,120.740258 225.742653,119.156775 C308.91097,117.573292 318.424634,113.320057 318.424634,113.320057 L319.208,24.9395397 C319.208,24.9395397 288.992554,26.3037102 258.358099,48.7804589 C227.722851,71.2564158 195.82503,77.8429131 164.249584,61.486326 C132.673347,45.1289472 119.208,30.3297156 119.208,30.3297156 L105.640475,84.9266241 Z" id="Fill-5" fill="#6AB2E7"></path>
                <path d="M119.207921,30.3301115 C119.207921,30.3301115 155.312475,68.3645801 199.403564,70.0082354 C243.494653,71.6510989 274.987723,24.5440648 319.60396,24.5440648 L318.554455,185.037979 C318.554455,185.037979 226.697822,210.235151 179.457426,174.082652 C132.21703,137.930153 91.4851485,146.472252 91.4851485,146.472252" id="Stroke-7" stroke="#000000" stroke-width="4" stroke-linecap="round" stroke-linejoin="round"></path>
                <polygon id="Fill-9" fill="#FFFFFF" points="119.610535 32.725842 164.32499 112.707566 91.4853861 146.472172"></polygon>
                <g id="Group-14" transform="translate(30.891089, 2.771095)">
                    <path d="M0.396039604,385.973968 L94.6534653,0.395870736" id="Fill-11" fill="#FFFFFF"></path>
                    <path d="M0.396039604,385.973968 L94.6534653,0.395870736" id="Stroke-13" stroke="#000000" stroke-width="4" stroke-linecap="round" stroke-linejoin="round"></path>
                </g>
                <path d="M132.673267,8.31328546 C132.673267,12.9045943 128.949703,16.6265709 124.356436,16.6265709 C119.763168,16.6265709 116.039604,12.9045943 116.039604,8.31328546 C116.039604,3.72197666 119.763168,0 124.356436,0 C128.949703,0 132.673267,3.72197666 132.673267,8.31328546" id="Fill-15" fill="#FFFFFF"></path>
                <path d="M132.673267,8.31328546 C132.673267,12.9045943 128.949703,16.6265709 124.356436,16.6265709 C119.763168,16.6265709 116.039604,12.9045943 116.039604,8.31328546 C116.039604,3.72197666 119.763168,0 124.356436,0 C128.949703,0 132.673267,3.72197666 132.673267,8.31328546 Z" id="Stroke-17" stroke="#000000" stroke-width="4" stroke-linecap="round" stroke-linejoin="round"></path>
                <polygon id="Fill-19" fill="#D7141A" points="129.754059 109.536324 125.62495 104.040055 118.753663 104.32429 122.707723 98.7005504 120.313267 92.2565666 126.885941 94.2770908 132.277624 90.0103961 132.386139 96.8835038 138.112079 100.689405 131.605941 102.916574"></polygon>
                <path d="M4.75247525,392.307899 C4.75247525,392.307899 35.139802,378.25053 38.56,364.69354 C38.56,364.69354 48.3168317,380.431777 46.7326733,394.683124 C45.1485149,408.93447 47.5247525,440.604129 47.5247525,440.604129 L0,435.061939 L4.75247525,392.307899 Z" id="Fill-3" fill="#476735"></path>
            </g>
        </g>
    </g>
</svg>