<?xml version="1.0" encoding="UTF-8"?>
<svg width="322px" height="443px" viewBox="0 0 322 443" version="1.1" xmlns="http://www.w3.org/2000/svg" xmlns:xlink="http://www.w3.org/1999/xlink">
    <!-- Generator: Sketch 55.2 (78181) - https://sketchapp.com -->
    <title>Group 26</title>
    <desc>Created with Sketch.</desc>
    <defs>
        <polygon id="path-1" points="0 0.0005 47.9998 0.0005 47.9998 76 0 76"></polygon>
    </defs>
    <g id="Page-1" stroke="none" stroke-width="1" fill="none" fill-rule="evenodd">
        <g id="Djibouti" transform="translate(-1527.000000, -459.000000)">
            <g id="Group-26" transform="translate(1527.000000, 461.000000)">
                <path d="M119.7085,30.7847 C119.7085,30.7847 155.7935,68.8107 199.8625,70.4537 C243.9305,72.0967 275.4075,24.9997 320.0005,24.9997 L318.9515,185.4587 C318.9515,185.4587 227.1425,210.6507 179.9265,174.5057 C132.7105,138.3617 92.0005,146.9017 92.0005,146.9017" id="Fill-1" fill="#008000"></path>
                <path d="M102,104.9346 C102,104.9346 183.937,144.4326 235.352,146.8126 C286.767,149.1926 318,128.1556 318,128.1556 L317.616,65.1096 C317.616,65.1096 240.098,103.1846 168.116,78.5946 L111.331,62.9996 L102,104.9346 Z" id="Fill-3" fill="#DB161B"></path>
                <path d="M110,66.3813 C110,66.3813 150.051,111.0003 196.056,111.0003 C242.061,111.0003 307.629,73.5183 318.867,73.5463 L319,25.0003 C319,25.0003 294.979,27.7943 276.253,38.1423 C257.528,48.4903 222.628,81.1383 176.623,65.2133 C130.618,49.2873 118.72,30.4213 118.72,30.4213 L110,66.3813 Z" id="Fill-5" fill="#FFFFFF"></path>
                <path d="M150.6562,55.2319 L127.3512,149.0729 C127.3512,149.0729 105.0002,142.8029 92.0002,146.9009 L119.7082,30.7849 C119.7082,30.7849 139.3122,50.4639 150.6562,55.2319" id="Fill-7" fill="#DB161B"></path>
                <path d="M119.7085,30.7847 C119.7085,30.7847 155.7935,68.8107 199.8625,70.4537 C243.9305,72.0967 275.4075,24.9997 320.0005,24.9997 L318.9515,185.4587 C318.9515,185.4587 227.1425,210.6507 179.9265,174.5057 C132.7105,138.3617 92.0005,146.9017 92.0005,146.9017" id="Stroke-9" stroke="#000000" stroke-width="4" stroke-linecap="round" stroke-linejoin="round"></path>
                <g id="Group-14" transform="translate(31.000000, 3.000000)">
                    <path d="M0.396,385.6045 L94.604,0.3955" id="Fill-11" fill="#FFFFFF"></path>
                    <path d="M0.396,385.6045 L94.604,0.3955" id="Stroke-13" stroke="#000000" stroke-width="4" stroke-linecap="round" stroke-linejoin="round"></path>
                </g>
                <path d="M133,8.5 C133,13.194 129.194,17 124.5,17 C119.806,17 116,13.194 116,8.5 C116,3.806 119.806,0 124.5,0 C129.194,0 133,3.806 133,8.5" id="Fill-15" fill="#FFFFFF"></path>
                <path d="M133,8.5 C133,13.194 129.194,17 124.5,17 C119.806,17 116,13.194 116,8.5 C116,3.806 119.806,0 124.5,0 C129.194,0 133,3.806 133,8.5 Z" id="Stroke-17" stroke="#000000" stroke-width="4" stroke-linecap="round" stroke-linejoin="round"></path>
                <g id="Group-21" transform="translate(0.000000, 365.000000)">
                    <mask id="mask-2" fill="white">
                        <use xlink:href="#path-1"></use>
                    </mask>
                    <g id="Clip-20"></g>
                    <path d="M4.7998,27.6465 C4.7998,27.6465 35.4908,13.5725 38.9458,0.0005 C38.9458,0.0005 48.7998,15.7565 47.1998,30.0255 C45.5998,44.2925 47.9998,76.0005 47.9998,76.0005 L-0.0002,70.4515 L4.7998,27.6465 Z" id="Fill-19" fill="#476735" mask="url(#mask-2)"></path>
                </g>
                <path d="M142,60 L121,72" id="Stroke-22" stroke="#FFFFFF" stroke-linecap="round" stroke-linejoin="round"></path>
                <path d="M127.5,52.5 L135.5,81.5" id="Stroke-24" stroke="#FFFFFF" stroke-linecap="round" stroke-linejoin="round"></path>
            </g>
        </g>
    </g>
</svg>