<?xml version="1.0" encoding="UTF-8"?>
<svg width="322px" height="443px" viewBox="0 0 322 443" version="1.1" xmlns="http://www.w3.org/2000/svg" xmlns:xlink="http://www.w3.org/1999/xlink">
    <!-- Generator: Sketch 55.2 (78181) - https://sketchapp.com -->
    <title>Group 73</title>
    <desc>Created with Sketch.</desc>
    <g id="Page-1" stroke="none" stroke-width="1" fill="none" fill-rule="evenodd">
        <g id="Djibouti" transform="translate(-710.000000, -554.000000)">
            <g id="Group-73" transform="translate(710.000000, 556.000000)">
                <path d="M119.207921,30.3301115 C119.207921,30.3301115 155.312475,68.3645801 199.403564,70.0082354 C243.494653,71.6510989 274.987723,24.5440648 319.60396,24.5440648 L318.554455,185.037979 C318.554455,185.037979 226.697822,210.235151 179.457426,174.082652 C132.21703,137.930153 91.4851485,146.472252 91.4851485,146.472252" id="Fill-3" fill="#3E5EB9"></path>
                <g id="Group-8" transform="translate(97.425743, 66.110413)">
                    <path d="M13.0093465,3.26165817 C13.0093465,3.26165817 80.7923168,37.2115325 126.732911,34.0445666 C172.673505,30.8776007 221.782416,-0.000316696589 221.782416,-0.000316696589 L221.782416,40.3784984 L220.990337,90.2582111 C220.990337,90.2582111 160.792317,108.468265 99.8022178,76.7986061 C55.2913267,53.686089 0.731326733,52.7051214 0.731326733,52.7051214" id="Fill-5" fill="#B10C0C"></path>
                    <path d="M13.0093465,3.26165817 C13.0093465,3.26165817 80.7923168,37.2115325 126.732911,34.0445666 C172.673505,30.8776007 221.782416,-0.000316696589 221.782416,-0.000316696589 L221.782416,40.3784984 L220.990337,90.2582111 C220.990337,90.2582111 160.792317,108.468265 99.8022178,76.7986061 C55.2913267,53.686089 0.731326733,52.7051214 0.731326733,52.7051214" id="Stroke-7" stroke="#FFD900" stroke-width="4"></path>
                </g>
                <path d="M119.207921,30.3301115 C119.207921,30.3301115 155.312475,68.3645801 199.403564,70.0082354 C243.494653,71.6510989 274.987723,24.5440648 319.60396,24.5440648 L318.554455,185.037979 C318.554455,185.037979 226.697822,210.235151 179.457426,174.082652 C132.21703,137.930153 91.4851485,146.472252 91.4851485,146.472252" id="Stroke-9" stroke="#000000" stroke-width="4" stroke-linecap="round" stroke-linejoin="round"></path>
                <g id="Group-14" transform="translate(30.891089, 2.771095)">
                    <path d="M0.396039604,385.973968 L94.6534653,0.395870736" id="Fill-11" fill="#FFFFFF"></path>
                    <path d="M0.396039604,385.973968 L94.6534653,0.395870736" id="Stroke-13" stroke="#000000" stroke-width="4" stroke-linecap="round" stroke-linejoin="round"></path>
                </g>
                <path d="M132.673267,8.31328546 C132.673267,12.9045943 128.949703,16.6265709 124.356436,16.6265709 C119.763168,16.6265709 116.039604,12.9045943 116.039604,8.31328546 C116.039604,3.72197666 119.763168,0 124.356436,0 C128.949703,0 132.673267,3.72197666 132.673267,8.31328546" id="Fill-15" fill="#FFFFFF"></path>
                <path d="M132.673267,8.31328546 C132.673267,12.9045943 128.949703,16.6265709 124.356436,16.6265709 C119.763168,16.6265709 116.039604,12.9045943 116.039604,8.31328546 C116.039604,3.72197666 119.763168,0 124.356436,0 C128.949703,0 132.673267,3.72197666 132.673267,8.31328546 Z" id="Stroke-17" stroke="#000000" stroke-width="4" stroke-linecap="round" stroke-linejoin="round"></path>
                <path d="M207.962535,123.866211 C207.962535,123.866211 222.715802,103.77973 238.231842,123.866211 C238.231842,123.866211 225.514218,145.732527 207.962535,123.866211" id="Fill-19" fill="#000000"></path>
                <path d="M226.003644,125.059603 C225.749386,124.65344 225.414337,124.304282 225.037307,124.008171 C222.936713,122.361348 214.931168,115.684593 222.20404,114.998945 C226.98899,114.548444 232.559683,116.522255 238.231762,123.866449 C238.231762,123.866449 231.735921,135.034754 221.622653,133.425936 C217.735921,132.807585 229.575129,130.774393 226.003644,125.059603" id="Fill-21" fill="#FFFFFF"></path>
                <path d="M226.003644,125.059603 C225.749386,124.65344 225.414337,124.304282 225.037307,124.008171 C222.936713,122.361348 214.931168,115.684593 222.20404,114.998945 C226.98899,114.548444 232.559683,116.522255 238.231762,123.866449 C238.231762,123.866449 231.735921,135.034754 221.622653,133.425936 C217.735921,132.807585 229.575129,130.774393 226.003644,125.059603 Z" id="Stroke-23" stroke="#000000" stroke-width="0.75"></path>
                <path d="M227.672079,122.495707 L227.672079,123.556641 C227.672079,123.939052 228.266139,123.939052 228.266139,123.556641 L228.266139,122.495707 C228.266139,122.114088 227.672079,122.113296 227.672079,122.495707" id="Fill-25" fill="#000000"></path>
                <path d="M227.764515,124.755733 L227.764515,125.724033 C227.764515,126.106444 228.358574,126.107236 228.358574,125.724033 L228.358574,124.755733 C228.358574,124.374114 227.764515,124.373322 227.764515,124.755733" id="Fill-27" fill="#000000"></path>
                <path d="M229.198257,122.495707 L229.198257,123.556641 C229.198257,123.939052 229.792317,123.939052 229.792317,123.556641 L229.792317,122.495707 C229.792317,122.114088 229.198257,122.113296 229.198257,122.495707" id="Fill-29" fill="#000000"></path>
                <path d="M229.290693,124.755733 L229.290693,125.724033 C229.290693,126.106444 229.884752,126.107236 229.884752,125.724033 L229.884752,124.755733 C229.884752,124.374114 229.290693,124.373322 229.290693,124.755733" id="Fill-31" fill="#000000"></path>
                <path d="M230.724436,122.495707 L230.724436,123.556641 C230.724436,123.939052 231.318495,123.939052 231.318495,123.556641 L231.318495,122.495707 C231.318495,122.114088 230.724436,122.113296 230.724436,122.495707" id="Fill-33" fill="#000000"></path>
                <path d="M230.816792,124.755733 L230.816792,125.724033 C230.816792,126.106444 231.410851,126.107236 231.410851,125.724033 L231.410851,124.755733 C231.410851,124.374114 230.816792,124.373322 230.816792,124.755733" id="Fill-35" fill="#000000"></path>
                <path d="M216.734257,122.495707 L216.734257,123.556641 C216.734257,123.939052 217.328317,123.939052 217.328317,123.556641 L217.328317,122.495707 C217.328317,122.114088 216.734257,122.113296 216.734257,122.495707" id="Fill-37" fill="#FFFFFF"></path>
                <path d="M216.826693,124.755733 L216.826693,125.724033 C216.826693,126.106444 217.420752,126.107236 217.420752,125.724033 L217.420752,124.755733 C217.420752,124.374114 216.826693,124.373322 216.826693,124.755733" id="Fill-39" fill="#FFFFFF"></path>
                <path d="M218.260356,122.495707 L218.260356,123.556641 C218.260356,123.939052 218.854416,123.939052 218.854416,123.556641 L218.854416,122.495707 C218.854416,122.114088 218.260356,122.113296 218.260356,122.495707" id="Fill-41" fill="#FFFFFF"></path>
                <path d="M218.352792,124.755733 L218.352792,125.724033 C218.352792,126.106444 218.946851,126.107236 218.946851,125.724033 L218.946851,124.755733 C218.946851,124.374114 218.352792,124.373322 218.352792,124.755733" id="Fill-43" fill="#FFFFFF"></path>
                <path d="M219.786931,122.495707 L219.786931,123.556641 C219.786931,123.939052 220.38099,123.939052 220.38099,123.556641 L220.38099,122.495707 C220.38099,122.114088 219.786931,122.113296 219.786931,122.495707" id="Fill-45" fill="#FFFFFF"></path>
                <path d="M219.87897,124.755733 L219.87897,125.724033 C219.87897,126.106444 220.47303,126.107236 220.47303,125.724033 L220.47303,124.755733 C220.47303,124.374114 219.87897,124.373322 219.87897,124.755733" id="Fill-47" fill="#FFFFFF"></path>
                <path d="M4.75247525,392.307899 C4.75247525,392.307899 35.139802,378.249738 38.56,364.69354 C38.56,364.69354 48.3168317,380.431777 46.7326733,394.683124 C45.1485149,408.93447 47.5247525,440.604129 47.5247525,440.604129 L0,435.061939 L4.75247525,392.307899 Z" id="Fill-1" fill="#476735"></path>
                <g id="Group-52" transform="translate(236.831683, 119.948833)">
                    <path d="M0.00158415842,0.739169838 L10.6851485,0.739169838" id="Fill-49" fill="#B10C0C"></path>
                    <path d="M0.00158415842,0.739169838 L10.6851485,0.739169838" id="Stroke-51" stroke="#FFD900" stroke-linecap="round" stroke-linejoin="round"></path>
                </g>
                <g id="Group-56" transform="translate(240.792079, 123.907540)">
                    <path d="M0.492752475,1.10257917 L11.1763168,1.10257917" id="Fill-53" fill="#B10C0C"></path>
                    <path d="M0.492752475,1.10257917 L11.1763168,1.10257917" id="Stroke-55" stroke="#FFD900" stroke-linecap="round" stroke-linejoin="round"></path>
                </g>
                <g id="Group-60" transform="translate(243.168317, 122.324057)">
                    <path d="M0.40570297,0.906148115 L11.0892673,0.906148115" id="Fill-57" fill="#B10C0C"></path>
                    <path d="M0.40570297,0.906148115 L11.0892673,0.906148115" id="Stroke-59" stroke="#FFD900" stroke-linecap="round" stroke-linejoin="round"></path>
                </g>
                <g id="Group-64" transform="translate(194.851485, 119.157092)">
                    <path d="M0.138455446,0.513761041 L10.8220198,0.513761041" id="Fill-61" fill="#B10C0C"></path>
                    <path d="M0.138455446,0.513761041 L10.8220198,0.513761041" id="Stroke-63" stroke="#FFD900" stroke-linecap="round" stroke-linejoin="round"></path>
                </g>
                <g id="Group-68" transform="translate(194.851485, 121.532316)">
                    <path d="M0.138455446,0.426827828 L10.8220198,0.426827828" id="Fill-65" fill="#B10C0C"></path>
                    <path d="M0.138455446,0.426827828 L10.8220198,0.426827828" id="Stroke-67" stroke="#FFD900" stroke-linecap="round" stroke-linejoin="round"></path>
                </g>
                <g id="Group-72" transform="translate(191.683168, 123.907540)">
                    <path d="M0,1.10257917 L10.6835644,1.10257917" id="Fill-69" fill="#B10C0C"></path>
                    <path d="M0,1.10257917 L10.6835644,1.10257917" id="Stroke-71" stroke="#FFD900" stroke-linecap="round" stroke-linejoin="round"></path>
                </g>
            </g>
        </g>
    </g>
</svg>