<?xml version="1.0" encoding="UTF-8"?>
<svg width="299px" height="170px" viewBox="0 0 299 170" version="1.1" xmlns="http://www.w3.org/2000/svg" xmlns:xlink="http://www.w3.org/1999/xlink">
    <!-- Generator: Sketch 55.2 (78181) - https://sketchapp.com -->
    <title>Group 22</title>
    <desc>Created with Sketch.</desc>
    <g id="Page-1" stroke="none" stroke-width="1" fill="none" fill-rule="evenodd">
        <g id="Group-22" fill="#52AA5E">
            <path d="M70.5389949,127.101021 C72.5153933,117.350131 73.5022766,103.484667 73.5022766,85.5015434 C73.5022766,67.5894139 72.5153933,53.7393838 70.5389949,43.9545396 C68.5625965,34.1696955 65.8888006,29.2741868 62.5255022,29.2741868 C59.1569405,29.2741868 56.4726178,34.1511753 54.4672709,43.898979 C52.4619239,53.6498694 48.011738,67.3239576 48.011738,85.3070811 C48.011738,103.293291 52.4619239,117.350131 54.4672709,127.101021 C56.4726178,136.851911 59.1569405,141.725813 62.5255022,141.725813 C65.8888006,141.725813 68.5625965,136.851911 70.5389949,127.101021 M72.6364509,150.201896 C69.56527,162.62587 68.3362713,170 62.5255022,170 C56.7121015,170 52.2698107,163.789556 49.1986297,151.365582 C45.0774049,136.129623 43.0167925,114.173915 43.0167925,85.5015434 C43.0167925,56.2488722 42.5404568,31.9966576 46.6616816,17.3348249 C49.7328626,4.91393764 56.7121015,1 62.5255022,1 C68.3362713,1 72.7785621,7.21044364 75.8497431,19.6344176 C79.9499144,34.2962503 82,56.2488722 82,85.5015434 C82,114.173915 76.7392539,134.965937 72.6364509,150.201896" id="Fill-41"></path>
            <path d="M13.1634709,96.0072574 L15.8284043,134.286722 L24.8137797,139.873588 C26.5557361,139.873588 27.9129022,138.936776 28.8826779,137.053875 C30.6428339,133.581794 31.5242119,126.925168 31.5242119,117.087089 C31.5242119,108.770171 30.6688333,103.053449 28.9632759,99.9431073 C28.0090998,98.2055208 26.6727332,97.3027178 24.9489763,97.2285148 L13.1634709,96.0072574 Z M10.9977251,28.6927834 L9.83035424,62.606639 L24.8241794,70.7535083 C26.5687358,70.7535083 27.9857004,69.4333136 29.0724732,66.7929241 C30.161846,64.1525345 30.7052324,59.4684711 30.7052324,52.7407339 C30.7052324,45.2895175 29.9850504,40.3673862 28.5472863,37.9805236 C27.3045174,36.31714 25.7237569,35.4854482 23.799805,35.4854482 L10.9977251,28.6927834 Z M36.8748781,24.7445662 C38.1020474,31.5434147 38.718232,39.6810086 38.718232,49.1573481 C38.718232,58.9243159 38.0968476,66.7743733 36.8566786,72.7044285 C36.1650959,76.0342874 28.6772831,79.6424075 27.3279168,82.3910097 C29.3766656,85.3591291 37.3896653,89.4897619 38.4348391,95.9268708 C39.4774131,102.367071 40,110.180027 40,119.365739 C40,128.84517 39.4020149,137.344503 38.2112447,144.866831 C37.4520637,149.856982 38.7962301,151.44307 37.6574586,154.840949 C36.3756906,158.745881 32.5693858,164.039027 30.8248294,165.485985 C29.0828729,166.932943 24.2027949,170 22.161846,170 L1.83295418,169.743381 L0,3 L18.9951251,4.02647462 C23.8934027,4.31710297 34.8313292,13.6759544 36.8748781,24.7445662 L36.8748781,24.7445662 Z" id="Fill-43"></path>
            <polygon id="Fill-45" points="151 169.486059 134.630835 170 130 2.77091204 150.006757 2"></polygon>
            <polygon id="Fill-47" points="238 169.486059 221.630835 170 217 2.77091204 237.006757 2"></polygon>
            <polygon id="Fill-49" points="202.202526 0 210 1.96272727 190.553101 170 173.61179 170 160 1.96272727 171.012632 6.18181818 186.607579 129.818182"></polygon>
            <polygon id="Fill-51" points="91 2 106.61559 2.75261324 101.419054 148.319783 130 139.796361 130 170 91 170"></polygon>
            <path d="M259.69072,117.454545 L285.896907,111.272727 L278.823857,32.6863636 L259.69072,117.454545 Z M259.69072,6.18181818 L291.138144,0 L299,170 L285.603397,170 L288.517525,136 L267.552576,132.909091 L259.69072,170 L243,170 L259.69072,6.18181818 Z" id="Fill-53"></path>
        </g>
    </g>
</svg>