<?xml version="1.0" encoding="UTF-8"?>
<svg width="300px" height="170px" viewBox="0 0 300 170" version="1.1" xmlns="http://www.w3.org/2000/svg" xmlns:xlink="http://www.w3.org/1999/xlink">
    <!-- Generator: Sketch 55.2 (78181) - https://sketchapp.com -->
    <title>Group 21</title>
    <desc>Created with Sketch.</desc>
    <g id="Page-1" stroke="none" stroke-width="1" fill="none" fill-rule="evenodd">
        <g id="Group-21" fill="#52AA5E">
            <path d="M9.55117731,20.6278556 C12.1626093,8.56410645 16.7759399,1.70099507 19.6712232,2.01000504 C23.5435526,2.4209883 25.8830849,10.9465733 26.6898202,27.5805798 C27.1260548,36.9157709 27.1021515,46.2386017 26.6181104,55.5459819 L21.7537954,55.0268451 C21.8733118,47.8516337 21.798614,42.4161484 21.5326902,38.7265694 C21.0546248,32.1662877 19.9640383,28.794989 18.2639183,28.6126731 C16.5279435,28.4272671 14.8905697,32.8491998 13.3428331,41.8722908 C11.7950966,50.898472 10.5222476,63.7625569 9.51831032,80.476906 C8.51736099,97.1881651 8.29625576,109.761781 8.85200673,118.194663 C9.41074561,126.633725 10.5013322,130.932053 12.1267544,131.105099 C13.7940073,131.284325 15.2789978,127.851224 16.5847138,120.799617 C17.2988239,117.011154 18.045801,111.29138 18.8256451,103.643383 L23.6570931,104.15634 C22.2677157,120.354642 27.0423934,134.723606 24.7207885,144.720078 C22.3991836,154.713461 13.2382563,169.28019 10.5610904,168.995901 C7.2504878,168.64363 3.54249342,157.318415 2.47282219,143.369705 C1.40315097,129.356103 -0.993151611,105.383109 0.45000817,81.3266834 C2.00969638,55.3142244 6.55131723,34.4838625 9.55117731,20.6278556" id="Fill-1"></path>
            <path d="M53.8265218,126.609575 C55.7536026,116.972994 56.7171431,103.269286 56.7171431,85.5015488 C56.7171431,67.8019587 55.7536026,54.1168364 53.8265218,44.4461818 C51.8994409,34.7755272 49.2960863,29.9402 46.0134656,29.9402 C42.7338373,29.9402 40.1155209,34.7569417 38.1615088,44.3904253 C36.2074967,54.0239089 35.2289944,67.7276167 35.2289944,85.5015488 C35.2289944,103.269286 36.2074967,116.972994 38.1615088,126.609575 C40.1155209,136.243058 42.7338373,141.062898 46.0134656,141.062898 C49.2960863,141.062898 51.8994409,136.243058 53.8265218,126.609575 M54.3471927,154.128503 C51.3518387,166.401128 51.6780061,169 46.0134656,169 C40.3489251,169 36.0189779,162.863688 33.0236239,150.591063 C29.010867,135.527517 27,113.832044 27,85.5015488 C27,56.5949029 32.1019765,34.7631369 36.1177258,20.272643 C39.1100874,8.00001855 40.3489251,2 46.0134656,2 C51.6780061,2 56.0079534,8.13631221 59.0033073,20.4120342 C63.0011024,34.9025281 65,56.5949029 65,85.5015488 C65,113.832044 58.3449878,139.064957 54.3471927,154.128503" id="Fill-3"></path>
            <path d="M152.826522,126.609575 C154.753603,116.972994 155.717143,103.269286 155.717143,85.5015488 C155.717143,67.8019587 154.753603,54.1168364 152.826522,44.4461818 C150.899441,34.7755272 148.296086,29.9402 145.013466,29.9402 C141.733837,29.9402 139.115521,34.7569417 137.161509,44.3904253 C135.207497,54.0239089 134.228994,67.7276167 134.228994,85.5015488 C134.228994,103.269286 135.207497,116.972994 137.161509,126.609575 C139.115521,136.243058 141.733837,141.062898 145.013466,141.062898 C148.296086,141.062898 150.899441,136.243058 152.826522,126.609575 M153.347193,154.128503 C150.351839,166.401128 150.678006,169 145.013466,169 C139.348925,169 135.018978,162.863688 132.023624,150.591063 C128.010867,135.527517 126,113.832044 126,85.5015488 C126,56.5949029 131.101977,34.7631369 135.117726,20.272643 C138.110087,8.00001855 139.348925,2 145.013466,2 C150.678006,2 155.007953,8.13631221 158.003307,20.4120342 C162.001102,34.9025281 164,56.5949029 164,85.5015488 C164,113.832044 157.344988,139.064957 153.347193,154.128503" id="Fill-5"></path>
            <path d="M107.710936,0 L126,0 L118.88792,169 L105.678485,169 L115.591565,55.9172501 C115.591565,52.9654338 115.603574,48.8242183 115.630593,43.496701 C115.65461,38.1753785 115.669621,34.0713317 115.669621,31.1845607 L98.5664046,150.071827 L88.4041458,152.775851 L81.5832738,31.1845607 C81.5832738,34.0713317 81.5982845,38.1753785 81.6253038,43.496701 C81.6493209,48.8242183 81.6643317,52.9654338 81.6643317,55.9172501 L75.1947105,169 L63,169 L69.0973553,2.70402478 L80.2743388,1.35356109 L98.7675482,126.20331 L107.710936,0 Z" id="Fill-7"></path>
            <path d="M176.821918,34.4867067 L176.821918,78.2198799 L185.357686,78.2198799 C187.053272,78.2198799 188.325723,77.3374411 189.175038,75.5694781 C190.672755,72.4809423 191.424658,66.3686651 191.424658,57.241903 C191.424658,47.3715473 190.700152,40.7470855 189.248097,37.359261 C188.432268,35.4462818 187.208524,34.4867067 185.576865,34.4867067 L176.821918,34.4867067 Z M193.217656,10.4140231 C194.614916,12.9934596 195.799087,16.7823926 196.770167,21.7900785 C197.57382,25.9122402 198.210046,30.4756212 198.678843,35.4833072 C199.147641,40.4909931 199.38204,46.1959908 199.38204,52.6013857 C199.38204,60.3273533 198.928463,67.9329885 198.018265,75.4059492 C197.108067,82.8789099 189.732116,87.7940323 187.637747,90.8856536 C189.388128,93.903224 196.502283,98.562254 197.232877,104.11915 C197.960426,109.682217 198.325723,118.161035 198.325723,129.574115 L198.325723,140.505866 C198.325723,147.941801 198.395738,152.986513 198.535769,155.64 C198.675799,158.435418 198.940639,160.761848 199.327245,162.59152 C199.73516,164.519926 200,166.494614 200,168.493986 L200,169 L187.637747,169 C188.666667,164.961145 188.255708,165.760277 188.666667,163.612804 C189.695586,158.225607 190.410959,151.036508 190.392694,146.250975 L190.340944,131.116841 C190.310502,120.737386 189.890411,113.816721 189.086758,110.357931 C188.283105,106.899141 186.776256,105.168203 184.569254,105.168203 L175.272451,100.31479 L176.821918,169 L168.060883,169 L169.089802,88.1920554 C170.100457,85.3565266 169.031963,77.3497829 168.91933,74.5173395 L166,2 L188.666667,2 C191.260274,2.21906697 191.817352,7.83767206 193.217656,10.4140231 L193.217656,10.4140231 Z" id="Fill-9"></path>
            <polygon id="Fill-11" points="226.769858 29.7034621 212.273934 22.9884354 210.572094 65.195847 225.286047 65.3166431 225.146751 94.4532925 207.150245 93.2917911 210.232937 137.466012 227 137.602295 223.547869 169 204.073608 169 201 0.00619467405 226.909154 0"></polygon>
            <polygon id="Fill-13" points="234.058405 0 248.913248 0 277.681768 124.12615 283.190888 0 300 0 300 170 281.961977 170 243.188319 36.4307793 246.812109 170 230 170"></polygon>
        </g>
    </g>
</svg>