<?xml version="1.0" encoding="UTF-8"?>
<svg width="300px" height="167px" viewBox="0 0 300 167" version="1.1" xmlns="http://www.w3.org/2000/svg" xmlns:xlink="http://www.w3.org/1999/xlink">
    <!-- Generator: Sketch 55.2 (78181) - https://sketchapp.com -->
    <title>Group 27</title>
    <desc>Created with Sketch.</desc>
    <defs>
        <polygon id="path-1" points="0 0.740714286 44.1408 0.740714286 44.1408 164.508393 0 164.508393"></polygon>
    </defs>
    <g id="Page-1" stroke="none" stroke-width="1" fill="none" fill-rule="evenodd">
        <g id="Group-27">
            <g id="Group-17" transform="translate(0.000000, 0.588625)">
                <mask id="mask-2" fill="white">
                    <use xlink:href="#path-1"></use>
                </mask>
                <g id="Clip-16"></g>
                <path d="M14.2938,32.23625 L11.9178,136.801429 L21.1458,133.610893 C25.7238,133.610893 28.0218,127.217679 31.1808,112.330536 C33.0198,103.669643 34.3098,93.4575 34.2949295,81.8853571 C34.2768,65.9023214 33.5568,53.6319643 32.0748,45.0742857 C30.5958,36.5166071 27.6498,32.23625 23.2398,32.23625 L14.2938,32.23625 Z M32.0538,8.36946429 C35.3058,11.9941071 39.5058,16.7510714 41.5218,26.4107143 C43.1358,34.2246429 42.6708,44.56125 43.2588,53.6501786 C43.8468,62.7451786 44.1408,71.4091071 44.1408,79.6480357 C44.1408,100.530714 42.9018,118.216786 40.4268,132.70625 C37.0698,152.241071 31.6008,164.332321 24.5928,164.332321 L-0.0012,164.508393 L4.8918,4.96035714 L26.2398,0.740714286 C29.1138,0.883392857 30.1428,6.23839286 32.0538,8.36946429 L32.0538,8.36946429 Z" id="Fill-15" fill="#52AA5E" mask="url(#mask-2)"></path>
            </g>
            <path d="M53.1651,103.47475 L52.8591,108.793321 C52.9401,120.94225 55.6761,127.347607 56.3361,132.283679 C56.9931,137.222786 58.4091,139.687786 60.5751,139.687786 C62.7231,139.687786 64.1391,136.992071 64.8291,131.591536 C65.2401,128.394929 65.4501,122.997429 65.4501,115.396 L56.2071,0.797785714 L70.1961,0.132964286 L75.1371,114.861714 C75.1371,128.215821 74.4681,138.801357 73.1361,146.61225 C70.8801,159.823679 66.8121,166.429393 60.9291,166.429393 C55.0431,166.429393 47.5701,162.580107 45.5631,151.888321 C43.5531,141.196536 46.0761,125.1285 46.0761,106.659214 L45.2571,93.7665357 L53.1651,103.47475 Z" id="Fill-18" fill="#52AA5E"></path>
            <polygon id="Fill-20" fill="#52AA5E" points="97.3755 164.92125 78.5205 165.185357 76.3905 3.41060513e-13 83.8935 1.19607143"></polygon>
            <path d="M112.3374,92.2465536 L115.4154,129.834768 L125.7804,135.320304 C127.7904,135.320304 129.3564,134.397446 130.4754,132.548696 C132.5064,129.139589 133.5234,122.606732 133.5234,112.944054 C133.5234,104.777982 132.5364,99.1649464 130.5684,96.1110179 C129.4704,94.4049464 127.9254,93.5185179 125.9364,93.4486964 L112.3374,92.2465536 Z M109.8384,26.1560179 L108.4914,59.4517321 L125.7924,67.4508393 C127.8054,67.4508393 129.4404,66.1545893 130.6974,63.5620893 C131.9514,60.9695893 132.5784,56.3704821 132.5784,49.7647679 C132.5784,42.4486964 131.7474,37.618875 130.0884,35.2753036 C128.6574,33.6420893 126.8304,32.8254821 124.6104,32.8254821 L109.8384,26.1560179 Z M139.6974,22.276375 C141.1164,28.9519107 141.8244,36.9449464 141.8244,46.2494107 C141.8244,55.8392321 141.1074,63.543875 139.6794,69.3694107 C138.8784,72.6358393 130.2384,76.1785179 128.6814,78.8772679 C131.0484,81.7915536 140.2944,85.8503036 141.4974,92.1706607 C142.7004,98.4910179 143.3034,106.162268 143.3034,115.184411 C143.3034,124.488875 142.6164,132.834054 141.2394,140.219946 C140.3634,145.122625 141.9144,146.676911 140.6034,150.016196 C139.1214,153.850304 134.7294,159.044411 132.7164,160.465125 C130.7064,161.885839 125.0754,164.900304 122.7204,164.900304 L99.2634,164.648339 L97.1484,0.926196429 L119.0664,1.93708929 C124.7184,2.22244643 137.3394,11.4085179 139.6974,22.276375 L139.6974,22.276375 Z" id="Fill-22" fill="#52AA5E"></path>
            <path d="M176.2806,124.772107 C178.5336,115.182286 179.6586,101.545857 179.6586,83.8597857 C179.6586,66.2435357 178.5336,52.6222857 176.2806,42.9990714 C174.0276,33.3758571 170.9796,28.5612143 167.1456,28.5612143 C163.3056,28.5612143 160.2456,33.3576429 157.9596,42.9444286 C155.6736,52.53425 150.6006,65.9824643 150.6006,83.6685357 C150.6006,101.357643 155.6736,115.182286 157.9596,124.772107 C160.2456,134.361929 163.3056,139.155321 167.1456,139.155321 C170.9796,139.155321 174.0276,134.361929 176.2806,124.772107 M178.6716,147.491393 C175.1706,159.710143 173.7696,166.962464 167.1456,166.962464 C160.5186,166.962464 155.4546,160.854607 151.9536,148.635857 C147.2556,133.651571 144.9066,112.058536 144.9066,83.8597857 C144.9066,55.0903214 144.3636,31.2387143 149.0616,16.8190714 C152.5626,4.60335714 160.5186,0.754071429 167.1456,0.754071429 C173.7696,0.754071429 178.8336,6.86192857 182.3346,19.0806786 C187.0086,33.5003214 189.3456,55.0903214 189.3456,83.8597857 C189.3456,112.058536 183.3486,132.507107 178.6716,147.491393" id="Fill-24" fill="#52AA5E"></path>
            <path d="M190.9791,0.67575 L196.5561,0.423785714 L202.5441,98.2162857 C202.5441,109.005214 202.9191,116.882893 203.6721,121.849321 C204.8421,130.652893 208.3941,145.980214 212.3211,145.980214 C216.2301,145.980214 217.7631,130.652893 218.9331,121.849321 C219.6861,116.882893 223.4751,104.80075 223.4751,94.0148571 L214.4361,0.67575 L229.9071,1.76557143 L229.9071,98.2952143 C229.9071,114.985571 232.6941,126.837 231.1671,136.141464 C228.3171,153.187 220.9161,164.646821 212.9001,164.646821 C204.8811,164.646821 195.1911,156.720571 192.3261,139.672 C190.7961,130.370571 192.7011,114.985571 192.7011,98.2952143 L190.9791,0.67575 Z" id="Fill-26" fill="#52AA5E"></path>
            <polygon id="Fill-28" fill="#52AA5E" points="271.7445 0.503625 270.1965 19.0913036 258.2745 18.8393393 250.1985 165.403625 245.0085 165.151661 248.1255 28.3107679 233.0865 31.2007679 234.1935 0.503625"></polygon>
            <polygon id="Fill-30" fill="#52AA5E" points="300 164.393643 280.965 164.900607 275.58 0.9265 298.845 0.170607143"></polygon>
        </g>
    </g>
</svg>