<?xml version="1.0" encoding="UTF-8"?>
<svg width="300px" height="166px" viewBox="0 0 300 166" version="1.1" xmlns="http://www.w3.org/2000/svg" xmlns:xlink="http://www.w3.org/1999/xlink">
    <!-- Generator: Sketch 55.2 (78181) - https://sketchapp.com -->
    <title>Group 23</title>
    <desc>Created with Sketch.</desc>
    <defs>
        <polygon id="path-1" points="0.0176863636 0.3149 69.6497318 0.3149 69.6497318 164 0.0176863636 164"></polygon>
    </defs>
    <g id="Page-1" stroke="none" stroke-width="1" fill="none" fill-rule="evenodd">
        <g id="Group-23">
            <polygon id="Fill-32" fill="#52AA5E" points="226.522223 1 243.074762 1 275.131112 121.475381 281.269847 1 300 1 300 166 279.900488 166 236.695555 36.3592858 240.733493 166 222 166"></polygon>
            <path d="M34.6002756,123.370982 C37.0834428,113.908752 38.3233731,100.453755 38.3233731,83 C38.3233731,65.621128 37.0834428,52.1811075 34.6002756,42.6859293 C32.1171085,33.190751 28.7577239,28.4401666 24.5320413,28.4401666 C20.2997457,28.4401666 16.9271352,33.1697838 14.4075967,42.6320134 C11.8880583,52.0942431 6.29679907,65.3635301 6.29679907,82.8142899 C6.29679907,100.26505 11.8880583,113.908752 14.4075967,123.370982 C16.9271352,132.830216 20.2997457,137.562829 24.5320413,137.562829 C28.7577239,137.562829 32.1171085,132.830216 34.6002756,123.370982 M37.2355409,145.787989 C33.3768777,157.84417 31.8327511,165 24.5320413,165 C17.228025,165 11.6466852,158.973407 7.78802196,146.917227 C2.61007286,132.132306 0.0210983103,110.826563 0.0210983103,83 C0.0210983103,54.6163063 -0.577374734,31.0820427 4.60057437,16.8542519 C8.45923759,4.80106663 17.228025,1 24.5320413,1 C31.8327511,1 37.4140909,7.02958796 41.2727541,19.0827732 C46.4242514,33.3135593 49,54.6163063 49,83 C49,110.826563 42.3903447,131.000073 37.2355409,145.787989" id="Fill-34" fill="#52AA5E"></path>
            <path d="M163.161449,114 L196.38715,108 L187.419533,31.725 L163.161449,114 Z M163.161449,6 L203.03229,0 L213,165 L196.015022,165 L199.70972,132 L173.129159,129 L163.161449,165 L142,165 L163.161449,6 Z" id="Fill-36" fill="#52AA5E"></path>
            <g id="Group-40" transform="translate(67.000000, 2.000000)">
                <mask id="mask-2" fill="white">
                    <use xlink:href="#path-1"></use>
                </mask>
                <g id="Clip-39"></g>
                <path d="M49.4353682,0.3149 L69.6497318,0.3149 L61.7889591,164.0009 L47.1889591,164.0009 L58.1455955,54.4739 C58.1455955,51.6149 58.1588682,47.6039 58.1887318,42.4439 C58.2152773,37.2899 58.2318682,33.3149 58.2318682,30.5189 L39.3281864,145.6679 L28.0961409,148.2869 L20.5572318,30.5189 C20.5572318,33.3149 20.5738227,37.2899 20.6036864,42.4439 C20.6302318,47.6039 20.6468227,51.6149 20.6468227,54.4739 L13.4961409,164.0009 L0.0176863636,164.0009 L6.75691364,2.9339 L19.1105045,1.6259 L39.5505045,122.5499 L49.4353682,0.3149 Z" id="Fill-38" fill="#52AA5E" mask="url(#mask-2)"></path>
            </g>
        </g>
    </g>
</svg>