<?xml version="1.0" encoding="UTF-8"?>
<svg width="300px" height="168px" viewBox="0 0 300 168" version="1.1" xmlns="http://www.w3.org/2000/svg" xmlns:xlink="http://www.w3.org/1999/xlink">
    <!-- Generator: Sketch 55.2 (78181) - https://sketchapp.com -->
    <title>Group 26</title>
    <desc>Created with Sketch.</desc>
    <defs>
        <polygon id="path-1" points="0.99936 0.793150909 24.5408 0.793150909 24.5408 164.59586 0.99936 164.59586"></polygon>
    </defs>
    <g id="Page-1" stroke="none" stroke-width="1" fill="none" fill-rule="evenodd">
        <g id="Group-26" transform="translate(150.000000, 84.000000) rotate(-360.000000) translate(-150.000000, -84.000000) ">
            <path d="M2.61118406,109.143722 C2.71666478,116.157706 3.96071686,127.899162 4.27250548,131.372841 C4.84179116,137.6933 4.57964053,147.778172 5.96174827,147.778172 C6.7900822,147.778172 8.69959356,140.016152 9.21613888,138.350482 C10.1964891,135.158454 10.6866643,129.219584 10.6866643,120.536903 C10.6866643,115.46721 10.4462303,111.545315 9.96536226,108.762133 C9.48604544,106.057691 8.72441255,103.659127 7.68356599,101.575525 L5.90280316,97.9261946 C4.15151288,94.3192627 3.82421239,80.4184925 3.16961142,76.1816346 C2.06051262,69.097996 0.633420458,67.998654 0.633420458,52.9228296 C0.633420458,39.1704554 -0.744033718,34.2400733 0.563617037,25.3908248 C1.68047177,17.8256562 4.93641357,5 7.03827214,5 C8.7911136,5 10.2880092,9.28834218 11.5274077,17.868055 C12.765255,26.4477679 13.4152025,38.8978913 13.4741476,55.2184252 L11.2668083,54.0282285 C11.206312,44.7913333 9.66908552,39.4157631 8.84540515,35.5271816 C8.2962849,32.9559934 7.4291713,24.8517535 6.61324686,24.8517535 C5.70580239,24.8517535 5.16598927,33.3375832 4.62462496,36.6689225 C4.08326065,40.0032902 3.81335408,44.6611082 3.81335408,50.633291 C3.81335408,56.1209153 4.08015827,60.2184626 4.61376665,62.9229044 C4.956579,64.7339415 5.68408577,66.8508562 6.79783813,69.2797054 L9.68459739,75.6395349 C10.9488149,78.4166604 11.8981414,82.1295895 12.5294746,86.784379 C13.5098249,94.0042997 14,104.461677 14,118.144395 C14,132.172362 13.4183048,143.819936 12.2580168,153.093173 C11.0961777,162.363381 9.45502169,167 7.33454888,167 C5.16909164,167 2.51966401,154.410566 1.28026549,145.279668 C0.0393157854,136.14877 0.365065084,131.61512 0.365065084,115.642862 L2.61118406,109.143722 Z" id="Fill-55" fill="#52AA5E"></path>
            <polygon id="Fill-57" fill="#52AA5E" points="231.145065 0 238.996575 0 254.203725 121.937327 257.11398 0 266 0 266 167 256.466024 167 235.97067 35.7865818 237.88602 167 229 167"></polygon>
            <g id="Group-61" transform="translate(275.000000, 3.000000)">
                <mask id="mask-2" fill="white">
                    <use xlink:href="#path-1"></use>
                </mask>
                <g id="Clip-60"></g>
                <path d="M8.62336,33.8561145 L7.35616,138.44366 L12.27776,135.252442 C14.71936,135.252442 15.94496,128.85786 17.62976,113.967533 C18.61056,105.304787 19.29856,95.09046 19.290629,83.5158418 C19.28096,67.5293873 18.89696,55.2594418 18.10656,46.6968964 C17.31776,38.1373873 15.74656,33.8561145 13.39456,33.8561145 L8.62336,33.8561145 Z M18.09536,8.42353273 C19.82976,12.0459145 22.06976,16.8069327 23.14496,26.4686418 C24.00576,34.2842418 23.75776,44.6200236 24.07136,53.7139327 C24.38496,62.8108782 24.54176,71.47666 24.54176,79.7173509 C24.54176,100.604496 23.88096,118.294351 22.56096,132.786915 C20.77056,152.325915 17.85376,164.419751 14.11616,164.419751 L0.99936,164.59586 L3.60896,5.01369636 L14.99456,0.793150909 C16.52736,0.93586 17.07616,6.29200545 18.09536,8.42353273 L18.09536,8.42353273 Z" id="Fill-59" fill="#52AA5E" mask="url(#mask-2)"></path>
            </g>
            <polygon id="Fill-62" fill="#52AA5E" points="147 166.492205 136.866708 167 134 2.7571318 146.385135 2"></polygon>
            <g id="Fill-74" transform="translate(19.000000, 5.000000)" fill="#52AA5E">
                <polygon id="Fill-64" points="9.36886364 1.07814815 7.77795455 86.1151852 9.36886364 134.707778 11.2731818 111.538222 14.3675 18.2222222 20.4081818 1.60582658e-12 23.6631818 92.7814815 25.2779545 122.55963 25.3431818 93.7897778 28.9943182 1.60582658e-12 34.8234091 7.15222222 27.1154545 162.041111 21.6347727 162.041111 18.3256818 67.2764444 17.36 54.1685926 16.3943182 67.2764444 13.0852273 162.041111 7.76681818 162.041111 -2.21689334e-12 1.60582658e-12"></polygon>
            </g>
            <polygon id="Fill-66" fill="#52AA5E" points="95.5714286 124.607678 116 24.6829201 94 33.766989 95.1612857 2 127 9.54280523 126.943429 29.6488778 105 148.831862 127 130.663724 127 167 94.6207143 167"></polygon>
            <path d="M66.1336516,115.381818 L82.0445505,109.309091 L77.7501989,32.1095455 L66.1336516,115.381818 Z M66.1336516,6.07272727 L85.2267303,0 L90,167 L81.8663484,167 L83.6356404,133.6 L70.9069212,130.563636 L66.1336516,167 L56,167 L66.1336516,6.07272727 Z" id="Fill-68" fill="#52AA5E"></path>
            <path d="M196.133652,115.381818 L212.044551,109.309091 L207.750199,32.1095455 L196.133652,115.381818 Z M196.133652,6.07272727 L215.22673,0 L220,167 L211.866348,167 L213.63564,133.6 L200.906921,130.563636 L196.133652,167 L186,167 L196.133652,6.07272727 Z" id="Fill-70" fill="#52AA5E"></path>
            <polygon id="Fill-72" fill="#52AA5E" points="155 2 164.609594 2.73917372 161.411726 145.70693 179 137.335712 179 167 155 167"></polygon>
        </g>
    </g>
</svg>